<svg width="24" height="24" viewBox="0 0 24 24" fill="none" xmlns="http://www.w3.org/2000/svg">
<rect width="24" height="24" fill="black" fill-opacity="0"/>
<rect width="24" height="24" fill="white"/>
<rect width="24" height="24" fill="black" fill-opacity="0" transform="translate(17 4) scale(-1 1)"/>
<rect width="24" height="24" fill="black" fill-opacity="0" transform="translate(17 4) scale(-1 1)"/>
<path d="M12 4C14.7586 4 17 6.21843 17 8.9488C17 11.6792 14.7586 13.8976 12 13.8976C9.24138 13.8976 7 11.6792 7 8.9488C7 6.20136 9.24138 4 12 4ZM12 6.04778L11.1552 7.78839L9.24138 8.06143L10.6207 9.40955L10.2931 11.3208L12 10.4164L13.7069 11.3208L13.3793 9.40955L14.7586 8.06143L12.8448 7.78839L12 6.04778ZM14.4138 13.6587V19L13.2069 18.1468V14.0853C13.6379 14 14.0345 13.8464 14.4138 13.6587ZM9.58621 13.6587C9.96552 13.8464 10.3621 14 10.7931 14.0853V18.1468L9.58621 19V13.6587ZM12.5172 14.2048V17.6689L12 17.2935L11.4828 17.6689V14.2048C11.6552 14.2218 11.8276 14.2389 12 14.2389C12.1724 14.2389 12.3448 14.2218 12.5172 14.2048Z" fill="#4C84FF"/>
</svg>
