<svg width="24" height="24" viewBox="0 0 24 24" fill="none" xmlns="http://www.w3.org/2000/svg">
<rect width="23.9304" height="24" fill="black" fill-opacity="0"/>
<rect width="13.9594" height="14" fill="black" fill-opacity="0" transform="translate(5.98242 5)"/>
<path d="M19.9418 7.72746V8.69948C19.9418 9.20725 19.5202 9.62798 19.0112 9.62798H18.5895V6.79896H19.0112C19.5202 6.79896 19.9418 7.20518 19.9418 7.72746ZM19.0112 14.5751H18.5895V17.4187H19.0112C19.5202 17.4187 19.9418 16.9979 19.9418 16.4902V15.5181C19.9418 14.9959 19.5202 14.5751 19.0112 14.5751ZM19.0112 10.687H18.5895V13.5306H19.0112C19.5202 13.5306 19.9418 13.1098 19.9418 12.6021V11.6301C19.9418 11.1078 19.5202 10.687 19.0112 10.687ZM17.688 5.9285V6.1171V18.0715C17.688 18.5793 17.2663 19 16.7573 19H6.91305C6.40411 19 5.98242 18.5793 5.98242 18.0715V5.9285C5.98242 5.42073 6.40411 5 6.91305 5H16.7573C17.2663 5 17.688 5.42073 17.688 5.9285ZM10.0685 9.71503C10.0685 10.687 10.8682 11.485 11.8425 11.485C12.8167 11.485 13.6165 10.687 13.6165 9.71503C13.6165 8.74301 12.8167 7.94508 11.8425 7.94508C10.8537 7.94508 10.0685 8.74301 10.0685 9.71503ZM14.7943 15.0684C14.7943 13.4435 13.4711 12.1088 11.8279 12.1088C10.1848 12.1088 8.86155 13.429 8.86155 15.0684V15.8083C8.86155 15.9534 8.97788 16.0549 9.10875 16.0549H14.5326C14.678 16.0549 14.7798 15.9389 14.7798 15.8083V15.0684H14.7943Z" fill="#4C84FF"/>
</svg>
