<svg width="24" height="24" viewBox="0 0 24 24" fill="none" xmlns="http://www.w3.org/2000/svg">
<rect width="24" height="24" fill="black" fill-opacity="0"/>
<rect width="16" height="16" fill="black" fill-opacity="0" transform="translate(4 4)"/>
<path fill-rule="evenodd" clip-rule="evenodd" d="M12 20C16.4183 20 20 16.4183 20 12C20 7.58172 16.4183 4 12 4C7.58172 4 4 7.58172 4 12C4 16.4183 7.58172 20 12 20Z" fill="#4C84FF"/>
<rect width="8" height="8" fill="black" fill-opacity="0" transform="translate(8 16) scale(1 -1)"/>
<path d="M16 11.4851C15.7654 9.35122 13.7654 7.79637 11.5419 8.02156C10.5698 8.11806 9.6648 8.55771 9.00559 9.24399L8 8.30036V11.4851H11.3296L9.86592 10.0911C10.905 8.97591 12.6927 8.8794 13.8547 9.87665C14.3464 10.2948 14.6592 10.8632 14.7598 11.4851H16Z" fill="white"/>
<path d="M16 15.7101V12.5146H12.6704L14.1341 13.9194C13.095 15.0346 11.3073 15.1311 10.1453 14.1231C9.65363 13.7049 9.34078 13.1366 9.24022 12.5146H8C8.23464 14.6593 10.2346 16.2034 12.4581 15.9782C13.4302 15.8817 14.3352 15.442 15.0056 14.7558L16 15.7101Z" fill="white"/>
</svg>
