<svg width="24" height="24" viewBox="0 0 36 36" fill="none" xmlns="http://www.w3.org/2000/svg">
<rect width="24" height="24" fill="black" fill-opacity="0"/>
<circle cx="18" cy="18" r="12" fill="#A4AFBF"/>
<rect width="24" height="24" fill="black" fill-opacity="0" transform="translate(13.5 10.5)"/>
<rect width="24" height="24" fill="black" fill-opacity="0" transform="translate(13.5 10.5)"/>
<path d="M19.4799 22.0347H20.0121C19.9397 20.7826 20.3711 19.5739 21.2435 18.5963C22.0528 17.6889 22.5 16.5104 22.5 15.285C22.5 13.9993 22.0213 12.7907 21.1521 11.88C20.2798 10.9693 19.1303 10.4805 17.9147 10.5006C15.5213 10.5475 13.5026 12.7137 13.5026 15.2348C13.5026 15.2381 13.5026 15.2415 13.5026 15.2482C13.4617 16.4669 13.9026 17.6889 14.7119 18.5996C15.5811 19.5705 16.0094 20.7792 15.9464 22.0381H16.5196" fill="white"/>
<path d="M16.4253 25.5002H19.5745C19.9209 25.5002 20.2043 25.1989 20.2043 24.8306H15.7954C15.7954 25.1989 16.0788 25.5002 16.4253 25.5002Z" fill="white"/>
<path d="M20.2043 22.7043H15.7954V24.1608H20.2043V22.7043Z" fill="white"/>
</svg>
