<svg width="24" height="24" viewBox="0 0 24 24" fill="none" xmlns="http://www.w3.org/2000/svg">
<rect width="24" height="24" fill="black" fill-opacity="0"/>
<rect width="16" height="14" fill="black" fill-opacity="0" transform="translate(20 4) scale(-1 1)"/>
<rect width="16" height="14.0001" fill="black" fill-opacity="0" transform="translate(20 4) scale(-1 1)"/>
<path d="M11.6875 5.83818L15.3745 9.38086L11.0264 13.5587L7.33937 10.016L11.6875 5.83818Z" fill="#A4AFBF"/>
<path d="M9.55922 15.1671C9.8766 15.472 10.3923 15.472 10.7097 15.1671C11.0271 14.8621 11.0271 14.3666 10.7097 14.0616L6.81666 10.321C6.49928 10.016 5.98355 10.016 5.66617 10.321C5.34879 10.6259 5.34879 11.1215 5.66617 11.4264L9.55922 15.1671Z" fill="#A4AFBF"/>
<path d="M15.9 9.07479C16.2174 9.37974 16.7332 9.37974 17.0505 9.07479C17.3679 8.76984 17.3679 8.27429 17.0505 7.96934L13.1558 4.22871C12.8384 3.92376 12.3226 3.92376 12.0053 4.22871C11.6879 4.53366 11.6879 5.02921 12.0053 5.33416L15.9 9.07479Z" fill="#A4AFBF"/>
<path d="M13.6283 11.0586L12.7727 11.8806L18.9668 17.8305C19.2031 18.0576 19.5878 18.0559 19.8241 17.8288C19.9414 17.7161 20 17.5686 20 17.4195C20 17.2703 19.9396 17.1228 19.8223 17.0101L13.6283 11.0586Z" fill="#A4AFBF"/>
<path d="M14.9546 17.9945C14.9546 17.1492 14.2353 16.4531 13.3487 16.4531H5.60573C4.71914 16.4531 3.99987 17.1492 3.99987 17.9945H14.9546Z" fill="#A4AFBF"/>
</svg>
