<svg width="24" height="24" viewBox="0 0 24 24" fill="none" xmlns="http://www.w3.org/2000/svg">
<rect width="24" height="24" fill="black" fill-opacity="0"/>
<rect width="14" height="12" fill="black" fill-opacity="0" transform="translate(5 5)"/>
<path d="M16.063 5V7.49852C15.4515 7.86692 14.84 8.23531 14.2285 8.60371V6.51006C14.2285 6.23467 13.9397 6.05412 13.7172 6.19455C13.233 6.50094 12.7506 6.80733 12.2665 7.11554C11.4987 7.60248 10.7309 8.08941 9.96481 8.57635C9.95972 8.58 9.95462 8.58365 9.94783 8.58729V6.51006C9.94783 6.24379 9.65566 6.04136 9.43653 6.19455C8.94392 6.53741 8.4598 6.89669 7.9502 7.20855C7.37435 7.56235 6.79851 7.91434 6.22096 8.26632C5.87104 8.48152 5.52111 8.6949 5.17119 8.90827C5.06757 8.9721 5.00302 9.09612 5.00302 9.22378V15.7181C5.00302 16.019 4.99623 16.3199 5.00302 16.6209C5.00302 16.6263 5.00302 16.63 5.00302 16.6336C5.00302 16.8306 5.1593 16.9984 5.34275 16.9984H18.1167C18.29 16.9984 18.4632 17.002 18.6382 16.9984C18.645 16.9984 18.6535 16.9984 18.6603 16.9984C18.8437 16.9984 19 16.8306 19 16.6336V5H16.063ZM7.62066 14.0731V12.1582C7.62066 12.0597 7.6988 11.9849 7.79053 11.9849H10.5593C10.6511 11.9849 10.7292 12.0597 10.7292 12.1582V14.0731C10.7292 14.1296 10.7088 14.1771 10.6783 14.2062C10.6511 14.2391 10.6103 14.2646 10.5593 14.2646H7.79053C7.6988 14.2646 7.62066 14.1716 7.62066 14.0731ZM16.3858 14.0731C16.3858 14.1296 16.3654 14.1771 16.3348 14.2062C16.3076 14.2391 16.2669 14.2646 16.2159 14.2646H13.4471C13.3553 14.2646 13.2772 14.1716 13.2772 14.0731V12.1582C13.2772 12.0597 13.3553 11.9849 13.4471 11.9849H16.2159C16.3076 11.9849 16.3858 12.0597 16.3858 12.1582V14.0731Z" fill="#A1AEC6"/>
</svg>
