<svg width="24" height="24" viewBox="0 0 24 24" fill="none" xmlns="http://www.w3.org/2000/svg">
<rect width="24" height="24" fill="black" fill-opacity="0"/>
<rect width="14" height="14" fill="black" fill-opacity="0" transform="translate(5 5)"/>
<path d="M12 5C8.13542 5 5 8.13542 5 12C5 15.8646 8.13542 19 12 19C15.8646 19 19 15.8646 19 12C19 8.13542 15.8646 5 12 5ZM11.8687 14.9167C12.6708 14.9167 13.4438 14.5813 13.9979 13.9979C14.2167 13.7646 14.5958 13.75 14.8292 13.9833C15.0625 14.2021 15.0771 14.5813 14.8438 14.8146C14.0708 15.6167 12.9771 16.0833 11.8687 16.0833C9.60833 16.0833 7.77083 14.2458 7.77083 12C7.77083 9.75417 9.59375 7.91667 11.825 7.91667C13.1667 7.91667 14.3771 8.57292 15.15 9.69583C15.325 9.95833 15.2667 10.3229 14.9896 10.5125C14.7271 10.6875 14.3625 10.6292 14.1729 10.3521C13.6188 9.53542 12.7583 9.06875 11.8104 9.06875C10.2208 9.06875 8.92292 10.3813 8.92292 11.9854C8.92292 13.6042 10.25 14.9167 11.8687 14.9167Z" fill="#A4AFBF"/>
</svg>
