<?xml version="1.0" encoding="iso-8859-1"?>
<!-- Generator: Adobe Illustrator 19.0.0, SVG Export Plug-In . SVG Version: 6.00 Build 0)  -->
<svg version="1.1" id="Layer_1" xmlns="http://www.w3.org/2000/svg" xmlns:xlink="http://www.w3.org/1999/xlink" x="0px" y="0px"
	 viewBox="0 0 480 480" style="enable-background:new 0 0 480 480;" xml:space="preserve">
<path style="fill:#D84444;" d="M125.44,205.336c-0.28,0.064-0.552,0.152-0.832,0.216c-2.832,0.624-5.728,1.088-8.648,1.456
	c-0.544,0.072-1.072,0.184-1.616,0.248c-3.4,0.36-6.848,0.568-10.344,0.568s-6.944-0.208-10.344-0.576
	c-0.544-0.064-1.072-0.176-1.616-0.248c-2.92-0.368-5.816-0.832-8.648-1.456c-0.28-0.064-0.552-0.152-0.832-0.216
	c-3.112-0.712-6.16-1.568-9.152-2.576c-0.024-0.008-0.056-0.024-0.08-0.032c-3.192-1.08-6.296-2.328-9.32-3.72v40.824h40h40v-40.816
	c-3.032,1.392-6.136,2.64-9.32,3.72c-0.024,0.008-0.056,0.024-0.08,0.032C131.608,203.768,128.552,204.624,125.44,205.336z"/>
<path style="fill:#12ADDD;" d="M432,167.824c0-2.776,0.464-5.432,1.128-8H254.872c0.664,2.568,1.128,5.224,1.128,8
	c0,17.672-14.328,32-32,32c-2.776,0-5.432-0.464-8-1.128v74.264c2.568-0.672,5.224-1.136,8-1.136c17.672,0,32,14.328,32,32
	c0,2.776-0.464,5.432-1.128,8H304h64h65.128c-0.664-2.568-1.128-5.224-1.128-8c0-17.672,14.328-32,32-32
	c2.776,0,5.432,0.464,8,1.128v-74.264c-2.568,0.672-5.224,1.136-8,1.136C446.328,199.824,432,185.496,432,167.824z"/>
<g>
	<path style="fill:#EDEDED;" d="M432,303.824c0,2.776,0.464,5.432,1.128,8H472v-38.872c-2.568-0.664-5.224-1.128-8-1.128
		C446.328,271.824,432,286.152,432,303.824z"/>
	<path style="fill:#EDEDED;" d="M224,271.824c-2.776,0-5.432,0.464-8,1.128v38.872h38.872c0.664-2.568,1.128-5.224,1.128-8
		C256,286.152,241.672,271.824,224,271.824z"/>
	<path style="fill:#EDEDED;" d="M280,63.824h-16v32h-16v32h-16v32h-16v38.872c2.568,0.664,5.224,1.128,8,1.128
		c17.672,0,32-14.328,32-32c0-2.776-0.464-5.432-1.128-8h178.264c-0.672,2.568-1.136,5.224-1.136,8c0,17.672,14.328,32,32,32
		c2.776,0,5.432-0.464,8-1.128v-38.872v-32v-32v-32v-32H280V63.824z"/>
</g>
<g>
	<path style="fill:#2D2D2D;" d="M336,215.824c4.416,0,8,3.584,8,8h16c0-10.416-6.712-19.216-16-22.528v-9.472h-16v9.472
		c-9.288,3.312-16,12.112-16,22.528c0,2.512,1.184,4.888,3.2,6.4l28.024,21.024c-1.28,2.704-4.04,4.576-7.224,4.576
		c-4.416,0-8-3.584-8-8h-16c0,10.416,6.712,19.216,16,22.528v9.472h16v-9.472c9.288-3.312,16-12.112,16-22.528
		c0-2.512-1.184-4.888-3.2-6.4L328.776,220.4C330.056,217.696,332.816,215.824,336,215.824z"/>
	<path style="fill:#2D2D2D;" d="M472,23.824H280c-4.424,0-8,3.576-8,8v24h-8c-4.424,0-8,3.576-8,8v24h-8c-4.424,0-8,3.576-8,8v24h-8
		c-4.424,0-8,3.576-8,8v24h-8c-4.424,0-8,3.576-8,8v38.864v74.264v38.872c0,4.424,3.576,8,8,8h38.864H296v8
		c0,13.232,10.768,24,24,24h8v8h-8c-4.424,0-8,3.576-8,8v16h-16c-13.232,0-24,10.768-24,24v8h-16v-8c0-13.232-10.768-24-24-24h-48
		c-13.232,0-24,10.768-24,24v8h-16v-16c0-13.232-10.768-24-24-24h-8v-16h8c13.232,0,24-10.768,24-24v-48c0-13.232-10.768-24-24-24
		h-8v-16h32c4.424,0,8-3.576,8-8v-35.832c33.232-17.376,56-52.144,56-92.168c0-53.712-41.88-99.232-95.344-103.648l-1.312,15.952
		C156.568,27.856,192,66.376,192,111.824c0,35.536-21.216,66.152-51.608,80.024c-23.176,10.56-49.6,10.56-72.776,0
		C37.216,177.976,16,147.36,16,111.824c0-45.448,35.432-83.968,80.656-87.696L95.344,8.176C41.88,12.592,0,58.112,0,111.824
		c0,40.024,22.768,74.792,56,92.168v35.832c0,4.424,3.576,8,8,8h32v16h-8c-13.232,0-24,10.768-24,24v48c0,13.232,10.768,24,24,24h8
		v16h-8c-13.232,0-24,10.768-24,24v48c0,13.232,10.768,24,24,24h32c13.232,0,24-10.768,24-24v-16h16v8c0,13.232,10.768,24,24,24h48
		c13.232,0,24-10.768,24-24v-8h16v8c0,13.232,10.768,24,24,24h48c13.232,0,24-10.768,24-24v-32c0-13.232-10.768-24-24-24h-16v-8h8
		c4.424,0,8-3.576,8-8v-16h8c13.232,0,24-10.768,24-24v-8h57.136H472c4.424,0,8-3.576,8-8V272.96v-74.264v-38.872v-32v-32v-32v-32
		C480,27.4,476.424,23.824,472,23.824z M72,210.736c1.624,0.528,3.28,0.944,4.936,1.392c1.384,0.376,2.76,0.752,4.152,1.072
		c1.496,0.336,3.008,0.624,4.528,0.904c1.688,0.304,3.376,0.56,5.072,0.776c1.36,0.176,2.72,0.36,4.096,0.48
		c2.504,0.224,5.008,0.336,7.52,0.384c0.576,0,1.128,0.08,1.696,0.08s1.12-0.08,1.688-0.088c2.512-0.04,5.016-0.16,7.52-0.384
		c1.376-0.12,2.736-0.304,4.096-0.48c1.696-0.216,3.384-0.472,5.072-0.776c1.52-0.272,3.032-0.56,4.528-0.904
		c1.392-0.32,2.768-0.696,4.152-1.072c1.656-0.448,3.32-0.864,4.936-1.392v21.096h-64v-21.088H72z M88,343.824c-4.416,0-8-3.584-8-8
		v-48c0-4.416,3.584-8,8-8h8v16h16v-16h8c4.416,0,8,3.584,8,8v48c0,4.416-3.584,8-8,8h-8v-16H96v16H88z M128,447.824
		c0,4.416-3.584,8-8,8H88c-4.416,0-8-3.584-8-8v-48c0-4.416,3.584-8,8-8h8v16h16v-16h8c4.416,0,8,3.584,8,8v16h-16v16h16V447.824z
		 M240,439.824c0,4.416-3.584,8-8,8h-48c-4.416,0-8-3.584-8-8v-8h16v-16h-16v-8c0-4.416,3.584-8,8-8h48c4.416,0,8,3.584,8,8v8h-16
		v16h16V439.824z M344,399.824c4.416,0,8,3.584,8,8v32c0,4.416-3.584,8-8,8h-48c-4.416,0-8-3.584-8-8v-8h16v-16h-16v-8
		c0-4.416,3.584-8,8-8h16v16h16v-16H344z M464,191.824c-13.232,0-24-10.768-24-24h24V191.824z M288,39.824h176v16H288V39.824z
		 M272,71.824h8h184v16H272V71.824z M256,103.824h8h200v16H256V103.824z M240,135.824h8h216v16h-30.864H254.864H240V135.824z
		 M224,167.824h8h16c0,13.232-10.768,24-24,24V167.824z M224,303.824v-24c13.232,0,24,10.768,24,24H224z M360,327.824
		c0,4.416-3.584,8-8,8h-8v-8h-16v8h-8c-4.416,0-8-3.584-8-8v-8h48V327.824z M464,303.824h-24c0-13.232,10.768-24,24-24V303.824z
		 M424,303.824H264c0-22.056-17.944-40-40-40v-56c22.056,0,40-17.944,40-40h160c0,22.056,17.944,40,40,40v56
		C441.944,263.824,424,281.768,424,303.824z"/>
</g>
<g>
</g>
<g>
</g>
<g>
</g>
<g>
</g>
<g>
</g>
<g>
</g>
<g>
</g>
<g>
</g>
<g>
</g>
<g>
</g>
<g>
</g>
<g>
</g>
<g>
</g>
<g>
</g>
<g>
</g>
</svg>
