<svg width="24" height="24" viewBox="0 0 24 24" fill="none" xmlns="http://www.w3.org/2000/svg">
<rect width="24" height="24" fill="black" fill-opacity="0"/>
<rect width="24" height="24" fill="black" fill-opacity="0" transform="translate(4 5)"/>
<rect width="24" height="24" fill="black" fill-opacity="0" transform="translate(4 5)"/>
<path d="M6.59459 5V17.5152C6.59459 18.3424 5.92432 19 5.08108 19H18.4865C19.3297 19 20 18.3424 20 17.5152V5H6.59459ZM8.75676 7.12121H13.0811V10.0909H8.75676V7.12121ZM14.8108 7.12121H17.8378C18.0757 7.12121 18.2703 7.31212 18.2703 7.54545C18.2703 7.77879 18.0757 7.9697 17.8378 7.9697H14.8108C14.573 7.9697 14.3784 7.77879 14.3784 7.54545C14.3784 7.31212 14.573 7.12121 14.8108 7.12121ZM4 12.6364V17.5152C4 18.1091 4.47568 18.5758 5.08108 18.5758C5.68649 18.5758 6.16216 18.1091 6.16216 17.5152V12.6364H4ZM14.8108 9.24242H17.8378C18.0757 9.24242 18.2703 9.43333 18.2703 9.66667C18.2703 9.9 18.0757 10.0909 17.8378 10.0909H14.8108C14.573 10.0909 14.3784 9.9 14.3784 9.66667C14.3784 9.43333 14.573 9.24242 14.8108 9.24242ZM8.75676 11.7879H17.8378C18.0757 11.7879 18.2703 11.9788 18.2703 12.2121C18.2703 12.4455 18.0757 12.6364 17.8378 12.6364H8.75676C8.51892 12.6364 8.32432 12.4455 8.32432 12.2121C8.32432 11.9788 8.51892 11.7879 8.75676 11.7879ZM8.75676 14.1212H17.8378C18.0757 14.1212 18.2703 14.3121 18.2703 14.5455C18.2703 14.7788 18.0757 14.9697 17.8378 14.9697H8.75676C8.51892 14.9697 8.32432 14.7788 8.32432 14.5455C8.32432 14.3121 8.51892 14.1212 8.75676 14.1212ZM8.75676 16.4545H17.8378C18.0757 16.4545 18.2703 16.6455 18.2703 16.8788C18.2703 17.1121 18.0757 17.303 17.8378 17.303H8.75676C8.51892 17.303 8.32432 17.1121 8.32432 16.8788C8.32432 16.6455 8.51892 16.4545 8.75676 16.4545Z" fill="#4C84FF"/>
</svg>
