<svg width="329" height="100" viewBox="0 0 329 100" fill="none" xmlns="http://www.w3.org/2000/svg">
<rect width="329" height="98" fill="black" fill-opacity="0" transform="translate(0 2)"/>
<rect width="60.0006" height="58" fill="black" fill-opacity="0" transform="translate(130 2)"/>
<rect width="60.0006" height="58" fill="black" fill-opacity="0" transform="translate(130 2)"/>
<path d="M185.715 2H142.858C140.429 2 138.572 3.885 138.572 6.35V52.75" stroke="#E5E9ED" stroke-width="3" stroke-miterlimit="10"/>
<path d="M175.715 60C178.858 60 181.429 57.39 181.429 54.2V6.35C181.429 3.885 183.286 2 185.715 2C188.143 2 190.001 3.885 190.001 6.35V10.7H184.286" stroke="#E5E9ED" stroke-width="3" stroke-miterlimit="10"/>
<path d="M170 54.2V52.75H130V54.2C130 57.39 132.571 60 135.714 60H175.714C172.571 60 170 57.39 170 54.2Z" stroke="#E5E9ED" stroke-width="3" stroke-miterlimit="10"/>
<path d="M171.429 16.79H162.857" stroke="#E5E9ED" stroke-width="3" stroke-miterlimit="10" stroke-linejoin="round"/>
<path d="M171.429 23.895H162.857" stroke="#E5E9ED" stroke-width="3" stroke-miterlimit="10" stroke-linejoin="round"/>
<path d="M171.429 32.45H145.715" stroke="#E5E9ED" stroke-width="3" stroke-miterlimit="10" stroke-linejoin="round"/>
<path d="M171.429 39.7H145.715" stroke="#E5E9ED" stroke-width="3" stroke-miterlimit="10" stroke-linejoin="round"/>
<path d="M147.143 15.05L157.571 25.635" stroke="#E5E9ED" stroke-width="3" stroke-miterlimit="10" stroke-linejoin="round"/>
<path d="M157.571 15.05L147.143 25.635" stroke="#E5E9ED" stroke-width="3" stroke-miterlimit="10" stroke-linejoin="round"/>
<path d="M117.934 92H116.204L111.768 84.9385V92H110.038V82.0469H111.768L116.218 89.1357V82.0469H117.934V92ZM119.506 88.2334C119.506 87.5088 119.649 86.8571 119.937 86.2783C120.224 85.695 120.627 85.2484 121.146 84.9385C121.666 84.624 122.263 84.4668 122.938 84.4668C123.936 84.4668 124.744 84.7881 125.364 85.4307C125.989 86.0732 126.326 86.9255 126.376 87.9873L126.383 88.377C126.383 89.1061 126.242 89.7578 125.959 90.332C125.681 90.9062 125.28 91.3506 124.756 91.665C124.236 91.9795 123.635 92.1367 122.951 92.1367C121.908 92.1367 121.071 91.7904 120.442 91.0977C119.818 90.4004 119.506 89.473 119.506 88.3154V88.2334ZM121.167 88.377C121.167 89.138 121.324 89.735 121.639 90.168C121.953 90.5964 122.391 90.8105 122.951 90.8105C123.512 90.8105 123.947 90.5918 124.257 90.1543C124.571 89.7168 124.729 89.0765 124.729 88.2334C124.729 87.486 124.567 86.8936 124.243 86.4561C123.924 86.0186 123.489 85.7998 122.938 85.7998C122.395 85.7998 121.965 86.0163 121.646 86.4492C121.326 86.8776 121.167 87.5202 121.167 88.377ZM131.435 92V82.0469H134.374C135.254 82.0469 136.033 82.2428 136.712 82.6348C137.396 83.0267 137.924 83.5827 138.298 84.3027C138.672 85.0228 138.858 85.8477 138.858 86.7773V87.2764C138.858 88.2197 138.669 89.0492 138.291 89.7646C137.917 90.4801 137.382 91.0316 136.685 91.4189C135.992 91.8063 135.197 92 134.299 92H131.435ZM133.164 83.4414V90.6191H134.292C135.199 90.6191 135.894 90.3366 136.377 89.7715C136.865 89.2018 137.113 88.3861 137.122 87.3242V86.7705C137.122 85.6904 136.887 84.8656 136.418 84.2959C135.949 83.7262 135.267 83.4414 134.374 83.4414H133.164ZM144.84 92C144.767 91.8587 144.703 91.6286 144.648 91.3096C144.12 91.861 143.473 92.1367 142.707 92.1367C141.964 92.1367 141.358 91.9248 140.889 91.501C140.419 91.0771 140.185 90.5531 140.185 89.9287C140.185 89.1403 140.476 88.5365 141.06 88.1172C141.647 87.6934 142.486 87.4814 143.575 87.4814H144.594V86.9961C144.594 86.6133 144.487 86.3079 144.272 86.0801C144.058 85.8477 143.732 85.7314 143.295 85.7314C142.917 85.7314 142.607 85.8271 142.365 86.0186C142.124 86.2054 142.003 86.4447 142.003 86.7363H140.342C140.342 86.3307 140.476 85.9525 140.745 85.6016C141.014 85.2461 141.379 84.9681 141.839 84.7676C142.304 84.5671 142.821 84.4668 143.391 84.4668C144.257 84.4668 144.947 84.6855 145.462 85.123C145.977 85.556 146.241 86.1667 146.255 86.9551V90.291C146.255 90.9564 146.348 91.4873 146.535 91.8838V92H144.84ZM143.015 90.8037C143.343 90.8037 143.65 90.724 143.938 90.5645C144.229 90.4049 144.448 90.1908 144.594 89.9219V88.5273H143.698C143.083 88.5273 142.62 88.6344 142.311 88.8486C142.001 89.0628 141.846 89.3659 141.846 89.7578C141.846 90.0768 141.951 90.332 142.16 90.5234C142.374 90.7103 142.659 90.8037 143.015 90.8037ZM150.076 82.8057V84.6035H151.382V85.834H150.076V89.9629C150.076 90.2454 150.131 90.4505 150.24 90.5781C150.354 90.7012 150.555 90.7627 150.842 90.7627C151.033 90.7627 151.227 90.7399 151.423 90.6943V91.9795C151.045 92.0843 150.68 92.1367 150.329 92.1367C149.053 92.1367 148.415 91.4326 148.415 90.0244V85.834H147.198V84.6035H148.415V82.8057H150.076ZM157.076 92C157.003 91.8587 156.939 91.6286 156.885 91.3096C156.356 91.861 155.709 92.1367 154.943 92.1367C154.201 92.1367 153.594 91.9248 153.125 91.501C152.656 91.0771 152.421 90.5531 152.421 89.9287C152.421 89.1403 152.713 88.5365 153.296 88.1172C153.884 87.6934 154.722 87.4814 155.812 87.4814H156.83V86.9961C156.83 86.6133 156.723 86.3079 156.509 86.0801C156.295 85.8477 155.969 85.7314 155.531 85.7314C155.153 85.7314 154.843 85.8271 154.602 86.0186C154.36 86.2054 154.239 86.4447 154.239 86.7363H152.578C152.578 86.3307 152.713 85.9525 152.981 85.6016C153.25 85.2461 153.615 84.9681 154.075 84.7676C154.54 84.5671 155.057 84.4668 155.627 84.4668C156.493 84.4668 157.183 84.6855 157.698 85.123C158.213 85.556 158.478 86.1667 158.491 86.9551V90.291C158.491 90.9564 158.585 91.4873 158.771 91.8838V92H157.076ZM155.251 90.8037C155.579 90.8037 155.887 90.724 156.174 90.5645C156.465 90.4049 156.684 90.1908 156.83 89.9219V88.5273H155.935C155.319 88.5273 154.857 88.6344 154.547 88.8486C154.237 89.0628 154.082 89.3659 154.082 89.7578C154.082 90.0768 154.187 90.332 154.396 90.5234C154.611 90.7103 154.896 90.8037 155.251 90.8037ZM169.449 89.6826H165.594L164.787 92H162.989L166.749 82.0469H168.301L172.067 92H170.263L169.449 89.6826ZM166.079 88.2881H168.964L167.521 84.1592L166.079 88.2881ZM175.308 89.8945L176.873 84.6035H178.589L176.025 92H174.583L171.999 84.6035H173.722L175.308 89.8945ZM183.941 92C183.868 91.8587 183.805 91.6286 183.75 91.3096C183.221 91.861 182.574 92.1367 181.809 92.1367C181.066 92.1367 180.46 91.9248 179.99 91.501C179.521 91.0771 179.286 90.5531 179.286 89.9287C179.286 89.1403 179.578 88.5365 180.161 88.1172C180.749 87.6934 181.588 87.4814 182.677 87.4814H183.695V86.9961C183.695 86.6133 183.588 86.3079 183.374 86.0801C183.16 85.8477 182.834 85.7314 182.396 85.7314C182.018 85.7314 181.708 85.8271 181.467 86.0186C181.225 86.2054 181.104 86.4447 181.104 86.7363H179.443C179.443 86.3307 179.578 85.9525 179.847 85.6016C180.116 85.2461 180.48 84.9681 180.94 84.7676C181.405 84.5671 181.923 84.4668 182.492 84.4668C183.358 84.4668 184.049 84.6855 184.563 85.123C185.078 85.556 185.343 86.1667 185.356 86.9551V90.291C185.356 90.9564 185.45 91.4873 185.637 91.8838V92H183.941ZM182.116 90.8037C182.444 90.8037 182.752 90.724 183.039 90.5645C183.331 90.4049 183.549 90.1908 183.695 89.9219V88.5273H182.8C182.185 88.5273 181.722 88.6344 181.412 88.8486C181.102 89.0628 180.947 89.3659 180.947 89.7578C180.947 90.0768 181.052 90.332 181.262 90.5234C181.476 90.7103 181.761 90.8037 182.116 90.8037ZM188.863 92H187.202V84.6035H188.863V92ZM187.1 82.6826C187.1 82.4274 187.179 82.2155 187.339 82.0469C187.503 81.8783 187.735 81.7939 188.036 81.7939C188.337 81.7939 188.569 81.8783 188.733 82.0469C188.897 82.2155 188.979 82.4274 188.979 82.6826C188.979 82.9333 188.897 83.1429 188.733 83.3115C188.569 83.4756 188.337 83.5576 188.036 83.5576C187.735 83.5576 187.503 83.4756 187.339 83.3115C187.179 83.1429 187.1 82.9333 187.1 82.6826ZM192.445 92H190.784V81.5H192.445V92ZM198.68 92C198.607 91.8587 198.543 91.6286 198.488 91.3096C197.96 91.861 197.312 92.1367 196.547 92.1367C195.804 92.1367 195.198 91.9248 194.729 91.501C194.259 91.0771 194.024 90.5531 194.024 89.9287C194.024 89.1403 194.316 88.5365 194.899 88.1172C195.487 87.6934 196.326 87.4814 197.415 87.4814H198.434V86.9961C198.434 86.6133 198.326 86.3079 198.112 86.0801C197.898 85.8477 197.572 85.7314 197.135 85.7314C196.757 85.7314 196.447 85.8271 196.205 86.0186C195.964 86.2054 195.843 86.4447 195.843 86.7363H194.182C194.182 86.3307 194.316 85.9525 194.585 85.6016C194.854 85.2461 195.218 84.9681 195.679 84.7676C196.144 84.5671 196.661 84.4668 197.23 84.4668C198.096 84.4668 198.787 84.6855 199.302 85.123C199.817 85.556 200.081 86.1667 200.095 86.9551V90.291C200.095 90.9564 200.188 91.4873 200.375 91.8838V92H198.68ZM196.854 90.8037C197.183 90.8037 197.49 90.724 197.777 90.5645C198.069 90.4049 198.288 90.1908 198.434 89.9219V88.5273H197.538C196.923 88.5273 196.46 88.6344 196.15 88.8486C195.84 89.0628 195.686 89.3659 195.686 89.7578C195.686 90.0768 195.79 90.332 196 90.5234C196.214 90.7103 196.499 90.8037 196.854 90.8037ZM208.325 88.377C208.325 89.5254 208.068 90.4391 207.553 91.1182C207.042 91.7972 206.338 92.1367 205.44 92.1367C204.575 92.1367 203.9 91.8245 203.417 91.2002L203.335 92H201.831V81.5H203.492V85.3145C203.971 84.7493 204.616 84.4668 205.427 84.4668C206.329 84.4668 207.038 84.8018 207.553 85.4717C208.068 86.1416 208.325 87.0781 208.325 88.2812V88.377ZM206.664 88.2334C206.664 87.4313 206.523 86.8298 206.24 86.4287C205.958 86.0277 205.548 85.8271 205.01 85.8271C204.29 85.8271 203.784 86.1416 203.492 86.7705V89.8193C203.788 90.4619 204.299 90.7832 205.023 90.7832C205.543 90.7832 205.944 90.5895 206.227 90.2021C206.509 89.8148 206.655 89.2292 206.664 88.4453V88.2334ZM211.49 92H209.829V81.5H211.49V92ZM216.562 92.1367C215.51 92.1367 214.655 91.8063 213.999 91.1455C213.347 90.4801 213.021 89.596 213.021 88.4932V88.2881C213.021 87.5498 213.163 86.8913 213.445 86.3125C213.732 85.7292 214.133 85.2757 214.648 84.9521C215.163 84.6286 215.738 84.4668 216.371 84.4668C217.378 84.4668 218.155 84.7881 218.702 85.4307C219.254 86.0732 219.529 86.9824 219.529 88.1582V88.8281H214.696C214.746 89.4388 214.949 89.9219 215.305 90.2773C215.665 90.6328 216.116 90.8105 216.658 90.8105C217.419 90.8105 218.039 90.5029 218.518 89.8877L219.413 90.7422C219.117 91.1842 218.72 91.5283 218.224 91.7744C217.731 92.016 217.178 92.1367 216.562 92.1367ZM216.364 85.7998C215.909 85.7998 215.539 85.9593 215.257 86.2783C214.979 86.5973 214.801 87.0417 214.724 87.6113H217.889V87.4883C217.852 86.9323 217.704 86.513 217.444 86.2305C217.185 85.9434 216.825 85.7998 216.364 85.7998Z" fill="#A4AFBF"/>
</svg>
