<?xml version="1.0" encoding="iso-8859-1"?>
<!-- Generator: Adobe Illustrator 19.0.0, SVG Export Plug-In . SVG Version: 6.00 Build 0)  -->
<svg version="1.1" id="Capa_1" xmlns="http://www.w3.org/2000/svg" xmlns:xlink="http://www.w3.org/1999/xlink" x="0px" y="0px"
	 viewBox="0 0 496 496" style="enable-background:new 0 0 496 496;" xml:space="preserve">
<g>
	<g>
		<g>
			<path d="M248,304c-44.112,0-80,35.888-80,80s35.888,80,80,80s80-35.888,80-80S292.112,304,248,304z M248,448
				c-35.288,0-64-28.712-64-64c0-35.288,28.712-64,64-64c35.288,0,64,28.712,64,64C312,419.288,283.288,448,248,448z"/>
			<path d="M232,360h32c4.416,0,8,3.584,8,8h16c0-13.232-10.768-24-24-24h-8v-8h-16v8h-8c-13.232,0-24,10.768-24,24s10.768,24,24,24
				h32c4.416,0,8,3.584,8,8c0,4.416-3.584,8-8,8h-32c-4.416,0-8-3.584-8-8h-16c0,13.232,10.768,24,24,24h8v8h16v-8h8
				c13.232,0,24-10.768,24-24s-10.768-24-24-24h-32c-4.416,0-8-3.584-8-8C224,363.584,227.584,360,232,360z"/>
			<path d="M439.944,223.456l28.128,7.76c1.872,0.52,3.816,0.784,6.304,0.784c11.92,0,21.624-9.704,21.624-21.624
				c0-9.704-6.528-18.272-15.872-20.84L280,134.32V104c13.232,0,24-10.768,24-24c0-10.416-6.712-19.216-16-22.528V45.784
				l-21.024-35.04C263,4.12,255.728,0,248,0c-7.728,0-15,4.12-18.976,10.744L208,45.784V57.48c-9.288,3.304-16,12.104-16,22.52
				c0,13.232,10.768,24,24,24v12.664L27.92,64.784C26.056,64.264,24.112,64,21.624,64C9.704,64,0,73.704,0,85.624
				c0,9.704,6.528,18.272,15.872,20.84l45.344,12.512L18.768,216H4.896l21.336,64h91.528l21.336-64h-13.872l-39.488-90.256
				L216,161.672V256h16V104h32v152h16v-76.672l131.656,36.32L370.88,304h-13.984l21.336,64h91.528l21.336-64H477.12L439.944,223.456
				z M106.232,264H37.768l-10.664-32h89.8L106.232,264z M107.768,216H36.232L72,134.24L107.768,216z M216,145.08L20.128,91.048
				C17.696,90.376,16,88.152,16,85.624c0-3.528,3.64-6.512,7.656-5.424L216,133.264V145.08z M224,50.216l18.744-31.24
				c2.2-3.672,8.312-3.672,10.512,0L272,50.216V56h-48V50.216z M216,88c-4.416,0-8-3.584-8-8s3.584-8,8-8h64c4.416,0,8,3.584,8,8
				s-3.584,8-8,8H216z M280,162.736v-11.824l195.872,54.04c2.432,0.672,4.128,2.896,4.128,5.424c0,3.536-3.648,6.496-7.656,5.424
				L280,162.736z M424,227.096L459.496,304h-70.992L424,227.096z M458.232,352H389.76l-10.664-32h89.8L458.232,352z"/>
			<path d="M248,272c-61.76,0-112,50.24-112,112s50.24,112,112,112s112-50.24,112-112S309.76,272,248,272z M248,480
				c-52.936,0-96-43.064-96-96c0-52.936,43.064-96,96-96c52.936,0,96,43.064,96,96C344,436.936,300.936,480,248,480z"/>
		</g>
	</g>
</g>
<g>
</g>
<g>
</g>
<g>
</g>
<g>
</g>
<g>
</g>
<g>
</g>
<g>
</g>
<g>
</g>
<g>
</g>
<g>
</g>
<g>
</g>
<g>
</g>
<g>
</g>
<g>
</g>
<g>
</g>
</svg>
