<svg width="24" height="24" viewBox="0 0 36 36" fill="none" xmlns="http://www.w3.org/2000/svg">
<rect width="24" height="24" fill="black" fill-opacity="0"/>
<rect width="24" height="24" fill="black" fill-opacity="0"/>
<path d="M12.5 17.5C12.5 17.2239 12.7239 17 13 17H23C23.2761 17 23.5 17.2239 23.5 17.5V18.5C23.5 18.7761 23.2761 19 23 19H13C12.7239 19 12.5 18.7761 12.5 18.5V17.5Z" fill="#D8D8D8" stroke="#A4AFBF"/>
<path d="M18.5 12.5C18.7761 12.5 19 12.7239 19 13L19 23C19 23.2761 18.7761 23.5 18.5 23.5H17.5C17.2239 23.5 17 23.2761 17 23L17 13C17 12.7239 17.2239 12.5 17.5 12.5H18.5Z" fill="#D8D8D8" stroke="#A4AFBF"/>
<rect width="24" height="24" fill="black" fill-opacity="0" transform="translate(6 6)"/>
<path fill-rule="evenodd" clip-rule="evenodd" d="M18 30C24.6274 30 30 24.6274 30 18C30 11.3726 24.6274 6 18 6C11.3726 6 6 11.3726 6 18C6 24.6274 11.3726 30 18 30Z" fill="#2FD565"/>
<path d="M13.5 17.5756L16.9238 21L22.5 15" stroke="#F8FAFD" stroke-width="2"/>
</svg>
