<svg xmlns="http://www.w3.org/2000/svg" width="480pt" height="290pt" viewBox="0 0 480 290" version="1.1" xmlns:xlink="http://www.w3.org/1999/xlink">
  <g id="surface2" transform="matrix(0.9585560625155782,0,0,0.9585560625155782,8.905101058776808,4.890384623161765)">
    <path style="stroke:none;fill-rule:evenodd;fill:#000000;fill-opacity:1" d="M 286.199219 153.351562 C 285.132812 154.015625 283.882812 154.484375 282.449219 154.750000 C 281.050781 154.984375 279.601562 155.101562 278.101562 155.101562 C 276.632812 155.101562 275.265625 155.066406 274.000000 155.000000 C 271.800781 154.933594 269.566406 154.667969 267.300781 154.199219 C 265.066406 153.734375 262.917969 152.949219 260.851562 151.851562 C 261.449219 151.050781 262.101562 150.515625 262.800781 150.250000 C 263.535156 149.984375 264.234375 149.632812 264.898438 149.199219 C 265.300781 148.101562 265.667969 146.750000 266.000000 145.148438 C 266.367188 143.582031 266.800781 142.035156 267.300781 140.500000 C 267.832031 138.964844 268.550781 137.699219 269.449219 136.699219 C 270.382812 135.734375 271.632812 135.265625 273.199219 135.300781 C 272.667969 137.066406 272.285156 138.785156 272.050781 140.449219 C 271.816406 142.148438 271.632812 143.832031 271.500000 145.500000 C 271.367188 147.199219 271.148438 148.898438 270.851562 150.601562 C 272.148438 149.265625 273.382812 147.683594 274.550781 145.851562 C 275.750000 144.015625 276.949219 142.265625 278.148438 140.601562 C 279.382812 138.898438 280.683594 137.632812 282.050781 136.800781 C 283.417969 135.933594 284.933594 135.800781 286.601562 136.398438 C 283.433594 141.699219 280.500000 146.984375 277.800781 152.250000 C 279.398438 151.382812 280.964844 150.300781 282.500000 149.000000 C 284.000000 147.667969 285.500000 146.351562 287.000000 145.050781 C 288.535156 143.714844 290.101562 142.617188 291.699219 141.750000 C 293.300781 140.917969 294.984375 140.535156 296.750000 140.601562 C 297.484375 141.066406 298.199219 141.535156 298.898438 142.000000 C 297.167969 142.964844 295.617188 144.148438 294.250000 145.550781 C 292.882812 146.917969 291.582031 148.300781 290.351562 149.699219 C 289.082031 151.101562 287.699219 152.316406 286.199219 153.351562 "/>
    <path style="stroke:none;fill-rule:evenodd;fill:#000000;fill-opacity:1" d="M 251.050781 135.250000 C 251.117188 134.683594 251.050781 134.066406 250.851562 133.398438 C 250.648438 132.734375 250.500000 132.101562 250.398438 131.500000 C 250.265625 130.898438 250.382812 130.417969 250.750000 130.050781 C 252.714844 130.648438 254.117188 131.515625 254.949219 132.648438 C 255.816406 133.816406 256.316406 135.167969 256.449219 136.699219 C 256.582031 138.234375 256.566406 139.832031 256.398438 141.500000 C 256.234375 143.167969 256.117188 144.800781 256.050781 146.398438 C 255.984375 148.000000 256.148438 149.464844 256.550781 150.800781 C 260.082031 153.066406 263.582031 154.582031 267.050781 155.351562 C 270.484375 156.082031 273.882812 156.332031 277.250000 156.101562 C 280.617188 155.867188 283.933594 155.417969 287.199219 154.750000 C 290.464844 154.082031 293.683594 153.464844 296.851562 152.898438 C 297.984375 152.699219 299.234375 152.500000 300.601562 152.300781 C 301.964844 152.101562 303.285156 152.035156 304.550781 152.101562 C 305.816406 152.167969 306.882812 152.515625 307.750000 153.148438 C 308.582031 153.750000 309.050781 154.785156 309.148438 156.250000 C 303.183594 156.984375 297.332031 158.332031 291.601562 160.300781 C 285.898438 162.234375 280.250000 164.550781 274.648438 167.250000 C 269.082031 169.949219 263.535156 172.765625 258.000000 175.699219 L 258.000000 202.199219 L 244.398438 202.199219 L 244.398438 175.851562 C 242.734375 169.617188 242.382812 163.132812 243.351562 156.398438 C 244.316406 149.632812 246.882812 142.582031 251.050781 135.250000 "/>
    <path style="stroke:none;fill-rule:evenodd;fill:#000000;fill-opacity:1" d="M 194.300781 140.949219 C 195.464844 141.683594 196.832031 142.183594 198.398438 142.449219 C 199.933594 142.750000 201.515625 142.898438 203.148438 142.898438 C 204.750000 142.898438 206.234375 142.851562 207.601562 142.750000 C 210.000000 142.683594 212.433594 142.398438 214.898438 141.898438 C 217.332031 141.398438 219.683594 140.550781 221.949219 139.351562 C 221.285156 138.484375 220.566406 137.898438 219.800781 137.601562 C 219.000000 137.300781 218.234375 136.933594 217.500000 136.500000 C 217.066406 135.265625 216.667969 133.800781 216.300781 132.101562 C 215.898438 130.367188 215.433594 128.667969 214.898438 127.000000 C 214.332031 125.332031 213.550781 123.964844 212.550781 122.898438 C 211.550781 121.800781 210.199219 121.285156 208.500000 121.351562 C 209.066406 123.250000 209.484375 125.117188 209.750000 126.949219 C 209.984375 128.816406 210.183594 130.648438 210.351562 132.449219 C 210.515625 134.285156 210.750000 136.132812 211.050781 138.000000 C 209.648438 136.566406 208.300781 134.851562 207.000000 132.851562 C 205.699219 130.851562 204.382812 128.933594 203.050781 127.101562 C 201.750000 125.265625 200.351562 123.882812 198.851562 122.949219 C 197.351562 122.015625 195.699219 121.882812 193.898438 122.550781 C 197.332031 128.316406 200.535156 134.050781 203.500000 139.750000 C 201.734375 138.816406 200.035156 137.648438 198.398438 136.250000 C 196.734375 134.816406 195.082031 133.382812 193.449219 131.949219 C 191.816406 130.484375 190.117188 129.300781 188.351562 128.398438 C 186.617188 127.464844 184.785156 127.035156 182.851562 127.101562 C 182.082031 127.632812 181.316406 128.148438 180.550781 128.648438 C 182.449219 129.714844 184.132812 131.000000 185.601562 132.500000 C 187.066406 134.000000 188.484375 135.500000 189.851562 137.000000 C 191.214844 138.535156 192.699219 139.851562 194.300781 140.949219 "/>
    <path style="stroke:none;fill-rule:evenodd;fill:#000000;fill-opacity:1" d="M 232.550781 121.300781 C 232.484375 120.667969 232.550781 120.000000 232.750000 119.300781 C 232.984375 118.566406 233.167969 117.882812 233.300781 117.250000 C 233.398438 116.617188 233.265625 116.082031 232.898438 115.648438 C 230.765625 116.285156 229.234375 117.234375 228.300781 118.500000 C 227.367188 119.765625 226.816406 121.234375 226.648438 122.898438 C 226.515625 124.566406 226.535156 126.300781 226.699219 128.101562 C 226.898438 129.933594 227.035156 131.714844 227.101562 133.449219 C 227.199219 135.214844 227.015625 136.816406 226.550781 138.250000 C 222.683594 140.714844 218.882812 142.351562 215.148438 143.148438 C 211.382812 143.984375 207.683594 144.265625 204.050781 144.000000 C 200.382812 143.765625 196.765625 143.285156 193.199219 142.550781 C 189.667969 141.816406 186.167969 141.132812 182.699219 140.500000 C 181.500000 140.300781 180.148438 140.082031 178.648438 139.851562 C 177.183594 139.648438 175.750000 139.582031 174.351562 139.648438 C 172.949219 139.714844 171.785156 140.101562 170.851562 140.800781 C 169.949219 141.464844 169.449219 142.582031 169.351562 144.148438 C 175.816406 144.949219 182.167969 146.417969 188.398438 148.550781 C 194.632812 150.683594 200.785156 153.214844 206.851562 156.148438 C 212.917969 159.082031 218.964844 162.148438 225.000000 165.351562 L 225.000000 202.250000 L 239.800781 202.250000 L 239.800781 165.500000 C 241.601562 158.699219 241.964844 151.632812 240.898438 144.300781 C 239.867188 136.964844 237.082031 129.300781 232.550781 121.300781 "/>
    <path style="stroke:none;fill-rule:evenodd;fill:#000000;fill-opacity:1" d="M 244.101562 141.000000 C 244.066406 140.964844 243.964844 140.066406 243.800781 138.300781 C 243.667969 136.535156 243.750000 134.183594 244.050781 131.250000 C 244.316406 128.316406 245.066406 125.082031 246.300781 121.550781 C 247.500000 118.015625 249.433594 114.464844 252.101562 110.898438 C 257.535156 103.867188 261.617188 97.667969 264.351562 92.300781 C 267.050781 86.933594 268.300781 82.148438 268.101562 77.949219 C 268.132812 78.015625 268.183594 78.933594 268.250000 80.699219 C 268.316406 82.433594 268.300781 84.648438 268.199219 87.351562 C 268.101562 90.082031 267.800781 92.917969 267.300781 95.851562 C 266.800781 98.750000 265.964844 101.417969 264.800781 103.851562 C 264.832031 103.785156 265.750000 103.101562 267.550781 101.800781 C 269.316406 100.500000 271.699219 98.933594 274.699219 97.101562 C 277.667969 95.234375 280.984375 93.449219 284.648438 91.750000 C 288.316406 90.015625 292.050781 88.714844 295.851562 87.851562 C 298.882812 87.148438 301.714844 85.984375 304.351562 84.351562 C 307.015625 82.683594 309.433594 80.832031 311.601562 78.800781 C 313.800781 76.765625 315.683594 74.785156 317.250000 72.851562 C 318.816406 70.949219 320.035156 69.382812 320.898438 68.148438 C 321.734375 66.882812 322.167969 66.234375 322.199219 66.199219 C 322.234375 66.234375 322.015625 66.984375 321.550781 68.449219 C 321.117188 69.882812 320.250000 71.750000 318.949219 74.050781 C 317.648438 76.382812 315.750000 78.882812 313.250000 81.550781 C 310.750000 84.214844 307.464844 86.816406 303.398438 89.351562 C 299.332031 91.851562 294.316406 94.015625 288.351562 95.851562 C 280.851562 98.082031 274.515625 100.714844 269.351562 103.750000 C 264.214844 106.816406 259.984375 110.234375 256.648438 114.000000 C 253.351562 117.800781 250.714844 121.964844 248.750000 126.500000 C 246.785156 131.000000 245.234375 135.832031 244.101562 141.000000 "/>
    <path style="stroke:none;fill-rule:evenodd;fill:#000000;fill-opacity:1" d="M 245.000000 112.300781 C 244.964844 112.234375 244.851562 111.148438 244.648438 109.050781 C 244.449219 106.984375 244.265625 104.214844 244.101562 100.750000 C 243.933594 97.316406 243.898438 93.535156 244.000000 89.398438 C 244.132812 85.300781 244.515625 81.199219 245.148438 77.101562 C 245.785156 73.000000 246.816406 69.250000 248.250000 65.851562 C 249.648438 62.449219 251.550781 59.734375 253.949219 57.699219 C 253.917969 57.667969 253.332031 57.832031 252.199219 58.199219 C 251.101562 58.566406 249.750000 59.332031 248.148438 60.500000 C 246.550781 61.699219 245.000000 63.515625 243.500000 65.949219 C 242.000000 68.382812 240.832031 71.632812 240.000000 75.699219 C 239.167969 79.800781 238.949219 84.933594 239.351562 91.101562 C 239.316406 91.066406 238.667969 90.566406 237.398438 89.601562 C 236.132812 88.601562 234.433594 87.351562 232.300781 85.851562 C 230.199219 84.351562 227.851562 82.816406 225.250000 81.250000 C 222.648438 79.683594 220.000000 78.300781 217.300781 77.101562 C 214.632812 75.867188 212.101562 75.050781 209.699219 74.648438 C 206.734375 74.148438 203.566406 73.214844 200.199219 71.851562 C 196.832031 70.449219 193.535156 68.714844 190.300781 66.648438 C 187.101562 64.582031 184.214844 62.265625 181.648438 59.699219 C 179.117188 57.132812 177.183594 54.433594 175.851562 51.601562 C 175.851562 51.632812 176.148438 52.285156 176.750000 53.550781 C 177.382812 54.851562 178.332031 56.515625 179.601562 58.550781 C 180.867188 60.617188 182.500000 62.832031 184.500000 65.199219 C 186.464844 67.601562 188.800781 69.917969 191.500000 72.148438 C 194.199219 74.382812 197.300781 76.316406 200.800781 77.949219 L 166.898438 80.750000 C 166.964844 80.750000 167.949219 80.750000 169.851562 80.750000 C 171.785156 80.714844 174.316406 80.714844 177.449219 80.750000 C 180.582031 80.750000 184.000000 80.800781 187.699219 80.898438 C 191.433594 80.964844 195.101562 81.082031 198.699219 81.250000 C 202.300781 81.417969 205.535156 81.648438 208.398438 81.949219 C 211.265625 82.250000 213.433594 82.632812 214.898438 83.101562 C 217.066406 83.800781 219.601562 84.964844 222.500000 86.601562 C 225.398438 88.234375 228.351562 90.285156 231.351562 92.750000 C 234.351562 95.250000 237.066406 98.132812 239.500000 101.398438 C 241.933594 104.667969 243.765625 108.300781 245.000000 112.300781 "/>
    <path style="stroke:none;fill-rule:evenodd;fill:#000000;fill-opacity:1" d="M 208.351562 115.601562 C 208.285156 115.601562 207.750000 114.800781 206.750000 113.199219 C 205.750000 111.632812 204.566406 109.214844 203.199219 105.949219 C 201.800781 102.648438 200.535156 98.500000 199.398438 93.500000 C 199.367188 93.500000 199.214844 94.000000 198.949219 95.000000 C 198.683594 95.964844 198.464844 97.332031 198.300781 99.101562 C 198.101562 100.832031 198.132812 102.867188 198.398438 105.199219 C 198.667969 107.535156 199.316406 110.066406 200.351562 112.800781 C 200.316406 112.800781 199.582031 112.699219 198.148438 112.500000 C 196.714844 112.300781 194.816406 111.949219 192.449219 111.449219 C 190.050781 110.984375 187.433594 110.332031 184.601562 109.500000 C 181.734375 108.699219 178.851562 107.683594 175.949219 106.449219 C 173.050781 105.250000 170.367188 103.800781 167.898438 102.101562 C 165.398438 100.433594 163.351562 98.515625 161.750000 96.351562 C 161.714844 96.382812 161.867188 96.851562 162.199219 97.750000 C 162.500000 98.648438 163.132812 99.816406 164.101562 101.250000 C 165.066406 102.714844 166.535156 104.250000 168.500000 105.851562 C 170.464844 107.484375 173.082031 109.015625 176.351562 110.449219 C 176.316406 110.449219 175.667969 110.550781 174.398438 110.750000 C 173.132812 110.949219 171.484375 111.250000 169.449219 111.648438 C 167.417969 112.082031 165.199219 112.667969 162.800781 113.398438 C 160.398438 114.101562 158.050781 114.949219 155.750000 115.949219 C 153.449219 116.949219 151.417969 118.132812 149.648438 119.500000 C 147.882812 120.832031 146.582031 122.367188 145.750000 124.101562 C 145.750000 124.066406 146.535156 123.582031 148.101562 122.648438 C 149.667969 121.750000 152.066406 120.699219 155.300781 119.500000 C 158.535156 118.265625 162.632812 117.148438 167.601562 116.148438 C 172.566406 115.148438 178.433594 114.550781 185.199219 114.351562 C 191.964844 114.117188 199.683594 114.535156 208.351562 115.601562 "/>
    <path style="stroke:none;fill-rule:evenodd;fill:#000000;fill-opacity:1" d="M 285.949219 131.148438 C 285.949219 131.117188 286.316406 130.714844 287.050781 129.949219 C 287.816406 129.214844 288.933594 128.351562 290.398438 127.351562 C 291.832031 126.382812 293.632812 125.515625 295.800781 124.750000 C 297.964844 123.984375 300.464844 123.566406 303.300781 123.500000 C 306.132812 123.433594 309.285156 123.949219 312.750000 125.050781 C 312.714844 125.050781 312.214844 125.000000 311.250000 124.898438 C 310.285156 124.800781 309.035156 124.750000 307.500000 124.750000 C 305.964844 124.750000 304.332031 124.882812 302.601562 125.148438 C 300.867188 125.382812 299.234375 125.816406 297.699219 126.449219 C 296.167969 127.117188 294.917969 128.050781 293.949219 129.250000 C 294.015625 129.250000 295.000000 129.433594 296.898438 129.800781 C 298.800781 130.167969 301.285156 130.832031 304.351562 131.800781 C 307.449219 132.765625 310.800781 134.101562 314.398438 135.800781 C 318.000000 137.535156 321.535156 139.750000 325.000000 142.449219 C 324.964844 142.382812 324.035156 141.832031 322.199219 140.800781 C 320.367188 139.765625 317.734375 138.550781 314.300781 137.148438 C 310.867188 135.750000 306.765625 134.464844 302.000000 133.300781 C 297.199219 132.167969 291.851562 131.449219 285.949219 131.148438 "/>
    <path style="stroke:none;fill-rule:evenodd;fill:#000000;fill-opacity:1" d="M 186.500000 34.601562 L 189.250000 40.148438 L 195.398438 41.050781 L 190.949219 45.398438 L 192.000000 51.500000 L 186.500000 48.601562 L 181.000000 51.500000 L 182.050781 45.398438 L 177.601562 41.050781 L 183.750000 40.148438 L 186.500000 34.601562 "/>
    <path style="stroke:none;fill-rule:evenodd;fill:#000000;fill-opacity:1" d="M 175.300781 83.898438 L 177.949219 89.300781 L 183.898438 90.148438 L 179.601562 94.351562 L 180.601562 100.300781 L 175.300781 97.500000 L 169.949219 100.300781 L 170.949219 94.351562 L 166.648438 90.148438 L 172.601562 89.300781 L 175.300781 83.898438 "/>
    <path style="stroke:none;fill-rule:evenodd;fill:#000000;fill-opacity:1" d="M 315.449219 101.550781 L 317.601562 105.898438 L 322.398438 106.601562 L 318.898438 109.949219 L 319.699219 114.750000 L 315.449219 112.500000 L 311.148438 114.750000 L 311.949219 109.949219 L 308.500000 106.601562 L 313.300781 105.898438 L 315.449219 101.550781 "/>
    <path style="stroke:none;fill-rule:evenodd;fill:#000000;fill-opacity:1" d="M 327.148438 71.601562 L 328.898438 75.148438 L 332.800781 75.750000 L 330.000000 78.500000 L 330.648438 82.449219 L 327.148438 80.550781 L 323.648438 82.449219 L 324.300781 78.500000 L 321.449219 75.750000 L 325.398438 75.148438 L 327.148438 71.601562 "/>
    <path style="stroke:none;fill-rule:evenodd;fill:#000000;fill-opacity:1" d="M 283.699219 60.250000 L 285.050781 63.050781 L 288.148438 63.449219 L 285.898438 65.648438 L 286.449219 68.699219 L 283.699219 67.250000 L 280.949219 68.699219 L 281.449219 65.648438 L 279.250000 63.449219 L 282.351562 63.050781 L 283.699219 60.250000 "/>
    <path style="stroke:none;fill-rule:evenodd;fill:#000000;fill-opacity:1" d="M 310.898438 49.351562 L 312.699219 52.949219 L 316.648438 53.550781 L 313.800781 56.351562 L 314.449219 60.351562 L 310.898438 58.449219 L 307.300781 60.351562 L 308.000000 56.351562 L 305.101562 53.550781 L 309.101562 52.949219 L 310.898438 49.351562 "/>
    <path style="stroke:none;fill-rule:evenodd;fill:#000000;fill-opacity:1" d="M 314.550781 138.500000 L 316.398438 142.250000 L 320.601562 142.898438 L 317.550781 145.800781 L 318.250000 150.000000 L 314.550781 148.000000 L 310.800781 150.000000 L 311.500000 145.800781 L 308.500000 142.898438 L 312.648438 142.250000 L 314.550781 138.500000 "/>
    <path style="stroke:none;fill-rule:evenodd;fill:#000000;fill-opacity:1" d="M 272.000000 114.699219 L 274.398438 119.550781 L 279.750000 120.351562 L 275.851562 124.148438 L 276.750000 129.500000 L 272.000000 126.949219 L 267.148438 129.500000 L 268.101562 124.148438 L 264.199219 120.351562 L 269.550781 119.550781 L 272.000000 114.699219 "/>
    <path style="stroke:none;fill-rule:evenodd;fill:#000000;fill-opacity:1" d="M 293.050781 100.300781 L 294.601562 103.449219 L 298.050781 103.949219 L 295.550781 106.398438 L 296.148438 109.851562 L 293.050781 108.250000 L 289.898438 109.851562 L 290.500000 106.398438 L 288.000000 103.949219 L 291.500000 103.449219 L 293.050781 100.300781 "/>
    <path style="stroke:none;fill-rule:evenodd;fill:#000000;fill-opacity:1" d="M 324.800781 121.449219 L 326.601562 125.101562 L 330.601562 125.648438 L 327.699219 128.500000 L 328.351562 132.449219 L 324.800781 130.601562 L 321.199219 132.449219 L 321.898438 128.500000 L 319.000000 125.648438 L 323.000000 125.101562 L 324.800781 121.449219 "/>
    <path style="stroke:none;fill-rule:evenodd;fill:#000000;fill-opacity:1" d="M 297.250000 69.898438 L 298.550781 72.550781 L 301.449219 72.949219 L 299.351562 75.000000 L 299.851562 77.898438 L 297.250000 76.500000 L 294.648438 77.898438 L 295.148438 75.000000 L 293.050781 72.949219 L 295.949219 72.550781 L 297.250000 69.898438 "/>
    <path style="stroke:none;fill-rule:evenodd;fill:#000000;fill-opacity:1" d="M 278.050781 75.851562 L 279.550781 78.800781 L 282.800781 79.300781 L 280.449219 81.601562 L 281.000000 84.851562 L 278.050781 83.300781 L 275.148438 84.851562 L 275.699219 81.601562 L 273.351562 79.300781 L 276.601562 78.800781 L 278.050781 75.851562 "/>
    <path style="stroke:none;fill-rule:evenodd;fill:#000000;fill-opacity:1" d="M 258.000000 68.550781 L 260.199219 73.050781 L 265.199219 73.800781 L 261.601562 77.300781 L 262.449219 82.300781 L 258.000000 79.949219 L 253.500000 82.300781 L 254.351562 77.300781 L 250.750000 73.800781 L 255.750000 73.050781 L 258.000000 68.550781 "/>
    <path style="stroke:none;fill-rule:evenodd;fill:#000000;fill-opacity:1" d="M 256.101562 87.648438 L 257.398438 90.300781 L 260.300781 90.699219 L 258.199219 92.750000 L 258.699219 95.648438 L 256.101562 94.250000 L 253.500000 95.648438 L 254.000000 92.750000 L 251.898438 90.699219 L 254.800781 90.300781 L 256.101562 87.648438 "/>
    <path style="stroke:none;fill-rule:evenodd;fill:#000000;fill-opacity:1" d="M 267.351562 46.250000 L 268.699219 49.050781 L 271.800781 49.500000 L 269.601562 51.648438 L 270.101562 54.699219 L 267.351562 53.250000 L 264.601562 54.699219 L 265.148438 51.648438 L 262.898438 49.500000 L 266.000000 49.050781 L 267.351562 46.250000 "/>
    <path style="stroke:none;fill-rule:evenodd;fill:#000000;fill-opacity:1" d="M 239.750000 50.550781 L 241.500000 54.101562 L 245.449219 54.699219 L 242.601562 57.449219 L 243.250000 61.398438 L 239.750000 59.550781 L 236.250000 61.398438 L 236.898438 57.449219 L 234.050781 54.699219 L 238.000000 54.101562 L 239.750000 50.550781 "/>
    <path style="stroke:none;fill-rule:evenodd;fill:#000000;fill-opacity:1" d="M 208.949219 57.800781 L 210.500000 60.949219 L 213.949219 61.449219 L 211.449219 63.898438 L 212.050781 67.351562 L 208.949219 65.750000 L 205.800781 67.351562 L 206.398438 63.898438 L 203.898438 61.449219 L 207.398438 60.949219 L 208.949219 57.800781 "/>
    <path style="stroke:none;fill-rule:evenodd;fill:#000000;fill-opacity:1" d="M 209.398438 43.750000 L 210.800781 46.601562 L 213.949219 47.050781 L 211.648438 49.300781 L 212.199219 52.449219 L 209.398438 50.949219 L 206.550781 52.449219 L 207.101562 49.300781 L 204.800781 47.050781 L 207.949219 46.601562 L 209.398438 43.750000 "/>
    <path style="stroke:none;fill-rule:evenodd;fill:#000000;fill-opacity:1" d="M 154.250000 123.250000 L 156.199219 127.199219 L 160.601562 127.851562 L 157.398438 130.898438 L 158.148438 135.250000 L 154.250000 133.199219 L 150.351562 135.250000 L 151.101562 130.898438 L 147.949219 127.851562 L 152.300781 127.199219 L 154.250000 123.250000 "/>
    <path style="stroke:none;fill-rule:evenodd;fill:#000000;fill-opacity:1" d="M 155.199219 99.000000 L 157.101562 102.949219 L 161.449219 103.601562 L 158.300781 106.648438 L 159.050781 110.949219 L 155.199219 108.898438 L 151.300781 110.949219 L 152.050781 106.648438 L 148.898438 103.601562 L 153.250000 102.949219 L 155.199219 99.000000 "/>
    <path style="stroke:none;fill-rule:evenodd;fill:#000000;fill-opacity:1" d="M 173.898438 124.750000 L 175.550781 128.101562 L 179.250000 128.648438 L 176.601562 131.250000 L 177.199219 134.949219 L 173.898438 133.199219 L 170.601562 134.949219 L 171.250000 131.250000 L 168.550781 128.648438 L 172.250000 128.101562 L 173.898438 124.750000 "/>
    <path style="stroke:none;fill-rule:evenodd;fill:#000000;fill-opacity:1" d="M 222.500000 93.750000 L 224.050781 96.898438 L 227.500000 97.398438 L 225.000000 99.851562 L 225.601562 103.300781 L 222.500000 101.699219 L 219.351562 103.300781 L 219.949219 99.851562 L 217.449219 97.398438 L 220.898438 96.898438 L 222.500000 93.750000 "/>
    <path style="stroke:none;fill-rule:evenodd;fill:#000000;fill-opacity:1" d="M 223.398438 107.050781 L 224.750000 109.800781 L 227.800781 110.250000 L 225.601562 112.398438 L 226.101562 115.398438 L 223.398438 113.949219 L 220.699219 115.398438 L 221.199219 112.398438 L 219.000000 110.250000 L 222.050781 109.800781 L 223.398438 107.050781 "/>
  </g>
  <g id="surface4">
    <text style="fill:#000000" font-family="Volkhov" font-size="50" transform="matrix(1.078690023838537,0,0,1.078690023838537,168.6834881167556,256.8385605721249)" xml:space="preserve"><![CDATA[Tiidan]]></text>
  </g>
</svg>