<svg width="25" height="24" viewBox="0 0 25 24" fill="none" xmlns="http://www.w3.org/2000/svg">
<rect width="24" height="24" fill="black" fill-opacity="0" transform="translate(0.396484)"/>
<path d="M12.3965 20C16.8058 20 20.3965 16.4093 20.3965 12C20.3965 7.59069 16.8058 4 12.3965 4C7.98718 4 4.39648 7.59069 4.39648 12C4.39648 16.4279 7.98718 20 12.3965 20ZM12.9546 18.7907V16.2791H14.8895C14.443 17.5628 13.7732 18.5116 12.9546 18.7907ZM11.8383 18.7907C11.0197 18.493 10.35 17.5628 9.90346 16.2791H11.8383V18.7907ZM14.9639 18.4C15.3732 17.8233 15.7267 17.1163 16.0058 16.2977H17.7918C17.0476 17.2093 16.0802 17.9349 14.9639 18.4ZM9.82904 18.4C8.71276 17.9535 7.74532 17.2279 7.01974 16.2977H8.80579C9.06625 17.0977 9.41974 17.8047 9.82904 18.4ZM18.4988 15.1814H16.3221C16.5081 14.3814 16.6197 13.4884 16.6569 12.5767H19.2616C19.1872 13.507 18.9081 14.3814 18.4988 15.1814ZM15.2244 15.1814H12.9546V12.5767H15.5407C15.5221 13.4884 15.4104 14.3628 15.2244 15.1814ZM11.8383 15.1814H9.56858C9.38253 14.3814 9.2709 13.4884 9.23369 12.5767H11.8383V15.1814ZM8.4709 15.1814H6.29416C5.88486 14.4 5.62439 13.507 5.54997 12.5767H8.13602C8.15462 13.4884 8.28486 14.3628 8.4709 15.1814ZM19.2616 11.4605H16.6756C16.6383 10.5488 16.5267 9.65582 16.3407 8.85582H18.5174C18.9267 9.63721 19.1872 10.5302 19.2616 11.4605ZM15.5407 11.4605H12.9546V8.85582H15.2244C15.4104 9.65582 15.5221 10.5488 15.5407 11.4605ZM11.8383 11.4605H9.2523C9.28951 10.5488 9.40114 9.65582 9.58718 8.85582H11.8383V11.4605ZM8.13602 11.4605H5.54997C5.62439 10.5302 5.88486 9.63721 6.29416 8.85582H8.4709C8.28486 9.65582 8.15462 10.5302 8.13602 11.4605ZM17.7918 7.73954H16.0058C15.7267 6.92093 15.3732 6.21396 14.9639 5.63721C16.0802 6.06512 17.0476 6.80931 17.7918 7.73954ZM14.8895 7.73954H12.9546V5.2279C13.7732 5.50697 14.443 6.45582 14.8895 7.73954ZM11.8383 7.73954H9.90346C10.35 6.45582 11.0197 5.52557 11.8383 5.2279V7.73954ZM8.78718 7.73954H7.00114C7.74532 6.80931 8.71276 6.08373 9.82904 5.63721C9.40114 6.19535 9.06625 6.92093 8.78718 7.73954Z" fill="#4C84FF"/>
</svg>
