<svg height="512pt" viewBox="0 0 512 512" width="512pt" xmlns="http://www.w3.org/2000/svg"><path d="m256 0c-140.699219 0-256 115.300781-256 256s115.300781 256 256 256 256-115.300781 256-256-115.300781-256-256-256zm159.550781 415.550781c-42.851562 42.851563-99.515625 66.449219-159.550781 66.449219s-116.699219-23.597656-159.550781-66.449219c-42.851563-42.851562-66.449219-99.515625-66.449219-159.550781s23.597656-116.699219 66.449219-159.550781c42.851562-42.851563 99.515625-66.449219 159.550781-66.449219s116.699219 23.597656 159.550781 66.449219c42.851563 42.851562 66.449219 99.515625 66.449219 159.550781s-23.597656 116.699219-66.449219 159.550781zm0 0"/><path d="m394.335938 117.664062c-37.183594-37.183593-86.3125-57.664062-138.335938-57.664062s-101.152344 20.480469-138.335938 57.664062c-37.183593 37.183594-57.664062 86.3125-57.664062 138.335938s20.480469 101.152344 57.664062 138.335938c37.183594 37.183593 86.3125 57.664062 138.335938 57.664062s101.152344-20.480469 138.335938-57.664062c37.183593-37.183594 57.664062-86.3125 57.664062-138.335938s-20.480469-101.152344-57.664062-138.335938zm-63.335938 153.335938v30h-60v90h-30v-90h-60v-30h60v-10.5l-67.5-101.101562 24.898438-16.796876 57.601562 86.398438 57.601562-86.398438 24.898438 16.796876-67.5 101.101562v10.5zm0 0"/></svg>