<svg width="28" height="20" viewBox="0 0 28 20" fill="none" xmlns="http://www.w3.org/2000/svg">
<rect width="28" height="20" fill="black" fill-opacity="0"/>
<path fill-rule="evenodd" clip-rule="evenodd" d="M0 2C0 0.895431 0.895431 0 2 0H26C27.1046 0 28 0.895431 28 2V18C28 19.1046 27.1046 20 26 20H2C0.895431 20 0 19.1046 0 18V2Z" fill="white"/>
<mask id="mask0" mask-type="alpha" maskUnits="userSpaceOnUse" x="0" y="0" width="28" height="20">
<path fill-rule="evenodd" clip-rule="evenodd" d="M0 2C0 0.895431 0.895431 0 2 0H26C27.1046 0 28 0.895431 28 2V18C28 19.1046 27.1046 20 26 20H2C0.895431 20 0 19.1046 0 18V2Z" fill="white"/>
</mask>
<g mask="url(#mask0)">
<path fill-rule="evenodd" clip-rule="evenodd" d="M0 0H28V20H0V0Z" fill="#157CBB"/>
<path fill-rule="evenodd" clip-rule="evenodd" d="M0 12H8V20H12V12H28V8H12V0H8V8H0V12Z" fill="#FFD34D"/>
<path fill-rule="evenodd" clip-rule="evenodd" d="M0 10.6667H9.33333V20H10.6667V10.6667H28V9.33333H10.6667V0H9.33333V9.33333H0V10.6667Z" fill="#EB363A"/>
</g>
</svg>
