<svg width="28" height="20" viewBox="0 0 28 20" fill="none" xmlns="http://www.w3.org/2000/svg">
<rect width="28" height="20" fill="black" fill-opacity="0"/>
<path fill-rule="evenodd" clip-rule="evenodd" d="M0 2C0 0.895431 0.895431 0 2 0H26C27.1046 0 28 0.895431 28 2V18C28 19.1046 27.1046 20 26 20H2C0.895431 20 0 19.1046 0 18V2Z" fill="white"/>
<mask id="mask0" mask-type="alpha" maskUnits="userSpaceOnUse" x="0" y="0" width="28" height="20">
<path fill-rule="evenodd" clip-rule="evenodd" d="M0 2C0 0.895431 0.895431 0 2 0H26C27.1046 0 28 0.895431 28 2V18C28 19.1046 27.1046 20 26 20H2C0.895431 20 0 19.1046 0 18V2Z" fill="white"/>
</mask>
<g mask="url(#mask0)">
<path fill-rule="evenodd" clip-rule="evenodd" d="M0 0H28V20H0V0Z" fill="#F7E250"/>
<rect width="38.6667" height="8" fill="black" fill-opacity="0" transform="translate(-2.79932 -0.371155) rotate(20)"/>
<path fill-rule="evenodd" clip-rule="evenodd" d="M-4.1674 3.38762L32.1674 16.6124L33.5355 12.8536L-2.79932 -0.371155L-4.1674 3.38762Z" fill="white"/>
<path fill-rule="evenodd" clip-rule="evenodd" d="M-5.5355 7.14639L30.7993 20.3712L32.1674 16.6124L-4.16742 3.38762L-5.5355 7.14639Z" fill="#262626"/>
</g>
</svg>
