<svg width="28" height="20" viewBox="0 0 28 20" fill="none" xmlns="http://www.w3.org/2000/svg">
<rect width="28" height="20" fill="black" fill-opacity="0"/>
<path fill-rule="evenodd" clip-rule="evenodd" d="M0 2C0 0.895431 0.895431 0 2 0H26C27.1046 0 28 0.895431 28 2V18C28 19.1046 27.1046 20 26 20H2C0.895431 20 0 19.1046 0 18V2Z" fill="white"/>
<mask id="mask0" mask-type="alpha" maskUnits="userSpaceOnUse" x="0" y="0" width="28" height="20">
<path fill-rule="evenodd" clip-rule="evenodd" d="M0 2C0 0.895431 0.895431 0 2 0H26C27.1046 0 28 0.895431 28 2V18C28 19.1046 27.1046 20 26 20H2C0.895431 20 0 19.1046 0 18V2Z" fill="white"/>
</mask>
<g mask="url(#mask0)">
<path fill-rule="evenodd" clip-rule="evenodd" d="M0 13.3333H28V0H0V13.3333Z" fill="#E54252"/>
<path fill-rule="evenodd" clip-rule="evenodd" d="M0 20H28V13.3333H0V20Z" fill="#5CBE6B"/>
<path fill-rule="evenodd" clip-rule="evenodd" d="M0 0H4V2.99995L3.33331 4L4 5.00005V6.99995L3.33331 8L4 9.00005V11L3.33331 12L4 13V15L3.33331 16L4 17V20H0V0Z" fill="white"/>
<path fill-rule="evenodd" clip-rule="evenodd" d="M-0.666687 2L-2 4L-0.666687 6L-2 8L-0.666687 10L-2 12L-0.666687 14L-2 16L-0.666687 18L0.666687 16L-0.666687 14L0.666687 12L-0.666687 10L0.666687 8L-0.666687 6L0.666687 4L-0.666687 2Z" fill="#E54252"/>
<path fill-rule="evenodd" clip-rule="evenodd" d="M0.666687 2L2 0L3.33337 2L2 4L0.666687 2ZM2 8L0.666687 6L2 4L3.33337 6L2 8ZM2 12L0.666687 10L2 8L3.33337 10L2 12ZM2 16L3.33337 14L2 12L0.666687 14L2 16ZM2 16L3.33337 18L2 20L0.666687 18L2 16Z" fill="#E54252"/>
</g>
</svg>
