<svg width="28" height="20" viewBox="0 0 28 20" fill="none" xmlns="http://www.w3.org/2000/svg">
<rect width="28" height="20" fill="black" fill-opacity="0"/>
<path fill-rule="evenodd" clip-rule="evenodd" d="M0 2C0 0.895431 0.895431 0 2 0H26C27.1046 0 28 0.895431 28 2V18C28 19.1046 27.1046 20 26 20H2C0.895431 20 0 19.1046 0 18V2Z" fill="white"/>
<mask id="mask0" mask-type="alpha" maskUnits="userSpaceOnUse" x="0" y="0" width="28" height="20">
<path fill-rule="evenodd" clip-rule="evenodd" d="M0 2C0 0.895431 0.895431 0 2 0H26C27.1046 0 28 0.895431 28 2V18C28 19.1046 27.1046 20 26 20H2C0.895431 20 0 19.1046 0 18V2Z" fill="white"/>
</mask>
<g mask="url(#mask0)">
<path fill-rule="evenodd" clip-rule="evenodd" d="M0 0H28V20H0V0Z" fill="#19BFBF"/>
<path fill-rule="evenodd" clip-rule="evenodd" d="M5.48242 8.36853C5.40009 8.5332 5.4668 8.7334 5.63147 8.81567L7.70184 9.85083C7.86652 9.93323 7.93329 10.1334 7.85095 10.2981L7.48242 11.0352C7.40009 11.1998 7.19983 11.2666 7.03522 11.1842L6.07037 10.7018C6.02411 10.6787 5.97308 10.6666 5.92133 10.6666H4.33331C4.14923 10.6666 4 10.8159 4 11V11.7598C4 11.9032 4.0918 12.0305 4.22791 12.0759L5.48834 12.4961C5.72339 12.5745 5.79382 12.8728 5.61865 13.048L5.43097 13.2357C5.36847 13.2982 5.33331 13.3829 5.33331 13.4713V13.9459C5.33331 13.9817 5.33911 14.0173 5.35046 14.0513L5.95636 15.869C5.98431 15.9529 6.04443 16.0222 6.12347 16.0616L7.11847 16.5592C7.24677 16.6233 7.40179 16.5981 7.50323 16.4967L8.66669 15.3333L9.00629 14.9937C9.16718 14.8328 9.12317 14.5615 8.91968 14.4598L8.18427 14.092C8.07135 14.0356 8 13.9202 8 13.7939V13.7603C8 13.5433 8.2038 13.3843 8.41418 13.4369L10.4142 13.9369C10.5626 13.9739 10.6667 14.1073 10.6667 14.2603V15.2324C10.6667 15.2982 10.6862 15.3625 10.7227 15.4172L11.9011 17.1848C11.9629 17.2776 12.067 17.3333 12.1784 17.3333H12.441C12.5773 17.3333 12.6999 17.2504 12.7505 17.1238L13.7243 14.6892C13.8311 14.4221 14.2033 14.4066 14.332 14.6638L14.6425 15.2849C14.6585 15.317 14.6796 15.3462 14.7049 15.3716L15.9617 16.6284C15.9871 16.6537 16.0164 16.6748 16.0484 16.6908L16.851 17.092C17.0726 17.2029 17.3333 17.0417 17.3333 16.7939V16.1381C17.3333 16.0497 17.2982 15.9648 17.2357 15.9023L16.9023 15.569C16.7722 15.4388 16.7722 15.2278 16.9023 15.0975L17.2357 14.7643C17.2982 14.7018 17.383 14.6666 17.4714 14.6666H18.588C18.6397 14.6666 18.6907 14.6545 18.7371 14.6315L19.8157 14.092C19.9286 14.0356 20 13.9202 20 13.7939V12.8047C20 12.7163 19.9649 12.6315 19.9023 12.569L19.569 12.2357C19.4388 12.1055 19.4388 11.8944 19.569 11.7643L20.3397 10.9937C20.5005 10.8328 20.7717 10.8768 20.8735 11.0803L21.2509 11.8352C21.3015 11.9362 21.4047 12 21.5176 12C21.7393 12 21.8834 11.7667 21.7842 11.5685L21.4824 10.9647C21.4001 10.8 21.4668 10.5999 21.6315 10.5176L22.3685 10.149C22.5332 10.0667 22.5999 9.86646 22.5176 9.70178L22.0618 8.79016C22.0222 8.71106 21.9529 8.65088 21.869 8.62292L20.5117 8.17053C20.2766 8.09216 20.2062 7.79382 20.3813 7.61853L21.2357 6.76428C21.2982 6.70178 21.383 6.66663 21.4714 6.66663H23.1273C23.2536 6.66663 23.369 6.59534 23.4255 6.48242L23.7816 5.77014C23.8866 5.56018 23.7474 5.3103 23.5136 5.28906L17.3754 4.73108C17.094 4.70544 16.9701 4.36328 17.1699 4.16345L17.2357 4.09753C17.2982 4.03503 17.3333 3.95032 17.3333 3.86194V3C17.3333 2.81592 17.1841 2.66663 17 2.66663H14.1381C14.0497 2.66663 13.9649 2.70178 13.9023 2.76428L12.0653 4.60132C12.0226 4.64404 11.9691 4.67432 11.9104 4.68896L9.33331 5.33325L6.78632 5.97009C6.70911 5.98938 6.62756 5.98035 6.5564 5.94482L6.0531 5.69324C5.78748 5.56042 5.4939 5.81506 5.58783 6.09668L5.95636 7.20227C5.98431 7.28613 5.97778 7.37769 5.93823 7.45679L5.48242 8.36853ZM14.6666 16.6666C14.6666 17.0349 14.3682 17.3334 14 17.3334C13.6318 17.3334 13.3333 17.0349 13.3333 16.6666C13.3333 16.2985 13.6318 16 14 16C14.3682 16 14.6666 16.2985 14.6666 16.6666ZM10 10.6666C10.3682 10.6666 10.6666 10.3682 10.6666 9.99988C10.6666 9.63171 10.3682 9.33325 10 9.33325C9.63177 9.33325 9.33331 9.63171 9.33331 9.99988C9.33331 10.3682 9.63177 10.6666 10 10.6666ZM22.6667 12.6666V13.3334L21.9024 14.0977C21.6924 14.3076 21.8411 14.6666 22.1381 14.6666H22.4607C22.5869 14.6666 22.7023 14.5953 22.7588 14.4824L23.3334 13.3334L22.6667 12.6666ZM22.6667 12.6666L23.0352 12.4824C23.2756 12.3622 23.1901 12 22.9213 12C22.7807 12 22.6667 12.114 22.6667 12.2546V12.6666Z" fill="white"/>
</g>
</svg>
