<svg width="28" height="20" viewBox="0 0 28 20" fill="none" xmlns="http://www.w3.org/2000/svg">
<rect width="28" height="20" fill="black" fill-opacity="0"/>
<path fill-rule="evenodd" clip-rule="evenodd" d="M0 2C0 0.895431 0.895431 0 2 0H26C27.1046 0 28 0.895431 28 2V18C28 19.1046 27.1046 20 26 20H2C0.895431 20 0 19.1046 0 18V2Z" fill="white"/>
<mask id="mask0" mask-type="alpha" maskUnits="userSpaceOnUse" x="0" y="0" width="28" height="20">
<path fill-rule="evenodd" clip-rule="evenodd" d="M0 2C0 0.895431 0.895431 0 2 0H26C27.1046 0 28 0.895431 28 2V18C28 19.1046 27.1046 20 26 20H2C0.895431 20 0 19.1046 0 18V2Z" fill="white"/>
</mask>
<g mask="url(#mask0)">
<path fill-rule="evenodd" clip-rule="evenodd" d="M0 2C0 0.895431 0.895431 0 2 0H26C27.1046 0 28 0.895431 28 2V18C28 19.1046 27.1046 20 26 20H2C0.895431 20 0 19.1046 0 18V2Z" fill="#158AFF"/>
<path fill-rule="evenodd" clip-rule="evenodd" d="M32.3591 5.20456L-2.09312 22.7589L-5.72505 15.6308L28.7272 -1.92349L32.3591 5.20456Z" fill="#FDD216"/>
<path fill-rule="evenodd" clip-rule="evenodd" d="M32.1217 3.7738L-2.33055 21.3281L-4.75183 16.5761L29.7004 -0.978231L32.1217 3.7738Z" fill="#CE1120"/>
<path fill-rule="evenodd" clip-rule="evenodd" d="M4.66665 5.96668L2.70736 7.3634L3.43027 5.0684L1.49646 3.63662L3.90253 3.61495L4.66665 1.33334L5.43077 3.61495L7.83683 3.63662L5.90302 5.0684L6.62593 7.3634L4.66665 5.96668Z" fill="#FDD216"/>
</g>
</svg>
