<svg width="28" height="20" viewBox="0 0 28 20" fill="none" xmlns="http://www.w3.org/2000/svg">
<rect width="28" height="20" fill="black" fill-opacity="0"/>
<path fill-rule="evenodd" clip-rule="evenodd" d="M0 2C0 0.895431 0.895431 0 2 0H26C27.1046 0 28 0.895431 28 2V18C28 19.1046 27.1046 20 26 20H2C0.895431 20 0 19.1046 0 18V2Z" fill="white"/>
<mask id="mask0" mask-type="alpha" maskUnits="userSpaceOnUse" x="0" y="0" width="28" height="20">
<path fill-rule="evenodd" clip-rule="evenodd" d="M0 2C0 0.895431 0.895431 0 2 0H26C27.1046 0 28 0.895431 28 2V18C28 19.1046 27.1046 20 26 20H2C0.895431 20 0 19.1046 0 18V2Z" fill="white"/>
</mask>
<g mask="url(#mask0)">
<path fill-rule="evenodd" clip-rule="evenodd" d="M0 0H28V20H0V0Z" fill="#19BFBF"/>
<path fill-rule="evenodd" clip-rule="evenodd" d="M17.0976 17.7643L16.0556 16.7223C16.019 16.6857 15.9915 16.6411 15.9751 16.5919L15.4092 14.8944C15.3639 14.7584 15.2366 14.6666 15.0933 14.6666C14.8766 14.6666 14.7176 14.8702 14.7701 15.0804L15.2875 17.1501C15.3159 17.2638 15.2827 17.3839 15.1999 17.4668L14.9023 17.7643C14.7722 17.8944 14.5611 17.8944 14.431 17.7643L14.0976 17.4309C14.0351 17.3684 14 17.2836 14 17.1952V16.0786C14 16.0269 13.9879 15.9758 13.9648 15.9296L13.4254 14.8508C13.369 14.7379 13.2536 14.6666 13.1273 14.6666H11.412C11.3603 14.6666 11.3092 14.6787 11.2629 14.7018L10.1235 15.2716C10.0444 15.311 9.98428 15.3804 9.95633 15.4642L9.37698 17.2023C9.34903 17.2861 9.28891 17.3555 9.20984 17.395L8.14905 17.9254C8.05521 17.9723 7.94476 17.9723 7.85092 17.9254L6.85092 17.4254C6.73798 17.369 6.66666 17.2535 6.66666 17.1273V15C6.66666 14.8159 6.81589 14.6666 7 14.6666H8.33331C8.51743 14.6666 8.66666 14.5173 8.66666 14.3333V13.3873C8.66666 13.3516 8.67242 13.3159 8.68378 13.282L9.25735 11.5612C9.30273 11.425 9.43011 11.3333 9.57358 11.3333H10.588C10.6397 11.3333 10.6908 11.3213 10.737 11.2981L11.9296 10.7018C11.9759 10.6787 12.0269 10.6666 12.0787 10.6666H13C13.1841 10.6666 13.3333 10.5173 13.3333 10.3333V10.1381C13.3333 10.0497 13.3684 9.96484 13.431 9.90234L13.673 9.66028C13.8339 9.49939 14.1051 9.54346 14.2068 9.74695L14.5745 10.4824C14.631 10.5953 14.7464 10.6666 14.8727 10.6666H16.4264C16.5699 10.6666 16.6973 10.5748 16.7426 10.4387L17.2574 8.89453C17.3027 8.75842 17.4301 8.66663 17.5736 8.66663H18.3333C18.5174 8.66663 18.6667 8.51733 18.6667 8.33325C18.6667 8.14917 18.5174 8 18.3333 8H17.6667C17.4826 8 17.3333 7.85071 17.3333 7.66663V6.74536C17.3333 6.6936 17.3454 6.64258 17.3685 6.59619L17.8925 5.54822C17.9567 5.4198 17.9315 5.26489 17.8301 5.16345L17.569 4.90234C17.4388 4.77209 17.2278 4.77209 17.0976 4.90234L16.0976 5.90234C16.0351 5.96484 16 6.04968 16 6.13806V7.27917C16 7.31506 15.9942 7.35059 15.9829 7.38464L15.4093 9.10535C15.3639 9.24146 15.2365 9.33325 15.0931 9.33325H14.8047C14.7163 9.33325 14.6315 9.29822 14.569 9.23572L14.0961 8.7627C14.0345 8.70117 14 8.6178 14 8.53076C14 8.28687 13.7433 8.1283 13.5252 8.2373L12.8815 8.5592C12.7532 8.62329 12.5982 8.59814 12.4968 8.4967L12.0976 8.09753C12.0351 8.03503 12 7.95032 12 7.86194V6.80469C12 6.71631 12.0351 6.63147 12.0976 6.56897L13.3333 5.33325L15.2777 3.38892C15.3143 3.35229 15.3589 3.32483 15.408 3.30835L17.282 2.68372C17.316 2.67236 17.3516 2.66663 17.3874 2.66663H18.4606C18.5869 2.66663 18.7023 2.73792 18.7588 2.85083L19.2981 3.92957C19.3213 3.97583 19.3333 4.02686 19.3333 4.07861V5.86194C19.3333 5.95032 19.3684 6.03503 19.431 6.09753L19.8543 6.521C19.9436 6.61023 19.9748 6.74231 19.9348 6.86206L19.4138 8.42505C19.3663 8.56775 19.4201 8.72449 19.5452 8.80786L21.3333 10L22.3289 10.4978C22.5083 10.5874 22.5684 10.814 22.4572 10.9808L21.3893 12.5826C21.3528 12.6375 21.3333 12.7018 21.3333 12.7676V14.4264C21.3333 14.5698 21.2415 14.6973 21.1054 14.7426L19.4643 15.2897C19.3804 15.3176 19.3111 15.3777 19.2716 15.4568L18.6909 16.6183C18.6748 16.6503 18.6537 16.6796 18.6284 16.7048L17.569 17.7643C17.4388 17.8944 17.2278 17.8944 17.0976 17.7643ZM11.3333 17.3334C11.7015 17.3334 12 17.0349 12 16.6666C12 16.2985 11.7015 16 11.3333 16C10.9651 16 10.6667 16.2985 10.6667 16.6666C10.6667 17.0349 10.9651 17.3334 11.3333 17.3334ZM9.33334 8.66663C9.33334 9.03491 9.03485 9.33337 8.66666 9.33337C8.29846 9.33337 8 9.03491 8 8.66663C8 8.29846 8.29846 8 8.66666 8C9.03485 8 9.33334 8.29846 9.33334 8.66663Z" fill="white"/>
<path fill-rule="evenodd" clip-rule="evenodd" d="M9.96482 8.73701C9.98796 8.69072 10 8.63969 10 8.58794V8.07865C10 8.0269 9.98796 7.97586 9.96482 7.92958L9.57455 7.14903C9.46373 6.9274 9.62489 6.66663 9.87269 6.66663H10.3333C10.5174 6.66663 10.6667 6.81586 10.6667 6.99996V8.58794C10.6667 8.63969 10.6787 8.69072 10.7019 8.73701L11.0921 9.51755C11.203 9.73919 11.0418 9.99996 10.794 9.99996H9.87269C9.62489 9.99996 9.46373 9.73919 9.57455 9.51755L9.96482 8.73701Z" fill="white"/>
</g>
</svg>
