<svg width="28" height="20" viewBox="0 0 28 20" fill="none" xmlns="http://www.w3.org/2000/svg">
<rect width="28" height="20" fill="black" fill-opacity="0"/>
<path fill-rule="evenodd" clip-rule="evenodd" d="M0 2C0 0.895431 0.895431 0 2 0H26C27.1046 0 28 0.895431 28 2V18C28 19.1046 27.1046 20 26 20H2C0.895431 20 0 19.1046 0 18V2Z" fill="white"/>
<mask id="mask0" mask-type="alpha" maskUnits="userSpaceOnUse" x="0" y="0" width="28" height="20">
<path fill-rule="evenodd" clip-rule="evenodd" d="M0 2C0 0.895431 0.895431 0 2 0H26C27.1046 0 28 0.895431 28 2V18C28 19.1046 27.1046 20 26 20H2C0.895431 20 0 19.1046 0 18V2Z" fill="white"/>
</mask>
<g mask="url(#mask0)">
<path fill-rule="evenodd" clip-rule="evenodd" d="M6.66666 18.6667L26.6667 0H28V20H6.66666V18.6667Z" fill="#F33630"/>
<path fill-rule="evenodd" clip-rule="evenodd" d="M21.3333 1.33333L1.33334 20H9.53674e-06V0H21.3333V1.33333Z" fill="#009643"/>
<path fill-rule="evenodd" clip-rule="evenodd" d="M30.2404 -2.05875L3.38023 25.7557L-1.41537 21.1247L25.4448 -6.6898L30.2404 -2.05875Z" fill="#FCDF4A"/>
</g>
</svg>
