<svg width="28" height="20" viewBox="0 0 28 20" fill="none" xmlns="http://www.w3.org/2000/svg">
<rect width="28" height="20" fill="black" fill-opacity="0"/>
<path d="M0.25 2C0.25 1.0335 1.0335 0.25 2 0.25H26C26.9665 0.25 27.75 1.0335 27.75 2V18C27.75 18.9665 26.9665 19.75 26 19.75H2C1.0335 19.75 0.25 18.9665 0.25 18V2Z" fill="white" stroke="#F5F5F5" stroke-width="0.5"/>
<mask id="mask0" mask-type="alpha" maskUnits="userSpaceOnUse" x="0" y="0" width="28" height="20">
<path d="M0.25 2C0.25 1.0335 1.0335 0.25 2 0.25H26C26.9665 0.25 27.75 1.0335 27.75 2V18C27.75 18.9665 26.9665 19.75 26 19.75H2C1.0335 19.75 0.25 18.9665 0.25 18V2Z" fill="white" stroke="white" stroke-width="0.5"/>
</mask>
<g mask="url(#mask0)">
<path fill-rule="evenodd" clip-rule="evenodd" d="M0 20H28V9.33334H0V20Z" fill="#EA3B2E"/>
<path fill-rule="evenodd" clip-rule="evenodd" d="M0 0H9.33333V9.33333H0V0Z" fill="#0B48C2"/>
<path fill-rule="evenodd" clip-rule="evenodd" d="M4.66667 5.70667L3.09924 6.82405L3.67757 4.98804L2.13052 3.84262L4.05537 3.82529L4.66667 2L5.27796 3.82529L7.20282 3.84262L5.65577 4.98804L6.23409 6.82405L4.66667 5.70667Z" fill="white"/>
</g>
</svg>
