<svg width="28" height="20" viewBox="0 0 28 20" fill="none" xmlns="http://www.w3.org/2000/svg">
<rect width="28" height="20" fill="black" fill-opacity="0"/>
<path fill-rule="evenodd" clip-rule="evenodd" d="M0 2C0 0.895431 0.895431 0 2 0H26C27.1046 0 28 0.895431 28 2V18C28 19.1046 27.1046 20 26 20H2C0.895431 20 0 19.1046 0 18V2Z" fill="white"/>
<mask id="mask0" mask-type="alpha" maskUnits="userSpaceOnUse" x="0" y="0" width="28" height="20">
<path fill-rule="evenodd" clip-rule="evenodd" d="M0 2C0 0.895431 0.895431 0 2 0H26C27.1046 0 28 0.895431 28 2V18C28 19.1046 27.1046 20 26 20H2C0.895431 20 0 19.1046 0 18V2Z" fill="white"/>
</mask>
<g mask="url(#mask0)">
<path fill-rule="evenodd" clip-rule="evenodd" d="M0 0H28V20H0V0Z" fill="#F1361D"/>
<path fill-rule="evenodd" clip-rule="evenodd" d="M10.0726 3.10077L11.0411 3.26587L11.7674 3.92737L11.9325 2.95892L12.594 2.23257L11.6256 2.06747L10.8992 1.40598L10.7341 2.37442L10.0726 3.10077ZM12.6667 6.48804L13.5059 5.97729L14.488 6L13.9773 5.1608L14 4.17865L13.1608 4.68939L12.1786 4.66669L12.6894 5.50589L12.6667 6.48804ZM11.5282 11.9709L10.7074 12.5106L10.6958 11.5283L10.1561 10.7074L11.1384 10.6958L11.9593 10.1561L11.9709 11.1384L12.5106 11.9593L11.5282 11.9709ZM12.2411 9.43146L13.2176 9.32321L14.0981 9.75888L13.9899 8.78244L14.4255 7.90192L13.4491 8.01013L12.5685 7.57446L12.6768 8.5509L12.2411 9.43146Z" fill="#FFDC42"/>
<path fill-rule="evenodd" clip-rule="evenodd" d="M6.66666 8.22666L4.31552 9.90272L5.18301 7.14872L2.86243 5.43059L5.74971 5.40459L6.66666 2.66666L7.5836 5.40459L10.4709 5.43059L8.1503 7.14872L9.0178 9.90272L6.66666 8.22666Z" fill="#FFDC42"/>
</g>
</svg>
