<svg width="28" height="20" viewBox="0 0 28 20" fill="none" xmlns="http://www.w3.org/2000/svg">
<rect width="28" height="20" fill="black" fill-opacity="0"/>
<path fill-rule="evenodd" clip-rule="evenodd" d="M0 2C0 0.895431 0.895431 0 2 0H26C27.1046 0 28 0.895431 28 2V18C28 19.1046 27.1046 20 26 20H2C0.895431 20 0 19.1046 0 18V2Z" fill="white"/>
<mask id="mask0" mask-type="alpha" maskUnits="userSpaceOnUse" x="0" y="0" width="28" height="20">
<path fill-rule="evenodd" clip-rule="evenodd" d="M0 2C0 0.895431 0.895431 0 2 0H26C27.1046 0 28 0.895431 28 2V18C28 19.1046 27.1046 20 26 20H2C0.895431 20 0 19.1046 0 18V2Z" fill="white"/>
</mask>
<g mask="url(#mask0)">
<path fill-rule="evenodd" clip-rule="evenodd" d="M0 0H28V20H0V0Z" fill="url(#paint0_linear)"/>
<path fill-rule="evenodd" clip-rule="evenodd" d="M13.4444 3.33325C13.3723 3.33325 13.3021 3.35669 13.2445 3.3999L10.7205 5.29285C10.6849 5.31958 10.6445 5.33887 10.6013 5.34961L8.03547 5.99109C8.01191 5.99695 7.98903 6.00549 7.96724 6.01636L5.43269 7.28357C5.36818 7.3158 5.31587 7.36816 5.28364 7.43262L4.0865 9.8269C4.03303 9.93396 4.04097 10.0614 4.10731 10.1609L5.27736 11.916C5.31386 11.9707 5.33333 12.035 5.33333 12.1008V13.8619C5.33333 13.9503 5.36842 14.035 5.43098 14.0975L6.49678 15.1635C6.59822 15.2649 6.75325 15.29 6.88154 15.2258L10.5963 13.3685C10.6426 13.3453 10.6936 13.3333 10.7454 13.3333H13.2127C13.2906 13.3333 13.3662 13.3606 13.426 13.4105L17.2406 16.5894C17.3005 16.6393 17.376 16.6666 17.454 16.6666H19.8216C19.9331 16.6666 20.0371 16.611 20.099 16.5182L22.6107 12.7506C22.6472 12.6958 22.6666 12.6315 22.6666 12.5657V10.1008C22.6666 10.035 22.6472 9.9707 22.6107 9.91602L20 6L18.0971 2.82849C18.0369 2.72803 17.9284 2.66663 17.8113 2.66663H17.3927C17.1248 2.66663 16.9906 2.9906 17.1801 3.18005C17.2716 3.27161 17.2943 3.41138 17.2364 3.52722L16.7588 4.48242C16.7023 4.59534 16.5869 4.66663 16.4606 4.66663H14.8727C14.7464 4.66663 14.631 4.59534 14.5745 4.48242L14.0921 3.51758C14.0357 3.40466 13.9202 3.33325 13.794 3.33325H13.4444ZM19.3333 17.3334H18L18.4309 17.7643C18.5611 17.8945 18.7722 17.8945 18.9024 17.7643L19.3333 17.3334Z" fill="white"/>
</g>
<defs>
<linearGradient id="paint0_linear" x1="0" y1="0" x2="0" y2="20" gradientUnits="userSpaceOnUse">
<stop stop-color="#19BFBF"/>
<stop offset="1" stop-color="#10ACAC"/>
</linearGradient>
</defs>
</svg>
