<svg width="28" height="20" viewBox="0 0 28 20" fill="none" xmlns="http://www.w3.org/2000/svg">
<rect width="28" height="20" fill="black" fill-opacity="0"/>
<path fill-rule="evenodd" clip-rule="evenodd" d="M0 2C0 0.895431 0.895431 0 2 0H26C27.1046 0 28 0.895431 28 2V18C28 19.1046 27.1046 20 26 20H2C0.895431 20 0 19.1046 0 18V2Z" fill="white"/>
<mask id="mask0" mask-type="alpha" maskUnits="userSpaceOnUse" x="0" y="0" width="28" height="20">
<path fill-rule="evenodd" clip-rule="evenodd" d="M0 2C0 0.895431 0.895431 0 2 0H26C27.1046 0 28 0.895431 28 2V18C28 19.1046 27.1046 20 26 20H2C0.895431 20 0 19.1046 0 18V2Z" fill="white"/>
</mask>
<g mask="url(#mask0)">
<path fill-rule="evenodd" clip-rule="evenodd" d="M0 0H28V20H0V0Z" fill="#043CAE"/>
<path fill-rule="evenodd" clip-rule="evenodd" d="M13.0572 4.27612L14 4L14.9428 4.27612L14.6667 3.33337L14.9428 2.3905L14 2.66663L13.0572 2.3905L13.3333 3.33337L13.0572 4.27612ZM13.0572 17.6094L14 17.3333L14.9428 17.6094L14.6667 16.6666L14.9428 15.7238L14 15.9999L13.0572 15.7238L13.3333 16.6666L13.0572 17.6094ZM20.6667 10.6666L19.7238 10.9427L20 10L19.7238 9.05713L20.6667 9.33325L21.6095 9.05713L21.3333 10L21.6095 10.9427L20.6667 10.6666ZM6.39052 10.9427L7.33333 10.6666L8.27614 10.9427L8 10L8.27614 9.05713L7.33333 9.33325L6.39052 9.05713L6.66667 10L6.39052 10.9427ZM19.7735 7.33325L18.8307 7.60938L19.1068 6.66663L18.8307 5.72375L19.7735 5.99988L20.7163 5.72375L20.4402 6.66663L20.7163 7.60938L19.7735 7.33325ZM7.28368 14.2761L8.22649 14L9.1693 14.2761L8.89316 13.3334L9.1693 12.3905L8.22649 12.6666L7.28368 12.3905L7.55983 13.3334L7.28368 14.2761ZM17.3333 4.89319L16.3905 5.16931L16.6667 4.22656L16.3905 3.28369L17.3333 3.55981L18.2761 3.28369L18 4.22656L18.2761 5.16931L17.3333 4.89319ZM9.72385 16.7163L10.6667 16.4402L11.6095 16.7163L11.3333 15.7736L11.6095 14.8307L10.6667 15.1068L9.72385 14.8307L10 15.7736L9.72385 16.7163ZM19.7735 14L18.8307 14.2761L19.1068 13.3334L18.8307 12.3905L19.7735 12.6666L20.7163 12.3905L20.4402 13.3334L20.7163 14.2761L19.7735 14ZM7.28368 7.60938L8.22649 7.33325L9.1693 7.60938L8.89316 6.66663L9.1693 5.72375L8.22649 5.99988L7.28368 5.72375L7.55983 6.66663L7.28368 7.60938ZM17.3333 16.4402L16.3905 16.7163L16.6667 15.7736L16.3905 14.8307L17.3333 15.1068L18.2761 14.8307L18 15.7736L18.2761 16.7163L17.3333 16.4402ZM9.72385 5.16931L10.6667 4.89319L11.6095 5.16931L11.3333 4.22656L11.6095 3.28369L10.6667 3.55981L9.72385 3.28369L10 4.22656L9.72385 5.16931Z" fill="#FFD429"/>
</g>
</svg>
