<svg width="28" height="20" viewBox="0 0 28 20" fill="none" xmlns="http://www.w3.org/2000/svg">
<rect width="28" height="20" fill="black" fill-opacity="0"/>
<path fill-rule="evenodd" clip-rule="evenodd" d="M0 2C0 0.895431 0.895431 0 2 0H26C27.1046 0 28 0.895431 28 2V18C28 19.1046 27.1046 20 26 20H2C0.895431 20 0 19.1046 0 18V2Z" fill="white"/>
<mask id="mask0" mask-type="alpha" maskUnits="userSpaceOnUse" x="0" y="0" width="28" height="20">
<path fill-rule="evenodd" clip-rule="evenodd" d="M0 2C0 0.895431 0.895431 0 2 0H26C27.1046 0 28 0.895431 28 2V18C28 19.1046 27.1046 20 26 20H2C0.895431 20 0 19.1046 0 18V2Z" fill="white"/>
</mask>
<g mask="url(#mask0)">
<path fill-rule="evenodd" clip-rule="evenodd" d="M0 0H28V20H0V0Z" fill="#95CEF5"/>
<path fill-rule="evenodd" clip-rule="evenodd" d="M12.4326 6.82404L14 5.76001L15.5674 6.82404L15.0398 5.00452L16.5362 3.84262L14.6427 3.78214L14 2L13.3574 3.78214L11.4639 3.84262L12.9602 5.00452L12.4326 6.82404ZM12.4326 17.4907L14 16.4267L15.5674 17.4907L15.0398 15.6712L16.5362 14.5093L14.6427 14.4488L14 12.6667L13.3574 14.4488L11.4639 14.5093L12.9602 15.6712L12.4326 17.4907ZM19.3333 11.0934L17.7659 12.1574L18.2935 10.3379L16.7972 9.17596L18.6907 9.11548L19.3333 7.33334L19.976 9.11548L21.8695 9.17596L20.3732 10.3379L20.9008 12.1574L19.3333 11.0934ZM7.09924 12.1574L8.66666 11.0934L10.2341 12.1574L9.70648 10.3379L11.2028 9.17596L9.30933 9.11548L8.66666 7.33334L8.02402 9.11548L6.13052 9.17596L7.62683 10.3379L7.09924 12.1574Z" fill="white"/>
</g>
</svg>
