<svg width="28" height="20" viewBox="0 0 28 20" fill="none" xmlns="http://www.w3.org/2000/svg">
<rect width="28" height="20" fill="black" fill-opacity="0"/>
<path d="M0.25 2C0.25 1.0335 1.0335 0.25 2 0.25H26C26.9665 0.25 27.75 1.0335 27.75 2V18C27.75 18.9665 26.9665 19.75 26 19.75H2C1.0335 19.75 0.25 18.9665 0.25 18V2Z" fill="white" stroke="#F5F5F5" stroke-width="0.5"/>
<mask id="mask0" mask-type="alpha" maskUnits="userSpaceOnUse" x="0" y="0" width="28" height="20">
<path d="M0.25 2C0.25 1.0335 1.0335 0.25 2 0.25H26C26.9665 0.25 27.75 1.0335 27.75 2V18C27.75 18.9665 26.9665 19.75 26 19.75H2C1.0335 19.75 0.25 18.9665 0.25 18V2Z" fill="white" stroke="white" stroke-width="0.5"/>
</mask>
<g mask="url(#mask0)">
<path fill-rule="evenodd" clip-rule="evenodd" d="M16 21.3333H12V12H-1.33334V8H12V-1.33334H16V8H29.3333V12H16V21.3333Z" fill="#FF2B37"/>
<path fill-rule="evenodd" clip-rule="evenodd" d="M21.6 4.40002L20 4.66669V3.33334L21.6 3.60004L21.3333 2H22.6667L22.4 3.60001L24 3.33334V4.66669L22.4 4.40002L22.6667 6H21.3333L21.6 4.40002Z" fill="#FD0D1B"/>
<path fill-rule="evenodd" clip-rule="evenodd" d="M5.60001 4.40002L4 4.66669V3.33334L5.60004 3.60004L5.33334 2H6.66669L6.40002 3.60001L8 3.33334V4.66669L6.40002 4.40002L6.66669 6H5.33334L5.60001 4.40002Z" fill="#FD0D1B"/>
<path fill-rule="evenodd" clip-rule="evenodd" d="M5.60001 16.4L4 16.6667V15.3333L5.60004 15.6L5.33334 14H6.66669L6.40002 15.6L8 15.3333V16.6667L6.40002 16.4L6.66669 18H5.33334L5.60001 16.4Z" fill="#FD0D1B"/>
<path fill-rule="evenodd" clip-rule="evenodd" d="M21.6 16.4L20 16.6667V15.3333L21.6 15.6L21.3333 14H22.6667L22.4 15.6L24 15.3333V16.6667L22.4 16.4L22.6667 18H21.3333L21.6 16.4Z" fill="#FD0D1B"/>
</g>
</svg>
