<svg width="28" height="20" viewBox="0 0 28 20" fill="none" xmlns="http://www.w3.org/2000/svg">
<rect width="28" height="20" fill="black" fill-opacity="0"/>
<path d="M0.25 2C0.25 1.0335 1.0335 0.25 2 0.25H26C26.9665 0.25 27.75 1.0335 27.75 2V18C27.75 18.9665 26.9665 19.75 26 19.75H2C1.0335 19.75 0.25 18.9665 0.25 18V2Z" fill="white" stroke="#F5F5F5" stroke-width="0.5"/>
<mask id="mask0" mask-type="alpha" maskUnits="userSpaceOnUse" x="0" y="0" width="28" height="20">
<path d="M0.25 2C0.25 1.0335 1.0335 0.25 2 0.25H26C26.9665 0.25 27.75 1.0335 27.75 2V18C27.75 18.9665 26.9665 19.75 26 19.75H2C1.0335 19.75 0.25 18.9665 0.25 18V2Z" fill="white" stroke="white" stroke-width="0.5"/>
</mask>
<g mask="url(#mask0)">
<path fill-rule="evenodd" clip-rule="evenodd" d="M10.6667 0H17.3334V20H10.6667V0Z" fill="#E8112D"/>
<path fill-rule="evenodd" clip-rule="evenodd" d="M0 6.66666H28V13.3333H0V6.66666Z" fill="#E8112D"/>
<rect width="14.6667" height="14.6667" fill="black" fill-opacity="0" transform="translate(6.66669 2.66666)"/>
<path fill-rule="evenodd" clip-rule="evenodd" d="M13.3334 2.66666H14.6667V17.3333H13.3334V2.66666Z" fill="#F9DD16"/>
<path fill-rule="evenodd" clip-rule="evenodd" d="M14 16L15.3334 17.3333H12.6667L14 16Z" fill="#F9DD16"/>
<path fill-rule="evenodd" clip-rule="evenodd" d="M6.66669 9.33331H21.3334V10.6666H6.66669V9.33331Z" fill="#F9DD16"/>
<path fill-rule="evenodd" clip-rule="evenodd" d="M14 4L15.3334 2.66667H12.6667L14 4Z" fill="#F9DD16"/>
<path fill-rule="evenodd" clip-rule="evenodd" d="M8 9.99998L6.66667 8.66665V11.3333L8 9.99998Z" fill="#F9DD16"/>
<path fill-rule="evenodd" clip-rule="evenodd" d="M20 9.99998L21.3333 8.66665V11.3333L20 9.99998Z" fill="#F9DD16"/>
</g>
</svg>
