<svg width="28" height="20" viewBox="0 0 28 20" fill="none" xmlns="http://www.w3.org/2000/svg">
<rect width="28" height="20" fill="black" fill-opacity="0"/>
<path fill-rule="evenodd" clip-rule="evenodd" d="M0 2C0 0.895431 0.895431 0 2 0H26C27.1046 0 28 0.895431 28 2V18C28 19.1046 27.1046 20 26 20H2C0.895431 20 0 19.1046 0 18V2Z" fill="white"/>
<mask id="mask0" mask-type="alpha" maskUnits="userSpaceOnUse" x="0" y="0" width="28" height="20">
<path fill-rule="evenodd" clip-rule="evenodd" d="M0 2C0 0.895431 0.895431 0 2 0H26C27.1046 0 28 0.895431 28 2V18C28 19.1046 27.1046 20 26 20H2C0.895431 20 0 19.1046 0 18V2Z" fill="white"/>
</mask>
<g mask="url(#mask0)">
<path fill-rule="evenodd" clip-rule="evenodd" d="M0 0H28V20H0V0Z" fill="#08C55F"/>
<path d="M-0.666646 19.3333V0.666667H-0.108165L27.3334 9.81384V10.1862L-0.108168 19.3333H-0.666646Z" fill="#FFD831" stroke="white" stroke-width="1.33333"/>
<path d="M-0.666646 19.3333V0.666667H-0.19816L14.113 10L-0.198161 19.3333H-0.666646Z" fill="#E92034" stroke="#262626" stroke-width="1.33333"/>
</g>
</svg>
