<svg width="28" height="20" viewBox="0 0 28 20" fill="none" xmlns="http://www.w3.org/2000/svg">
<rect width="28" height="20" fill="black" fill-opacity="0"/>
<path fill-rule="evenodd" clip-rule="evenodd" d="M0 2C0 0.895431 0.895431 0 2 0H26C27.1046 0 28 0.895431 28 2V18C28 19.1046 27.1046 20 26 20H2C0.895431 20 0 19.1046 0 18V2Z" fill="white"/>
<mask id="mask0" mask-type="alpha" maskUnits="userSpaceOnUse" x="0" y="0" width="28" height="20">
<path fill-rule="evenodd" clip-rule="evenodd" d="M0 2C0 0.895431 0.895431 0 2 0H26C27.1046 0 28 0.895431 28 2V18C28 19.1046 27.1046 20 26 20H2C0.895431 20 0 19.1046 0 18V2Z" fill="white"/>
</mask>
<g mask="url(#mask0)">
<path fill-rule="evenodd" clip-rule="evenodd" d="M0 20H28V0H0V20Z" fill="#F0371D"/>
<path fill-rule="evenodd" clip-rule="evenodd" d="M13.984 8.14574C14.9468 7.33983 15.0054 7.15959 15.2361 6.44963C15.313 6.21263 15.2588 6.01799 15.1946 5.78813C15.1021 5.45665 14.9892 5.05199 15.2201 4.34148C14.1696 4.00017 12.949 4.85893 12.4939 6.25963C12.0388 7.66026 12.5215 9.0725 13.572 9.41381C13.76 9.4749 13.739 9.43071 13.6819 9.31108C13.5817 9.10118 13.3707 8.65904 13.984 8.14574ZM11.9901 9.6176C11.5212 8.45287 11.3679 8.34148 10.7639 7.9027C10.5623 7.75621 10.3604 7.74773 10.122 7.73766C9.77817 7.72319 9.3584 7.70555 8.75403 7.26647C8.1048 8.16008 8.54434 9.58623 9.73584 10.4519C10.9273 11.3176 12.4195 11.2949 13.0688 10.4013C13.185 10.2413 13.1365 10.2477 13.0051 10.2651C12.7745 10.2955 12.2888 10.3595 11.9901 9.6176ZM18 10.2538C17.2534 10.2538 17.064 10.2538 16 9.58714C15.3223 9.16246 14.967 9.4998 14.7983 9.6599C14.7021 9.75121 14.6667 9.7849 14.6667 9.58714C14.6667 8.48259 15.8606 7.58714 17.3333 7.58714C18.8061 7.58714 20 8.48259 20 9.58714C19.253 9.58714 18.903 9.81963 18.6163 10.01C18.4175 10.142 18.2492 10.2538 18 10.2538ZM18 8.99999C18 9.18413 17.8507 9.33336 17.6667 9.33336C17.4825 9.33336 17.3333 9.18413 17.3333 8.99999C17.3333 8.8159 17.4825 8.66667 17.6667 8.66667C17.8507 8.66667 18 8.8159 18 8.99999ZM15.2521 11.9499C14.9468 13.1678 15.0054 13.3481 15.2361 14.0581C15.313 14.295 15.4714 14.4206 15.6584 14.5688C15.928 14.7826 16.2573 15.0437 16.4881 15.7541C17.5386 15.4128 18.0213 14.0007 17.5662 12.6C17.1111 11.1993 15.8906 10.3406 14.8401 10.6819C14.652 10.743 14.695 10.7663 14.8115 10.8295C15.0159 10.9405 15.4465 11.1742 15.2521 11.9499ZM16.4286 13.6706C16.2534 13.7275 16.0654 13.6316 16.0085 13.4565C15.9516 13.2815 16.0475 13.0934 16.2225 13.0365C16.3976 12.9797 16.5857 13.0754 16.6425 13.2505C16.6994 13.4256 16.6036 13.6137 16.4286 13.6706ZM12.7738 11.9687C11.5212 12.0548 11.3679 12.1662 10.7639 12.605C10.5623 12.7515 10.4919 12.9408 10.4087 13.1645C10.2887 13.487 10.1422 13.8808 9.53775 14.3199C10.187 15.2135 11.6792 15.2362 12.8707 14.3705C14.0622 13.5049 14.5018 12.0787 13.8525 11.185C13.7363 11.0251 13.7274 11.0732 13.7032 11.2035C13.6609 11.4322 13.5717 11.914 12.7738 11.9687ZM11.5009 13.6194C11.3927 13.4704 11.4257 13.2619 11.5746 13.1537C11.7236 13.0456 11.932 13.0786 12.0403 13.2275C12.1485 13.3765 12.1154 13.5849 11.9665 13.6931C11.8176 13.8013 11.6091 13.7683 11.5009 13.6194ZM10.0269 8.9171C10.1352 8.76811 10.3436 8.73509 10.4926 8.84331C10.6415 8.95152 10.6745 9.16002 10.5663 9.30895C10.4581 9.45787 10.2496 9.49089 10.1007 9.38268C9.95175 9.27446 9.91873 9.06603 10.0269 8.9171ZM14.0436 6.06218C14.2187 6.11907 14.3145 6.30712 14.2576 6.48216C14.2007 6.65727 14.0127 6.7531 13.8376 6.69621C13.6625 6.63933 13.5667 6.45128 13.6236 6.27617C13.6805 6.10106 13.8685 6.0053 14.0436 6.06218Z" fill="white"/>
</g>
</svg>
