<svg width="28" height="20" viewBox="0 0 28 20" fill="none" xmlns="http://www.w3.org/2000/svg">
<rect width="28" height="20" fill="black" fill-opacity="0"/>
<path d="M0.25 2C0.25 1.0335 1.0335 0.25 2 0.25H26C26.9665 0.25 27.75 1.0335 27.75 2V18C27.75 18.9665 26.9665 19.75 26 19.75H2C1.0335 19.75 0.25 18.9665 0.25 18V2Z" fill="white" stroke="#F5F5F5" stroke-width="0.5"/>
<mask id="mask0" mask-type="alpha" maskUnits="userSpaceOnUse" x="0" y="0" width="28" height="20">
<path d="M0.25 2C0.25 1.0335 1.0335 0.25 2 0.25H26C26.9665 0.25 27.75 1.0335 27.75 2V18C27.75 18.9665 26.9665 19.75 26 19.75H2C1.0335 19.75 0.25 18.9665 0.25 18V2Z" fill="white" stroke="white" stroke-width="0.5"/>
</mask>
<g mask="url(#mask0)">
<path fill-rule="evenodd" clip-rule="evenodd" d="M0 4H28V0H0V4Z" fill="#0E46D4"/>
<path fill-rule="evenodd" clip-rule="evenodd" d="M0 20H28V16H0V20Z" fill="#0E46D4"/>
<path d="M10.3753 11.8381L10.1002 12.3333L10.6667 12.3333L17.3333 12.3333L17.8998 12.3333L17.6247 11.8381L14.2914 5.8381L14 5.31361L13.7086 5.8381L10.3753 11.8381Z" stroke="#093EC5" stroke-width="0.666667"/>
<path d="M10.3753 8.1619L10.1002 7.66668L10.6667 7.66668L17.3333 7.66668L17.8998 7.66668L17.6247 8.1619L14.2914 14.1619L14 14.6864L13.7086 14.1619L10.3753 8.1619Z" stroke="#093EC5" stroke-width="0.666667"/>
</g>
</svg>
