<svg width="28" height="20" viewBox="0 0 28 20" fill="none" xmlns="http://www.w3.org/2000/svg">
<rect width="28" height="20" fill="black" fill-opacity="0"/>
<path fill-rule="evenodd" clip-rule="evenodd" d="M0 2C0 0.895431 0.895431 0 2 0H26C27.1046 0 28 0.895431 28 2V18C28 19.1046 27.1046 20 26 20H2C0.895431 20 0 19.1046 0 18V2Z" fill="#D01129"/>
<mask id="mask0" mask-type="alpha" maskUnits="userSpaceOnUse" x="0" y="0" width="28" height="20">
<path fill-rule="evenodd" clip-rule="evenodd" d="M0 2C0 0.895431 0.895431 0 2 0H26C27.1046 0 28 0.895431 28 2V18C28 19.1046 27.1046 20 26 20H2C0.895431 20 0 19.1046 0 18V2Z" fill="white"/>
</mask>
<g mask="url(#mask0)">
<rect width="11.8763" height="13.2751" fill="black" fill-opacity="0" transform="translate(8.05072 2.66669)"/>
<rect width="11.8602" height="13.2691" fill="black" fill-opacity="0" transform="translate(8.05615 2.66669)"/>
<path fill-rule="evenodd" clip-rule="evenodd" d="M13.8881 10.0409C14.5491 10.0409 15.0849 9.47829 15.0849 8.78447C15.0849 8.09052 14.5491 7.52795 13.8881 7.52795C13.2272 7.52795 12.6915 8.09052 12.6915 8.78447C12.6915 9.47829 13.2272 10.0409 13.8881 10.0409Z" fill="#FFF101"/>
<path fill-rule="evenodd" clip-rule="evenodd" d="M12.7973 8.27931C13.1362 8.16579 13.5759 8.2979 13.8652 8.5894C14.1723 8.53069 14.4802 8.12579 14.5756 7.7653C14.4708 6.56738 13.7244 5.65986 13.4975 5.03711C13.4257 4.84029 13.093 4.53081 12.747 4.67491C12.4625 4.79344 12.3186 4.70121 11.363 5.20164C10.8463 5.47222 10.4114 5.75014 10.1822 5.79858C9.95294 5.84702 9.71108 5.8902 9.5277 5.73937C9.27546 5.53191 8.99259 5.47454 8.82599 5.31821C8.62187 5.12665 8.49092 4.98206 8.35286 4.92347C8.2148 4.86475 7.9811 4.99515 8.07977 5.30549C8.30242 6.00641 8.82727 6.11992 9.05259 6.77509C9.15896 7.08482 9.31018 7.3176 9.64816 7.08286C9.98614 6.84812 10.4638 6.53631 11.2782 6.50353C11.8251 6.48139 12.3902 6.27026 12.6499 5.92384C12.6473 6.22353 12.748 6.46916 12.7214 6.85901C12.695 7.24897 12.6992 7.73399 12.7973 8.27931Z" fill="white"/>
<path fill-rule="evenodd" clip-rule="evenodd" d="M13.4379 8.31217C13.3375 7.72244 13.5196 7.63743 13.3022 6.94617C13.1715 6.53051 13.0879 6.00954 13.0859 5.76709L12.9985 5.79376C13.0006 6.0362 13.0842 6.5573 13.2148 6.97296C13.4251 7.64134 13.2617 7.74287 13.3416 8.2822C13.3663 8.28746 13.4181 8.30483 13.4379 8.31217Z" fill="#FFF101"/>
<path fill-rule="evenodd" clip-rule="evenodd" d="M12.9234 8.2475C12.9241 8.17251 12.9196 8.09423 12.9085 8.02695C13.0622 7.98817 13.3254 8.13728 13.318 8.02646C13.3158 7.99135 13.3192 7.87783 13.3213 7.81765C13.3179 7.91172 12.952 7.75294 12.889 7.79392C12.8213 7.4508 12.9052 7.09777 12.8514 6.88236C12.9737 6.84725 13.1983 6.92383 13.1708 6.82328C13.1552 6.77178 13.1253 6.64371 13.1057 6.56358C13.1249 6.6475 12.9465 6.57802 12.8862 6.62597C12.8548 6.43991 12.809 6.08689 12.81 5.92554L12.6499 5.92383C12.6473 6.22352 12.748 6.46915 12.7214 6.859C12.695 7.24897 12.6992 7.73398 12.7973 8.2793C12.8323 8.26854 12.8901 8.25471 12.9234 8.2475Z" fill="#FFF101"/>
<path fill-rule="evenodd" clip-rule="evenodd" d="M12.5192 5.50802C12.2806 5.86974 11.7106 6.1194 11.1837 6.17457C10.5669 6.23915 10.1529 6.45469 9.84797 6.6657C9.82176 6.61616 9.77445 6.58949 9.73263 6.55683C9.28653 6.20992 9.46991 5.73983 9.63884 5.80698C9.57511 5.78105 9.53807 5.74607 9.50323 5.71977C9.44428 5.67389 9.27418 5.84967 9.2955 6.12882C9.30459 6.24772 9.40152 6.42313 9.4804 6.5161C9.3364 6.48857 9.26743 6.44992 9.18284 6.34264C9.23038 6.31157 9.29189 6.29396 9.34152 6.28992C9.32463 6.24735 9.3011 6.20013 9.2955 6.12882C9.22502 6.12821 9.13904 6.15402 9.06529 6.20662C8.88832 6.02154 8.70611 5.87389 8.60044 5.65542C8.43139 5.30545 8.60335 5.08454 8.82599 5.31818C8.62187 5.12662 8.49092 4.98203 8.35286 4.92344C8.2148 4.86472 7.9811 4.99512 8.07977 5.30545C8.30242 6.00637 8.82727 6.11989 9.05259 6.77506C9.15896 7.08478 9.31577 7.32613 9.64816 7.08282C9.69197 7.05078 9.70362 7.04319 9.74172 7.01481C9.84715 6.95084 10.0142 7.05824 9.9964 7.29175C10.0818 7.07732 10.0273 7.01163 9.9548 6.88307C9.90121 6.91304 9.90552 6.7375 9.87244 6.71438C10.0621 6.59059 10.2928 6.46643 10.5838 6.37799C10.5945 6.48282 10.622 6.59414 10.7139 6.57799C10.7632 6.56649 10.8132 6.5561 10.8658 6.54692C10.7738 6.56307 10.748 6.44123 10.7374 6.33652C10.8753 6.30325 11.0261 6.27805 11.1913 6.26386C11.3816 6.24747 11.5784 6.20686 11.7632 6.14386C11.7907 6.24441 11.8475 6.41383 11.9423 6.38056C12.0263 6.3523 12.1079 6.32038 12.1846 6.28331C12.0528 6.34925 12.001 6.16099 11.9693 6.06142C12.2101 5.95145 12.4153 5.80148 12.5379 5.62252L12.5192 5.50802Z" fill="#FFF101"/>
<path fill-rule="evenodd" clip-rule="evenodd" d="M13.5731 5.68759C13.6894 5.59291 13.7892 5.54814 13.6889 5.34765C13.5249 5.01982 13.6268 5.0187 13.2676 4.81014C12.9018 4.59803 12.948 4.58139 12.464 4.76059C12.3449 4.80463 12.3715 4.84965 12.3923 5.03093C12.4372 5.42163 12.5224 5.73627 12.6004 6.05773C12.9047 6.01602 13.3728 5.85089 13.5731 5.68759Z" fill="#FFF101"/>
<path fill-rule="evenodd" clip-rule="evenodd" d="M12.4375 5.59881C12.3737 5.407 12.3908 5.43306 12.6222 5.49153C12.6979 5.23869 12.8025 5.02528 12.8611 4.82063C12.9266 4.59152 12.9471 4.5503 13.0435 4.60644C13.1667 4.67813 13.3021 4.75384 13.3903 4.79935C13.5443 4.87861 13.5216 4.90638 13.4481 5.03238C13.3746 5.15837 13.1341 5.41373 12.9858 5.68015C13.1814 5.82474 13.2442 5.83783 13.1052 5.90009C12.9497 5.9697 12.6913 6.05593 12.5825 6.07636C12.5626 5.95049 12.4982 5.78071 12.4375 5.59881Z" fill="#FFF101"/>
<path fill-rule="evenodd" clip-rule="evenodd" d="M10.1409 7.40245L10.1255 7.59975L9.98695 7.46764L9.832 7.5781L9.84225 7.38116L9.66388 7.32453L9.81627 7.20979L9.74904 7.02679L9.92788 7.08159L10.0224 6.91217L10.0941 7.09309L10.2787 7.06385L10.1883 7.23645L10.3243 7.36979L10.1409 7.40245Z" fill="#FFF101"/>
<path fill-rule="evenodd" clip-rule="evenodd" d="M14.017 10.029C13.7538 9.7775 13.6429 9.31169 13.7388 8.90288C13.5368 8.65309 13.0488 8.57542 12.7038 8.66887C11.7681 9.36331 11.3927 10.4957 10.9925 11.0135C10.866 11.1771 10.7771 11.6343 11.0691 11.8769C11.3091 12.0763 11.305 12.2532 12.1954 12.8719C12.677 13.2065 13.1236 13.463 13.2782 13.6472C13.433 13.8314 13.5894 14.0299 13.5567 14.2719C13.5117 14.605 13.6057 14.891 13.5602 15.1205C13.5041 15.4018 13.4504 15.5933 13.4711 15.7481C13.4918 15.903 13.7161 16.0503 13.9227 15.8054C14.3895 15.2525 14.2208 14.7185 14.6486 14.1861C14.8507 13.9344 14.9672 13.6805 14.6047 13.4905C14.242 13.3007 13.746 13.0221 13.3117 12.2982C13.0201 11.812 12.5634 11.4036 12.1477 11.3407C12.3962 11.1933 12.5486 10.9788 12.8834 10.808C13.2182 10.6371 13.6162 10.391 14.017 10.029Z" fill="white"/>
<path fill-rule="evenodd" clip-rule="evenodd" d="M13.7236 9.42999C13.2875 9.81617 13.1263 9.69299 12.6648 10.2364C12.3874 10.5631 11.9995 10.8996 11.8005 11.0227L11.8662 11.0887C12.0652 10.9657 12.4531 10.6291 12.7307 10.3024C13.1769 9.77703 13.3423 9.87489 13.7473 9.5325C13.7392 9.50755 13.7275 9.45164 13.7236 9.42999Z" fill="#FFF101"/>
<path fill-rule="evenodd" clip-rule="evenodd" d="M13.9275 9.93017C13.8654 9.96699 13.8031 10.0103 13.7531 10.054C13.6443 9.9336 13.6357 9.61971 13.5481 9.68198C13.5201 9.7013 13.4248 9.75513 13.374 9.78326C13.4535 9.73935 13.5053 10.1515 13.5707 10.1883C13.3215 10.4214 12.9884 10.5216 12.8376 10.6782C12.7476 10.5845 12.6984 10.3422 12.6292 10.4174C12.5946 10.4573 12.5038 10.5484 12.4476 10.6064C12.5072 10.5469 12.539 10.7439 12.6087 10.7747C12.471 10.8963 12.2027 11.1144 12.069 11.1943L12.1477 11.3407C12.3962 11.1933 12.5486 10.9789 12.8834 10.808C13.2182 10.6371 13.6162 10.391 14.017 10.029C13.9905 10.0025 13.9501 9.95684 13.9275 9.93017Z" fill="#FFF101"/>
<path fill-rule="evenodd" clip-rule="evenodd" d="M11.8701 11.6674C12.2878 11.7035 12.7786 12.0969 13.0876 12.5485C13.4492 13.0771 13.8342 13.3457 14.1606 13.5174C14.1329 13.5661 14.1345 13.6224 14.1286 13.6768C14.0654 14.2559 13.586 14.3242 13.5569 14.137C13.5674 14.208 13.557 14.2591 13.5528 14.304C13.5444 14.3806 13.7745 14.4472 13.994 14.2883C14.0876 14.2206 14.1837 14.0448 14.2211 13.9266C14.2702 14.0712 14.2728 14.1533 14.2268 14.2838C14.1773 14.2562 14.1321 14.2089 14.1039 14.166C14.0772 14.2026 14.05 14.2476 13.994 14.2883C14.0287 14.3528 14.093 14.418 14.1733 14.4587C14.1091 14.7122 14.0785 14.9517 13.951 15.157C13.747 15.4856 13.4787 15.4398 13.5601 15.1205C13.5041 15.4018 13.4504 15.5933 13.471 15.7481C13.4917 15.903 13.716 16.0503 13.9227 15.8054C14.3894 15.2525 14.2207 14.7185 14.6485 14.1861C14.8507 13.9344 14.9715 13.6712 14.6046 13.4905C14.5561 13.4668 14.5441 13.4601 14.5017 13.4395C14.3962 13.3757 14.4013 13.17 14.6027 13.0695C14.3832 13.0991 14.3563 13.1815 14.2865 13.3117C14.3379 13.3453 14.191 13.4292 14.1884 13.471C13.9916 13.3604 13.7739 13.2127 13.5554 12.9922C13.6366 12.9302 13.7146 12.8494 13.6552 12.774C13.6211 12.7349 13.5875 12.6946 13.5536 12.6514C13.613 12.727 13.5255 12.8113 13.4443 12.8734C13.348 12.7647 13.2519 12.6401 13.1575 12.497C13.0488 12.332 12.9169 12.1735 12.7726 12.037C12.8418 11.9616 12.953 11.8253 12.8782 11.7557C12.813 11.6935 12.7458 11.6351 12.6769 11.5841C12.7971 11.671 12.6677 11.8122 12.6015 11.8908C12.3903 11.7269 12.1641 11.6152 11.9552 11.5933L11.8701 11.6674Z" fill="#FFF101"/>
<path fill-rule="evenodd" clip-rule="evenodd" d="M11.3218 10.6978C11.1854 10.6394 11.2527 10.5605 11.1375 10.752C10.9491 11.065 10.9127 10.9929 10.9204 11.4239C10.9282 11.8624 11.0093 11.7924 11.3992 12.143C11.699 11.9071 12.0568 11.5504 12.2829 11.3187C12.0964 11.0629 11.5565 10.7984 11.3218 10.6978Z" fill="#FFF101"/>
<path fill-rule="evenodd" clip-rule="evenodd" d="M11.9858 11.6963C11.8595 11.8503 11.8725 11.8218 11.805 11.582C11.5586 11.6395 11.3685 11.7059 11.1706 11.755C10.9488 11.8099 10.9046 11.8119 10.9026 11.6963C10.9002 11.5482 10.8951 11.3874 10.8884 11.2844C10.8769 11.1048 10.911 11.1114 11.0518 11.1153C11.1925 11.1191 11.4849 11.1555 11.7788 11.1571C11.8002 10.9069 11.7796 10.8433 11.9006 10.9386C12.0356 11.0451 12.236 11.2371 12.3073 11.3257C12.2134 11.4067 12.1056 11.5502 11.9858 11.6963Z" fill="#FFF101"/>
<path fill-rule="evenodd" clip-rule="evenodd" d="M14.6219 12.8829L14.7923 12.7982L14.7526 12.9901L14.9213 13.0758L14.7536 13.1649L14.796 13.3555L14.6251 13.2743L14.5078 13.4269L14.4636 13.2368L14.2766 13.2356L14.3901 13.08L14.2736 12.9269L14.4613 12.9227L14.5033 12.7324L14.6219 12.8829Z" fill="#FFF101"/>
<path fill-rule="evenodd" clip-rule="evenodd" d="M14.8502 8.04514C14.7745 8.41003 14.4456 8.74385 14.0605 8.86116C13.9555 9.16967 14.1353 9.65199 14.385 9.91927C15.4255 10.4228 16.5473 10.1979 17.1745 10.3029C17.3728 10.336 17.7943 10.1883 17.8485 9.80159C17.893 9.48367 18.0408 9.39902 18.1059 8.27988C18.1411 7.67474 18.1294 7.14031 18.204 6.90765C18.2787 6.67499 18.3641 6.4334 18.5801 6.34214C18.8773 6.21652 19.0662 5.98789 19.2784 5.91462C19.5384 5.82483 19.7231 5.77798 19.8405 5.68184C19.9579 5.58569 19.9672 5.30801 19.662 5.24257C18.9725 5.09456 18.6165 5.51499 17.9633 5.39217C17.6547 5.33419 17.387 5.35511 17.4117 5.77994C17.4364 6.20465 17.4547 6.79486 17.0746 7.55168C16.8194 8.06006 16.7109 8.67951 16.8668 9.08893C16.621 8.93664 16.3679 8.90532 16.0597 8.68636C15.7513 8.46728 15.3492 8.22863 14.8502 8.04514Z" fill="white"/>
<path fill-rule="evenodd" clip-rule="evenodd" d="M14.5028 8.6113C15.0394 8.81472 15.0185 9.02292 15.6973 9.17093C16.1056 9.25986 16.5771 9.44432 16.7781 9.56371L16.7997 9.47087C16.5987 9.35148 16.1271 9.16714 15.719 9.07809C15.0625 8.93497 15.0605 8.73558 14.5756 8.53851C14.5591 8.55845 14.5188 8.59698 14.5028 8.6113Z" fill="#FFF101"/>
<path fill-rule="evenodd" clip-rule="evenodd" d="M14.8134 8.17581C14.8749 8.21385 14.9418 8.24884 15.0027 8.27257C14.958 8.43159 14.7033 8.59648 14.7985 8.64504C14.8284 8.66082 14.9203 8.72052 14.9689 8.75257C14.8931 8.70229 15.2069 8.44908 15.2047 8.37116C15.5217 8.48125 15.7708 8.7341 15.9754 8.79293C15.9432 8.92162 15.7678 9.08749 15.8645 9.11281C15.9147 9.12431 16.0353 9.16125 16.1112 9.18339C16.0324 9.15893 16.1789 9.03147 16.1695 8.95281C16.3387 9.01715 16.6526 9.15208 16.7853 9.23367L16.8668 9.08896C16.621 8.93666 16.3679 8.90535 16.0596 8.68639C15.7512 8.46731 15.3492 8.22865 14.8502 8.04517C14.8416 8.08235 14.8241 8.14192 14.8134 8.17581Z" fill="#FFF101"/>
<path fill-rule="evenodd" clip-rule="evenodd" d="M17.2751 9.17786C17.096 8.78006 17.1751 8.137 17.3932 7.63022C17.6483 7.03707 17.6775 6.55278 17.6558 6.17015C17.7099 6.17113 17.7554 6.14141 17.8034 6.11963C18.3125 5.88759 18.6086 6.2893 18.4686 6.4093C18.522 6.36428 18.5694 6.34826 18.6085 6.32967C18.6758 6.29884 18.6158 6.05639 18.375 5.93627C18.2723 5.88502 18.0793 5.88551 17.963 5.91058C18.0579 5.79352 18.1241 5.75022 18.2549 5.72685C18.2568 5.78569 18.2405 5.8504 18.2191 5.89749C18.2627 5.90337 18.3133 5.90557 18.375 5.93627C18.4107 5.87242 18.4324 5.78141 18.4259 5.68795C18.6671 5.6197 18.8799 5.52783 19.1129 5.54104C19.4861 5.5622 19.5824 5.82911 19.2785 5.91462C19.5384 5.82483 19.7232 5.77798 19.8405 5.68184C19.9579 5.58569 19.9673 5.30801 19.662 5.24257C18.9725 5.09456 18.6165 5.51499 17.9634 5.39217C17.6547 5.33419 17.3772 5.35597 17.4117 5.77994C17.4163 5.83584 17.4167 5.85015 17.421 5.89896C17.421 6.02691 17.249 6.12502 17.0653 5.99205C17.1994 6.177 17.2809 6.16025 17.4231 6.15866C17.4252 6.09493 17.5678 6.18655 17.6035 6.16808C17.6108 6.40245 17.5978 6.67425 17.5252 6.98312C17.4334 6.94043 17.3279 6.90973 17.2952 7.00147C17.2801 7.05199 17.2636 7.10263 17.245 7.15499C17.2776 7.06324 17.391 7.1008 17.4827 7.14349C17.4412 7.28551 17.3866 7.43523 17.3157 7.59254C17.2339 7.77382 17.1692 7.97297 17.1287 8.1726C17.032 8.14728 16.8639 8.11425 16.8439 8.21713C16.8252 8.30752 16.8107 8.3978 16.803 8.486C16.8145 8.33321 16.9957 8.38019 17.0937 8.4011C17.0641 8.67511 17.085 8.93664 17.1714 9.13774L17.2751 9.17786Z" fill="#FFF101"/>
<path fill-rule="evenodd" clip-rule="evenodd" d="M16.5585 10.0094C16.5785 10.1626 16.5655 10.2757 16.781 10.2847C17.1335 10.2995 17.1048 10.3451 17.4564 10.1227C17.8142 9.8963 17.8237 9.94101 17.918 9.41122C17.9412 9.28095 17.8907 9.28254 17.7308 9.21085C17.3863 9.05624 17.0851 9.0668 16.781 8.97689C16.6632 9.2745 16.524 9.74572 16.5585 10.0094Z" fill="#FFF101"/>
<path fill-rule="evenodd" clip-rule="evenodd" d="M17.241 9.05839C17.4313 9.09606 17.4012 9.09863 17.2373 9.27992C17.4079 9.47515 17.5386 9.61251 17.6782 9.7681C17.8344 9.94229 17.8581 9.98144 17.7637 10.041C17.6429 10.1172 17.5129 10.2024 17.4312 10.26C17.2887 10.3603 17.2772 10.3258 17.2099 10.1959C17.1427 10.0661 17.0454 9.78414 16.8999 9.51625C16.6827 9.62169 16.6405 9.67233 16.6587 9.51478C16.6791 9.33863 16.7372 9.06047 16.7747 8.95135C16.8885 8.99613 17.0606 9.02243 17.241 9.05839Z" fill="#FFF101"/>
<path fill-rule="evenodd" clip-rule="evenodd" d="M16.9018 6.06814L16.7467 5.95548L16.925 5.89554L16.9112 5.69933L17.0685 5.80722L17.2046 5.6734L17.223 5.86936L17.4075 5.8997L17.2728 6.03499L17.3653 6.20551L17.1802 6.18019L17.1121 6.3627L17.0149 6.19413L16.8369 6.25126L16.9018 6.06814Z" fill="#FFF101"/>
<rect width="11.8763" height="11.3096" fill="black" fill-opacity="0" transform="translate(8.05072 4.6322)"/>
<path fill-rule="evenodd" clip-rule="evenodd" d="M13.8602 8.59491C13.5705 8.30304 13.1332 8.17481 12.7995 8.28656L12.7902 8.2807C12.7025 7.7934 12.6827 7.32269 12.7142 6.85846C12.7264 6.67883 12.7159 6.54743 12.6807 6.31299C12.6661 6.21582 12.6641 6.20221 12.6589 6.16193C12.6486 6.08124 12.6431 6.01288 12.6426 5.94544C12.3864 6.27045 11.8442 6.48822 11.2785 6.51117C10.6093 6.53809 10.1913 6.71478 9.65223 7.08924C9.35273 7.29724 9.18171 7.17346 9.04578 6.77765C8.95575 6.51599 8.84601 6.36493 8.58277 6.08685L8.56251 6.06543C8.28687 5.77411 8.167 5.60419 8.07288 5.30786C7.98499 5.0315 8.17487 4.83948 8.3556 4.91638C8.36793 4.92157 8.38025 4.92755 8.39277 4.93421C8.45093 4.96533 8.51069 5.01135 8.58973 5.0835C8.61695 5.10834 8.69715 5.18494 8.75873 5.24378C8.79188 5.27545 8.81965 5.30194 8.83088 5.3125C8.83991 5.32099 8.84925 5.32923 8.85901 5.33722C8.84516 5.32807 8.83075 5.32208 8.81605 5.31903L8.74445 5.25086L8.74268 5.24915C8.68207 5.19122 8.60639 5.11896 8.58014 5.09503C8.50196 5.02362 8.44306 4.97827 8.38611 4.94782C8.37403 4.94135 8.36207 4.93555 8.35016 4.93054C8.18104 4.85858 8.00269 5.03888 8.08668 5.30304C8.17994 5.59656 8.29865 5.76489 8.57288 6.05469L8.59314 6.07605C8.85773 6.35559 8.96857 6.50812 9.05945 6.77246C9.19263 7.16028 9.35462 7.27753 9.64417 7.07648C10.1852 6.70062 10.6056 6.52295 11.2779 6.49585C11.8496 6.47272 12.3966 6.24933 12.6442 5.91907L12.6572 5.92389C12.6566 5.99762 12.662 6.07117 12.6734 6.15991C12.6785 6.19995 12.6805 6.21356 12.6951 6.31061C12.7304 6.54608 12.741 6.67847 12.7287 6.8595C12.6975 7.31983 12.7168 7.78644 12.8029 8.26941L12.7951 8.27197L12.8044 8.27783L12.8029 8.26941C13.1409 8.16046 13.5791 8.29053 13.8639 8.58185C14.1515 8.52686 14.4674 8.14557 14.5684 7.76599C14.5185 7.19623 14.3345 6.68103 14.0037 6.04816C13.9552 5.95532 13.8268 5.71924 13.7561 5.58936L13.7512 5.58026L13.7455 5.56989L13.7084 5.50159C13.603 5.30432 13.5364 5.16528 13.4907 5.0398C13.3959 4.77997 13.0418 4.56037 12.7496 4.68201C12.7099 4.69855 12.6713 4.71173 12.629 4.72357C12.6018 4.73114 12.5742 4.73798 12.5364 4.74664C12.1476 4.83563 11.9323 4.91199 11.3663 5.20844L11.3185 5.23358C11.2105 5.29083 10.9511 5.43396 10.7878 5.52411L10.7841 5.52619C10.715 5.56433 10.6637 5.59259 10.6495 5.60028C10.4254 5.72101 10.285 5.78461 10.1837 5.80603C9.8487 5.87683 9.67939 5.87378 9.5232 5.74536C9.47407 5.7049 9.42151 5.66834 9.36359 5.63349C9.34864 5.62451 9.3335 5.61572 9.31788 5.60694L9.32252 5.6012L9.3205 5.59107C9.33777 5.60071 9.35444 5.61035 9.37085 5.62024C9.42933 5.65546 9.48243 5.69245 9.53223 5.73334C9.68378 5.85803 9.84992 5.86096 10.1808 5.79108C10.2803 5.77002 10.4199 5.70679 10.6428 5.58667C10.6567 5.57923 10.7059 5.55206 10.7726 5.5152L10.7756 5.51355C10.9385 5.42359 11.2025 5.27789 11.312 5.21997L11.3597 5.19476C11.9269 4.89777 12.1434 4.82099 12.5333 4.73169C12.5709 4.72309 12.5983 4.71631 12.6252 4.7088C12.667 4.69708 12.7051 4.68408 12.7443 4.66779C13.0447 4.54267 13.4069 4.76721 13.5043 5.03436C13.5497 5.159 13.616 5.29743 13.7211 5.49408L13.7549 5.55615L13.7611 5.56751C13.8297 5.69361 13.9661 5.9444 14.0164 6.04083C14.3481 6.67536 14.5328 7.19232 14.5826 7.76734C14.4801 8.15485 14.1603 8.54071 13.8602 8.59491ZM9.30494 5.58246L9.3205 5.59107L9.32013 5.58936C9.31507 5.58673 9.31 5.58447 9.30494 5.58246ZM9.2522 5.57153C9.26966 5.57184 9.28736 5.57544 9.30494 5.58246C9.27826 5.56787 9.24988 5.55316 9.21863 5.53748C9.20344 5.52985 9.16981 5.51337 9.13849 5.49811L9.13813 5.49494C9.12562 5.48902 9.11347 5.48401 9.10151 5.48004L9.07355 5.46637C8.98194 5.42096 8.91944 5.38489 8.8689 5.34516L8.8686 5.35681L8.86377 5.36017C8.85962 5.35694 8.8556 5.3537 8.85157 5.35047C8.85456 5.35242 8.85724 5.35431 8.86017 5.35663L8.86054 5.34418L8.85157 5.35047C8.84101 5.34186 8.83094 5.33301 8.82117 5.32385L8.81605 5.31903C8.72248 5.29975 8.61542 5.39935 8.55463 5.55963L8.56543 5.56879L8.86377 5.36017C8.91022 5.39612 8.9665 5.4292 9.04481 5.46887C8.93091 5.46332 8.83521 5.5697 8.71296 5.8418L8.72407 5.85101L8.72614 5.84833L9.13386 5.5127C9.16468 5.52777 9.19745 5.54382 9.21235 5.55127C9.2262 5.55817 9.23945 5.56488 9.2522 5.57153ZM9.29889 5.59644C9.28394 5.58826 9.26844 5.57996 9.2522 5.57153C9.12232 5.5694 8.99872 5.74951 8.92463 6.07013L8.93726 6.07691L8.93879 6.07373L9.31788 5.60694L9.30463 5.59961L9.30512 5.599C9.30799 5.60028 9.31092 5.60163 9.31379 5.60309L9.31141 5.59125L9.30512 5.599L9.29889 5.59644ZM8.94642 6.04205L8.92615 6.06702L8.93879 6.07373L8.94642 6.04205ZM8.94642 6.04205C9.02942 5.70819 9.16602 5.54505 9.29889 5.59644L9.30463 5.59961L8.94642 6.04205ZM9.11908 5.50543L9.13386 5.5127L9.13959 5.50794L9.13849 5.49811L9.1178 5.48804L9.10151 5.48004C9.08204 5.47357 9.06318 5.46979 9.04481 5.46887L9.06733 5.48017L9.09711 5.49469C8.96924 5.45239 8.87177 5.5332 8.73963 5.81873L8.71503 5.83905L8.72614 5.84833L8.73963 5.81873L9.11908 5.50543ZM9.12098 5.50385C9.11292 5.50037 9.10492 5.49726 9.09711 5.49469L9.11304 5.5025L9.11908 5.50543L9.12098 5.50385ZM9.12098 5.50385L9.13209 5.50891L9.13062 5.49591L9.12098 5.50385ZM8.57752 5.54205C8.64661 5.37909 8.76386 5.29285 8.85157 5.35047L8.57752 5.54205ZM8.57752 5.54205C8.57429 5.54962 8.57117 5.55744 8.56818 5.56531L8.55738 5.55615L8.57752 5.54205Z" fill="black"/>
<path fill-rule="evenodd" clip-rule="evenodd" d="M13.4174 7.7605C13.407 7.98657 13.4107 8.10822 13.4451 8.31085L13.4356 8.3194C13.4244 8.31525 13.4099 8.3103 13.3949 8.30511C13.373 8.29761 13.35 8.28973 13.3344 8.28339C13.3081 8.10571 13.3059 7.99506 13.3155 7.78638L13.3175 7.74304C13.329 7.47498 13.3087 7.29541 13.208 6.97534C13.0866 6.58911 12.9935 6.06183 12.9965 5.78644L13.0931 5.76703C13.0955 6.03357 13.1882 6.55914 13.3091 6.94379C13.4104 7.26581 13.431 7.4472 13.4193 7.7171L13.4174 7.7605ZM13.4287 8.30072C13.4328 8.30219 13.4368 8.30359 13.4404 8.30493L13.4308 8.31348C13.4301 8.3092 13.4294 8.30493 13.4287 8.30072ZM13.3431 8.27466C13.3616 8.27863 13.4005 8.29077 13.4287 8.30072C13.3959 8.10431 13.3927 7.98212 13.4028 7.75977L13.4048 7.71637C13.4163 7.4483 13.396 7.26868 13.2954 6.94855C13.1739 6.5625 13.0809 6.03534 13.088 5.77441L13.0058 5.79364C13.0081 6.06 13.1008 6.58569 13.2218 6.97052C13.3231 7.29248 13.3436 7.47388 13.332 7.74371L13.33 7.78711C13.3205 7.99481 13.3227 8.10455 13.3431 8.27466Z" fill="black"/>
<path fill-rule="evenodd" clip-rule="evenodd" d="M11.7186 5.01062C11.637 5.04736 11.6376 5.17761 11.7036 5.38043C11.7563 5.54266 11.8498 5.74646 11.9622 5.95465L11.9755 5.94879L11.9748 5.94708L11.7285 5.01562L11.7186 5.01062ZM11.9453 5.8916C11.955 5.91003 11.9648 5.92853 11.9748 5.94708L11.9615 5.95294L11.9453 5.8916ZM11.7169 5.02863L11.9453 5.8916C11.8466 5.70374 11.7651 5.52228 11.7174 5.37549C11.6562 5.18719 11.6534 5.06586 11.7169 5.02863ZM11.7169 5.02863L11.7145 5.01971L11.7244 5.02472C11.7217 5.02588 11.7193 5.02722 11.7169 5.02863ZM12.9157 8.02563C12.9264 8.09064 12.9315 8.16846 12.9307 8.24756L12.9249 8.255L12.8994 8.26068C12.8631 8.2688 12.822 8.27795 12.7901 8.28076C12.7025 7.7934 12.6827 7.32275 12.7142 6.85846C12.7264 6.67889 12.7158 6.54742 12.6807 6.31305C12.6661 6.21582 12.6641 6.20221 12.6589 6.16199C12.6475 6.07257 12.642 5.99835 12.65 5.9162L12.8173 5.9256C12.8164 6.0639 12.853 6.38208 12.8914 6.61346C12.9121 6.60199 12.9412 6.59875 12.987 6.59967L13.0057 6.6001C13.0484 6.60138 13.0648 6.60089 13.0798 6.59674C13.0966 6.5921 13.1024 6.58374 13.0988 6.56659L13.1065 6.59821C13.1013 6.60431 13.0935 6.6087 13.0834 6.61151C13.0666 6.61621 13.0497 6.61664 13.0053 6.61536L12.9867 6.61493C12.9367 6.61395 12.9081 6.6181 12.8906 6.63208L12.879 6.62732C12.8397 6.39423 12.8019 6.0672 12.8099 5.93317L12.6572 5.92389C12.6565 5.99768 12.6619 6.07117 12.6733 6.15991C12.6785 6.20001 12.6805 6.21356 12.6951 6.31061C12.7303 6.54608 12.741 6.67853 12.7287 6.85956C12.6973 7.32251 12.717 7.79193 12.7952 8.27197C12.8248 8.26288 12.8755 8.25024 12.9162 8.24127L12.9161 8.24744L12.9219 8.23999L12.9162 8.24127C12.9166 8.1651 12.9117 8.09033 12.9068 8.01953C12.9477 8.00922 12.9972 8.01086 13.0607 8.02197C13.082 8.0257 13.1033 8.03009 13.1332 8.0368C13.2249 8.05737 13.2385 8.06 13.2655 8.06055C13.2989 8.06122 13.3124 8.05164 13.3108 8.02698C13.3091 8.00061 13.3103 7.93054 13.313 7.84607C13.3228 7.83997 13.3281 7.83075 13.3286 7.81793C13.3252 7.91425 13.3235 7.9975 13.3253 8.02594C13.3276 8.0614 13.3062 8.07666 13.2652 8.07587C13.2368 8.07532 13.2234 8.07269 13.1302 8.05176C13.1005 8.0451 13.0794 8.04077 13.0583 8.03705C12.9966 8.02631 12.9488 8.02466 12.9157 8.02563ZM13.313 7.84607C13.3 7.85425 13.2789 7.85687 13.2508 7.85498C13.2153 7.85266 13.1754 7.84479 13.0989 7.8269L13.0906 7.82495C12.96 7.79425 12.9133 7.78711 12.8928 7.80042L12.8818 7.79547C12.8773 7.77271 12.8734 7.74951 12.8701 7.72583C12.8515 7.59442 12.8504 7.48358 12.8585 7.26715C12.8668 7.047 12.8655 6.96887 12.8495 6.875C12.8815 6.86578 12.9204 6.8634 12.9747 6.8653C12.9873 6.86572 12.9987 6.86627 13.019 6.86737C13.0869 6.87109 13.1107 6.87134 13.1338 6.86664C13.1612 6.86102 13.1703 6.84937 13.1638 6.82556C13.1558 6.79919 13.1443 6.75409 13.1267 6.68146L13.1245 6.67224L13.1204 6.6557L13.1065 6.59821C13.114 6.58948 13.1163 6.57733 13.1127 6.56171L13.1385 6.66852L13.1408 6.67773C13.1584 6.75 13.1698 6.79492 13.1778 6.82117C13.187 6.85486 13.1716 6.87451 13.1365 6.88165C13.1118 6.88672 13.0876 6.88647 13.0183 6.88269C12.998 6.88159 12.9867 6.88104 12.9742 6.88062C12.9413 6.87946 12.9144 6.87988 12.8926 6.88025C12.8793 6.88049 12.868 6.88068 12.8585 6.88043C12.8801 6.9671 12.8814 7.04584 12.8731 7.26776C12.865 7.48334 12.8661 7.59344 12.8845 7.72357C12.8873 7.74371 12.8906 7.76343 12.8942 7.78284C12.9216 7.77246 12.9702 7.78101 13.0938 7.81006L13.1021 7.81201C13.1777 7.82971 13.2173 7.83746 13.2518 7.83978C13.2934 7.84253 13.3134 7.83508 13.314 7.81738L13.313 7.84607ZM11.7609 6.1485C11.8293 6.1217 11.8978 6.09027 11.9664 6.05444L11.7609 6.1485ZM11.9664 6.05444L11.9719 6.07062L11.7657 6.16498L11.7609 6.1485L11.7654 6.16516C11.8343 6.13824 11.9032 6.10657 11.9722 6.0705L11.9664 6.05444ZM10.7357 6.3291C10.6831 6.34357 10.632 6.35938 10.5818 6.37671L10.5856 6.39355L10.7391 6.34613L10.7357 6.3291ZM10.7391 6.34613C10.6866 6.36053 10.6357 6.37628 10.5856 6.39355L10.582 6.37665L10.7355 6.32916L10.7391 6.34613Z" fill="black"/>
<path fill-rule="evenodd" clip-rule="evenodd" d="M11.183 6.16698C11.7404 6.10857 12.2878 5.84539 12.5132 5.50365L12.5264 5.5067L12.5439 5.627C12.4247 5.80077 12.2242 5.95336 11.9762 6.05901L11.9896 6.10131C11.9952 6.11864 12.0004 6.13353 12.0057 6.14775C12.0494 6.2639 12.101 6.31353 12.1767 6.27867C12.1583 6.28752 12.1393 6.29625 12.1199 6.30468C12.0668 6.29808 12.0263 6.24395 11.9922 6.15337C11.9868 6.1389 11.9816 6.12377 11.9758 6.10619C11.9725 6.09587 11.9618 6.06194 11.9664 6.05437C12.2163 5.9403 12.4146 5.78929 12.5308 5.62383L12.515 5.52752C12.5185 5.52251 12.5219 5.51744 12.5252 5.51238L12.512 5.50933L12.515 5.52752C12.2809 5.86608 11.7376 6.12426 11.1845 6.18218C10.6497 6.23815 10.2398 6.40367 9.84162 6.66942C9.82502 6.63805 9.80512 6.61956 9.75501 6.58294C9.74152 6.57305 9.7356 6.56865 9.72834 6.56298C9.52668 6.40618 9.43445 6.20873 9.44788 6.02605C9.45722 5.89836 9.52051 5.80315 9.59345 5.79357C9.60706 5.8012 9.6211 5.80797 9.6363 5.81414C9.55652 5.78246 9.47315 5.88079 9.46241 6.02721C9.44935 6.20452 9.53925 6.3969 9.737 6.55071C9.74378 6.55602 9.74946 6.56017 9.76136 6.56896L9.76313 6.57024C9.81525 6.60833 9.83631 6.62792 9.844 6.65929C10.2336 6.38964 10.6457 6.22319 11.183 6.16698ZM9.64002 5.79924C9.62433 5.79326 9.60865 5.79155 9.59345 5.79357C9.58027 5.78618 9.56757 5.778 9.55481 5.76885C9.54291 5.76043 9.51166 5.73589 9.50184 5.7282L9.49891 5.72588C9.42847 5.67107 9.28486 5.89342 9.3028 6.12816C9.31092 6.23449 9.39686 6.40612 9.48585 6.51097L9.47913 6.52361C9.33185 6.49547 9.26209 6.45507 9.17902 6.33611C9.22187 6.30815 9.27869 6.28911 9.33112 6.28325L9.33484 6.29283L9.34101 6.28228C9.33771 6.28252 9.33442 6.28289 9.33112 6.28325L9.3202 6.25701C9.30976 6.23101 9.30201 6.2083 9.29798 6.18639C9.29487 6.16961 9.29389 6.15319 9.29548 6.13646C9.29328 6.13646 9.29108 6.13646 9.28888 6.13646C9.2179 6.13744 9.13648 6.16484 9.06019 6.21202C9.04926 6.20061 9.03803 6.18901 9.02619 6.17693C9.00489 6.15526 8.94825 6.09887 8.91108 6.06188L8.87818 6.0291C8.73548 5.88524 8.65455 5.78411 8.59394 5.65886C8.51392 5.49315 8.5044 5.34215 8.56049 5.26336C8.59784 5.21086 8.65711 5.20006 8.72394 5.23125C8.73029 5.23729 8.73658 5.24327 8.74268 5.24913C8.75818 5.2639 8.77253 5.27764 8.78498 5.28948C8.6966 5.21416 8.61646 5.21032 8.57215 5.27251C8.52002 5.34581 8.52912 5.49083 8.60694 5.65197C8.66663 5.77532 8.74665 5.87535 8.88825 6.01805L8.92109 6.05077C8.95826 6.08776 9.01496 6.14421 9.03632 6.16594C9.04822 6.17809 9.05951 6.18975 9.06122 6.20031C9.12885 6.15209 9.20984 6.12395 9.28809 6.12719C9.27045 5.88268 9.42273 5.64757 9.50751 5.71355L9.50861 5.7144C9.51539 5.71978 9.55048 5.74736 9.56299 5.75621C9.58765 5.77379 9.61194 5.78765 9.64002 5.79924ZM8.83088 5.31249C8.81855 5.29955 8.80658 5.2882 8.79438 5.27782C8.78376 5.26769 8.77167 5.25609 8.75873 5.24376C8.69715 5.18492 8.61695 5.10833 8.58973 5.08348C8.51069 5.01134 8.45093 4.96532 8.39277 4.93419C8.38025 4.92748 8.36793 4.92156 8.3556 4.91637C8.17487 4.83947 7.98499 5.03148 8.07288 5.30785C8.167 5.60418 8.28687 5.7741 8.56251 6.06542L8.58277 6.08684C8.84601 6.36492 8.95575 6.51598 9.04578 6.77764C9.10834 6.95983 9.1753 7.0797 9.26148 7.14263C9.36585 7.21874 9.4939 7.20507 9.65235 7.0891C9.67048 7.07579 9.68311 7.0667 9.70441 7.05144L9.70502 7.05101C9.71943 7.04064 9.73072 7.0324 9.74598 7.02105C9.85987 6.95195 10.0049 7.08416 9.98914 7.29113L10.0031 7.29473C10.0585 7.15551 10.0598 7.07329 10.018 6.9832C10.0111 6.96825 10.0029 6.95281 9.99183 6.93303L9.96106 6.8792C9.94135 6.88195 9.93451 6.87816 9.92725 6.86309C9.92078 6.84966 9.9162 6.83239 9.90882 6.79753L9.90699 6.78875C9.89844 6.7481 9.89271 6.72728 9.88422 6.71569C10.1055 6.57213 10.3294 6.46331 10.5859 6.3853C10.5914 6.52336 10.6304 6.60045 10.7152 6.58556C10.767 6.57347 10.8166 6.56328 10.8669 6.55443C10.8467 6.55797 10.8292 6.55602 10.814 6.54869C10.8309 6.5454 10.8477 6.54229 10.8646 6.53936C10.7932 6.55193 10.7591 6.4785 10.7446 6.33574C10.8817 6.30956 11.0323 6.28521 11.1919 6.27147C11.3848 6.25487 11.582 6.21367 11.7654 6.15111C11.8035 6.31884 11.8607 6.41729 11.9446 6.38781C12.0319 6.35845 12.1109 6.32708 12.1828 6.29259C12.16 6.30321 12.1391 6.30706 12.1199 6.30468C12.0643 6.32891 12.0044 6.35161 11.9401 6.37328C11.869 6.39824 11.8149 6.3051 11.7702 6.14171C11.5786 6.19872 11.3826 6.23973 11.1907 6.25621C11.0304 6.27001 10.8791 6.29448 10.7358 6.32909C10.7431 6.45006 10.7665 6.52568 10.814 6.54869C10.7805 6.55523 10.7468 6.56249 10.7124 6.57054C10.6402 6.58318 10.605 6.51366 10.5911 6.37719C10.3209 6.44994 10.0936 6.56102 9.8686 6.70787L9.86841 6.72075C9.87696 6.72667 9.88312 6.74608 9.89277 6.79204L9.8946 6.80083C9.90223 6.83702 9.90699 6.85497 9.91425 6.86998C9.92475 6.89183 9.9397 6.90013 9.95826 6.88982C9.95423 6.89623 9.9723 6.92839 9.97828 6.93908L9.97925 6.94078C9.99024 6.96025 9.99817 6.97533 10.0049 6.98992C10.0407 7.06694 10.0434 7.13732 10.0047 7.24865C9.99903 7.05577 9.85541 6.93706 9.7381 7.00817C9.72236 7.01989 9.71113 7.02806 9.69678 7.03838L9.69617 7.03881C9.67487 7.05407 9.66224 7.06322 9.64405 7.07653C9.49018 7.18914 9.3686 7.20214 9.26978 7.13005C9.18677 7.06945 9.1211 6.95189 9.05945 6.77245C8.96857 6.50811 8.85773 6.35558 8.59314 6.07604L8.57288 6.05468C8.29865 5.76482 8.17994 5.59655 8.08668 5.30303C8.00269 5.03887 8.18104 4.85857 8.35016 4.93053C8.36207 4.93554 8.37403 4.94133 8.38611 4.9478C8.44306 4.97826 8.50196 5.02361 8.58014 5.09502C8.60377 5.1165 8.6673 5.17711 8.72394 5.23125C8.74665 5.24187 8.77045 5.2575 8.79438 5.27782C8.81098 5.29369 8.82404 5.30602 8.83088 5.31249ZM10.0047 7.24865C10.0051 7.26287 10.0048 7.27739 10.0037 7.29235L9.98969 7.28881C9.99524 7.27483 10.0002 7.26146 10.0047 7.24865ZM9.33747 6.29796C9.28589 6.30291 9.22895 6.32122 9.18848 6.33776C9.26697 6.43737 9.33124 6.47716 9.46131 6.5045C9.41462 6.44579 9.36982 6.3709 9.33747 6.29796Z" fill="black"/>
<path fill-rule="evenodd" clip-rule="evenodd" d="M13.7458 8.90472C13.6498 9.31402 13.7627 9.77569 14.0219 10.0234L14.0217 10.0348C13.6637 10.3581 13.2856 10.6112 12.8866 10.8149C12.7693 10.8747 12.6693 10.9418 12.5601 11.0295C12.533 11.0512 12.5062 11.0734 12.4716 11.1028C12.4747 11.1001 12.4056 11.1587 12.3865 11.1747C12.3012 11.2462 12.2377 11.2944 12.1692 11.3365C12.5654 11.407 13.0161 11.7912 13.3178 12.2942C13.6748 12.8892 14.03 13.1812 14.6079 13.4837C14.9291 13.652 14.9125 13.8694 14.6541 14.191C14.482 14.4051 14.4136 14.5782 14.3138 14.9646C14.2051 15.3856 14.1294 15.5721 13.9282 15.8105C13.7441 16.0286 13.491 15.952 13.4638 15.7493C13.4542 15.6767 13.4598 15.5947 13.4797 15.4804C13.4885 15.4297 13.5243 15.2575 13.5425 15.1698L13.553 15.119C13.5555 15.1067 13.5575 15.0949 13.5593 15.083C13.5589 15.0994 13.5611 15.1149 13.5658 15.1291L13.5571 15.1711C13.539 15.2583 13.5029 15.4324 13.494 15.4831C13.4743 15.5959 13.4688 15.6765 13.4782 15.7471C13.5037 15.9368 13.7413 16.0088 13.9172 15.8003C14.1166 15.5642 14.1916 15.3794 14.2997 14.9606C14.4001 14.5722 14.4692 14.3975 14.6429 14.1811C14.8962 13.866 14.9119 13.6601 14.6014 13.4974C14.0213 13.1937 13.6641 12.9001 13.3055 12.3023C13.0006 11.7941 12.5428 11.4082 12.1466 11.3483L12.144 11.334C12.2188 11.2897 12.2853 11.24 12.3774 11.1627C12.3965 11.1468 12.4655 11.0882 12.4624 11.0908C12.4971 11.0615 12.524 11.0391 12.5512 11.0173C12.6612 10.9291 12.762 10.8614 12.8802 10.8011C13.2759 10.5991 13.6509 10.3485 14.006 10.0288L14.0121 10.0347L14.0122 10.0232L14.006 10.0288C13.747 9.77581 13.6352 9.31243 13.7332 8.90783C13.5439 8.67388 13.0715 8.5772 12.7079 8.67517C12.3581 8.93475 12.0669 9.26727 11.7906 9.69165C11.7158 9.80657 11.5658 10.0674 11.4183 10.3238L11.4134 10.3325L11.4104 10.3377C11.2549 10.6082 11.104 10.8708 11.0492 10.9489C11.0319 10.9735 11.0149 10.9966 10.9982 11.0183C10.8311 11.2343 10.8271 11.6661 11.0735 11.871C11.0851 11.8805 11.0962 11.8902 11.1071 11.9001C11.1404 11.9302 11.1706 11.9614 11.2062 12.0015L11.2366 12.0363L11.2509 12.0528L11.2527 12.0549L11.2595 12.0627C11.2848 12.0919 11.3121 12.1233 11.3254 12.1382C11.3789 12.1981 11.4322 12.2533 11.496 12.3135C11.6606 12.4691 11.8834 12.646 12.1994 12.8656C12.3602 12.9773 12.8658 13.3113 12.8633 13.3096C13.0868 13.4603 13.2134 13.5585 13.2836 13.6422C13.5093 13.9109 13.5917 14.0668 13.5638 14.273C13.5523 14.3584 13.5489 14.4341 13.5522 14.529L13.5452 14.5277L13.5379 14.5346C13.5342 14.4365 13.5376 14.3588 13.5494 14.2709C13.5765 14.0707 13.4957 13.9178 13.2728 13.6523C13.2038 13.5701 13.0778 13.4724 12.8555 13.3224L12.8545 13.3218C12.8304 13.3059 12.3479 12.9871 12.1914 12.8784C11.8749 12.6584 11.6515 12.481 11.4863 12.3249C11.4222 12.2643 11.3686 12.2089 11.3149 12.1487C11.2994 12.1314 11.2656 12.0924 11.2376 12.0601L11.1957 12.0119C11.1604 11.9722 11.1305 11.9414 11.0976 11.9117C11.0868 11.9019 11.0759 11.8924 11.0645 11.883C10.811 11.6722 10.8152 11.2308 10.9869 11.0087C11.0035 10.9872 11.0203 10.9642 11.0375 10.9398C11.092 10.8622 11.2425 10.6003 11.3978 10.3301C11.5478 10.0691 11.7022 9.80047 11.7786 9.68304C12.0558 9.25726 12.3482 8.9234 12.7019 8.66149C13.0728 8.56109 13.551 8.65893 13.7458 8.90472ZM13.5387 14.5534L13.5379 14.5346L13.5367 14.5358C13.5371 14.5418 13.5378 14.5477 13.5387 14.5534ZM13.5561 14.6067C13.5476 14.5907 13.5417 14.5729 13.5387 14.5534C13.5411 14.6063 13.5453 14.6653 13.5513 14.7349L13.5523 14.7465L13.5499 14.7485C13.5512 14.7628 13.5532 14.7764 13.5558 14.7892C13.5671 14.9285 13.5695 15.0007 13.5613 15.0679L13.5707 15.0626L13.5762 15.0654C13.5756 15.0708 13.5749 15.076 13.5742 15.0814C13.5743 15.0778 13.5743 15.074 13.5747 15.0703L13.5643 15.0762L13.5742 15.0814C13.5741 15.0823 13.5739 15.0832 13.5738 15.0842C13.5738 15.0832 13.5742 15.0823 13.5742 15.0814L13.869 15.2346C13.7014 15.2532 13.5722 15.1912 13.5738 15.0842C13.572 15.0967 13.5698 15.1092 13.5673 15.1221L13.5658 15.1291C13.5966 15.2239 13.7324 15.2715 13.8949 15.2465L13.897 15.2321L13.5762 15.0654C13.5828 15.0084 13.582 14.9472 13.5748 14.8459C13.6269 14.9524 13.7626 14.9864 14.0485 14.9615L14.0507 14.9468L14.0474 14.9463L13.5666 14.7435L13.5658 14.7335C13.5618 14.6869 13.5586 14.6451 13.5561 14.6067ZM14.0969 14.6492C13.7801 14.7407 13.5772 14.6979 13.5532 14.5514C13.5539 14.5691 13.5549 14.5875 13.5561 14.6067C13.6195 14.7256 13.8298 14.7478 14.131 14.655L14.1302 14.6401L13.5522 14.529L13.5528 14.5447C13.5517 14.5413 13.5514 14.538 13.5512 14.5347L13.5427 14.5427L13.5528 14.5447L14.0969 14.6492ZM14.0969 14.6492C14.1068 14.6464 14.1168 14.6434 14.1269 14.6403L14.1276 14.6551L14.0969 14.6492ZM13.5681 14.7606L13.5666 14.7435L13.5598 14.7406L13.5523 14.7465L13.5558 14.7892C13.5602 14.8101 13.5664 14.8289 13.5748 14.8459C13.5735 14.8278 13.572 14.8083 13.5703 14.7875L13.5702 14.7861C13.5992 14.9232 13.7148 14.9715 14.0162 14.9488L14.0453 14.9611L14.0474 14.9463L14.0162 14.9488L13.5681 14.7606ZM13.5658 14.7596C13.5669 14.7687 13.5684 14.7776 13.5702 14.7861L13.5681 14.7606L13.5658 14.7596ZM13.5658 14.7596L13.5644 14.7469L13.5544 14.7548L13.5658 14.7596ZM13.869 15.2346L13.8906 15.2458L13.8928 15.2314C13.8848 15.2326 13.8768 15.2337 13.869 15.2346Z" fill="black"/>
<path fill-rule="evenodd" clip-rule="evenodd" d="M13.2616 9.73389C13.4753 9.61823 13.5641 9.56122 13.7189 9.42413L13.7308 9.42859C13.733 9.44055 13.7361 9.45624 13.7394 9.4726C13.7443 9.49622 13.7493 9.52118 13.7519 9.53845C13.6136 9.65527 13.5332 9.70575 13.3339 9.8136L13.2929 9.836C13.0839 9.95117 12.9426 10.0645 12.7361 10.3075C12.4783 10.6111 12.0899 10.9592 11.8612 11.0942L11.7968 11.0161C12.0154 10.8809 12.4026 10.5337 12.6594 10.2313C12.8671 9.98663 13.0099 9.87231 13.2206 9.75623L13.2616 9.73389ZM13.7165 9.4314L13.7283 9.43585C13.7252 9.43866 13.722 9.44147 13.7189 9.44421C13.718 9.43964 13.7172 9.4353 13.7165 9.4314ZM13.7189 9.44421C13.5688 9.57617 13.4785 9.63373 13.2682 9.7475L13.2274 9.76978C13.0181 9.88507 12.8768 9.99829 12.6703 10.2415C12.4125 10.545 12.0242 10.8932 11.8055 11.0172L11.8625 11.0822C12.0811 10.947 12.4683 10.5998 12.7252 10.2973C12.9329 10.0529 13.0756 9.93854 13.2861 9.82245L13.3273 9.80005C13.5257 9.69263 13.6055 9.64258 13.7404 9.53497C13.7343 9.51617 13.7247 9.47443 13.7189 9.44421Z" fill="black"/>
<path fill-rule="evenodd" clip-rule="evenodd" d="M13.7485 10.0481C13.7968 10.0059 13.8584 9.96239 13.924 9.92352L13.933 9.9251L13.9501 9.94512C13.9749 9.97387 14.0033 10.007 14.0217 10.0348C13.6638 10.3581 13.2856 10.6112 12.8866 10.8149C12.7693 10.8747 12.6693 10.9418 12.5601 11.0295C12.533 11.0512 12.5062 11.0734 12.4716 11.1028C12.4747 11.1001 12.4056 11.1587 12.3865 11.1747C12.2939 11.2524 12.2268 11.3025 12.1414 11.3445L12.0654 11.1877C12.1801 11.1191 12.4247 10.9264 12.5956 10.7762C12.5751 10.7627 12.5577 10.7369 12.5337 10.6907L12.5202 10.6646C12.5151 10.6549 12.511 10.6475 12.5072 10.6408C12.485 10.6029 12.4704 10.5942 12.4526 10.6119L12.4761 10.5879C12.4905 10.5915 12.5046 10.6071 12.5196 10.6328C12.5236 10.6397 12.5278 10.6474 12.533 10.6573L12.5464 10.6833C12.5727 10.7338 12.5904 10.7584 12.6115 10.7677L12.6134 10.7806C12.4415 10.9323 12.1902 11.1307 12.0754 11.1905L12.1441 11.3341C12.2189 11.2897 12.2853 11.24 12.3775 11.1628C12.3965 11.1468 12.4656 11.0882 12.4624 11.0909C12.4972 11.0615 12.5241 11.0391 12.5513 11.0173C12.6612 10.9291 12.762 10.8614 12.8802 10.8011C13.2782 10.598 13.6553 10.3456 14.012 10.0346C13.9896 10.0121 13.9532 9.97186 13.926 9.93993L13.9311 9.93688L13.9221 9.93529L13.926 9.93993C13.863 9.97753 13.8038 10.0194 13.7478 10.0593C13.7145 10.0225 13.6893 9.96886 13.663 9.88915L13.6475 9.83977L13.646 9.83508L13.6437 9.82787C13.6363 9.80401 13.6291 9.78094 13.6263 9.7727C13.6133 9.73333 13.6024 9.70873 13.5909 9.69451C13.5789 9.67968 13.5674 9.67754 13.5521 9.68841C13.5309 9.703 13.4683 9.73937 13.4016 9.7766C13.3917 9.77081 13.3814 9.77056 13.3706 9.77654C13.4451 9.73522 13.5209 9.69158 13.544 9.67565C13.5656 9.66033 13.5853 9.66405 13.6019 9.68462C13.615 9.70068 13.6264 9.72655 13.6401 9.76763L13.6468 9.78869L13.6497 9.79784L13.6538 9.81109L13.6569 9.82098L13.657 9.82159L13.6583 9.82568C13.6658 9.84966 13.6733 9.87395 13.6768 9.88415C13.7025 9.96197 13.7269 10.0139 13.7485 10.0481ZM13.4016 9.7766C13.4151 9.78448 13.4279 9.8026 13.4406 9.82952C13.4564 9.86333 13.4697 9.90325 13.4936 9.98321L13.4969 9.99425C13.5099 10.0378 13.5106 10.04 13.5161 10.0575C13.5396 10.1323 13.5576 10.1722 13.5741 10.1816L13.5755 10.194C13.5038 10.2611 13.422 10.3207 13.3221 10.3816C13.2809 10.4067 13.1798 10.4635 13.1046 10.5057C13.0623 10.5294 13.0283 10.5485 13.0174 10.555C12.938 10.602 12.8831 10.6418 12.8325 10.6836C12.8069 10.657 12.7845 10.6202 12.7555 10.5619L12.7476 10.5458L12.7424 10.535C12.734 10.5179 12.7242 10.4979 12.7202 10.49C12.7073 10.4649 12.6971 10.4473 12.6874 10.4344C12.6672 10.4076 12.652 10.4036 12.6346 10.4226C12.6163 10.4437 12.5839 10.4777 12.5294 10.5333L12.5269 10.5359L12.4761 10.5879C12.4652 10.5853 12.4542 10.5893 12.4424 10.6009L12.5167 10.525L12.5192 10.5224C12.5734 10.4669 12.6058 10.4331 12.624 10.4121C12.6487 10.3852 12.6738 10.3917 12.6989 10.4249C12.7092 10.4387 12.7198 10.4569 12.733 10.4828C12.7371 10.4908 12.7471 10.5112 12.7555 10.5284L12.7596 10.5369L12.7615 10.5407L12.7684 10.5549C12.7903 10.5987 12.8082 10.6301 12.8217 10.6536L12.8325 10.6728C12.874 10.6297 12.9298 10.5893 13.0102 10.5417C13.0212 10.5351 13.0554 10.5159 13.0977 10.4922C13.173 10.4499 13.2739 10.3934 13.3148 10.3684C13.4107 10.3098 13.4897 10.2526 13.559 10.1889C13.5408 10.1717 13.524 10.1317 13.5023 10.0623C13.4971 10.046 13.4962 10.0429 13.4855 10.0073L13.4823 9.99639L13.4804 9.9901L13.4797 9.98772C13.4561 9.90862 13.4429 9.86913 13.4275 9.8363C13.4088 9.7965 13.3925 9.78173 13.3774 9.79003L13.4016 9.7766ZM11.8601 12.6441C11.9312 12.6999 12.0383 12.6342 12.1727 12.4728C12.2802 12.3438 12.4016 12.1569 12.517 11.9508L12.5055 11.9416L12.5045 11.9431L11.8593 12.6326L11.8601 12.6441ZM12.4734 11.9977C12.4838 11.9797 12.4941 11.9615 12.5045 11.9431L12.5159 11.9523L12.4734 11.9977ZM12.4734 11.9977L11.8759 12.6368C11.8735 12.6353 11.8711 12.6337 11.8688 12.6319L11.8697 12.6434L11.8759 12.6368C11.9384 12.6758 12.037 12.6125 12.1617 12.4628C12.259 12.3461 12.3679 12.1813 12.4734 11.9977ZM12.7677 12.0427C12.7142 11.992 12.6572 11.9435 12.5972 11.897L12.7677 12.0427ZM12.5972 11.897L12.6059 11.8846C12.6663 11.9314 12.7236 11.9803 12.7775 12.0313L12.7677 12.0427L12.7772 12.0311L12.6061 11.8849L12.5972 11.897ZM13.439 12.8795C13.4808 12.9258 13.5212 12.9684 13.5611 13.0081L13.4391 12.8796L13.4506 12.8681L13.439 12.8795Z" fill="black"/>
<path fill-rule="evenodd" clip-rule="evenodd" d="M11.8748 11.6733L11.8707 11.6598C11.8765 11.6603 11.8824 11.6608 11.8882 11.6615L11.8748 11.6733ZM12.7256 11.6312C12.7378 11.6606 12.7356 11.6943 12.7209 11.7316C12.7076 11.7654 12.685 11.8005 12.6525 11.8413C12.6403 11.8566 12.6284 11.8708 12.5972 11.8969C12.3779 11.7267 12.1542 11.6218 11.9598 11.5992L11.8882 11.6615C12.2845 11.7051 12.7692 12.07 13.0935 12.5441C13.407 13.0023 13.7484 13.2921 14.1669 13.5214C14.1492 13.5523 14.144 13.5797 14.1389 13.6439L14.1387 13.6455C14.1375 13.6607 14.1368 13.6686 14.1358 13.6777C14.1073 13.9395 13.9905 14.122 13.8331 14.2012C13.7233 14.2564 13.6131 14.2465 13.5687 14.1852C13.5682 14.1693 13.5667 14.1534 13.5641 14.1359C13.5778 14.2241 13.7006 14.2509 13.8268 14.1874C13.9796 14.1106 14.0934 13.9326 14.1213 13.676C14.1223 13.6671 14.123 13.6593 14.1242 13.6443L14.1243 13.6426C14.1296 13.5762 14.1353 13.5471 14.1573 13.5243C13.7399 13.3046 13.3966 13.0133 13.0817 12.553C12.7548 12.0753 12.2642 11.7092 11.8695 11.675L11.8655 11.6616L11.9559 11.5857C12.1586 11.6069 12.3846 11.7129 12.5961 11.8857C12.6175 11.8606 12.6293 11.8466 12.6413 11.8315C12.6729 11.7918 12.6948 11.7579 12.7075 11.7257C12.7294 11.6702 12.7208 11.6259 12.6741 11.5914C12.6912 11.6041 12.7084 11.6173 12.7256 11.6312ZM12.681 11.5778C12.7028 11.5935 12.7175 11.6114 12.7256 11.6312C12.7739 11.6699 12.8229 11.7133 12.8734 11.7614C12.9295 11.8137 12.8799 11.9091 12.7673 12.0317C12.9103 12.1775 13.0421 12.3353 13.1516 12.5013C13.2432 12.6404 13.3391 12.7658 13.439 12.8786C13.5353 12.8113 13.5859 12.7523 13.5811 12.6976C13.6036 12.7253 13.6264 12.7524 13.6498 12.7791C13.6965 12.8384 13.6567 12.9054 13.5511 12.986C13.7463 13.1954 13.9515 13.3466 14.185 13.4777L14.1957 13.4714C14.1964 13.4601 14.2087 13.4459 14.2479 13.4083L14.2545 13.4019C14.2772 13.3799 14.2899 13.3659 14.2976 13.3524C14.3087 13.3331 14.3073 13.3163 14.2904 13.3052C14.2952 13.3098 14.3165 13.2705 14.3257 13.2536L14.3281 13.2492C14.3829 13.1498 14.4362 13.1063 14.5632 13.0834C14.4069 13.1849 14.3807 13.3751 14.4981 13.4462C14.5152 13.4545 14.527 13.4603 14.5433 13.4685L14.5439 13.4688L14.5532 13.4735L14.6016 13.4975C14.7713 13.5811 14.8428 13.6852 14.8327 13.811C14.8242 13.9169 14.7601 14.0353 14.6429 14.1812C14.4692 14.3975 14.4001 14.5722 14.2998 14.9606C14.1916 15.3794 14.1166 15.5642 13.9172 15.8004C13.7414 16.0087 13.5037 15.9368 13.4782 15.7471C13.4688 15.6765 13.4743 15.5959 13.494 15.4832C13.5005 15.446 13.5215 15.3431 13.5394 15.2564C13.547 15.3331 13.5856 15.3815 13.6477 15.3893C13.7408 15.4009 13.8605 15.3168 13.9572 15.1611C14.0378 15.0312 14.0773 14.9089 14.1353 14.6531C14.1642 14.5258 14.1672 14.5128 14.1804 14.4607C14.1031 14.4149 14.0399 14.3546 14.0037 14.2905C14.0026 14.2886 14.0015 14.2866 14.0004 14.2845C14.009 14.2828 14.0177 14.2779 14.0262 14.2712C14.0333 14.2656 14.0403 14.2588 14.0471 14.2516C14.0591 14.2388 14.0701 14.2254 14.0819 14.2094C14.0854 14.2047 14.0935 14.1934 14.1001 14.1841L14.1038 14.179C14.135 14.2237 14.179 14.2657 14.2234 14.2906C14.2798 14.1556 14.2782 14.0718 14.228 13.9241L14.2142 13.9242C14.1719 14.0577 14.0734 14.2215 13.9899 14.282C13.8052 14.4157 13.55 14.3963 13.5601 14.3049C13.5608 14.2968 13.5616 14.2894 13.5635 14.273C13.5676 14.2382 13.5695 14.2115 13.5687 14.1852C13.5591 14.1721 13.5527 14.1566 13.5498 14.1389C13.5564 14.1834 13.5554 14.2169 13.5491 14.2712C13.5472 14.2875 13.5463 14.2951 13.5455 14.3033C13.5335 14.4133 13.8036 14.4341 13.9964 14.2959C14.0328 14.3687 14.0964 14.4282 14.1702 14.4656C14.1531 14.509 14.15 14.5221 14.1211 14.6495C14.0634 14.9037 14.0244 15.0248 13.9449 15.1528C13.851 15.3041 13.736 15.3849 13.6494 15.3741C13.5757 15.3649 13.5386 15.2902 13.5571 15.1711C13.5522 15.1946 13.546 15.2244 13.5394 15.2564C13.5368 15.23 13.5378 15.2003 13.5429 15.1678C13.5436 15.1645 13.5443 15.1613 13.5449 15.1583L13.5531 15.1185C13.5488 15.1356 13.5453 15.152 13.5429 15.1678C13.5248 15.2548 13.4885 15.4294 13.4797 15.4804C13.4598 15.5947 13.4542 15.6767 13.4638 15.7492C13.491 15.952 13.7441 16.0286 13.9282 15.8105C14.1294 15.5721 14.2051 15.3855 14.3138 14.9646C14.4136 14.5782 14.4821 14.4052 14.6541 14.191C14.7731 14.0429 14.8384 13.9222 14.8472 13.8124C14.8578 13.6794 14.7825 13.5698 14.6077 13.4836C14.5867 13.4733 14.5833 13.4716 14.5502 13.455L14.5496 13.4547C14.5333 13.4465 14.5214 13.4406 14.5048 13.4326C14.3908 13.3636 14.4273 13.1656 14.6059 13.0764L14.6018 13.062C14.4405 13.0837 14.378 13.1281 14.3156 13.2416C14.3094 13.2527 14.2901 13.2892 14.2828 13.3031L14.2802 13.308C14.2919 13.3242 14.2925 13.3317 14.2852 13.3445C14.2783 13.3564 14.2664 13.3697 14.2446 13.3907L14.238 13.397C14.2033 13.4304 14.1887 13.4459 14.1835 13.4595C13.9546 13.3301 13.7531 13.181 13.5604 12.9867C13.6715 12.913 13.7156 12.8387 13.6608 12.7691C13.6259 12.7291 13.5924 12.6888 13.5593 12.6465C13.5724 12.6632 13.5796 12.6802 13.5811 12.6976C13.5701 12.684 13.559 12.6702 13.548 12.6562C13.5942 12.715 13.5508 12.7825 13.4401 12.8672C13.3502 12.756 13.2548 12.6312 13.1635 12.4927C13.0534 12.3256 12.9209 12.1669 12.7775 12.0313C12.8969 11.9127 12.9493 11.8117 12.8831 11.75C12.8137 11.6838 12.7469 11.6266 12.681 11.5778ZM14.1125 14.1656C14.1564 14.0998 14.1959 14.0217 14.2211 13.9498C14.2634 14.0816 14.2627 14.1599 14.22 14.2812C14.1861 14.2527 14.1426 14.2102 14.1125 14.1656ZM14.1092 14.1707L14.0979 14.1703C14.0998 14.1732 14.1017 14.1761 14.1038 14.179L14.1097 14.1707H14.1092ZM14.5632 13.0834C14.5759 13.0811 14.5894 13.079 14.6037 13.0771L14.5996 13.0626C14.5868 13.069 14.5746 13.0759 14.5632 13.0834Z" fill="black"/>
<path fill-rule="evenodd" clip-rule="evenodd" d="M14.6239 12.8735L14.5089 12.7275L14.4962 12.7307L14.4542 12.921L14.2735 12.9192L14.2679 12.9316L14.3845 13.0848L14.2709 13.231L14.2766 13.2432L14.4636 13.2444L14.5007 13.4287L14.5135 13.4317L14.6308 13.2791L14.793 13.3624L14.8032 13.3538L14.7607 13.1631L14.9246 13.0826L14.9244 13.069L14.7557 12.9832L14.7994 12.7998L14.7892 12.7913L14.6239 12.8735ZM14.782 12.8117L14.625 12.8898L14.6163 12.8878L14.5067 12.7487L14.5104 12.7341L14.4977 12.7372L14.5067 12.7487L14.4615 12.9303L14.2881 12.9342L14.2794 12.9221L14.2738 12.9345L14.2881 12.9342L14.3959 13.0847L14.291 13.2285L14.2767 13.228L14.2825 13.2402L14.291 13.2285L14.4708 13.235L14.5115 13.4106L14.5021 13.4221L14.5149 13.4251L14.5115 13.4106L14.6282 13.2673L14.7861 13.3423L14.7889 13.3572L14.7991 13.3485L14.7861 13.3423L14.7504 13.1581L14.9054 13.0757L14.9182 13.0827L14.918 13.069L14.9054 13.0757L14.7455 12.9885L14.782 12.8117ZM14.782 12.8117L14.7955 12.8051L14.7852 12.7965L14.782 12.8117Z" fill="black"/>
<path fill-rule="evenodd" clip-rule="evenodd" d="M14.0585 8.85389C14.444 8.7364 14.7685 8.40284 14.8431 8.04353L14.8526 8.03797C15.2986 8.20198 15.6966 8.41932 16.0637 8.68006C16.216 8.78822 16.3069 8.83168 16.5741 8.93995C16.7014 8.99153 16.7764 9.02589 16.8526 9.07154C16.7127 8.67597 16.8041 8.07405 17.0682 7.54817C17.3805 6.92616 17.4438 6.45747 17.4044 5.78047C17.3825 5.40406 17.57 5.31056 17.9646 5.38472C18.222 5.43312 18.4057 5.40913 18.7527 5.31288L18.7797 5.30543C19.1733 5.19606 19.3681 5.1717 19.6634 5.23512C19.9353 5.29341 19.9986 5.56202 19.8449 5.68794C19.7867 5.73567 19.7116 5.7729 19.5957 5.81514C19.5655 5.82612 19.4829 5.85395 19.4092 5.87873L19.4057 5.87989L19.3888 5.88557L19.3677 5.89265L19.2807 5.92195L19.2685 5.92628C19.2805 5.91865 19.2908 5.90974 19.2992 5.89967L19.3647 5.87757C19.4457 5.85041 19.5552 5.81367 19.591 5.80067C19.7055 5.75892 19.7793 5.72236 19.836 5.67585C19.9798 5.55805 19.9203 5.3058 19.6605 5.25007C19.3679 5.18727 19.175 5.21138 18.7834 5.3202L18.7565 5.32771C18.4076 5.42445 18.222 5.44862 17.962 5.39973C17.5754 5.3271 17.3978 5.41566 17.4189 5.77949C17.4585 6.45912 17.3949 6.93037 17.081 7.55531C16.8143 8.08662 16.7249 8.69581 16.8735 9.08613L16.8631 9.09553C16.7812 9.04481 16.7054 9.00953 16.5688 8.95417C16.3006 8.84553 16.209 8.80177 16.0555 8.69276C15.6916 8.43421 15.2972 8.21846 14.8555 8.05525L14.8573 8.04682L14.8478 8.05238L14.8555 8.05525C14.7765 8.41706 14.45 8.75044 14.0674 8.86378C13.969 9.15272 14.1254 9.6305 14.388 9.91236C14.53 9.98103 14.6774 10.0381 14.831 10.0847C15.3041 10.228 15.6915 10.2593 16.4614 10.2612C16.8566 10.2622 17.0108 10.2678 17.1756 10.2954C17.4374 10.3391 17.7955 10.1269 17.8412 9.80055C17.8489 9.74635 17.8596 9.69667 17.8754 9.63978C17.8851 9.60462 17.928 9.46455 17.9238 9.47834C17.9456 9.40565 17.9627 9.34211 17.9793 9.26881C18.0333 9.03016 18.0729 8.72206 18.0987 8.27943C18.1086 8.10884 18.1113 8.04127 18.1242 7.67701C18.1403 7.22084 18.1553 7.03547 18.1971 6.90522C18.3062 6.56538 18.3935 6.41279 18.5774 6.33509C18.651 6.30397 18.7194 6.26655 18.7944 6.21754L18.7967 6.22462L18.8061 6.22779C18.7288 6.27857 18.6587 6.31715 18.5828 6.34925C18.4043 6.42469 18.3187 6.57441 18.2109 6.91011C18.1698 7.03834 18.1548 7.2234 18.1387 7.67762C18.1258 8.042 18.1231 8.10963 18.1132 8.28041C18.0874 8.72377 18.0477 9.03279 17.9935 9.27235C17.9767 9.34608 17.9596 9.40992 17.9377 9.48292C17.9418 9.46937 17.899 9.60914 17.8893 9.64405C17.8738 9.70033 17.8631 9.74928 17.8556 9.80274C17.8086 10.1385 17.4424 10.3555 17.1733 10.3105C17.0095 10.2831 16.8557 10.2775 16.4614 10.2765C15.6902 10.2746 15.3017 10.2433 14.8269 10.0993C14.6727 10.0526 14.5245 9.99525 14.3798 9.92469C14.1114 9.6374 13.9531 9.15382 14.0585 8.85389ZM18.821 6.21797L18.8061 6.22779L18.8077 6.22834C18.8124 6.22499 18.8168 6.22157 18.821 6.21797ZM18.8562 6.17555C18.8473 6.19123 18.8355 6.20545 18.821 6.21797C18.8452 6.20173 18.8702 6.18428 18.8963 6.16548C18.9111 6.15492 18.9434 6.13118 18.9737 6.10884L18.9765 6.11012C18.9876 6.10176 18.9977 6.09321 19.0069 6.08436L19.0374 6.06202C19.0902 6.02375 19.1308 5.99647 19.1702 5.9737C19.1933 5.96034 19.2156 5.9488 19.2374 5.9391L19.2401 5.94068C19.2505 5.9366 19.2599 5.93177 19.2685 5.92628C19.2582 5.93013 19.2478 5.9344 19.2374 5.9391L19.2285 5.93415L19.228 5.92671C19.2333 5.92427 19.2387 5.92195 19.244 5.91975L19.2441 5.92189C19.2406 5.92359 19.237 5.92512 19.2333 5.92659L19.2449 5.93312L19.2441 5.92189C19.2491 5.91951 19.2537 5.91682 19.2582 5.91401C19.2642 5.91169 19.2702 5.9095 19.2762 5.90742L19.2992 5.89967C19.3643 5.82264 19.3304 5.67933 19.2167 5.54725L19.2018 5.5525L19.228 5.92671C19.2069 5.93623 19.1855 5.9474 19.1632 5.96028C19.1273 5.98103 19.0904 6.00544 19.0446 6.03828C19.106 5.93745 19.0661 5.79713 18.9029 5.55006L18.8898 5.55549L18.891 5.55879L18.964 6.0973C18.9341 6.11933 18.9026 6.14253 18.8881 6.1529L18.8562 6.17555ZM18.8119 6.20588C18.8264 6.19624 18.8412 6.18611 18.8562 6.17555C18.923 6.05854 18.8363 5.85603 18.6088 5.62837L18.5969 5.63649L18.5987 5.63948L18.7944 6.21754L18.8069 6.20924L18.8072 6.20991L18.7995 6.21571L18.8104 6.21949L18.8072 6.20991L18.8119 6.20588ZM18.6211 5.6623L18.6106 5.63136L18.5987 5.63948C18.6064 5.64711 18.6138 5.65473 18.6211 5.6623ZM18.6211 5.6623C18.8553 5.90492 18.9214 6.11091 18.8119 6.20588L18.8069 6.20924L18.6211 5.6623ZM18.9773 6.08747L18.9712 6.09199L18.964 6.0973L18.965 6.10499L18.9737 6.10884L18.991 6.09608L19.0069 6.08436C19.0221 6.06983 19.0347 6.05458 19.0446 6.03828L19.0291 6.04945L18.9977 6.07252C19.0958 5.97749 19.0777 5.84834 18.9086 5.58583L18.9042 5.55336L18.891 5.55879L18.9086 5.58583L18.9773 6.08747ZM18.9777 6.09016C18.9848 6.08442 18.9914 6.0785 18.9977 6.07252L18.983 6.08332L18.9773 6.08747L18.9777 6.09016ZM18.9777 6.09016C18.9746 6.09272 18.9713 6.09523 18.968 6.09773L18.9794 6.10285L18.9777 6.09016ZM19.22 5.57679L19.244 5.91975C19.2488 5.91774 19.2535 5.91584 19.2582 5.91401C19.3474 5.85682 19.329 5.7143 19.22 5.57679ZM19.22 5.57679L19.2182 5.55146L19.2034 5.55671C19.2092 5.56337 19.2147 5.57008 19.22 5.57679Z" fill="black"/>
<path fill-rule="evenodd" clip-rule="evenodd" d="M14.6097 8.66321C14.5751 8.64789 14.5387 8.633 14.5004 8.61847L14.4981 8.60547C14.5075 8.59705 14.5193 8.58588 14.5316 8.57434C14.5483 8.55853 14.5657 8.54211 14.5783 8.53137C14.5973 8.53912 14.6158 8.54694 14.634 8.55493C14.7749 8.61688 14.8365 8.65424 15.0231 8.77985C15.2468 8.93048 15.4014 9.00104 15.7205 9.07062C16.1 9.15338 16.5814 9.33234 16.8068 9.47266L16.7746 9.57037C16.5536 9.43915 16.0738 9.26074 15.6959 9.17841C15.3749 9.1084 15.2186 9.03711 14.9935 8.8855C14.8087 8.76105 14.7482 8.72437 14.6097 8.66321ZM14.5076 8.61707L14.5053 8.60406C14.5092 8.60553 14.5131 8.60706 14.517 8.60852C14.5137 8.61157 14.5105 8.61444 14.5076 8.61707ZM14.5811 8.54352C14.5687 8.55853 14.5394 8.58777 14.517 8.60852C14.5513 8.62177 14.584 8.63525 14.6154 8.64911C14.7548 8.71069 14.8159 8.74774 15.0013 8.87262C15.2251 9.02332 15.3797 9.09387 15.6989 9.16345C16.0781 9.24603 16.5594 9.42499 16.7711 9.56189L16.7961 9.47748C16.5756 9.3465 16.0956 9.16803 15.7175 9.08557C15.3966 9.01556 15.2403 8.94427 15.0153 8.79272C14.8294 8.66754 14.7683 8.63055 14.6284 8.56903L14.6254 8.56769C14.6083 8.56024 14.5913 8.55273 14.5811 8.54352Z" fill="black"/>
<path fill-rule="evenodd" clip-rule="evenodd" d="M17.4916 7.14575C17.5104 7.08942 17.5266 7.03632 17.5404 6.98499L17.4917 7.14557L17.4756 7.14142C17.4944 7.08527 17.5105 7.03235 17.5243 6.98108L17.4756 7.14142L17.4916 7.14575ZM15.0002 8.27966C14.9412 8.25671 14.8745 8.22235 14.8098 8.18237L14.8065 8.17334L14.8145 8.14783L14.8148 8.14655L14.815 8.146C14.8263 8.1095 14.8392 8.06793 14.8527 8.0379C15.2986 8.2019 15.6967 8.41925 16.0638 8.67999C16.2161 8.78821 16.3069 8.8316 16.5742 8.93988C16.7114 8.99548 16.7878 9.03107 16.8731 9.09277L16.7817 9.24023C16.6677 9.1701 16.386 9.04388 16.1772 8.96387C16.1763 8.98547 16.1669 9.01025 16.1493 9.04254C16.1453 9.04987 16.1411 9.05731 16.1351 9.06738C16.1077 9.11438 16.1024 9.12445 16.0975 9.14081C16.092 9.16003 16.0958 9.17023 16.1124 9.17572L16.0823 9.16687C16.0797 9.15839 16.0802 9.14813 16.0836 9.13635C16.0889 9.1181 16.0944 9.10803 16.1227 9.05939C16.1285 9.04944 16.1327 9.04211 16.1366 9.03491C16.1561 8.99927 16.1647 8.97388 16.1623 8.95374L16.172 8.94556C16.3826 9.02563 16.6722 9.15521 16.7791 9.22974L16.8631 9.09552C16.7812 9.0448 16.7054 9.00946 16.5689 8.95416C16.3007 8.84546 16.2091 8.8017 16.0556 8.69269C15.6895 8.43262 15.2925 8.21588 14.8573 8.04694C14.85 8.07843 14.835 8.13129 14.8221 8.1723L14.8171 8.16919L14.8203 8.17816L14.8221 8.1723C14.8846 8.21057 14.9488 8.24359 15.0097 8.27472C15.0075 8.28247 15.0048 8.29041 15.0016 8.29846C14.9832 8.34448 14.9514 8.3902 14.8988 8.45251L14.8713 8.48462L14.8431 8.5177C14.8235 8.54095 14.8102 8.55823 14.8008 8.57336C14.7792 8.6076 14.7791 8.62659 14.8018 8.63818C14.8243 8.65009 14.8845 8.68811 14.9496 8.73077C14.9498 8.74268 14.9548 8.75214 14.9651 8.75897C14.892 8.71075 14.8199 8.66479 14.7953 8.65186C14.7627 8.63525 14.7629 8.60583 14.7886 8.56488C14.7986 8.54907 14.8122 8.53131 14.8322 8.50757C14.8369 8.50183 14.8495 8.48712 14.8618 8.47284L14.8646 8.4696L14.8879 8.44238C14.9396 8.38123 14.9706 8.33661 14.9882 8.29254L14.9886 8.29138C14.9915 8.28424 14.994 8.27771 15.0002 8.27966ZM14.9496 8.73077C14.9494 8.71509 14.9575 8.69519 14.9724 8.67139C14.9915 8.64069 15.0182 8.60773 15.069 8.54956L15.0756 8.54211C15.1696 8.43481 15.1982 8.39697 15.1975 8.37134L15.207 8.36389C15.3246 8.40466 15.4344 8.46368 15.5769 8.55591C15.5787 8.55713 15.7464 8.66797 15.7907 8.69519C15.8657 8.74133 15.9242 8.7702 15.9825 8.79486C15.9761 8.82031 15.9642 8.84821 15.9466 8.88068C15.9376 8.89722 15.9277 8.91412 15.9142 8.93616L15.912 8.93976L15.9114 8.94073C15.8693 9.00958 15.8607 9.02356 15.8544 9.03864L15.8502 9.04926L15.8492 9.0517C15.8374 9.08325 15.8419 9.09894 15.8661 9.10529C15.8928 9.11145 15.9372 9.12396 16.0114 9.14587L16.0171 9.14758L16.0676 9.16254L16.0823 9.16687C16.0857 9.17804 16.0946 9.18616 16.1094 9.19073L16.0636 9.17725L16.0131 9.16229L16.0074 9.16058C15.9336 9.13879 15.8893 9.12628 15.8628 9.12018C15.8283 9.11115 15.821 9.08521 15.8358 9.04608L15.8372 9.0423C15.8386 9.03839 15.8399 9.03503 15.8413 9.0318C15.8477 9.0166 15.8564 9.00232 15.8972 8.93567L15.8986 8.93341L15.9001 8.93091L15.902 8.92792C15.9153 8.90607 15.9251 8.8894 15.9339 8.87311C15.9397 8.86249 15.9448 8.85236 15.9495 8.84308L15.9506 8.841C15.9592 8.82379 15.9664 8.80957 15.9735 8.80023C15.9189 8.78455 15.8594 8.75513 15.7833 8.70837C15.7388 8.68103 15.5709 8.57001 15.5693 8.56891C15.4312 8.47955 15.3243 8.42175 15.2113 8.38147C15.2063 8.41156 15.1754 8.45087 15.0863 8.55249L15.0798 8.55994C15.0295 8.61743 15.0031 8.65002 14.9845 8.67975C14.9623 8.71527 14.9588 8.73676 14.9728 8.74603L14.9496 8.73077ZM18.0857 8.69861C18.0963 8.60608 17.9885 8.54156 17.7882 8.50012C17.6281 8.46698 17.4132 8.45001 17.1854 8.44812L17.1835 8.4632L17.1853 8.46344L18.0767 8.70514L18.0857 8.69861ZM17.246 8.46429C17.2259 8.46387 17.2057 8.46362 17.1853 8.46344L17.1872 8.44836L17.246 8.46429ZM18.0718 8.68799L17.246 8.46429C17.4502 8.46844 17.6406 8.48511 17.7854 8.51514C17.9713 8.55359 18.0728 8.61169 18.0718 8.68799ZM18.0718 8.68799L18.0803 8.69031L18.0712 8.69684C18.0716 8.69385 18.0718 8.69092 18.0718 8.68799ZM17.143 8.17419C17.1259 8.24792 17.1127 8.32391 17.103 8.40198L17.143 8.17419ZM17.1266 8.17139C17.1095 8.24524 17.0961 8.32172 17.0864 8.40027L17.103 8.40198L17.0865 8.3999L17.1266 8.17139Z" fill="black"/>
<path fill-rule="evenodd" clip-rule="evenodd" d="M17.3998 7.63343C17.1691 8.16951 17.1124 8.79878 17.2816 9.17463L17.2725 9.18507L17.1647 9.14094C17.0809 8.94581 17.0554 8.68739 17.0922 8.40864L17.0554 8.40071C17.0251 8.39436 17.0013 8.39021 16.9781 8.38771C16.877 8.37672 16.8191 8.40193 16.8107 8.48133C16.8126 8.46034 16.8149 8.43885 16.8176 8.41712C16.8466 8.37641 16.9023 8.36409 16.9797 8.37245C17.0034 8.37507 17.0275 8.37928 17.0582 8.38569C17.0667 8.38746 17.0929 8.3932 17.1009 8.40199C17.0701 8.68653 17.0955 8.94233 17.1739 9.13063L17.2612 9.16438C17.2635 9.17005 17.266 9.17561 17.2685 9.18116L17.2776 9.17073L17.2612 9.16438C17.0989 8.78224 17.1576 8.15907 17.3865 7.62709C17.6077 7.11286 17.6761 6.65742 17.6559 6.16255C17.6896 6.16316 17.7155 6.15419 17.7684 6.12812L17.7709 6.12684C17.7854 6.1197 17.7922 6.11647 17.8005 6.11268C18.0306 6.00776 18.2396 6.02265 18.3835 6.12617C18.4836 6.19813 18.5306 6.30256 18.5029 6.37361C18.4905 6.38166 18.4794 6.39045 18.4641 6.40339C18.5301 6.34681 18.4907 6.22181 18.3753 6.1388C18.2356 6.03834 18.0319 6.02388 17.8063 6.12672C17.7981 6.13038 17.7914 6.13362 17.7771 6.1407L17.7745 6.14198C17.7197 6.16902 17.6923 6.17848 17.663 6.16975C17.6907 6.65889 17.6221 7.11677 17.3998 7.63343ZM18.4732 6.41529C18.5114 6.38307 18.5217 6.37764 18.6016 6.34126L18.6115 6.33668C18.7082 6.29237 18.5905 6.03657 18.38 5.93037C18.4218 5.86079 18.4391 5.77314 18.4332 5.68745C18.4664 5.68446 18.5042 5.67305 18.5581 5.65614C18.7291 5.60279 18.7583 5.59407 18.8307 5.57734C18.9335 5.5536 19.0236 5.54365 19.1125 5.54872C19.2843 5.55848 19.4085 5.62269 19.4429 5.70674C19.472 5.77803 19.4291 5.84883 19.3231 5.89155C19.3013 5.89888 19.2844 5.90455 19.2766 5.9073C19.2932 5.9026 19.3087 5.89735 19.3231 5.89155C19.3356 5.88734 19.3495 5.88264 19.3647 5.87757C19.3764 5.87367 19.3886 5.86958 19.4011 5.86537C19.3809 5.88081 19.3558 5.89466 19.3268 5.90632C19.3053 5.91358 19.2888 5.9192 19.2808 5.92195C19.2973 5.91731 19.3124 5.91212 19.3268 5.90632C19.3396 5.90205 19.3541 5.89717 19.3697 5.89198C19.4507 5.86482 19.5599 5.8282 19.5958 5.81514C19.7117 5.7729 19.7867 5.73567 19.845 5.68794C19.9987 5.56202 19.9353 5.29341 19.6635 5.23512C19.3681 5.1717 19.1733 5.19606 18.7797 5.30543L18.7528 5.31288C18.4058 5.40913 18.222 5.43312 17.9647 5.38472C17.783 5.35054 17.6507 5.35157 17.5558 5.39845C17.4407 5.45527 17.388 5.57856 17.4044 5.78065L17.4045 5.78144C17.4063 5.80329 17.4064 5.80372 17.4093 5.84419L17.4095 5.84742C17.4109 5.86586 17.412 5.88014 17.4138 5.89973C17.4138 6.03791 17.2322 6.10371 17.0695 5.98579L17.0596 5.99671C17.1196 6.07954 17.1714 6.12568 17.2267 6.14808C17.2709 6.16603 17.304 6.16859 17.3943 6.16682L17.4232 6.16633C17.4308 6.14711 17.4372 6.14277 17.4529 6.14357C17.467 6.14424 17.4838 6.14869 17.5151 6.15907L17.5193 6.16053C17.5626 6.17488 17.5826 6.18037 17.5965 6.17829C17.6043 6.45082 17.5821 6.70893 17.5181 6.98133C17.4015 6.91731 17.3185 6.9142 17.2884 6.99885C17.2726 7.05152 17.2562 7.10188 17.2382 7.15235C17.2454 7.13209 17.2557 7.11708 17.2693 7.10701C17.2637 7.12391 17.2578 7.14082 17.2518 7.15773C17.2772 7.0865 17.3545 7.09223 17.4797 7.15052C17.4329 7.28785 17.3776 7.43714 17.3091 7.5893C17.2263 7.77284 17.1618 7.97261 17.1216 8.17103C16.9643 8.12171 16.8545 8.12452 16.8367 8.21565C16.8172 8.31031 16.8036 8.3979 16.7961 8.48036C16.7988 8.45436 16.806 8.43348 16.8176 8.41712C16.8254 8.35444 16.8366 8.28858 16.851 8.21876C16.866 8.14155 16.9699 8.13893 17.127 8.18006C17.1758 7.977 17.24 7.77827 17.3223 7.59584C17.3911 7.443 17.4466 7.29304 17.4896 7.14576C17.386 7.09193 17.312 7.07527 17.2693 7.10701C17.2808 7.07307 17.2916 7.03889 17.3021 7.00379C17.3279 6.93177 17.4026 6.93452 17.5222 6.99012C17.5974 6.70784 17.6194 6.44532 17.6108 6.16786L17.6003 6.16127C17.5906 6.16627 17.5724 6.16212 17.5238 6.14595L17.5195 6.14448C17.4869 6.13368 17.4694 6.12904 17.4536 6.12825C17.4307 6.12715 17.4166 6.13667 17.4158 6.15846C17.4146 6.15113 17.4082 6.15126 17.394 6.15156C17.3057 6.15327 17.2738 6.15077 17.232 6.1338C17.1873 6.11573 17.1446 6.08094 17.0968 6.02125C17.2587 6.11244 17.4283 6.04127 17.4283 5.899C17.4266 5.87886 17.4254 5.86457 17.4241 5.8462L17.4238 5.84303L17.4205 5.7978L17.4189 5.77931C17.403 5.58314 17.4531 5.46607 17.562 5.4123C17.6534 5.36708 17.7832 5.3661 17.9621 5.39973C18.2221 5.44862 18.4076 5.42445 18.7565 5.32771L18.7834 5.3202C19.175 5.21138 19.368 5.18727 19.6605 5.25007C19.9203 5.3058 19.9799 5.55805 19.836 5.67585C19.7793 5.72236 19.7055 5.75892 19.591 5.80067C19.5604 5.81178 19.4757 5.84034 19.4011 5.86537C19.4602 5.8202 19.481 5.761 19.4563 5.70076C19.4193 5.6103 19.29 5.54347 19.1133 5.53346C19.0229 5.52833 18.9316 5.53834 18.8276 5.56239C18.7547 5.57923 18.7253 5.58802 18.554 5.64149C18.5001 5.65834 18.4625 5.66969 18.424 5.68061C18.4247 5.77375 18.4066 5.86134 18.372 5.92646C18.3709 5.92848 18.3698 5.93049 18.3687 5.93244C18.3547 5.9225 18.3414 5.91529 18.3267 5.90986C18.3035 5.90119 18.2764 5.89686 18.2351 5.89186L18.2298 5.89137C18.2512 5.84065 18.2639 5.77955 18.2621 5.72663C18.1226 5.74281 18.0544 5.78596 17.9575 5.90565L17.9645 5.9181C18.0932 5.89033 18.273 5.89723 18.3665 5.94062C18.3682 5.94148 18.37 5.94233 18.3718 5.94325C18.5745 6.04426 18.686 6.2859 18.6055 6.3227L18.5959 6.32722C18.546 6.34993 18.5227 6.36085 18.5029 6.37361C18.4968 6.38935 18.4869 6.40351 18.4732 6.41529ZM18.2145 5.88984C18.1382 5.88282 18.0541 5.886 17.9822 5.89906C18.0698 5.79457 18.1348 5.75611 18.256 5.73445C18.2496 5.77943 18.2362 5.84028 18.2145 5.88984ZM18.2203 5.89039L18.2256 5.90083C18.2271 5.89772 18.2285 5.89454 18.2298 5.89137L18.22 5.88996L18.2203 5.89039ZM17.0968 6.02125C17.0848 6.01454 17.073 6.00691 17.0612 5.99836L17.0712 5.98744C17.0799 5.99952 17.0884 6.01075 17.0968 6.02125Z" fill="black"/>
</g>
</svg>
