<svg width="28" height="20" viewBox="0 0 28 20" fill="none" xmlns="http://www.w3.org/2000/svg">
<rect width="28" height="20" fill="black" fill-opacity="0"/>
<path d="M0.25 2C0.25 1.0335 1.0335 0.25 2 0.25H26C26.9665 0.25 27.75 1.0335 27.75 2V18C27.75 18.9665 26.9665 19.75 26 19.75H2C1.0335 19.75 0.25 18.9665 0.25 18V2Z" fill="white" stroke="#F5F5F5" stroke-width="0.5"/>
<mask id="mask0" mask-type="alpha" maskUnits="userSpaceOnUse" x="0" y="0" width="28" height="20">
<path d="M0.25 2C0.25 1.0335 1.0335 0.25 2 0.25H26C26.9665 0.25 27.75 1.0335 27.75 2V18C27.75 18.9665 26.9665 19.75 26 19.75H2C1.0335 19.75 0.25 18.9665 0.25 18V2Z" fill="white" stroke="white" stroke-width="0.5"/>
</mask>
<g mask="url(#mask0)">
<path fill-rule="evenodd" clip-rule="evenodd" d="M0 6.66667H28V0H0V6.66667Z" fill="#38BB56"/>
<path fill-rule="evenodd" clip-rule="evenodd" d="M0 20H28V13.3333H0V20Z" fill="#DE1B27"/>
<path fill-rule="evenodd" clip-rule="evenodd" d="M1.66669 5.33331C1.48257 5.33331 1.33334 5.48254 1.33334 5.66663V6.33331C1.33334 6.5174 1.48257 6.66663 1.66669 6.66663H2.33334C2.51743 6.66663 2.66669 6.5174 2.66669 6.33331V5.66663C2.66669 5.48254 2.51743 5.33331 2.33334 5.33331H1.66669ZM4.33334 5.33331C4.14923 5.33331 4 5.48254 4 5.66663V6.33331C4 6.5174 4.14923 6.66663 4.33334 6.66663H5C5.18408 6.66663 5.33334 6.5174 5.33334 6.33331V5.66663C5.33334 5.48254 5.18408 5.33331 5 5.33331H4.33334ZM6.66669 5.66663C6.66669 5.48254 6.81592 5.33331 7.00003 5.33331H7.66669C7.85077 5.33331 8.00003 5.48254 8.00003 5.66663V6.33331C8.00003 6.5174 7.85077 6.66663 7.66669 6.66663H7.00003C6.81592 6.66663 6.66669 6.5174 6.66669 6.33331V5.66663ZM9.66669 5.33331C9.48257 5.33331 9.33334 5.48254 9.33334 5.66663V6.33331C9.33334 6.5174 9.48257 6.66663 9.66669 6.66663H10.3333C10.5174 6.66663 10.6667 6.5174 10.6667 6.33331V5.66663C10.6667 5.48254 10.5174 5.33331 10.3333 5.33331H9.66669ZM12 5.66663C12 5.48254 12.1492 5.33331 12.3333 5.33331H13C13.1841 5.33331 13.3333 5.48254 13.3333 5.66663V6.33331C13.3333 6.5174 13.1841 6.66663 13 6.66663H12.3333C12.1492 6.66663 12 6.5174 12 6.33331V5.66663ZM15 5.33331C14.8159 5.33331 14.6667 5.48254 14.6667 5.66663V6.33331C14.6667 6.5174 14.8159 6.66663 15 6.66663H15.6667C15.8508 6.66663 16 6.5174 16 6.33331V5.66663C16 5.48254 15.8508 5.33331 15.6667 5.33331H15ZM17.3333 5.66663C17.3333 5.48254 17.4826 5.33331 17.6667 5.33331H18.3333C18.5174 5.33331 18.6667 5.48254 18.6667 5.66663V6.33331C18.6667 6.5174 18.5174 6.66663 18.3333 6.66663H17.6667C17.4826 6.66663 17.3333 6.5174 17.3333 6.33331V5.66663ZM20.3333 5.33331C20.1492 5.33331 20 5.48254 20 5.66663V6.33331C20 6.5174 20.1492 6.66663 20.3333 6.66663H21C21.1841 6.66663 21.3333 6.5174 21.3333 6.33331V5.66663C21.3333 5.48254 21.1841 5.33331 21 5.33331H20.3333ZM22.6667 5.66663C22.6667 5.48254 22.8159 5.33331 23 5.33331H23.6667C23.8508 5.33331 24 5.48254 24 5.66663V6.33331C24 6.5174 23.8508 6.66663 23.6667 6.66663H23C22.8159 6.66663 22.6667 6.5174 22.6667 6.33331V5.66663ZM25.6667 5.33331C25.4826 5.33331 25.3333 5.48254 25.3333 5.66663V6.33331C25.3333 6.5174 25.4826 6.66663 25.6667 6.66663H26.3333C26.5174 6.66663 26.6667 6.5174 26.6667 6.33331V5.66663C26.6667 5.48254 26.5174 5.33331 26.3333 5.33331H25.6667ZM1.33334 13.6666C1.33334 13.4825 1.48257 13.3333 1.66669 13.3333H2.33334C2.51743 13.3333 2.66669 13.4825 2.66669 13.6666V14.3333C2.66669 14.5174 2.51743 14.6666 2.33334 14.6666H1.66669C1.48257 14.6666 1.33334 14.5174 1.33334 14.3333V13.6666ZM4.33334 13.3333C4.14923 13.3333 4 13.4825 4 13.6666V14.3333C4 14.5174 4.14923 14.6666 4.33334 14.6666H5C5.18408 14.6666 5.33334 14.5174 5.33334 14.3333V13.6666C5.33334 13.4825 5.18408 13.3333 5 13.3333H4.33334ZM6.66669 13.6666C6.66669 13.4825 6.81592 13.3333 7.00003 13.3333H7.66669C7.85077 13.3333 8.00003 13.4825 8.00003 13.6666V14.3333C8.00003 14.5174 7.85077 14.6666 7.66669 14.6666H7.00003C6.81592 14.6666 6.66669 14.5174 6.66669 14.3333V13.6666ZM9.66669 13.3333C9.48257 13.3333 9.33334 13.4825 9.33334 13.6666V14.3333C9.33334 14.5174 9.48257 14.6666 9.66669 14.6666H10.3333C10.5174 14.6666 10.6667 14.5174 10.6667 14.3333V13.6666C10.6667 13.4825 10.5174 13.3333 10.3333 13.3333H9.66669ZM12 13.6666C12 13.4825 12.1492 13.3333 12.3333 13.3333H13C13.1841 13.3333 13.3333 13.4825 13.3333 13.6666V14.3333C13.3333 14.5174 13.1841 14.6666 13 14.6666H12.3333C12.1492 14.6666 12 14.5174 12 14.3333V13.6666ZM15 13.3333C14.8159 13.3333 14.6667 13.4825 14.6667 13.6666V14.3333C14.6667 14.5174 14.8159 14.6666 15 14.6666H15.6667C15.8508 14.6666 16 14.5174 16 14.3333V13.6666C16 13.4825 15.8508 13.3333 15.6667 13.3333H15ZM17.3333 13.6666C17.3333 13.4825 17.4826 13.3333 17.6667 13.3333H18.3333C18.5174 13.3333 18.6667 13.4825 18.6667 13.6666V14.3333C18.6667 14.5174 18.5174 14.6666 18.3333 14.6666H17.6667C17.4826 14.6666 17.3333 14.5174 17.3333 14.3333V13.6666ZM20.3333 13.3333C20.1492 13.3333 20 13.4825 20 13.6666V14.3333C20 14.5174 20.1492 14.6666 20.3333 14.6666H21C21.1841 14.6666 21.3333 14.5174 21.3333 14.3333V13.6666C21.3333 13.4825 21.1841 13.3333 21 13.3333H20.3333ZM22.6667 13.6666C22.6667 13.4825 22.8159 13.3333 23 13.3333H23.6667C23.8508 13.3333 24 13.4825 24 13.6666V14.3333C24 14.5174 23.8508 14.6666 23.6667 14.6666H23C22.8159 14.6666 22.6667 14.5174 22.6667 14.3333V13.6666ZM25.6667 13.3333C25.4826 13.3333 25.3333 13.4825 25.3333 13.6666V14.3333C25.3333 14.5174 25.4826 14.6666 25.6667 14.6666H26.3333C26.5174 14.6666 26.6667 14.5174 26.6667 14.3333V13.6666C26.6667 13.4825 26.5174 13.3333 26.3333 13.3333H25.6667Z" fill="white" fill-opacity="0.5"/>
<path d="M15.3691 8.542L12.6535 8.52112L12.878 8.76753C12.5429 9.07282 12.3333 9.51169 12.3333 9.99998C12.3333 10.9205 13.0795 11.6666 14 11.6666C14.9205 11.6666 15.6667 10.9205 15.6667 9.99998C15.6667 9.52087 15.4649 9.08941 15.1408 8.78495L15.3691 8.542Z" stroke="#D80915" stroke-width="0.666667"/>
<path fill-rule="evenodd" clip-rule="evenodd" d="M13.3333 9.99998C13.3333 9.63179 13.6318 9.33331 14 9.33331C14.3682 9.33331 14.6667 9.63179 14.6667 9.99998V11.3333C14.6667 11.7015 14.3682 12 14 12C13.6318 12 13.3333 11.7015 13.3333 11.3333V9.99998Z" fill="#D80915"/>
</g>
</svg>
