<svg width="28" height="20" viewBox="0 0 28 20" fill="none" xmlns="http://www.w3.org/2000/svg">
<rect width="28" height="20" fill="black" fill-opacity="0"/>
<path d="M0.25 2C0.25 1.0335 1.0335 0.25 2 0.25H26C26.9665 0.25 27.75 1.0335 27.75 2V18C27.75 18.9665 26.9665 19.75 26 19.75H2C1.0335 19.75 0.25 18.9665 0.25 18V2Z" fill="white" stroke="#F5F5F5" stroke-width="0.5"/>
<mask id="mask0" mask-type="alpha" maskUnits="userSpaceOnUse" x="0" y="0" width="28" height="20">
<path d="M0.25 2C0.25 1.0335 1.0335 0.25 2 0.25H26C26.9665 0.25 27.75 1.0335 27.75 2V18C27.75 18.9665 26.9665 19.75 26 19.75H2C1.0335 19.75 0.25 18.9665 0.25 18V2Z" fill="white" stroke="white" stroke-width="0.5"/>
</mask>
<g mask="url(#mask0)">
<path fill-rule="evenodd" clip-rule="evenodd" d="M-6.31149 -2.58282L-4.78196 -4.76723L35.6295 23.5292L34.1 25.7136L-6.31149 -2.58282Z" fill="#E3243B"/>
<path fill-rule="evenodd" clip-rule="evenodd" d="M35.6295 -2.58282L34.1 -4.76723L-6.31149 23.5292L-4.78195 25.7136L35.6295 -2.58282Z" fill="#E3243B"/>
<rect width="4" height="6.33333" fill="black" fill-opacity="0" transform="translate(12.6667 1.33331)"/>
<path fill-rule="evenodd" clip-rule="evenodd" d="M15.7408 2.66663H13.5925L13.6798 2.61542L12.693 2.04559L13.9689 2.18805L13.7895 1.33331L14.6667 2.04559L15.5438 1.33331L15.3644 2.18805L16.6403 2.04559L15.6535 2.61542L15.7408 2.66663Z" fill="#FAEF32"/>
<path fill-rule="evenodd" clip-rule="evenodd" d="M12.6667 5.16663C12.6667 4.79582 12.6667 4.38224 12.6667 3.9999C12.6667 3.26352 13.2636 2.66663 14 2.66663H15.3333C16.0697 2.66663 16.6667 3.26352 16.6667 3.9999C16.6667 4.38224 16.6667 4.79582 16.6667 5.16663C16.6667 6.95234 14.6667 7.66663 14.6667 7.66663C14.6667 7.66663 12.6667 6.95234 12.6667 5.16663Z" fill="#E3243B"/>
<mask id="mask1" mask-type="alpha" maskUnits="userSpaceOnUse" x="12" y="2" width="5" height="6">
<path fill-rule="evenodd" clip-rule="evenodd" d="M12.6667 5.16663C12.6667 4.79582 12.6667 4.38224 12.6667 3.9999C12.6667 3.26352 13.2636 2.66663 14 2.66663H15.3333C16.0697 2.66663 16.6667 3.26352 16.6667 3.9999C16.6667 4.38224 16.6667 4.79582 16.6667 5.16663C16.6667 6.95234 14.6667 7.66663 14.6667 7.66663C14.6667 7.66663 12.6667 6.95234 12.6667 5.16663Z" fill="white"/>
</mask>
<g mask="url(#mask1)">
<path fill-rule="evenodd" clip-rule="evenodd" d="M14.3333 6.99996C14.3333 6.81586 14.4826 6.66663 14.6666 6.66663C14.8507 6.66663 15 6.81586 15 6.99996C15 7.18405 14.8507 7.33329 14.6666 7.33329C14.4826 7.33329 14.3333 7.18405 14.3333 6.99996Z" fill="#FAEF32"/>
<path fill-rule="evenodd" clip-rule="evenodd" d="M13.3333 5.66665C13.3333 5.48255 13.4826 5.33331 13.6666 5.33331H15.6666C15.8507 5.33331 16 5.48255 16 5.66665C16 5.85074 15.8507 5.99998 15.6666 5.99998H13.6666C13.4826 5.99998 13.3333 5.85074 13.3333 5.66665Z" fill="#FAEF32"/>
<path fill-rule="evenodd" clip-rule="evenodd" d="M13.3333 4.33333C13.3333 4.14924 13.4826 4 13.6666 4H15.6666C15.8507 4 16 4.14924 16 4.33333C16 4.51743 15.8507 4.66667 15.6666 4.66667H13.6666C13.4826 4.66667 13.3333 4.51743 13.3333 4.33333Z" fill="#FAEF32"/>
</g>
</g>
</svg>
