<svg width="28" height="20" viewBox="0 0 28 20" fill="none" xmlns="http://www.w3.org/2000/svg">
<rect width="28" height="20" fill="black" fill-opacity="0"/>
<path fill-rule="evenodd" clip-rule="evenodd" d="M0 2C0 0.895431 0.895431 0 2 0H26C27.1046 0 28 0.895431 28 2V18C28 19.1046 27.1046 20 26 20H2C0.895431 20 0 19.1046 0 18V2Z" fill="white"/>
<mask id="mask0" mask-type="alpha" maskUnits="userSpaceOnUse" x="0" y="0" width="28" height="20">
<path fill-rule="evenodd" clip-rule="evenodd" d="M0 2C0 0.895431 0.895431 0 2 0H26C27.1046 0 28 0.895431 28 2V18C28 19.1046 27.1046 20 26 20H2C0.895431 20 0 19.1046 0 18V2Z" fill="white"/>
</mask>
<g mask="url(#mask0)">
<path fill-rule="evenodd" clip-rule="evenodd" d="M0 5.33333H28V0H0V5.33333Z" fill="#262626"/>
<path fill-rule="evenodd" clip-rule="evenodd" d="M0 20H28V14.6667H0V20Z" fill="#018301"/>
<path fill-rule="evenodd" clip-rule="evenodd" d="M0 14.6666H28V5.33331H0V14.6666Z" fill="white"/>
<path fill-rule="evenodd" clip-rule="evenodd" d="M0 13.3334H28V6.66669H0V13.3334Z" fill="#DC0808"/>
<rect width="6.66667" height="13.3333" fill="black" fill-opacity="0" transform="translate(10.6667 3.33331)"/>
<path fill-rule="evenodd" clip-rule="evenodd" d="M14 16.6666C15.3333 16.6666 17.3333 14.0501 17.3333 9.99998C17.3333 5.94989 15.3333 3.33331 14 3.33331C12.6667 3.33331 10.6667 5.94989 10.6667 9.99998C10.6667 14.0501 12.6667 16.6666 14 16.6666Z" fill="#BC0000"/>
<mask id="mask1" mask-type="alpha" maskUnits="userSpaceOnUse" x="10" y="3" width="8" height="14">
<path fill-rule="evenodd" clip-rule="evenodd" d="M14 16.6666C15.3333 16.6666 17.3333 14.0501 17.3333 9.99998C17.3333 5.94989 15.3333 3.33331 14 3.33331C12.6667 3.33331 10.6667 5.94989 10.6667 9.99998C10.6667 14.0501 12.6667 16.6666 14 16.6666Z" fill="white"/>
</mask>
<g mask="url(#mask1)">
<path fill-rule="evenodd" clip-rule="evenodd" d="M8.66665 17.3333C10.5076 17.3333 12 14.05 12 9.99996C12 5.94987 10.5076 2.66663 8.66665 2.66663C6.8257 2.66663 5.33331 5.94987 5.33331 9.99996C5.33331 14.05 6.8257 17.3333 8.66665 17.3333Z" fill="#262626"/>
<path fill-rule="evenodd" clip-rule="evenodd" d="M19.3333 17.3333C21.1743 17.3333 22.6667 14.05 22.6667 9.99996C22.6667 5.94987 21.1743 2.66663 19.3333 2.66663C17.4924 2.66663 16 5.94987 16 9.99996C16 14.05 17.4924 17.3333 19.3333 17.3333Z" fill="#262626"/>
<g filter="url(#filter0_d)">
<path fill-rule="evenodd" clip-rule="evenodd" d="M14 7.99994C14.3682 7.99994 14.6667 6.80603 14.6667 5.33331C14.6667 3.86053 14.3682 2.66663 14 2.66663C13.6318 2.66663 13.3333 3.86053 13.3333 5.33331C13.3333 6.80603 13.6318 7.99994 14 7.99994ZM14 11.9999C14.3682 11.9999 14.6667 11.1045 14.6667 9.99994C14.6667 8.89539 14.3682 7.99994 14 7.99994C13.6318 7.99994 13.3333 8.89539 13.3333 9.99994C13.3333 11.1045 13.6318 11.9999 14 11.9999ZM14 11.9999C13.6318 11.9999 13.3333 13.1938 13.3333 14.6666C13.3333 16.1393 13.6318 17.3333 14 17.3333C14.3682 17.3333 14.6667 16.1393 14.6667 14.6666C14.6667 13.1938 14.3682 11.9999 14 11.9999Z" fill="url(#paint0_linear)"/>
</g>
</g>
</g>
<defs>
<filter id="filter0_d" x="13.3333" y="2.66663" width="1.33334" height="15.6666" filterUnits="userSpaceOnUse" color-interpolation-filters="sRGB">
<feFlood flood-opacity="0" result="BackgroundImageFix"/>
<feColorMatrix in="SourceAlpha" type="matrix" values="0 0 0 0 0 0 0 0 0 0 0 0 0 0 0 0 0 0 255 0"/>
<feOffset dy="1"/>
<feColorMatrix type="matrix" values="0 0 0 0 0 0 0 0 0 0 0 0 0 0 0 0 0 0 0.06 0"/>
<feBlend mode="normal" in2="BackgroundImageFix" result="effect1_dropShadow"/>
<feBlend mode="normal" in="SourceGraphic" in2="effect1_dropShadow" result="shape"/>
</filter>
<linearGradient id="paint0_linear" x1="13.3333" y1="2.66663" x2="13.3333" y2="17.3333" gradientUnits="userSpaceOnUse">
<stop stop-color="white"/>
<stop offset="1" stop-color="#F0F0F0"/>
</linearGradient>
</defs>
</svg>
