<svg width="28" height="20" viewBox="0 0 28 20" fill="none" xmlns="http://www.w3.org/2000/svg">
<rect width="28" height="20" fill="black" fill-opacity="0"/>
<path fill-rule="evenodd" clip-rule="evenodd" d="M0 2C0 0.895431 0.895431 0 2 0H26C27.1046 0 28 0.895431 28 2V18C28 19.1046 27.1046 20 26 20H2C0.895431 20 0 19.1046 0 18V2Z" fill="white"/>
<mask id="mask0" mask-type="alpha" maskUnits="userSpaceOnUse" x="0" y="0" width="28" height="20">
<path fill-rule="evenodd" clip-rule="evenodd" d="M0 2C0 0.895431 0.895431 0 2 0H26C27.1046 0 28 0.895431 28 2V18C28 19.1046 27.1046 20 26 20H2C0.895431 20 0 19.1046 0 18V2Z" fill="white"/>
</mask>
<g mask="url(#mask0)">
<path fill-rule="evenodd" clip-rule="evenodd" d="M0 0H28V20H0V0Z" fill="#F22A46"/>
<path fill-rule="evenodd" clip-rule="evenodd" d="M14 13.3334C15.8409 13.3334 17.3333 11.841 17.3333 10C17.3333 8.15907 15.8409 6.66669 14 6.66669C12.159 6.66669 10.6667 8.15907 10.6667 10C10.6667 11.841 12.159 13.3334 14 13.3334Z" fill="#FFF04D"/>
<path fill-rule="evenodd" clip-rule="evenodd" d="M12.3682 17.1495L14 14.7136L15.6318 17.1495L16.0451 14.2468L18.5722 15.7335L17.6852 12.9389L20.6071 13.1818L18.5954 11.0489L21.3333 10L18.5954 8.95117L20.6071 6.81818L17.6852 7.06116L18.5722 4.2666L16.0451 5.75317L15.6318 2.85052L14 5.28638L12.3682 2.85052L11.9548 5.75317L9.42773 4.2666L10.3147 7.06116L7.39288 6.81818L9.40457 8.95117L6.66666 10L9.40457 11.0489L7.39288 13.1818L10.3147 12.9389L9.42773 15.7335L11.9548 14.2468L12.3682 17.1495ZM18.6667 10C18.6667 12.5773 16.5773 14.6666 14 14.6666C11.4226 14.6666 9.33331 12.5773 9.33331 10C9.33331 7.42267 11.4226 5.33331 14 5.33331C16.5773 5.33331 18.6667 7.42267 18.6667 10Z" fill="#FFF04D"/>
</g>
</svg>
