<svg width="28" height="20" viewBox="0 0 28 20" fill="none" xmlns="http://www.w3.org/2000/svg">
<rect width="28" height="20" fill="black" fill-opacity="0"/>
<path fill-rule="evenodd" clip-rule="evenodd" d="M0 2C0 0.895431 0.895431 0 2 0H26C27.1046 0 28 0.895431 28 2V18C28 19.1046 27.1046 20 26 20H2C0.895431 20 0 19.1046 0 18V2Z" fill="white"/>
<mask id="mask0" mask-type="alpha" maskUnits="userSpaceOnUse" x="0" y="0" width="28" height="20">
<path fill-rule="evenodd" clip-rule="evenodd" d="M0 2C0 0.895431 0.895431 0 2 0H26C27.1046 0 28 0.895431 28 2V18C28 19.1046 27.1046 20 26 20H2C0.895431 20 0 19.1046 0 18V2Z" fill="white"/>
</mask>
<g mask="url(#mask0)">
<path fill-rule="evenodd" clip-rule="evenodd" d="M0 5.33333H28V0H0V5.33333Z" fill="#0F3EB6"/>
<path fill-rule="evenodd" clip-rule="evenodd" d="M0 20H28V14.6667H0V20Z" fill="#0F3EB6"/>
<path fill-rule="evenodd" clip-rule="evenodd" d="M0 14.6666H28V5.33331H0V14.6666Z" fill="#ED1A3C"/>
<path fill-rule="evenodd" clip-rule="evenodd" d="M12 8.72717H13.3333V8C13.3333 7.63177 13.6318 7.33331 14 7.33331C14.3682 7.33331 14.6667 7.63177 14.6667 8V8.72717H16V10H12V8.72717ZM17.3334 8C16.9651 8 16.6667 8.29846 16.6667 8.66669V10H18V8.66669C18 8.29846 17.7015 8 17.3334 8ZM11.3334 13.3333V10.6666H10L8.66669 13.3333H11.3334ZM12 10.6666V13.3333H16V10.6666H12ZM16.6667 13.3333V10.6666H18L19.3334 13.3333H16.6667ZM10.6667 8C10.2985 8 10 8.29846 10 8.66669V10H11.3333V8.66669C11.3333 8.29846 11.0349 8 10.6667 8Z" fill="white"/>
</g>
</svg>
