<svg width="28" height="20" viewBox="0 0 28 20" fill="none" xmlns="http://www.w3.org/2000/svg">
<rect width="28" height="20" fill="black" fill-opacity="0"/>
<path d="M0.25 2C0.25 1.0335 1.0335 0.25 2 0.25H26C26.9665 0.25 27.75 1.0335 27.75 2V18C27.75 18.9665 26.9665 19.75 26 19.75H2C1.0335 19.75 0.25 18.9665 0.25 18V2Z" fill="white" stroke="#F5F5F5" stroke-width="0.5"/>
<mask id="mask0" mask-type="alpha" maskUnits="userSpaceOnUse" x="0" y="0" width="28" height="20">
<path d="M0.25 2C0.25 1.0335 1.0335 0.25 2 0.25H26C26.9665 0.25 27.75 1.0335 27.75 2V18C27.75 18.9665 26.9665 19.75 26 19.75H2C1.0335 19.75 0.25 18.9665 0.25 18V2Z" fill="white" stroke="white" stroke-width="0.5"/>
</mask>
<g mask="url(#mask0)">
<path fill-rule="evenodd" clip-rule="evenodd" d="M0 5.33333H28V0H0V5.33333Z" fill="#FFCB49"/>
<path fill-rule="evenodd" clip-rule="evenodd" d="M0 14.6667H28V9.33334H0V14.6667Z" fill="#DC1D34"/>
<path fill-rule="evenodd" clip-rule="evenodd" d="M0 20H28V14.6667H0V20Z" fill="#4985D4"/>
<path fill-rule="evenodd" clip-rule="evenodd" d="M0 20L13.3333 10L0 0V20Z" fill="#4BA343"/>
<path fill-rule="evenodd" clip-rule="evenodd" d="M5.33331 14C5.67859 14 6.01367 13.9563 6.33331 13.874C4.60809 13.43 3.33331 11.8638 3.33331 10C3.33331 8.13617 4.60809 6.57004 6.33331 6.12601C6.01367 6.04373 5.67859 6 5.33331 6C3.12415 6 1.33331 7.79086 1.33331 10C1.33331 12.2091 3.12415 14 5.33331 14ZM7.99994 7.33331C7.99994 7.70151 7.70148 8 7.33331 8C6.96509 8 6.66663 7.70151 6.66663 7.33331C6.66663 6.96512 6.96509 6.66666 7.33331 6.66666C7.70148 6.66666 7.99994 6.96512 7.99994 7.33331ZM7.33331 10.6667C7.70148 10.6667 7.99994 10.3682 7.99994 10C7.99994 9.63181 7.70148 9.33334 7.33331 9.33334C6.96509 9.33334 6.66663 9.63181 6.66663 10C6.66663 10.3682 6.96509 10.6667 7.33331 10.6667ZM7.99994 12.6667C7.99994 13.0349 7.70148 13.3333 7.33331 13.3333C6.96509 13.3333 6.66663 13.0349 6.66663 12.6667C6.66663 12.2985 6.96509 12 7.33331 12C7.70148 12 7.99994 12.2985 7.99994 12.6667Z" fill="white"/>
</g>
</svg>
