<svg width="28" height="20" viewBox="0 0 28 20" fill="none" xmlns="http://www.w3.org/2000/svg">
<rect width="28" height="20" fill="black" fill-opacity="0"/>
<path d="M0.25 2C0.25 1.0335 1.0335 0.25 2 0.25H26C26.9665 0.25 27.75 1.0335 27.75 2V18C27.75 18.9665 26.9665 19.75 26 19.75H2C1.0335 19.75 0.25 18.9665 0.25 18V2Z" fill="white" stroke="#F5F5F5" stroke-width="0.5"/>
<mask id="mask0" mask-type="alpha" maskUnits="userSpaceOnUse" x="0" y="0" width="28" height="20">
<path d="M0.25 2C0.25 1.0335 1.0335 0.25 2 0.25H26C26.9665 0.25 27.75 1.0335 27.75 2V18C27.75 18.9665 26.9665 19.75 26 19.75H2C1.0335 19.75 0.25 18.9665 0.25 18V2Z" fill="white" stroke="white" stroke-width="0.5"/>
</mask>
<g mask="url(#mask0)">
<rect width="9.33333" height="9.33333" fill="black" fill-opacity="0" transform="translate(9.33334 5.33331)"/>
<path fill-rule="evenodd" clip-rule="evenodd" d="M14 14.6666C16.5773 14.6666 18.6667 12.5773 18.6667 9.99998C18.6667 7.42265 16.5773 5.33331 14 5.33331C11.4227 5.33331 9.33334 7.42265 9.33334 9.99998C9.33334 12.5773 11.4227 14.6666 14 14.6666Z" fill="#E01B41"/>
<mask id="mask1" mask-type="alpha" maskUnits="userSpaceOnUse" x="9" y="5" width="10" height="10">
<path fill-rule="evenodd" clip-rule="evenodd" d="M14 14.6666C16.5773 14.6666 18.6667 12.5773 18.6667 9.99998C18.6667 7.42265 16.5773 5.33331 14 5.33331C11.4227 5.33331 9.33334 7.42265 9.33334 9.99998C9.33334 12.5773 11.4227 14.6666 14 14.6666Z" fill="white"/>
</mask>
<g mask="url(#mask1)">
<path fill-rule="evenodd" clip-rule="evenodd" d="M9.33335 10.6666C10.6667 11.9166 12.6667 12.6666 14 10.6666C15.3333 8.66663 18 8.66663 18.6667 10.6666C19.3333 12.6666 18.6667 14.6666 18.6667 14.6666H9.33335C9.33335 14.6666 8.00001 9.41663 9.33335 10.6666Z" fill="#0E4B9C"/>
</g>
<path opacity="0.75" fill-rule="evenodd" clip-rule="evenodd" d="M20.7942 3.76791C20.6348 3.85996 20.5802 4.06387 20.6722 4.2233L22.3389 7.11002C22.4309 7.26944 22.6348 7.32407 22.7942 7.23203L23.3716 6.89871C23.531 6.80667 23.5856 6.60281 23.4936 6.44339L21.8269 3.55661C21.7349 3.39719 21.531 3.34256 21.3716 3.4346L20.7942 3.76791ZM19.0622 4.76791C18.9027 4.85996 18.8481 5.06387 18.9402 5.2233L20.6068 8.11002C20.6989 8.26944 20.9027 8.32407 21.0622 8.23203L21.6395 7.89871C21.799 7.80667 21.8536 7.60281 21.7615 7.44339L20.0949 4.55661C20.0028 4.39719 19.799 4.34256 19.6395 4.4346L19.0622 4.76791ZM4.50641 13.5567C4.41437 13.3972 4.469 13.1933 4.62842 13.1013L5.20578 12.768C5.3652 12.6759 5.56906 12.7306 5.66113 12.89L7.32779 15.7768C7.41983 15.9362 7.3652 16.14 7.20578 16.2321L6.62842 16.5654C6.469 16.6574 6.26514 16.6028 6.1731 16.4434L4.50641 13.5567ZM6.36047 12.1013C6.20105 12.1933 6.14642 12.3972 6.23847 12.5567L7.90515 15.4434C7.99719 15.6028 8.20105 15.6574 8.36047 15.5654L8.93784 15.2321C9.09726 15.14 9.15189 14.9362 9.05985 14.7768L7.39319 11.89C7.30112 11.7306 7.09726 11.6759 6.93784 11.768L6.36047 12.1013ZM20.6068 11.89C20.6989 11.7306 20.9027 11.6759 21.0622 11.768L21.6395 12.1013C21.799 12.1933 21.8536 12.3972 21.7615 12.5566L20.0949 15.4434C20.0028 15.6028 19.799 15.6574 19.6395 15.5654L19.0622 15.2321C18.9027 15.14 18.8481 14.9361 18.9402 14.7767L20.6068 11.89ZM22.7942 12.768C22.6348 12.6759 22.4309 12.7306 22.3389 12.89L20.6722 15.7767C20.5802 15.9361 20.6348 16.14 20.7942 16.2321L21.3716 16.5654C21.531 16.6574 21.7349 16.6028 21.8269 16.4434L23.4936 13.5566C23.5856 13.3972 23.531 13.1933 23.3716 13.1013L22.7942 12.768ZM6.1731 3.55667C6.26514 3.39725 6.469 3.34262 6.62842 3.43466L7.20578 3.76798C7.3652 3.86002 7.41983 4.06387 7.32779 4.2233L5.66113 7.11008C5.56906 7.2695 5.3652 7.32413 5.20578 7.23209L4.62842 6.89877C4.469 6.80667 4.41437 6.60281 4.50641 6.44339L6.1731 3.55667ZM8.36047 4.43466C8.20105 4.34262 7.99719 4.39725 7.90515 4.55667L6.23847 7.44339C6.14642 7.60281 6.20105 7.80667 6.36047 7.89877L6.93784 8.23209C7.09726 8.32413 7.30112 8.2695 7.39319 8.11008L9.05985 5.2233C9.15189 5.06387 9.09726 4.86002 8.93784 4.76798L8.36047 4.43466Z" fill="#262626"/>
</g>
</svg>
