<svg width="28" height="20" viewBox="0 0 28 20" fill="none" xmlns="http://www.w3.org/2000/svg">
<rect width="28" height="20" fill="black" fill-opacity="0"/>
<path fill-rule="evenodd" clip-rule="evenodd" d="M0 2C0 0.895431 0.895431 0 2 0H26C27.1046 0 28 0.895431 28 2V18C28 19.1046 27.1046 20 26 20H2C0.895431 20 0 19.1046 0 18V2Z" fill="white"/>
<mask id="mask0" mask-type="alpha" maskUnits="userSpaceOnUse" x="0" y="0" width="28" height="20">
<path fill-rule="evenodd" clip-rule="evenodd" d="M0 2C0 0.895431 0.895431 0 2 0H26C27.1046 0 28 0.895431 28 2V18C28 19.1046 27.1046 20 26 20H2C0.895431 20 0 19.1046 0 18V2Z" fill="white"/>
</mask>
<g mask="url(#mask0)">
<path fill-rule="evenodd" clip-rule="evenodd" d="M0 0H28V20H0V0Z" fill="#30C6E0"/>
<path fill-rule="evenodd" clip-rule="evenodd" d="M14 14C16.2091 14 18 12.2091 18 10C18 7.79086 16.2091 6 14 6C11.7909 6 10 7.79086 10 10C10 12.2091 11.7909 14 14 14Z" fill="#FFCD4B"/>
<path fill-rule="evenodd" clip-rule="evenodd" d="M12.3682 17.1495L14 14.7136L15.6318 17.1495L16.0452 14.2468L18.5723 15.7335L17.6853 12.9389L20.6071 13.1818L18.5954 11.0489L21.3333 10L18.5954 8.95117L20.6071 6.81818L17.6853 7.06116L18.5723 4.2666L16.0452 5.75317L15.6318 2.85052L14 5.28638L12.3682 2.85052L11.9548 5.75317L9.42775 4.2666L10.3148 7.06116L7.3929 6.81818L9.40457 8.95117L6.66667 10L9.40457 11.0489L7.3929 13.1818L10.3148 12.9389L9.42775 15.7335L11.9548 14.2468L12.3682 17.1495ZM18.6667 10C18.6667 12.5773 16.5773 14.6666 14 14.6666C11.4227 14.6666 9.33334 12.5773 9.33334 10C9.33334 7.42267 11.4227 5.33331 14 5.33331C16.5773 5.33331 18.6667 7.42267 18.6667 10Z" fill="#FFCD4B"/>
<path fill-rule="evenodd" clip-rule="evenodd" d="M1.33333 1.66663C1.33333 1.48254 1.48256 1.33331 1.66666 1.33331H2.33333C2.51743 1.33331 2.66666 1.48254 2.66666 1.66663V2.33331C2.66666 2.5174 2.51743 2.66663 2.33333 2.66663H1.66666C1.48256 2.66663 1.33333 2.5174 1.33333 2.33331V1.66663ZM1.33333 4.33331C1.33333 4.14923 1.48256 4 1.66666 4H2.33333C2.51743 4 2.66666 4.14923 2.66666 4.33331V5C2.66666 5.18408 2.51743 5.33331 2.33333 5.33331H1.66666C1.48256 5.33331 1.33333 5.18408 1.33333 5V4.33331ZM1.66666 6.66663C1.48256 6.66663 1.33333 6.81586 1.33333 6.99994V7.66663C1.33333 7.85071 1.48256 7.99994 1.66666 7.99994H2.33333C2.51743 7.99994 2.66666 7.85071 2.66666 7.66663V6.99994C2.66666 6.81586 2.51743 6.66663 2.33333 6.66663H1.66666ZM1.33333 9.66663C1.33333 9.48254 1.48256 9.33331 1.66666 9.33331H2.33333C2.51743 9.33331 2.66666 9.48254 2.66666 9.66663V10.3333C2.66666 10.5174 2.51743 10.6666 2.33333 10.6666H1.66666C1.48256 10.6666 1.33333 10.5174 1.33333 10.3333V9.66663ZM1.66666 12C1.48256 12 1.33333 12.1492 1.33333 12.3333V13C1.33333 13.1841 1.48256 13.3333 1.66666 13.3333H2.33333C2.51743 13.3333 2.66666 13.1841 2.66666 13V12.3333C2.66666 12.1492 2.51743 12 2.33333 12H1.66666ZM1.33333 14.9999C1.33333 14.8159 1.48256 14.6666 1.66666 14.6666H2.33333C2.51743 14.6666 2.66666 14.8159 2.66666 14.9999V15.6666C2.66666 15.8507 2.51743 15.9999 2.33333 15.9999H1.66666C1.48256 15.9999 1.33333 15.8507 1.33333 15.6666V14.9999ZM1.66666 17.3333C1.48256 17.3333 1.33333 17.4825 1.33333 17.6666V18.3333C1.33333 18.5174 1.48256 18.6666 1.66666 18.6666H2.33333C2.51743 18.6666 2.66666 18.5174 2.66666 18.3333V17.6666C2.66666 17.4825 2.51743 17.3333 2.33333 17.3333H1.66666ZM2.66666 16.3333C2.66666 16.1492 2.81589 16 2.99998 16H3.66666C3.85075 16 3.99998 16.1492 3.99998 16.3333V17C3.99998 17.1841 3.85075 17.3333 3.66666 17.3333H2.99998C2.81589 17.3333 2.66666 17.1841 2.66666 17V16.3333ZM2.99998 13.3333C2.81589 13.3333 2.66666 13.4825 2.66666 13.6666V14.3333C2.66666 14.5174 2.81589 14.6666 2.99998 14.6666H3.66666C3.85075 14.6666 3.99998 14.5174 3.99998 14.3333V13.6666C3.99998 13.4825 3.85075 13.3333 3.66666 13.3333H2.99998ZM2.66666 10.9999C2.66666 10.8159 2.81589 10.6666 2.99998 10.6666H3.66666C3.85075 10.6666 3.99998 10.8159 3.99998 10.9999V11.6666C3.99998 11.8507 3.85075 11.9999 3.66666 11.9999H2.99998C2.81589 11.9999 2.66666 11.8507 2.66666 11.6666V10.9999ZM2.99998 8C2.81589 8 2.66666 8.14923 2.66666 8.33331V9C2.66666 9.18408 2.81589 9.33331 2.99998 9.33331H3.66666C3.85075 9.33331 3.99998 9.18408 3.99998 9V8.33331C3.99998 8.14923 3.85075 8 3.66666 8H2.99998ZM2.66666 5.66663C2.66666 5.48254 2.81589 5.33331 2.99998 5.33331H3.66666C3.85075 5.33331 3.99998 5.48254 3.99998 5.66663V6.33331C3.99998 6.5174 3.85075 6.66663 3.66666 6.66663H2.99998C2.81589 6.66663 2.66666 6.5174 2.66666 6.33331V5.66663ZM2.99998 2.66663C2.81589 2.66663 2.66666 2.81586 2.66666 2.99994V3.66663C2.66666 3.85071 2.81589 3.99994 2.99998 3.99994H3.66666C3.85075 3.99994 3.99998 3.85071 3.99998 3.66663V2.99994C3.99998 2.81586 3.85075 2.66663 3.66666 2.66663H2.99998Z" fill="#FFCD4B"/>
</g>
</svg>
