<svg width="28" height="20" viewBox="0 0 28 20" fill="none" xmlns="http://www.w3.org/2000/svg">
<rect width="28" height="20" fill="black" fill-opacity="0"/>
<path d="M0.25 2C0.25 1.0335 1.0335 0.25 2 0.25H26C26.9665 0.25 27.75 1.0335 27.75 2V18C27.75 18.9665 26.9665 19.75 26 19.75H2C1.0335 19.75 0.25 18.9665 0.25 18V2Z" fill="white" stroke="#F5F5F5" stroke-width="0.5"/>
<mask id="mask0" mask-type="alpha" maskUnits="userSpaceOnUse" x="0" y="0" width="28" height="20">
<path d="M0.25 2C0.25 1.0335 1.0335 0.25 2 0.25H26C26.9665 0.25 27.75 1.0335 27.75 2V18C27.75 18.9665 26.9665 19.75 26 19.75H2C1.0335 19.75 0.25 18.9665 0.25 18V2Z" fill="white" stroke="white" stroke-width="0.5"/>
</mask>
<g mask="url(#mask0)">
<path fill-rule="evenodd" clip-rule="evenodd" d="M28 0H13.3333V2.66669H28V0ZM28 5.33331H13.3333V8H28V5.33331ZM13.3333 10.6667H28V13.3334H13.3333V10.6667ZM28 16H0V18.6667H28V16Z" fill="#E1244A"/>
<path fill-rule="evenodd" clip-rule="evenodd" d="M0 0H13.3333V13.3333H0V0Z" fill="#0C3F8E"/>
<path fill-rule="evenodd" clip-rule="evenodd" d="M6.66666 8.22669L4.31552 9.90275L5.18301 7.14875L2.86243 5.43062L5.74971 5.40462L6.66666 2.66669L7.5836 5.40462L10.4709 5.43062L8.1503 7.14875L9.0178 9.90275L6.66666 8.22669Z" fill="white"/>
</g>
</svg>
