<svg width="28" height="20" viewBox="0 0 28 20" fill="none" xmlns="http://www.w3.org/2000/svg">
<rect width="28" height="20" fill="black" fill-opacity="0"/>
<path fill-rule="evenodd" clip-rule="evenodd" d="M0 2C0 0.895431 0.895431 0 2 0H26C27.1046 0 28 0.895431 28 2V18C28 19.1046 27.1046 20 26 20H2C0.895431 20 0 19.1046 0 18V2Z" fill="white"/>
<mask id="mask0" mask-type="alpha" maskUnits="userSpaceOnUse" x="0" y="0" width="28" height="20">
<path fill-rule="evenodd" clip-rule="evenodd" d="M0 2C0 0.895431 0.895431 0 2 0H26C27.1046 0 28 0.895431 28 2V18C28 19.1046 27.1046 20 26 20H2C0.895431 20 0 19.1046 0 18V2Z" fill="white"/>
</mask>
<g mask="url(#mask0)">
<path fill-rule="evenodd" clip-rule="evenodd" d="M0 0H28V20H0V0Z" fill="#E33B44"/>
<path d="M14.387 11.7971L14 11.5213L13.613 11.7971L11.7072 13.1557L12.4104 10.9234L12.5532 10.4701L12.1712 10.1873L10.2902 8.79461L12.6306 8.77354L13.1058 8.76926L13.2567 8.31861L14 6.09929L14.7433 8.31861L14.8942 8.76926L15.3694 8.77354L17.7098 8.79461L15.8288 10.1873L15.4468 10.4701L15.5896 10.9234L16.2928 13.1557L14.387 11.7971Z" stroke="#0A6135" stroke-width="1.33333"/>
</g>
</svg>
