<svg width="28" height="20" viewBox="0 0 28 20" fill="none" xmlns="http://www.w3.org/2000/svg">
<rect width="28" height="20" fill="black" fill-opacity="0"/>
<path fill-rule="evenodd" clip-rule="evenodd" d="M0 2C0 0.895431 0.895431 0 2 0H26C27.1046 0 28 0.895431 28 2V18C28 19.1046 27.1046 20 26 20H2C0.895431 20 0 19.1046 0 18V2Z" fill="white"/>
<mask id="mask0" mask-type="alpha" maskUnits="userSpaceOnUse" x="0" y="0" width="28" height="20">
<path fill-rule="evenodd" clip-rule="evenodd" d="M0 2C0 0.895431 0.895431 0 2 0H26C27.1046 0 28 0.895431 28 2V18C28 19.1046 27.1046 20 26 20H2C0.895431 20 0 19.1046 0 18V2Z" fill="white"/>
</mask>
<g mask="url(#mask0)">
<path fill-rule="evenodd" clip-rule="evenodd" d="M0 0H28V20H0V0Z" fill="#E6BE53"/>
<path fill-rule="evenodd" clip-rule="evenodd" d="M1.33331 17.6666C1.33331 18.2189 1.78103 18.6666 2.33331 18.6666H25.6666C26.2189 18.6666 26.6666 18.2189 26.6666 17.6666V2.33331C26.6666 1.78103 26.2189 1.33331 25.6666 1.33331H2.33331C1.78103 1.33331 1.33331 1.78103 1.33331 2.33331V17.6666Z" fill="#E01826"/>
<path fill-rule="evenodd" clip-rule="evenodd" d="M13.0233 3.65889C12.5532 3.81563 12.4123 4.41231 12.7628 4.76277L13.1381 5.13808C13.2631 5.26308 13.4327 5.33333 13.6095 5.33333H14.3905C14.5673 5.33333 14.7369 5.26308 14.8619 5.13808L15.2372 4.76277C15.5877 4.41231 15.4468 3.81563 14.9767 3.65889L14.2108 3.40358C14.074 3.35799 13.926 3.35799 13.7892 3.40358L13.0233 3.65889ZM14.4714 6.86195C14.2111 7.12227 13.7889 7.12227 13.5286 6.86195L13.3333 6.6667L12.3397 5.67311C12.1368 5.47023 11.8268 5.41994 11.5702 5.54823L11.494 5.58638C11.087 5.78987 10.9989 6.33229 11.3207 6.65407L11.3333 6.6667L12.3269 7.66023C12.5298 7.86317 12.5801 8.17311 12.4518 8.42976L12.038 9.2574C12.013 9.30733 12 9.36238 12 9.41823C12 9.6855 11.7187 9.85939 11.4796 9.73982L11.1567 9.57838C10.9156 9.45784 10.8635 9.13655 11.0541 8.94594C11.2083 8.7917 11.2083 8.54164 11.0541 8.38747L10.7432 8.07649C10.6925 8.02583 10.6503 7.96736 10.6183 7.90327L10.0327 6.73213C10.0109 6.68861 9.99402 6.6429 9.98224 6.59566L9.67303 5.35884C9.53687 4.81422 8.82971 4.67146 8.49292 5.12056L7.46667 6.48891C7.38013 6.60432 7.33331 6.74464 7.33331 6.88893V9.17598C7.33331 9.2795 7.35742 9.38155 7.40369 9.47414L7.9516 10.5699C7.98364 10.634 8.02582 10.6925 8.07648 10.7432L9.25684 11.9235C9.3075 11.9742 9.36597 12.0164 9.43005 12.0484L10.6037 12.6352C10.6451 12.6559 10.6907 12.6667 10.737 12.6667C11.0516 12.6667 11.1517 13.0908 10.8704 13.2315L10.7158 13.3087C10.6832 13.325 10.6535 13.3465 10.6277 13.3723L10.3333 13.6667C10.1492 13.8508 9.85077 13.8508 9.66663 13.6667C9.48254 13.4826 9.18408 13.4826 9 13.6667L8.94586 13.7208C8.77911 13.8875 8.73779 14.1423 8.84326 14.3532L9.14905 14.9648C9.26196 15.1907 9.4928 15.3333 9.74536 15.3333H10.5093C10.6128 15.3333 10.7148 15.3093 10.8074 15.263L11.8012 14.7661C11.9302 14.7016 12.0349 14.5969 12.0994 14.4679L12.4016 13.8634C12.532 13.6026 12.8795 13.5462 13.0857 13.7524C13.2297 13.8964 13.252 14.122 13.1391 14.2914L12.3698 15.4453C12.1655 15.7517 12.2484 16.1656 12.5547 16.3698L13.6302 17.0868C13.8541 17.2361 14.1459 17.2361 14.3698 17.0868L15.4453 16.3698C15.7516 16.1656 15.8344 15.7517 15.6302 15.4453L14.8609 14.2914C14.7479 14.122 14.7703 13.8964 14.9142 13.7524C15.1204 13.5462 15.468 13.6026 15.5983 13.8634L15.9006 14.4679C15.9651 14.5969 16.0697 14.7016 16.1987 14.7661L17.1926 15.263C17.2851 15.3093 17.3872 15.3333 17.4907 15.3333H18.2546C18.5071 15.3333 18.738 15.1907 18.8509 14.9648L19.1567 14.3532C19.2621 14.1423 19.2208 13.8875 19.0541 13.7208L19 13.6667C18.8159 13.4826 18.5174 13.4826 18.3333 13.6667C18.1492 13.8508 17.8508 13.8508 17.6666 13.6667L17.3722 13.3723C17.3464 13.3465 17.3167 13.325 17.2841 13.3087L17.1296 13.2315C16.8482 13.0908 16.9483 12.6667 17.2629 12.6667C17.3092 12.6667 17.3549 12.6559 17.3962 12.6352L18.5699 12.0484C18.634 12.0164 18.6925 11.9742 18.7432 11.9235L19.9235 10.7432C19.9741 10.6925 20.0163 10.634 20.0483 10.5699L20.5963 9.47414C20.6426 9.38155 20.6666 9.2795 20.6666 9.17598V6.88893C20.6666 6.74464 20.6199 6.60432 20.5333 6.48891L19.507 5.12056C19.1702 4.67146 18.4631 4.81422 18.327 5.35884L18.0177 6.59566C18.0059 6.6429 17.989 6.68861 17.9672 6.73213L17.3817 7.90327C17.3497 7.96736 17.3075 8.02583 17.2568 8.07649L16.9459 8.38747C16.7917 8.54164 16.7917 8.7917 16.9459 8.94594C17.1365 9.13655 17.0844 9.45784 16.8433 9.57838L16.5203 9.73982C16.2812 9.85939 16 9.6855 16 9.41823C16 9.36238 15.987 9.30733 15.962 9.2574L15.5482 8.42976C15.4199 8.17311 15.4702 7.86317 15.6731 7.66023L16.6666 6.6667L16.6793 6.65407C17.001 6.33229 16.913 5.78987 16.506 5.58638L16.4297 5.54823C16.1731 5.41994 15.8631 5.47023 15.6602 5.67311L14.6666 6.6667L14.4714 6.86195Z" fill="#E6BE53"/>
<path fill-rule="evenodd" clip-rule="evenodd" d="M12.6667 11.3333C12.6667 11.5788 13.0801 11.6604 13.1997 11.4461C13.4321 11.0295 13.7161 10.6666 14 10.6666C14.284 10.6666 14.5679 11.0295 14.8004 11.4461C14.92 11.6604 15.3334 11.5788 15.3334 11.3333C15.3334 10.2287 14.7364 9.33331 14 9.33331C13.2636 9.33331 12.6667 10.2287 12.6667 11.3333Z" fill="#215F90"/>
</g>
</svg>
