<svg width="28" height="20" viewBox="0 0 28 20" fill="none" xmlns="http://www.w3.org/2000/svg">
<rect width="28" height="20" fill="black" fill-opacity="0"/>
<path fill-rule="evenodd" clip-rule="evenodd" d="M0 2C0 0.895431 0.895431 0 2 0H26C27.1046 0 28 0.895431 28 2V18C28 19.1046 27.1046 20 26 20H2C0.895431 20 0 19.1046 0 18V2Z" fill="white"/>
<mask id="mask0" mask-type="alpha" maskUnits="userSpaceOnUse" x="0" y="0" width="28" height="20">
<path fill-rule="evenodd" clip-rule="evenodd" d="M0 2C0 0.895431 0.895431 0 2 0H26C27.1046 0 28 0.895431 28 2V18C28 19.1046 27.1046 20 26 20H2C0.895431 20 0 19.1046 0 18V2Z" fill="white"/>
</mask>
<g mask="url(#mask0)">
<path fill-rule="evenodd" clip-rule="evenodd" d="M0 0H28V20H0V0Z" fill="#E81B26"/>
<path fill-rule="evenodd" clip-rule="evenodd" d="M14 13.3334C15.841 13.3334 17.3334 11.841 17.3334 10C17.3334 8.15907 15.841 6.66669 14 6.66669C12.1591 6.66669 10.6667 8.15907 10.6667 10C10.6667 11.841 12.1591 13.3334 14 13.3334Z" fill="#FFE94F"/>
<path fill-rule="evenodd" clip-rule="evenodd" d="M10.2081 7.2793C10.4094 6.99921 10.641 6.74237 10.898 6.51349L1.96167 -3.53064L-0.714844 -0.558105L10.2081 7.2793ZM10.898 13.4865C10.641 13.2576 10.4094 13.0008 10.2081 12.7207L-0.714844 20.558L1.96167 23.5306L10.898 13.4865ZM9.3797 10.66C9.34918 10.4444 9.33337 10.2241 9.33337 10C9.33337 9.77594 9.34918 9.5556 9.3797 9.33997L0 8V12L9.3797 10.66ZM13.0846 5.4231L12 0H16L14.9154 5.42303C14.6194 5.3642 14.3134 5.33331 14.0001 5.33331C13.6868 5.33331 13.3806 5.3642 13.0846 5.4231ZM18.6204 9.33997C18.6509 9.5556 18.6667 9.77594 18.6667 10C18.6667 10.2241 18.6509 10.4444 18.6204 10.66L28 12V8L18.6204 9.33997ZM14.9154 14.5769C14.6194 14.6357 14.3134 14.6666 14.0001 14.6666C13.6868 14.6666 13.3806 14.6358 13.0846 14.5769L12 20H16L14.9154 14.5769ZM17.102 13.4865C17.359 13.2576 17.5906 13.0009 17.7919 12.7208L28.7149 20.558L26.0384 23.5306L17.102 13.4865ZM17.1021 6.51343C17.3591 6.74231 17.5906 6.99915 17.7919 7.27924L28.7149 -0.558105L26.0384 -3.53064L17.1021 6.51343Z" fill="#FFE94F"/>
</g>
</svg>
