<svg width="28" height="20" viewBox="0 0 28 20" fill="none" xmlns="http://www.w3.org/2000/svg">
<rect width="28" height="20" fill="black" fill-opacity="0"/>
<path fill-rule="evenodd" clip-rule="evenodd" d="M0 2C0 0.895431 0.895431 0 2 0H26C27.1046 0 28 0.895431 28 2V18C28 19.1046 27.1046 20 26 20H2C0.895431 20 0 19.1046 0 18V2Z" fill="white"/>
<mask id="mask0" mask-type="alpha" maskUnits="userSpaceOnUse" x="0" y="0" width="28" height="20">
<path fill-rule="evenodd" clip-rule="evenodd" d="M0 2C0 0.895431 0.895431 0 2 0H26C27.1046 0 28 0.895431 28 2V18C28 19.1046 27.1046 20 26 20H2C0.895431 20 0 19.1046 0 18V2Z" fill="white"/>
</mask>
<g mask="url(#mask0)">
<path fill-rule="evenodd" clip-rule="evenodd" d="M9.33331 20H18.6666V0H9.33331V20Z" fill="#146BBC"/>
<path fill-rule="evenodd" clip-rule="evenodd" d="M0 20H9.33333V0H0V20Z" fill="#E43642"/>
<path fill-rule="evenodd" clip-rule="evenodd" d="M18.6667 20H28V0H18.6667V20Z" fill="#E43642"/>
<path fill-rule="evenodd" clip-rule="evenodd" d="M5.33331 10.6667H4.66669H4L4.66669 10L5.33331 10.6667ZM4.66669 12C5.03485 12 5.33331 11.7015 5.33331 11.3334C5.33331 10.9651 5.03485 10.6667 4.66669 10.6667C4.29846 10.6667 4 10.9651 4 11.3334C4 11.7015 4.29846 12 4.66669 12ZM5.33337 12H4.66669H4H2.66669V16H4V14.6667L4.66669 16L5.33331 14.6667L5.33337 16H6.66669V12H5.33337ZM4.66669 13.3333L5.33337 12L5.33331 14C5.33331 13.6318 5.03485 13.3333 4.66669 13.3333ZM4 14C4 13.6318 4.29846 13.3333 4.66669 13.3333L4 12V14ZM4.66669 14.6666L4 14.6667V14C4 14.3682 4.29846 14.6666 4.66669 14.6666ZM4.66669 14.6666L5.33331 14.6667V14C5.33331 14.3682 5.03485 14.6666 4.66669 14.6666Z" fill="url(#paint0_linear)"/>
</g>
<defs>
<linearGradient id="paint0_linear" x1="2.66669" y1="10" x2="2.66669" y2="16" gradientUnits="userSpaceOnUse">
<stop stop-color="#F8D246"/>
<stop offset="1" stop-color="#F9CE2F"/>
</linearGradient>
</defs>
</svg>
