<svg width="28" height="20" viewBox="0 0 28 20" fill="none" xmlns="http://www.w3.org/2000/svg">
<rect width="28" height="20" fill="black" fill-opacity="0"/>
<path fill-rule="evenodd" clip-rule="evenodd" d="M0 2C0 0.895431 0.895431 0 2 0H26C27.1046 0 28 0.895431 28 2V18C28 19.1046 27.1046 20 26 20H2C0.895431 20 0 19.1046 0 18V2Z" fill="white"/>
<mask id="mask0" mask-type="alpha" maskUnits="userSpaceOnUse" x="0" y="0" width="28" height="20">
<path fill-rule="evenodd" clip-rule="evenodd" d="M0 2C0 0.895431 0.895431 0 2 0H26C27.1046 0 28 0.895431 28 2V18C28 19.1046 27.1046 20 26 20H2C0.895431 20 0 19.1046 0 18V2Z" fill="white"/>
</mask>
<g mask="url(#mask0)">
<path fill-rule="evenodd" clip-rule="evenodd" d="M0 20H28V0H0V20Z" fill="#079D7B"/>
<rect width="12" height="13.3333" fill="black" fill-opacity="0" transform="translate(8 2.66669)"/>
<path fill-rule="evenodd" clip-rule="evenodd" d="M15.8849 8.66669C15.8849 8.95856 15.8637 9.2417 15.8239 9.51147C15.9262 9.48004 16.0303 9.45007 16.1362 9.42169C17.9144 8.94519 19.5016 9.10242 19.6812 9.77283C19.8435 10.3787 18.8007 11.1964 17.2859 11.6999C17.0183 10.9062 15.6491 10.6667 14 10.6667C12.3491 10.6667 10.9785 10.9067 10.7131 11.7025C9.21888 11.1981 8.19471 10.389 8.3556 9.78815C8.53529 9.11774 10.1224 8.96051 11.9006 9.43701C11.994 9.46204 12.0859 9.48828 12.1765 9.51569C12.1362 9.24463 12.1149 8.96008 12.1149 8.66669C12.1149 6.82574 12.9589 5.33337 13.9999 5.33337C15.041 5.33337 15.8849 6.82574 15.8849 8.66669ZM10.6666 12L11.8331 12.0001C11.6482 11.9638 11.4597 11.9205 11.2688 11.8698C11.4834 11.8761 11.7481 11.8944 12.051 11.9154C12.5991 11.9534 13.2724 12 14 12C14.7277 12 15.4009 11.9534 15.949 11.9154C16.2405 11.8952 16.4966 11.8774 16.7067 11.8705C16.5092 11.9214 16.3142 11.9646 16.1237 12.0001L17.3333 12L19.3333 12.0001C19.1752 12.4748 18.9623 12.9221 18.7028 13.3334H9.29713C9.03761 12.9221 8.82472 12.4748 8.66664 12.0001L10.6666 12ZM14 16C15.3467 16 16.5835 15.5005 17.5547 14.6667H10.4452C11.4164 15.5005 12.6532 16 14 16Z" fill="white"/>
<path fill-rule="evenodd" clip-rule="evenodd" d="M14 4C14.3683 4 14.6667 3.70154 14.6667 3.33337C14.6667 2.96515 14.3683 2.66669 14 2.66669C13.6318 2.66669 13.3334 2.96515 13.3334 3.33337C13.3334 3.70154 13.6318 4 14 4ZM8.66663 7.33331C9.03491 7.33331 9.33337 7.03485 9.33337 6.66669C9.33337 6.29846 9.03491 6 8.66663 6C8.29846 6 8 6.29846 8 6.66669C8 7.03485 8.29846 7.33331 8.66663 7.33331ZM20 6.66669C20 7.03485 19.7015 7.33331 19.3333 7.33331C18.9651 7.33331 18.6666 7.03485 18.6666 6.66669C18.6666 6.29846 18.9651 6 19.3333 6C19.7015 6 20 6.29846 20 6.66669ZM17.3333 5.33331C17.7015 5.33331 18 5.03485 18 4.66669C18 4.29846 17.7015 4 17.3333 4C16.9651 4 16.6666 4.29846 16.6666 4.66669C16.6666 5.03485 16.9651 5.33331 17.3333 5.33331ZM11.3334 4.66669C11.3334 5.03485 11.0349 5.33331 10.6666 5.33331C10.2985 5.33331 10 5.03485 10 4.66669C10 4.29846 10.2985 4 10.6666 4C11.0349 4 11.3334 4.29846 11.3334 4.66669Z" fill="#FCD117"/>
</g>
</svg>
