<svg width="28" height="20" viewBox="0 0 28 20" fill="none" xmlns="http://www.w3.org/2000/svg">
<rect width="28" height="20" fill="black" fill-opacity="0"/>
<path fill-rule="evenodd" clip-rule="evenodd" d="M0 2C0 0.895431 0.895431 0 2 0H26C27.1046 0 28 0.895431 28 2V18C28 19.1046 27.1046 20 26 20H2C0.895431 20 0 19.1046 0 18V2Z" fill="white"/>
<mask id="mask0" mask-type="alpha" maskUnits="userSpaceOnUse" x="0" y="0" width="28" height="20">
<path fill-rule="evenodd" clip-rule="evenodd" d="M0 2C0 0.895431 0.895431 0 2 0H26C27.1046 0 28 0.895431 28 2V18C28 19.1046 27.1046 20 26 20H2C0.895431 20 0 19.1046 0 18V2Z" fill="white"/>
</mask>
<g mask="url(#mask0)">
<path fill-rule="evenodd" clip-rule="evenodd" d="M0 0H28V20H0V0Z" fill="#108B4D"/>
<path fill-rule="evenodd" clip-rule="evenodd" d="M19.8137 7.73334C19.8622 8.04077 19.8875 8.35597 19.8875 8.67706C19.8875 11.9908 17.2012 14.6771 13.8875 14.6771C10.5737 14.6771 7.88745 11.9908 7.88745 8.67706C7.88745 8.35597 7.91267 8.04077 7.96124 7.73334C8.41393 10.5987 10.8948 12.7896 13.8875 12.7896C16.8801 12.7896 19.361 10.5987 19.8137 7.73334ZM14 8.56411L12.3519 9.73899L12.96 7.8085L11.3333 6.60413L13.3572 6.58591L14 4.66669L14.6427 6.58591L16.6666 6.60413L15.04 7.8085L15.6481 9.73899L14 8.56411Z" fill="#FFC941"/>
</g>
</svg>
