<svg width="28" height="20" viewBox="0 0 28 20" fill="none" xmlns="http://www.w3.org/2000/svg">
<rect width="28" height="20" fill="black" fill-opacity="0"/>
<path d="M0.25 2C0.25 1.0335 1.0335 0.25 2 0.25H26C26.9665 0.25 27.75 1.0335 27.75 2V18C27.75 18.9665 26.9665 19.75 26 19.75H2C1.0335 19.75 0.25 18.9665 0.25 18V2Z" fill="white" stroke="#F5F5F5" stroke-width="0.5"/>
<mask id="mask0" mask-type="alpha" maskUnits="userSpaceOnUse" x="0" y="0" width="28" height="20">
<path d="M0.25 2C0.25 1.0335 1.0335 0.25 2 0.25H26C26.9665 0.25 27.75 1.0335 27.75 2V18C27.75 18.9665 26.9665 19.75 26 19.75H2C1.0335 19.75 0.25 18.9665 0.25 18V2Z" fill="white" stroke="white" stroke-width="0.5"/>
</mask>
<g mask="url(#mask0)">
<path fill-rule="evenodd" clip-rule="evenodd" d="M14.6667 20H28V0H14.6667V20Z" fill="#DE233C"/>
<mask id="path-4-outside-1" maskUnits="userSpaceOnUse" x="1.66669" y="1.66669" width="6" height="6" fill="black">
<rect fill="white" x="1.66669" y="1.66669" width="6" height="6"/>
<path fill-rule="evenodd" clip-rule="evenodd" d="M5.33331 2.66669H4V4H2.66669V5.33331H4V6.66669H5.33331V5.33331H6.66669V4H5.33331V2.66669Z"/>
</mask>
<path fill-rule="evenodd" clip-rule="evenodd" d="M5.33331 2.66669H4V4H2.66669V5.33331H4V6.66669H5.33331V5.33331H6.66669V4H5.33331V2.66669Z" fill="#CCCCCD"/>
<path d="M4 2.66669V2.00002H3.33333V2.66669H4ZM5.33331 2.66669H5.99998V2.00002H5.33331V2.66669ZM4 4V4.66667H4.66667V4H4ZM2.66669 4V3.33333H2.00002V4H2.66669ZM2.66669 5.33331H2.00002V5.99998H2.66669V5.33331ZM4 5.33331H4.66667V4.66665H4V5.33331ZM4 6.66669H3.33333V7.33335H4V6.66669ZM5.33331 6.66669V7.33335H5.99998V6.66669H5.33331ZM5.33331 5.33331V4.66665H4.66665V5.33331H5.33331ZM6.66669 5.33331V5.99998H7.33335V5.33331H6.66669ZM6.66669 4H7.33335V3.33333H6.66669V4ZM5.33331 4H4.66665V4.66667H5.33331V4ZM4 3.33335H5.33331V2.00002H4V3.33335ZM4.66667 4V2.66669H3.33333V4H4.66667ZM2.66669 4.66667H4V3.33333H2.66669V4.66667ZM3.33335 5.33331V4H2.00002V5.33331H3.33335ZM4 4.66665H2.66669V5.99998H4V4.66665ZM4.66667 6.66669V5.33331H3.33333V6.66669H4.66667ZM5.33331 6.00002H4V7.33335H5.33331V6.00002ZM4.66665 5.33331V6.66669H5.99998V5.33331H4.66665ZM6.66669 4.66665H5.33331V5.99998H6.66669V4.66665ZM6.00002 4V5.33331H7.33335V4H6.00002ZM5.33331 4.66667H6.66669V3.33333H5.33331V4.66667ZM4.66665 2.66669V4H5.99998V2.66669H4.66665Z" fill="#7B716A" fill-opacity="0.66" mask="url(#path-4-outside-1)"/>
<path fill-rule="evenodd" clip-rule="evenodd" d="M4.66667 5.33333C5.03486 5.33333 5.33333 5.03486 5.33333 4.66667C5.33333 4.29848 5.03486 4 4.66667 4C4.29848 4 4 4.29848 4 4.66667C4 5.03486 4.29848 5.33333 4.66667 5.33333Z" fill="#7B716A"/>
</g>
</svg>
