<svg width="28" height="20" viewBox="0 0 28 20" fill="none" xmlns="http://www.w3.org/2000/svg">
<rect width="28" height="20" fill="black" fill-opacity="0"/>
<path fill-rule="evenodd" clip-rule="evenodd" d="M0 2C0 0.895431 0.895431 0 2 0H26C27.1046 0 28 0.895431 28 2V18C28 19.1046 27.1046 20 26 20H2C0.895431 20 0 19.1046 0 18V2Z" fill="white"/>
<mask id="mask0" mask-type="alpha" maskUnits="userSpaceOnUse" x="0" y="0" width="28" height="20">
<path fill-rule="evenodd" clip-rule="evenodd" d="M0 2C0 0.895431 0.895431 0 2 0H26C27.1046 0 28 0.895431 28 2V18C28 19.1046 27.1046 20 26 20H2C0.895431 20 0 19.1046 0 18V2Z" fill="white"/>
</mask>
<g mask="url(#mask0)">
<path fill-rule="evenodd" clip-rule="evenodd" d="M28 0H13.3333V1.33331H28V0ZM28 2.66669H13.3333V4H28V2.66669ZM13.3333 5.33331H28V6.66663H13.3333V5.33331ZM28 8H13.3333V9.33331H28V8ZM0 10.6667H28V12H0V10.6667ZM28 13.3333H0V14.6666H28V13.3333ZM0 16H28V17.3333H0V16ZM28 18.6667H0V20H28V18.6667Z" fill="#E1244A"/>
<path fill-rule="evenodd" clip-rule="evenodd" d="M0 0H16V10.6667H0V0Z" fill="#0C3F8E"/>
<path fill-rule="evenodd" clip-rule="evenodd" d="M6.66666 9.33331C7.61172 9.33331 8.48026 9.00555 9.16476 8.45752C8.80219 8.59277 8.40973 8.66669 8 8.66669C6.15903 8.66669 4.66666 7.17426 4.66666 5.33331C4.66666 3.49237 6.15903 2 8 2C8.40976 2 8.80228 2.07397 9.16489 2.20923C8.48035 1.66113 7.61179 1.33331 6.66666 1.33331C4.45752 1.33331 2.66666 3.12415 2.66666 5.33331C2.66666 7.54248 4.45752 9.33331 6.66666 9.33331ZM9.50964 7.7359L10.6667 6.42664L11.8237 7.7359L11.5215 6.01495L13.2665 5.9267L11.7326 5.09003L12.7516 3.67065L11.1411 4.34821L10.6667 2.66663L10.1923 4.34821L8.58179 3.67065L9.60074 5.09003L8.06686 5.9267L9.81186 6.01495L9.50964 7.7359Z" fill="#FFD34F"/>
</g>
</svg>
