<svg width="28" height="20" viewBox="0 0 28 20" fill="none" xmlns="http://www.w3.org/2000/svg">
<rect width="28" height="20" fill="black" fill-opacity="0"/>
<path d="M0.25 2C0.25 1.0335 1.0335 0.25 2 0.25H26C26.9665 0.25 27.75 1.0335 27.75 2V18C27.75 18.9665 26.9665 19.75 26 19.75H2C1.0335 19.75 0.25 18.9665 0.25 18V2Z" fill="white" stroke="#F5F5F5" stroke-width="0.5"/>
<mask id="mask0" mask-type="alpha" maskUnits="userSpaceOnUse" x="0" y="0" width="28" height="20">
<path d="M0.25 2C0.25 1.0335 1.0335 0.25 2 0.25H26C26.9665 0.25 27.75 1.0335 27.75 2V18C27.75 18.9665 26.9665 19.75 26 19.75H2C1.0335 19.75 0.25 18.9665 0.25 18V2Z" fill="white" stroke="white" stroke-width="0.5"/>
</mask>
<g mask="url(#mask0)">
<path fill-rule="evenodd" clip-rule="evenodd" d="M8 0H0V8H8V0ZM12 0V8H28V0H12ZM28 12H12V20H28V12ZM8 20V12H0V20H8Z" fill="#F14247"/>
<path fill-rule="evenodd" clip-rule="evenodd" d="M0 10.6667H9.33333V20H10.6667V10.6667H28V9.33333H10.6667V0H9.33333V9.33333H0V10.6667Z" fill="#0A3A85"/>
</g>
</svg>
