<svg width="28" height="20" viewBox="0 0 28 20" fill="none" xmlns="http://www.w3.org/2000/svg">
<rect width="28" height="20" fill="black" fill-opacity="0"/>
<path d="M0.25 2C0.25 1.0335 1.0335 0.25 2 0.25H26C26.9665 0.25 27.75 1.0335 27.75 2V18C27.75 18.9665 26.9665 19.75 26 19.75H2C1.0335 19.75 0.25 18.9665 0.25 18V2Z" fill="white" stroke="#F5F5F5" stroke-width="0.5"/>
<path fill-rule="evenodd" clip-rule="evenodd" d="M0 2C0 0.895431 0.895431 -1.06478e-09 2 0L2.46482 4.56679e-10C2.59643 5.84277e-10 2.7251 0.0389587 2.83462 0.111966L15.0026 8.22393C16.1002 8.9557 15.5822 10.6667 14.263 10.6667H8L15.9961 17.6632C16.9226 18.474 16.3492 20 15.1181 20H2C0.89543 20 0 19.1046 0 18V2Z" fill="white"/>
<mask id="mask0" mask-type="alpha" maskUnits="userSpaceOnUse" x="0" y="0" width="17" height="20">
<path fill-rule="evenodd" clip-rule="evenodd" d="M0 2C0 0.895431 0.895431 -1.06478e-09 2 0L2.46482 4.56679e-10C2.59643 5.84277e-10 2.7251 0.0389587 2.83462 0.111966L15.0026 8.22393C16.1002 8.9557 15.5822 10.6667 14.263 10.6667H8L15.9961 17.6632C16.9226 18.474 16.3492 20 15.1181 20H2C0.89543 20 0 19.1046 0 18V2Z" fill="white"/>
</mask>
<g mask="url(#mask0)">
<path d="M15.1181 19.3333H0.666667V0.666667L2.46482 0.666667L14.6328 8.77863C15.1816 9.14452 14.9226 10 14.263 10H8C7.72226 10 7.47362 10.1722 7.37593 10.4322C7.27824 10.6922 7.35198 10.9855 7.561 11.1684L15.5571 18.1649C16.0203 18.5703 15.7336 19.3333 15.1181 19.3333Z" fill="#EE1B44" stroke="#0543A8" stroke-width="1.33333" stroke-linejoin="round"/>
<path fill-rule="evenodd" clip-rule="evenodd" d="M6.85104 7.80078C7.23517 7.6955 7.58932 7.55157 7.90253 7.37616C7.59189 8.50452 6.55835 9.33331 5.33124 9.33331C4.10416 9.33331 3.07065 8.50452 2.76001 7.37616C3.0741 7.55206 3.42929 7.69629 3.81464 7.80164L4.33331 7.33337L3.48557 6.56799L4.62622 6.62628L4.56793 5.4856L5.33331 6.33337L6.09869 5.4856L6.04041 6.62628L7.18106 6.56799L6.33331 7.33337L6.85104 7.80078ZM4.31284 17.1304L5.33331 16L6.35382 17.1304L6.27612 15.6095L7.797 15.6871L6.66666 14.6667L7.797 13.6462L6.27612 13.7239L6.35382 12.203L5.33331 13.3333L4.31284 12.203L4.3905 13.7239L2.86966 13.6462L4 14.6667L2.86966 15.6871L4.3905 15.6095L4.31284 17.1304Z" fill="white"/>
</g>
</svg>
