<svg width="28" height="20" viewBox="0 0 28 20" fill="none" xmlns="http://www.w3.org/2000/svg">
<rect width="28" height="20" fill="black" fill-opacity="0"/>
<path d="M0.25 2C0.25 1.0335 1.0335 0.25 2 0.25H26C26.9665 0.25 27.75 1.0335 27.75 2V18C27.75 18.9665 26.9665 19.75 26 19.75H2C1.0335 19.75 0.25 18.9665 0.25 18V2Z" fill="white" stroke="#F5F5F5" stroke-width="0.5"/>
<mask id="mask0" mask-type="alpha" maskUnits="userSpaceOnUse" x="0" y="0" width="28" height="20">
<path d="M0.25 2C0.25 1.0335 1.0335 0.25 2 0.25H26C26.9665 0.25 27.75 1.0335 27.75 2V18C27.75 18.9665 26.9665 19.75 26 19.75H2C1.0335 19.75 0.25 18.9665 0.25 18V2Z" fill="white" stroke="white" stroke-width="0.5"/>
</mask>
<g mask="url(#mask0)">
<path fill-rule="evenodd" clip-rule="evenodd" d="M0 20H28V9.33331H12.4444L13.3333 10L0 20Z" fill="#DD1C34"/>
<path fill-rule="evenodd" clip-rule="evenodd" d="M28 9.33331H12.4444L0 0H28V9.33331Z" fill="#0D4BC3"/>
<path fill-rule="evenodd" clip-rule="evenodd" d="M2 4C2.36819 4 2.66669 3.70154 2.66669 3.33337C2.66669 2.96515 2.36819 2.66669 2 2.66669C1.63181 2.66669 1.33334 2.96515 1.33334 3.33337C1.33334 3.70154 1.63181 4 2 4ZM10 10.6667C10.3682 10.6667 10.6667 10.3682 10.6667 10.0001C10.6667 9.63184 10.3682 9.33337 10 9.33337C9.63181 9.33337 9.33334 9.63184 9.33334 10.0001C9.33334 10.3682 9.63181 10.6667 10 10.6667ZM2.66669 16.6667C2.66669 17.0349 2.36819 17.3333 2 17.3333C1.63181 17.3333 1.33334 17.0349 1.33334 16.6667C1.33334 16.2985 1.63181 16 2 16C2.36819 16 2.66669 16.2985 2.66669 16.6667ZM4.53207 11.3267L3.39105 13.0796L3.82379 11.0332C3.75415 10.9763 3.6904 10.9125 3.63351 10.8429L1.58707 11.2756L3.34006 10.1346C3.33563 10.0903 3.33334 10.0454 3.33334 10C3.33334 9.95459 3.33563 9.90967 3.34006 9.86542L1.58707 8.72443L3.63348 9.15717C3.69037 9.08752 3.75415 9.02374 3.82379 8.96686L3.39105 6.92041L4.53207 8.6734C4.57632 8.66895 4.62125 8.66669 4.66669 8.66669C4.71213 8.66669 4.75705 8.66895 4.8013 8.6734L5.94229 6.92041L5.50955 8.96686C5.57919 9.02374 5.64297 9.08752 5.69986 9.15717L7.74628 8.72443L5.99329 9.86542C5.99771 9.90967 6 9.95459 6 10C6 10.0454 5.99771 10.0903 5.99329 10.1346L7.74628 11.2756L5.69983 10.8429C5.64294 10.9125 5.57919 10.9763 5.50955 11.0332L5.94229 13.0796L4.8013 11.3267C4.75705 11.3311 4.71213 11.3334 4.66669 11.3334C4.62125 11.3334 4.57635 11.3311 4.53207 11.3267Z" fill="#FDD64D"/>
</g>
</svg>
