<svg width="28" height="20" viewBox="0 0 28 20" fill="none" xmlns="http://www.w3.org/2000/svg">
<rect width="28" height="20" fill="black" fill-opacity="0"/>
<path fill-rule="evenodd" clip-rule="evenodd" d="M0 2C0 0.895431 0.895431 0 2 0H26C27.1046 0 28 0.895431 28 2V18C28 19.1046 27.1046 20 26 20H2C0.895431 20 0 19.1046 0 18V2Z" fill="white"/>
<mask id="mask0" mask-type="alpha" maskUnits="userSpaceOnUse" x="0" y="0" width="28" height="20">
<path fill-rule="evenodd" clip-rule="evenodd" d="M0 2C0 0.895431 0.895431 0 2 0H26C27.1046 0 28 0.895431 28 2V18C28 19.1046 27.1046 20 26 20H2C0.895431 20 0 19.1046 0 18V2Z" fill="white"/>
</mask>
<g mask="url(#mask0)">
<path fill-rule="evenodd" clip-rule="evenodd" d="M0 0H28V20H0V0Z" fill="url(#paint0_linear)"/>
<g filter="url(#filter0_d)">
<path fill-rule="evenodd" clip-rule="evenodd" d="M0 0H28L0 20V0Z" fill="url(#paint1_linear)"/>
</g>
<path fill-rule="evenodd" clip-rule="evenodd" d="M28 0L0 20H28V0Z" fill="#2C7442"/>
<path fill-rule="evenodd" clip-rule="evenodd" d="M-2.77362 19.7057L29.2825 -1.91644L30.7737 0.294329L-1.28244 21.9165L-2.77362 19.7057Z" fill="#FFD646"/>
<path fill-rule="evenodd" clip-rule="evenodd" d="M3.00006 3.83337L2.02039 4.34839L2.20752 3.25757L1.41492 2.48499L2.51019 2.32581L3.00006 1.33337L3.48987 2.32581L4.58514 2.48499L3.7926 3.25757L3.97968 4.34839L3.00006 3.83337ZM9.66669 3.83337L8.68701 4.34839L8.87415 3.25757L8.08154 2.48499L9.17682 2.32581L9.66669 1.33337L10.1565 2.32581L11.2518 2.48499L10.4592 3.25757L10.6463 4.34839L9.66669 3.83337ZM8.68701 8.34839L9.66669 7.83337L10.6463 8.34839L10.4592 7.25757L11.2518 6.48499L10.1565 6.32581L9.66669 5.33337L9.17682 6.32581L8.08154 6.48499L8.87415 7.25757L8.68701 8.34839ZM3.00006 7.83337L2.02039 8.34839L2.20752 7.25757L1.41492 6.48499L2.51019 6.32581L3.00006 5.33337L3.48987 6.32581L4.58514 6.48499L3.7926 7.25757L3.97968 8.34839L3.00006 7.83337ZM5.54083 5.25757L5.3537 6.34839L6.33337 5.83337L7.31299 6.34839L7.12592 5.25757L7.91846 4.48499L6.82318 4.32581L6.33337 3.33337L5.84351 4.32581L4.74823 4.48499L5.54083 5.25757Z" fill="white"/>
</g>
<defs>
<filter id="filter0_d" x="0" y="0" width="28" height="20" filterUnits="userSpaceOnUse" color-interpolation-filters="sRGB">
<feFlood flood-opacity="0" result="BackgroundImageFix"/>
<feColorMatrix in="SourceAlpha" type="matrix" values="0 0 0 0 0 0 0 0 0 0 0 0 0 0 0 0 0 0 255 0"/>
<feOffset/>
<feColorMatrix type="matrix" values="0 0 0 0 0 0 0 0 0 0 0 0 0 0 0 0 0 0 0.06 0"/>
<feBlend mode="normal" in2="BackgroundImageFix" result="effect1_dropShadow"/>
<feBlend mode="normal" in="SourceGraphic" in2="effect1_dropShadow" result="shape"/>
</filter>
<linearGradient id="paint0_linear" x1="0" y1="0" x2="0" y2="20" gradientUnits="userSpaceOnUse">
<stop stop-color="#1DBE4F"/>
<stop offset="1" stop-color="#159B3F"/>
</linearGradient>
<linearGradient id="paint1_linear" x1="0" y1="0" x2="0" y2="20" gradientUnits="userSpaceOnUse">
<stop stop-color="#0660D4"/>
<stop offset="1" stop-color="#0051BB"/>
</linearGradient>
</defs>
</svg>
