<svg width="28" height="20" viewBox="0 0 28 20" fill="none" xmlns="http://www.w3.org/2000/svg">
<rect width="28" height="20" fill="black" fill-opacity="0"/>
<path d="M0.25 2C0.25 1.0335 1.0335 0.25 2 0.25H26C26.9665 0.25 27.75 1.0335 27.75 2V18C27.75 18.9665 26.9665 19.75 26 19.75H2C1.0335 19.75 0.25 18.9665 0.25 18V2Z" fill="white" stroke="#F5F5F5" stroke-width="0.5"/>
<mask id="mask0" mask-type="alpha" maskUnits="userSpaceOnUse" x="0" y="0" width="28" height="20">
<path d="M0.25 2C0.25 1.0335 1.0335 0.25 2 0.25H26C26.9665 0.25 27.75 1.0335 27.75 2V18C27.75 18.9665 26.9665 19.75 26 19.75H2C1.0335 19.75 0.25 18.9665 0.25 18V2Z" fill="white" stroke="white" stroke-width="0.5"/>
</mask>
<g mask="url(#mask0)">
<path fill-rule="evenodd" clip-rule="evenodd" d="M0 10.6667H28V0H0V10.6667Z" fill="#E12237"/>
<path fill-rule="evenodd" clip-rule="evenodd" d="M6.66666 9.33337C7.61182 9.33337 8.48044 9.00549 9.16498 8.4574C8.80234 8.59265 8.40979 8.66663 8 8.66663C6.15903 8.66663 4.66666 7.17432 4.66666 5.33337C4.66666 3.49243 6.15903 2 8 2C8.4097 2 8.80215 2.07385 9.16473 2.20911C8.48022 1.66113 7.61172 1.33337 6.66666 1.33337C4.45752 1.33337 2.66666 3.12427 2.66666 5.33337C2.66666 7.54248 4.45752 9.33337 6.66666 9.33337ZM8 4.66663C8 5.03491 7.70151 5.33337 7.33331 5.33337C6.96512 5.33337 6.66666 5.03491 6.66666 4.66663C6.66666 4.29846 6.96512 4 7.33331 4C7.70151 4 8 4.29846 8 4.66663ZM8.66666 8.00012C9.03485 8.00012 9.33334 7.70166 9.33334 7.33337C9.33334 6.96521 9.03485 6.66675 8.66666 6.66675C8.29846 6.66675 8 6.96521 8 7.33337C8 7.70166 8.29846 8.00012 8.66666 8.00012ZM12 7.33337C12 7.70166 11.7015 8.00012 11.3333 8.00012C10.9651 8.00012 10.6667 7.70166 10.6667 7.33337C10.6667 6.96521 10.9651 6.66675 11.3333 6.66675C11.7015 6.66675 12 6.96521 12 7.33337ZM12.6667 5.33337C13.0349 5.33337 13.3333 5.03491 13.3333 4.66663C13.3333 4.29846 13.0349 4 12.6667 4C12.2985 4 12 4.29846 12 4.66663C12 5.03491 12.2985 5.33337 12.6667 5.33337ZM10.6667 2.66663C10.6667 3.03491 10.3682 3.33337 9.99997 3.33337C9.63177 3.33337 9.33331 3.03491 9.33331 2.66663C9.33331 2.29846 9.63177 2 9.99997 2C10.3682 2 10.6667 2.29846 10.6667 2.66663Z" fill="white"/>
</g>
</svg>
