<svg width="28" height="20" viewBox="0 0 28 20" fill="none" xmlns="http://www.w3.org/2000/svg">
<rect width="28" height="20" fill="black" fill-opacity="0"/>
<path fill-rule="evenodd" clip-rule="evenodd" d="M0 2C0 0.895431 0.895431 0 2 0H26C27.1046 0 28 0.895431 28 2V18C28 19.1046 27.1046 20 26 20H2C0.895431 20 0 19.1046 0 18V2Z" fill="white"/>
<mask id="mask0" mask-type="alpha" maskUnits="userSpaceOnUse" x="0" y="0" width="28" height="20">
<path fill-rule="evenodd" clip-rule="evenodd" d="M0 2C0 0.895431 0.895431 0 2 0H26C27.1046 0 28 0.895431 28 2V18C28 19.1046 27.1046 20 26 20H2C0.895431 20 0 19.1046 0 18V2Z" fill="white"/>
</mask>
<g mask="url(#mask0)">
<path fill-rule="evenodd" clip-rule="evenodd" d="M13.3333 0H28V20H13.3333V0Z" fill="#F13642"/>
<path fill-rule="evenodd" clip-rule="evenodd" d="M0 20H9.33333V0H0V20Z" fill="#17A052"/>
<path fill-rule="evenodd" clip-rule="evenodd" d="M9.33333 20H18.6667V0H9.33333V20Z" fill="#FFF166"/>
<path fill-rule="evenodd" clip-rule="evenodd" d="M14 11.3666L12.0407 12.6967L12.7002 10.4223L10.8298 8.9699L13.1967 8.8943L14 6.66663L14.8033 8.8943L17.1702 8.9699L15.2998 10.4223L15.9593 12.6967L14 11.3666Z" fill="#17A052"/>
</g>
</svg>
