<svg width="28" height="20" viewBox="0 0 28 20" fill="none" xmlns="http://www.w3.org/2000/svg">
<rect width="28" height="20" fill="black" fill-opacity="0"/>
<path d="M0.25 2C0.25 1.0335 1.0335 0.25 2 0.25H26C26.9665 0.25 27.75 1.0335 27.75 2V18C27.75 18.9665 26.9665 19.75 26 19.75H2C1.0335 19.75 0.25 18.9665 0.25 18V2Z" fill="white" stroke="#F5F5F5" stroke-width="0.5"/>
<mask id="mask0" mask-type="alpha" maskUnits="userSpaceOnUse" x="0" y="0" width="28" height="20">
<path d="M0.25 2C0.25 1.0335 1.0335 0.25 2 0.25H26C26.9665 0.25 27.75 1.0335 27.75 2V18C27.75 18.9665 26.9665 19.75 26 19.75H2C1.0335 19.75 0.25 18.9665 0.25 18V2Z" fill="white" stroke="white" stroke-width="0.5"/>
</mask>
<g mask="url(#mask0)">
<path fill-rule="evenodd" clip-rule="evenodd" d="M0 6.66667H28V0H0V6.66667Z" fill="#D9101C"/>
<path fill-rule="evenodd" clip-rule="evenodd" d="M0 20H28V13.3334H0V20Z" fill="#0F7811"/>
<path fill-rule="evenodd" clip-rule="evenodd" d="M13.3333 8.66663C13.3333 9.03491 13.0349 9.33337 12.6667 9.33337C12.2985 9.33337 12 9.03491 12 8.66663C12 8.29846 12.2985 8 12.6667 8C13.0349 8 13.3333 8.29846 13.3333 8.66663ZM14.6667 10C14.6667 10.1206 14.6347 10.3767 14.5787 10.6666H15.3333C15.7015 10.6666 16 10.9651 16 11.3333C16 11.7015 15.7015 12 15.3333 12H14H12.6667C12.2985 12 12 11.7015 12 11.3333C12 10.9651 12.2985 10.6666 12.6667 10.6666H13.4213C13.3654 10.3767 13.3333 10.1206 13.3333 10C13.3333 9.63184 13.6318 9.33337 14 9.33337C14.3682 9.33337 14.6667 9.63184 14.6667 10ZM16 8.66663C16 9.03491 15.7015 9.33337 15.3333 9.33337C14.9651 9.33337 14.6667 9.03491 14.6667 8.66663C14.6667 8.29846 14.9651 8 15.3333 8C15.7015 8 16 8.29846 16 8.66663ZM18 10.6667C18.3682 10.6667 18.6667 10.3683 18.6667 10C18.6667 9.63184 18.3682 9.33337 18 9.33337C17.6318 9.33337 17.3333 9.63184 17.3333 10C17.3333 10.3683 17.6318 10.6667 18 10.6667ZM10.6667 10C10.6667 10.3683 10.3682 10.6667 10 10.6667C9.63181 10.6667 9.33334 10.3683 9.33334 10C9.33334 9.63184 9.63181 9.33337 10 9.33337C10.3682 9.33337 10.6667 9.63184 10.6667 10Z" fill="#FAD14E"/>
</g>
</svg>
