<svg width="28" height="20" viewBox="0 0 28 20" fill="none" xmlns="http://www.w3.org/2000/svg">
<rect width="28" height="20" fill="black" fill-opacity="0"/>
<path fill-rule="evenodd" clip-rule="evenodd" d="M0 2C0 0.895431 0.895431 0 2 0H26C27.1046 0 28 0.895431 28 2V18C28 19.1046 27.1046 20 26 20H2C0.895431 20 0 19.1046 0 18V2Z" fill="white"/>
<mask id="mask0" mask-type="alpha" maskUnits="userSpaceOnUse" x="0" y="0" width="28" height="20">
<path fill-rule="evenodd" clip-rule="evenodd" d="M0 2C0 0.895431 0.895431 0 2 0H26C27.1046 0 28 0.895431 28 2V18C28 19.1046 27.1046 20 26 20H2C0.895431 20 0 19.1046 0 18V2Z" fill="white"/>
</mask>
<g mask="url(#mask0)">
<path fill-rule="evenodd" clip-rule="evenodd" d="M0 0H28V20H0V0Z" fill="#FF323E"/>
<path fill-rule="evenodd" clip-rule="evenodd" d="M0 0L17.3333 10L0 20V0Z" fill="#FFCC51"/>
<path fill-rule="evenodd" clip-rule="evenodd" d="M0 0L12 10L0 20V0Z" fill="#262626"/>
<path fill-rule="evenodd" clip-rule="evenodd" d="M5.94391 10.8244L5.05963 12.7634L4.5978 10.6829L2.48049 10.4411L4.31639 9.35898L3.8921 7.27056L5.48857 8.68221L7.34366 7.63333L6.49444 9.5879L8.06524 11.0281L5.94391 10.8244Z" fill="white"/>
</g>
</svg>
