<svg width="28" height="20" viewBox="0 0 28 20" fill="none" xmlns="http://www.w3.org/2000/svg">
<rect width="28" height="20" fill="black" fill-opacity="0"/>
<path fill-rule="evenodd" clip-rule="evenodd" d="M0 2C0 0.895431 0.895431 0 2 0H26C27.1046 0 28 0.895431 28 2V18C28 19.1046 27.1046 20 26 20H2C0.895431 20 0 19.1046 0 18V2Z" fill="white"/>
<mask id="mask0" mask-type="alpha" maskUnits="userSpaceOnUse" x="0" y="0" width="28" height="20">
<path fill-rule="evenodd" clip-rule="evenodd" d="M0 2C0 0.895431 0.895431 0 2 0H26C27.1046 0 28 0.895431 28 2V18C28 19.1046 27.1046 20 26 20H2C0.895431 20 0 19.1046 0 18V2Z" fill="white"/>
</mask>
<g mask="url(#mask0)">
<path fill-rule="evenodd" clip-rule="evenodd" d="M0 0H28V20H0V0Z" fill="#E92434"/>
<path fill-rule="evenodd" clip-rule="evenodd" d="M19.0208 10.7683L17.796 12.2533L17.8795 10.3302L16.0887 9.6242L17.9434 9.10927L18.0615 7.18796L19.1244 8.79283L20.9881 8.31139L19.7902 9.81819L20.8241 11.4419L19.0208 10.7683Z" fill="white"/>
<path fill-rule="evenodd" clip-rule="evenodd" d="M17.4026 13.6843C16.3047 15.0936 14.5916 16 12.6667 16C9.35297 16 6.66669 13.3137 6.66669 10C6.66669 6.68628 9.35297 4 12.6667 4C14.5917 4 16.305 4.90662 17.4029 6.31604C16.5557 5.7002 15.4904 5.33337 14.3334 5.33337C11.572 5.33337 9.33337 7.42273 9.33337 10C9.33337 12.5774 11.572 14.6667 14.3334 14.6667C15.4903 14.6667 16.5554 14.3 17.4026 13.6843Z" fill="white"/>
</g>
</svg>
