<svg width="28" height="20" viewBox="0 0 28 20" fill="none" xmlns="http://www.w3.org/2000/svg">
<rect width="28" height="20" fill="black" fill-opacity="0"/>
<path fill-rule="evenodd" clip-rule="evenodd" d="M0 2C0 0.895431 0.895431 0 2 0H26C27.1046 0 28 0.895431 28 2V18C28 19.1046 27.1046 20 26 20H2C0.895431 20 0 19.1046 0 18V2Z" fill="white"/>
<mask id="mask0" mask-type="alpha" maskUnits="userSpaceOnUse" x="0" y="0" width="28" height="20">
<path fill-rule="evenodd" clip-rule="evenodd" d="M0 2C0 0.895431 0.895431 0 2 0H26C27.1046 0 28 0.895431 28 2V18C28 19.1046 27.1046 20 26 20H2C0.895431 20 0 19.1046 0 18V2Z" fill="white"/>
</mask>
<g mask="url(#mask0)">
<path fill-rule="evenodd" clip-rule="evenodd" d="M28 0H0V1.33337H28V0ZM28 2.66663H0V4H28V2.66663ZM0 5.33337H28V6.66675H0V5.33337ZM28 8H0V9.33337H28V8ZM0 10.6666H28V12H0V10.6666ZM28 13.3334H0V14.6667H28V13.3334ZM0 16H28V17.3334H0V16ZM28 18.6666H0V20H28V18.6666Z" fill="#D02F44"/>
<path fill-rule="evenodd" clip-rule="evenodd" d="M0 0H12V9.33333H0V0Z" fill="#46467F"/>
<g filter="url(#filter0_d)">
<path fill-rule="evenodd" clip-rule="evenodd" d="M2.66669 2C2.66669 2.36829 2.36819 2.66675 2 2.66675C1.63181 2.66675 1.33334 2.36829 1.33334 2C1.33334 1.63184 1.63181 1.33337 2 1.33337C2.36819 1.33337 2.66669 1.63184 2.66669 2ZM5.33334 2C5.33334 2.36829 5.03485 2.66675 4.66666 2.66675C4.29846 2.66675 4 2.36829 4 2C4 1.63184 4.29846 1.33337 4.66666 1.33337C5.03485 1.33337 5.33334 1.63184 5.33334 2ZM7.33334 2.66675C7.70154 2.66675 8.00003 2.36829 8.00003 2C8.00003 1.63184 7.70154 1.33337 7.33334 1.33337C6.96515 1.33337 6.66669 1.63184 6.66669 2C6.66669 2.36829 6.96515 2.66675 7.33334 2.66675ZM10.6667 2C10.6667 2.36829 10.3682 2.66675 10 2.66675C9.63181 2.66675 9.33334 2.36829 9.33334 2C9.33334 1.63184 9.63181 1.33337 10 1.33337C10.3682 1.33337 10.6667 1.63184 10.6667 2ZM3.33334 4.00012C3.70154 4.00012 4.00003 3.70166 4.00003 3.33337C4.00003 2.96521 3.70154 2.66675 3.33334 2.66675C2.96515 2.66675 2.66669 2.96521 2.66669 3.33337C2.66669 3.70166 2.96515 4.00012 3.33334 4.00012ZM6.66669 3.33337C6.66669 3.70166 6.36819 4.00012 6 4.00012C5.63181 4.00012 5.33334 3.70166 5.33334 3.33337C5.33334 2.96521 5.63181 2.66675 6 2.66675C6.36819 2.66675 6.66669 2.96521 6.66669 3.33337ZM8.66666 4.00012C9.03485 4.00012 9.33334 3.70166 9.33334 3.33337C9.33334 2.96521 9.03485 2.66675 8.66666 2.66675C8.29846 2.66675 8 2.96521 8 3.33337C8 3.70166 8.29846 4.00012 8.66666 4.00012ZM10.6667 4.66663C10.6667 5.03491 10.3682 5.33337 10 5.33337C9.63181 5.33337 9.33334 5.03491 9.33334 4.66663C9.33334 4.29846 9.63181 4 10 4C10.3682 4 10.6667 4.29846 10.6667 4.66663ZM7.33334 5.33337C7.70154 5.33337 8.00003 5.03491 8.00003 4.66663C8.00003 4.29846 7.70154 4 7.33334 4C6.96515 4 6.66669 4.29846 6.66669 4.66663C6.66669 5.03491 6.96515 5.33337 7.33334 5.33337ZM5.33334 4.66663C5.33334 5.03491 5.03485 5.33337 4.66666 5.33337C4.29846 5.33337 4 5.03491 4 4.66663C4 4.29846 4.29846 4 4.66666 4C5.03485 4 5.33334 4.29846 5.33334 4.66663ZM2 5.33337C2.36819 5.33337 2.66669 5.03491 2.66669 4.66663C2.66669 4.29846 2.36819 4 2 4C1.63181 4 1.33334 4.29846 1.33334 4.66663C1.33334 5.03491 1.63181 5.33337 2 5.33337ZM4.00003 6C4.00003 6.36829 3.70154 6.66675 3.33334 6.66675C2.96515 6.66675 2.66669 6.36829 2.66669 6C2.66669 5.63184 2.96515 5.33337 3.33334 5.33337C3.70154 5.33337 4.00003 5.63184 4.00003 6ZM6 6.66675C6.36819 6.66675 6.66669 6.36829 6.66669 6C6.66669 5.63184 6.36819 5.33337 6 5.33337C5.63181 5.33337 5.33334 5.63184 5.33334 6C5.33334 6.36829 5.63181 6.66675 6 6.66675ZM9.33334 6C9.33334 6.36829 9.03485 6.66675 8.66666 6.66675C8.29846 6.66675 8 6.36829 8 6C8 5.63184 8.29846 5.33337 8.66666 5.33337C9.03485 5.33337 9.33334 5.63184 9.33334 6ZM10 8.00012C10.3682 8.00012 10.6667 7.70166 10.6667 7.33337C10.6667 6.96521 10.3682 6.66675 10 6.66675C9.63181 6.66675 9.33334 6.96521 9.33334 7.33337C9.33334 7.70166 9.63181 8.00012 10 8.00012ZM8.00003 7.33337C8.00003 7.70166 7.70154 8.00012 7.33334 8.00012C6.96515 8.00012 6.66669 7.70166 6.66669 7.33337C6.66669 6.96521 6.96515 6.66675 7.33334 6.66675C7.70154 6.66675 8.00003 6.96521 8.00003 7.33337ZM4.66666 8.00012C5.03485 8.00012 5.33334 7.70166 5.33334 7.33337C5.33334 6.96521 5.03485 6.66675 4.66666 6.66675C4.29846 6.66675 4 6.96521 4 7.33337C4 7.70166 4.29846 8.00012 4.66666 8.00012ZM2.66669 7.33337C2.66669 7.70166 2.36819 8.00012 2 8.00012C1.63181 8.00012 1.33334 7.70166 1.33334 7.33337C1.33334 6.96521 1.63181 6.66675 2 6.66675C2.36819 6.66675 2.66669 6.96521 2.66669 7.33337Z" fill="url(#paint0_linear)"/>
</g>
</g>
<defs>
<filter id="filter0_d" x="1.33334" y="1.33337" width="9.33334" height="7.66675" filterUnits="userSpaceOnUse" color-interpolation-filters="sRGB">
<feFlood flood-opacity="0" result="BackgroundImageFix"/>
<feColorMatrix in="SourceAlpha" type="matrix" values="0 0 0 0 0 0 0 0 0 0 0 0 0 0 0 0 0 0 255 0"/>
<feOffset dy="1"/>
<feColorMatrix type="matrix" values="0 0 0 0 0 0 0 0 0 0 0 0 0 0 0 0 0 0 0.06 0"/>
<feBlend mode="normal" in2="BackgroundImageFix" result="effect1_dropShadow"/>
<feBlend mode="normal" in="SourceGraphic" in2="effect1_dropShadow" result="shape"/>
</filter>
<linearGradient id="paint0_linear" x1="1.33334" y1="1.33337" x2="1.33334" y2="8.00004" gradientUnits="userSpaceOnUse">
<stop stop-color="white"/>
<stop offset="1" stop-color="#F0F0F0"/>
</linearGradient>
</defs>
</svg>
