<svg width="28" height="20" viewBox="0 0 28 20" fill="none" xmlns="http://www.w3.org/2000/svg">
<rect width="28" height="20" fill="black" fill-opacity="0"/>
<path d="M0.25 2C0.25 1.0335 1.0335 0.25 2 0.25H26C26.9665 0.25 27.75 1.0335 27.75 2V18C27.75 18.9665 26.9665 19.75 26 19.75H2C1.0335 19.75 0.25 18.9665 0.25 18V2Z" fill="white" stroke="#F5F5F5" stroke-width="0.5"/>
<mask id="mask0" mask-type="alpha" maskUnits="userSpaceOnUse" x="0" y="0" width="28" height="20">
<path d="M0.25 2C0.25 1.0335 1.0335 0.25 2 0.25H26C26.9665 0.25 27.75 1.0335 27.75 2V18C27.75 18.9665 26.9665 19.75 26 19.75H2C1.0335 19.75 0.25 18.9665 0.25 18V2Z" fill="white" stroke="white" stroke-width="0.5"/>
</mask>
<g mask="url(#mask0)">
<path fill-rule="evenodd" clip-rule="evenodd" d="M28 2.66663H13.3333V5.33337H28V2.66663ZM13.3333 8V10.6666H28V8H13.3333ZM13.3333 13.3333L0 13.3334V16H28V13.3333H13.3333ZM0 20V18.6666H28V20H0Z" fill="#0E4DC5"/>
<path fill-rule="evenodd" clip-rule="evenodd" d="M6.66666 9.32129L5.77658 10.6499L5.55112 9.06665L4.1727 9.87756L4.65652 8.35327L3.06277 8.48584L4.16006 7.32239L2.66666 6.75024L4.16006 6.1781L3.06277 5.01465L4.65652 5.14722L4.1727 3.62292L5.55112 4.43384L5.77658 2.85059L6.66666 4.1792L7.55673 2.85059L7.7822 4.43384L9.16061 3.62292L8.67679 5.14722L10.2705 5.01465L9.17325 6.1781L10.6667 6.75024L9.17325 7.32239L10.2705 8.48584L8.67679 8.35327L9.16061 9.87756L7.7822 9.06665L7.55673 10.6499L6.66666 9.32129ZM6.66666 9.29578C8.07248 9.29578 9.21213 8.15613 9.21213 6.75024C9.21213 5.34448 8.07248 4.20483 6.66666 4.20483C5.26086 4.20483 4.12122 5.34448 4.12122 6.75024C4.12122 8.15613 5.26086 9.29578 6.66666 9.29578ZM8.66666 6.66675C8.66666 7.77136 7.77124 8.66675 6.66666 8.66675C5.56207 8.66675 4.66666 7.77136 4.66666 6.66675C4.66666 5.56213 5.56207 4.66675 6.66666 4.66675C7.77124 4.66675 8.66666 5.56213 8.66666 6.66675Z" fill="#FED443"/>
</g>
</svg>
