<svg width="28" height="20" viewBox="0 0 28 20" fill="none" xmlns="http://www.w3.org/2000/svg">
<rect width="28" height="20" fill="black" fill-opacity="0"/>
<path d="M0.25 2C0.25 1.0335 1.0335 0.25 2 0.25H26C26.9665 0.25 27.75 1.0335 27.75 2V18C27.75 18.9665 26.9665 19.75 26 19.75H2C1.0335 19.75 0.25 18.9665 0.25 18V2Z" fill="white" stroke="#F5F5F5" stroke-width="0.5"/>
<mask id="mask0" mask-type="alpha" maskUnits="userSpaceOnUse" x="0" y="0" width="28" height="20">
<path d="M0.25 2C0.25 1.0335 1.0335 0.25 2 0.25H26C26.9665 0.25 27.75 1.0335 27.75 2V18C27.75 18.9665 26.9665 19.75 26 19.75H2C1.0335 19.75 0.25 18.9665 0.25 18V2Z" fill="white" stroke="white" stroke-width="0.5"/>
</mask>
<g mask="url(#mask0)">
<path fill-rule="evenodd" clip-rule="evenodd" d="M0 6.66667H28V0H0V6.66667Z" fill="#04AAC8"/>
<path fill-rule="evenodd" clip-rule="evenodd" d="M0 20H28V13.3334H0V20Z" fill="#23C840"/>
<path fill-rule="evenodd" clip-rule="evenodd" d="M4.66666 5.33337C5.07788 5.33337 5.46014 5.20923 5.77798 4.99646C5.74118 4.9989 5.70407 5.00012 5.66666 5.00012C4.74619 5.00012 4 4.25391 4 3.33337C4 2.41296 4.74619 1.66675 5.66666 1.66675C5.70413 1.66675 5.7413 1.66797 5.77817 1.67041C5.4603 1.45752 5.07797 1.33337 4.66666 1.33337C3.56207 1.33337 2.66666 2.22876 2.66666 3.33337C2.66666 4.43799 3.56207 5.33337 4.66666 5.33337ZM8 4.66663C8 5.03491 7.70151 5.33337 7.33331 5.33337C6.96512 5.33337 6.66666 5.03491 6.66666 4.66663C6.66666 4.29846 6.96512 4 7.33331 4C7.70151 4 8 4.29846 8 4.66663ZM9.99997 2.66675C10.3682 2.66675 10.6667 2.36829 10.6667 2C10.6667 1.63184 10.3682 1.33337 9.99997 1.33337C9.63177 1.33337 9.33331 1.63184 9.33331 2C9.33331 2.36829 9.63177 2.66675 9.99997 2.66675ZM13.3333 2C13.3333 2.36829 13.0349 2.66675 12.6667 2.66675C12.2985 2.66675 12 2.36829 12 2C12 1.63184 12.2985 1.33337 12.6667 1.33337C13.0349 1.33337 13.3333 1.63184 13.3333 2ZM12.6667 5.33337C13.0349 5.33337 13.3333 5.03491 13.3333 4.66663C13.3333 4.29846 13.0349 4 12.6667 4C12.2985 4 12 4.29846 12 4.66663C12 5.03491 12.2985 5.33337 12.6667 5.33337ZM10.6667 4.66663C10.6667 5.03491 10.3682 5.33337 9.99997 5.33337C9.63177 5.33337 9.33331 5.03491 9.33331 4.66663C9.33331 4.29846 9.63177 4 9.99997 4C10.3682 4 10.6667 4.29846 10.6667 4.66663Z" fill="white"/>
</g>
</svg>
