<svg width="28" height="20" viewBox="0 0 28 20" fill="none" xmlns="http://www.w3.org/2000/svg">
<rect width="28" height="20" fill="black" fill-opacity="0"/>
<path fill-rule="evenodd" clip-rule="evenodd" d="M0 2C0 0.895431 0.895431 0 2 0H26C27.1046 0 28 0.895431 28 2V18C28 19.1046 27.1046 20 26 20H2C0.895431 20 0 19.1046 0 18V2Z" fill="white"/>
<mask id="mask0" mask-type="alpha" maskUnits="userSpaceOnUse" x="0" y="0" width="28" height="20">
<path fill-rule="evenodd" clip-rule="evenodd" d="M0 2C0 0.895431 0.895431 0 2 0H26C27.1046 0 28 0.895431 28 2V18C28 19.1046 27.1046 20 26 20H2C0.895431 20 0 19.1046 0 18V2Z" fill="white"/>
</mask>
<g mask="url(#mask0)">
<path fill-rule="evenodd" clip-rule="evenodd" d="M0 13.3333H28V6.66663H0V13.3333Z" fill="#063191"/>
<path fill-rule="evenodd" clip-rule="evenodd" d="M0 20H28V13.3334H0V20Z" fill="#E2213B"/>
<path fill-rule="evenodd" clip-rule="evenodd" d="M14 9.33337C14.3682 9.33337 14.6667 9.03491 14.6667 8.66663C14.6667 8.29846 14.3682 8 14 8C13.6318 8 13.3333 8.29846 13.3333 8.66663C13.3333 9.03491 13.6318 9.33337 14 9.33337ZM11.3333 10C11.7015 10 12 9.70154 12 9.33325C12 8.96509 11.7015 8.66663 11.3333 8.66663C10.9651 8.66663 10.6667 8.96509 10.6667 9.33325C10.6667 9.70154 10.9651 10 11.3333 10ZM17.3333 9.33325C17.3333 9.70154 17.0349 10 16.6667 10C16.2985 10 16 9.70154 16 9.33325C16 8.96509 16.2985 8.66663 16.6667 8.66663C17.0349 8.66663 17.3333 8.96509 17.3333 9.33325ZM10 12C10.3682 12 10.6667 11.7015 10.6667 11.3333C10.6667 10.9651 10.3682 10.6666 10 10.6666C9.63181 10.6666 9.33333 10.9651 9.33333 11.3333C9.33333 11.7015 9.63181 12 10 12ZM18.6667 11.3333C18.6667 11.7015 18.3682 12 18 12C17.6318 12 17.3333 11.7015 17.3333 11.3333C17.3333 10.9651 17.6318 10.6666 18 10.6666C18.3682 10.6666 18.6667 10.9651 18.6667 11.3333Z" fill="white"/>
<path fill-rule="evenodd" clip-rule="evenodd" d="M0 6.66667H28V0H0V6.66667Z" fill="#FFD044"/>
</g>
</svg>
