<svg width="28" height="20" viewBox="0 0 28 20" fill="none" xmlns="http://www.w3.org/2000/svg">
<rect width="28" height="20" fill="black" fill-opacity="0"/>
<path fill-rule="evenodd" clip-rule="evenodd" d="M0 2C0 0.895431 0.895431 0 2 0H26C27.1046 0 28 0.895431 28 2V18C28 19.1046 27.1046 20 26 20H2C0.895431 20 0 19.1046 0 18V2Z" fill="white"/>
<mask id="mask0" mask-type="alpha" maskUnits="userSpaceOnUse" x="0" y="0" width="28" height="20">
<path fill-rule="evenodd" clip-rule="evenodd" d="M0 2C0 0.895431 0.895431 0 2 0H26C27.1046 0 28 0.895431 28 2V18C28 19.1046 27.1046 20 26 20H2C0.895431 20 0 19.1046 0 18V2Z" fill="white"/>
</mask>
<g mask="url(#mask0)">
<path fill-rule="evenodd" clip-rule="evenodd" d="M0 0H28V20H0V0Z" fill="#07319C"/>
<rect width="6.66667" height="9.33333" fill="black" fill-opacity="0" transform="translate(17.3333 5.33337)"/>
<path fill-rule="evenodd" clip-rule="evenodd" d="M17.3333 10C17.3333 8.9063 17.3333 7.61319 17.3333 6.66586C17.3333 5.92948 17.9303 5.33337 18.6667 5.33337H22.6667C23.4031 5.33337 24 5.92948 24 6.66586C24 7.61319 24 8.9063 24 10C24 13.3334 20.6667 14.6667 20.6667 14.6667C20.6667 14.6667 17.3333 13.3334 17.3333 10Z" fill="#008339"/>
<mask id="mask1" mask-type="alpha" maskUnits="userSpaceOnUse" x="17" y="5" width="8" height="10">
<path fill-rule="evenodd" clip-rule="evenodd" d="M17.3333 10C17.3333 8.9063 17.3333 7.61319 17.3333 6.66586C17.3333 5.92948 17.9303 5.33337 18.6667 5.33337H22.6667C23.4031 5.33337 24 5.92948 24 6.66586C24 7.61319 24 8.9063 24 10C24 13.3334 20.6667 14.6667 20.6667 14.6667C20.6667 14.6667 17.3333 13.3334 17.3333 10Z" fill="white"/>
</mask>
<g mask="url(#mask1)">
<path fill-rule="evenodd" clip-rule="evenodd" d="M20.6667 11.3334C21.0349 11.3334 21.3333 10.4379 21.3333 9.33337C21.3333 8.2288 21.0349 7.33337 20.6667 7.33337C20.2985 7.33337 20 8.2288 20 9.33337C20 10.4379 20.2985 11.3334 20.6667 11.3334Z" fill="white"/>
</g>
<path d="M16.6667 13.3333C16.6667 14.6048 18.4879 15.3333 20.6667 15.3333C22.8455 15.3333 24.6667 14.6048 24.6667 13.3333C24.6667 12.9651 24.3682 12.6666 24 12.6666C23.6318 12.6666 23.3333 12.9651 23.3333 13.3333C23.3333 13.346 23.1717 13.4989 22.7761 13.6571C22.239 13.8719 21.4824 14 20.6667 14C19.8509 14 19.0943 13.8719 18.5572 13.6571C18.1616 13.4989 18 13.346 18 13.3333C18 12.9651 17.7015 12.6666 17.3333 12.6666C16.9651 12.6666 16.6667 12.9651 16.6667 13.3333Z" fill="#FFD033"/>
<path d="M0 -0.333333H-0.901086L-0.21693 0.253086L4.33333 4.15331V5.16179L-0.193746 8.39542L-0.333333 8.49513V8.66667V9.33333V9.93475L0.176666 9.616L5.42893 6.33333H6.55984L11.0821 9.56351C11.176 9.6306 11.2886 9.66667 11.404 9.66667C11.9182 9.66667 12.1548 9.02698 11.7644 8.69237L7.66667 5.18002V4.17154L12.0542 1.03762C12.2294 0.912476 12.3333 0.710428 12.3333 0.495127V0V-0.601416L11.8233 -0.282666L6.57107 3H5.44016L0.860413 -0.271244L0.773488 -0.333333H0.666667H0Z" fill="#DB1E36" stroke="white" stroke-width="0.666667"/>
<path fill-rule="evenodd" clip-rule="evenodd" d="M0 3.33333V6H4.66667V9.33333C4.66667 9.70152 4.96514 10 5.33333 10H6.66667C7.03486 10 7.33333 9.70152 7.33333 9.33333V6H12C12.3682 6 12.6667 5.70152 12.6667 5.33333V4C12.6667 3.63181 12.3682 3.33333 12 3.33333H7.33333V0H4.66667V3.33333H0Z" fill="white"/>
<path fill-rule="evenodd" clip-rule="evenodd" d="M0 4H5.33333V3.33333V0H6.66667V3.33333V4H12V5.33333H6.66667V6V9.33333H5.33333V6V5.33333H0V4Z" fill="#DB1E36"/>
</g>
</svg>
