<svg width="28" height="20" viewBox="0 0 28 20" fill="none" xmlns="http://www.w3.org/2000/svg">
<rect width="28" height="20" fill="black" fill-opacity="0"/>
<path fill-rule="evenodd" clip-rule="evenodd" d="M0 2C0 0.895431 0.895431 0 2 0H26C27.1046 0 28 0.895431 28 2V18C28 19.1046 27.1046 20 26 20H2C0.895431 20 0 19.1046 0 18V2Z" fill="white"/>
<mask id="mask0" mask-type="alpha" maskUnits="userSpaceOnUse" x="0" y="0" width="28" height="20">
<path fill-rule="evenodd" clip-rule="evenodd" d="M0 2C0 0.895431 0.895431 0 2 0H26C27.1046 0 28 0.895431 28 2V18C28 19.1046 27.1046 20 26 20H2C0.895431 20 0 19.1046 0 18V2Z" fill="white"/>
</mask>
<g mask="url(#mask0)">
<path fill-rule="evenodd" clip-rule="evenodd" d="M0 0H28V20H0V0Z" fill="#E31F37"/>
<path fill-rule="evenodd" clip-rule="evenodd" d="M-1.33334 10.6666H14.6667V-1.33337H-1.33334V10.6666Z" fill="#083B9A"/>
<path fill-rule="evenodd" clip-rule="evenodd" d="M6.66669 2.66675L5.72388 2.94287L6 2.00012L5.72388 1.05725L6.66669 1.33337L7.6095 1.05725L7.33334 2.00012L7.6095 2.94287L6.66669 2.66675ZM6.66669 9.33337L5.72388 9.6095L6 8.66675L5.72388 7.72388L6.66669 8L7.6095 7.72388L7.33334 8.66675L7.6095 9.6095L6.66669 9.33337ZM3.05719 6.27612L4 6L4.94281 6.27612L4.66666 5.33337L4.94281 4.3905L4 4.66663L3.05719 4.3905L3.33331 5.33337L3.05719 6.27612ZM10 5.33337L9.05719 5.6095L9.33331 4.66675L9.05719 3.72388L10 4L10.9428 3.72388L10.6667 4.66675L10.9428 5.6095L10 5.33337ZM8.66666 7.00012C8.66666 7.1842 8.51743 7.33337 8.33334 7.33337C8.14923 7.33337 8 7.1842 8 7.00012C8 6.81604 8.14923 6.66675 8.33334 6.66675C8.51743 6.66675 8.66666 6.81604 8.66666 7.00012Z" fill="white"/>
</g>
</svg>
