<svg width="28" height="20" viewBox="0 0 28 20" fill="none" xmlns="http://www.w3.org/2000/svg">
<rect width="28" height="20" fill="black" fill-opacity="0"/>
<path fill-rule="evenodd" clip-rule="evenodd" d="M0 2C0 0.895431 0.895431 0 2 0H26C27.1046 0 28 0.895431 28 2V18C28 19.1046 27.1046 20 26 20H2C0.895431 20 0 19.1046 0 18V2Z" fill="white"/>
<mask id="mask0" mask-type="alpha" maskUnits="userSpaceOnUse" x="0" y="0" width="28" height="20">
<path fill-rule="evenodd" clip-rule="evenodd" d="M0 2C0 0.895431 0.895431 0 2 0H26C27.1046 0 28 0.895431 28 2V18C28 19.1046 27.1046 20 26 20H2C0.895431 20 0 19.1046 0 18V2Z" fill="white"/>
</mask>
<g mask="url(#mask0)">
<path fill-rule="evenodd" clip-rule="evenodd" d="M0 0H28V20H0V0Z" fill="#19BFBF"/>
<path fill-rule="evenodd" clip-rule="evenodd" d="M14 17.3333C18.0501 17.3333 21.3333 14.05 21.3333 10C21.3333 5.94983 18.0501 2.66663 14 2.66663C9.94989 2.66663 6.66666 5.94983 6.66666 10C6.66666 14.05 9.94989 17.3333 14 17.3333ZM19.9634 10.6666C19.7159 12.9059 18.2361 14.7737 16.2173 15.577C16.8674 14.2531 17.2471 12.5281 17.3203 10.6666H19.9634ZM15.9857 10.6666C15.8883 12.9156 15.3011 14.9034 14.3855 15.9878C14.2581 15.9958 14.1295 16 14 16C13.8705 16 13.7419 15.9958 13.6144 15.9878C12.6989 14.9034 12.1117 12.9156 12.0143 10.6666H15.9857ZM10.6797 10.6666C10.7528 12.528 11.1326 14.2531 11.7827 15.577C9.76382 14.7737 8.28412 12.9058 8.03662 10.6666H10.6797ZM12.0143 9.33325H15.9856C15.8883 7.08435 15.3011 5.09668 14.3855 4.01221C14.2581 4.00415 14.1295 4 14 4C13.8705 4 13.7419 4.00415 13.6144 4.01221C12.6989 5.09668 12.1117 7.08435 12.0143 9.33325ZM11.7827 4.4231C11.1326 5.74707 10.7528 7.47192 10.6797 9.33325H8.03662C8.28418 7.09412 9.76385 5.22644 11.7827 4.4231ZM19.9634 9.33325H17.3203C17.2471 7.47192 16.8674 5.74695 16.2173 4.42297C18.2361 5.22632 19.7158 7.09412 19.9634 9.33325Z" fill="white"/>
</g>
</svg>
