<svg width="28" height="20" viewBox="0 0 28 20" fill="none" xmlns="http://www.w3.org/2000/svg">
<rect width="28" height="20" fill="black" fill-opacity="0"/>
<path fill-rule="evenodd" clip-rule="evenodd" d="M0 2C0 0.895431 0.895431 0 2 0H26C27.1046 0 28 0.895431 28 2V18C28 19.1046 27.1046 20 26 20H2C0.895431 20 0 19.1046 0 18V2Z" fill="#009F60"/>
<mask id="mask0" mask-type="alpha" maskUnits="userSpaceOnUse" x="0" y="0" width="28" height="20">
<path fill-rule="evenodd" clip-rule="evenodd" d="M0 2C0 0.895431 0.895431 0 2 0H26C27.1046 0 28 0.895431 28 2V18C28 19.1046 27.1046 20 26 20H2C0.895431 20 0 19.1046 0 18V2Z" fill="white"/>
</mask>
<g mask="url(#mask0)">
<path fill-rule="evenodd" clip-rule="evenodd" d="M24 10.6666H28V20H24V10.6666Z" fill="#EA8B42"/>
<path fill-rule="evenodd" clip-rule="evenodd" d="M20 20H24V10.6666H20V20Z" fill="#1A1919"/>
<path fill-rule="evenodd" clip-rule="evenodd" d="M16 20H20V10.6666H16V20Z" fill="#DB3C36"/>
<rect width="11.9249" height="5.12711" fill="black" fill-opacity="0" transform="translate(14.7034 2.70142)"/>
<rect width="11.9142" height="5.11953" fill="black" fill-opacity="0" transform="translate(14.7141 2.70898)"/>
<path fill-rule="evenodd" clip-rule="evenodd" d="M21.0141 3.48403C20.9222 3.48662 20.8547 3.45479 20.8305 3.40128C20.9804 3.31337 21.0817 3.33298 21.2073 3.44498C21.2315 3.35741 21.2073 3.25986 21.1542 3.20137C21.101 3.14287 21.0575 3.14287 20.9852 3.13788C20.9126 3.13307 20.8401 3.11363 20.7918 3.11363C20.721 2.95758 20.5436 3.02365 20.3732 3.08765C20.0961 3.19156 19.8472 3.38029 19.7354 3.56868C19.6844 3.65487 19.6782 3.68877 19.6468 3.73763C19.6727 3.73436 19.671 3.73436 19.6871 3.72455C19.6677 3.93909 19.642 4.13728 19.6806 4.26408C19.6324 4.44937 19.671 4.56636 19.7289 4.62485C19.787 4.68335 19.811 4.70778 19.8208 4.77608C19.8304 4.84421 19.8594 4.90752 19.9077 4.94657C19.9561 4.98563 19.985 5.04412 19.9898 5.07836C19.9946 5.11242 20.1441 5.25935 20.2072 5.29771C20.2314 5.31216 20.2362 5.34158 20.2653 5.38047C20.2024 5.75105 20.4537 6.12163 20.3956 6.48722C20.4392 6.49203 20.4971 6.48722 20.5552 6.47259C20.6034 6.78451 20.6324 6.93573 20.3618 7.02829C20.0913 7.12102 19.9434 7.21221 20.0188 7.31595C20.072 7.38907 20.182 7.32541 20.2508 7.26227C20.3039 7.21358 20.3666 7.16971 20.415 7.15509C20.4633 7.14046 20.4731 7.15509 20.4488 7.2184C20.4246 7.28188 20.2943 7.41831 20.2893 7.48662C20.2845 7.55492 20.3425 7.6036 20.4344 7.54993C20.5261 7.49625 20.6068 7.35586 20.6276 7.27208C20.642 7.21358 20.6663 7.17453 20.6613 7.27208C20.6565 7.36963 20.5986 7.54511 20.729 7.57436C20.8595 7.6036 20.8982 7.44756 20.8547 7.30614C20.8112 7.1649 20.7968 7.08679 20.816 7.0381C20.8353 6.98924 20.8547 6.96016 20.9029 6.97462C20.9512 6.98924 21.0479 6.9698 21.0431 6.89186C21.0381 6.81393 20.9706 6.75044 20.8933 6.79431C20.816 6.83819 20.758 6.83165 20.7918 6.73582C20.816 6.66752 20.8595 6.58459 20.8643 6.53109C20.9174 6.60902 21.2169 6.61883 21.3378 6.54571C21.3668 6.69195 21.4441 6.82356 21.275 6.96016C21.1058 7.09659 20.9706 7.22821 20.9754 7.32576C20.9804 7.4233 21.0189 7.48163 21.1058 7.43294C21.1928 7.38425 21.2459 7.31595 21.2653 7.25264C21.2846 7.18915 21.3234 7.18915 21.304 7.26726C21.2846 7.3452 21.2509 7.45737 21.2653 7.52567C21.2798 7.5938 21.3861 7.59879 21.4295 7.5353C21.473 7.47199 21.4633 7.38907 21.4537 7.30614C21.4441 7.22322 21.4586 7.13565 21.4778 7.10141C21.4972 7.06735 21.5358 7.01849 21.5745 7.11122C21.6133 7.20378 21.6325 7.2769 21.7098 7.30133C21.7871 7.32576 21.845 7.29152 21.8306 7.19896C21.8161 7.1064 21.7146 7.00386 21.6133 6.92593C21.5118 6.84799 21.5456 6.80894 21.5504 6.73582C21.5552 6.6627 21.5408 6.53109 21.5358 6.47259C21.6277 6.54089 21.7292 6.53109 21.7773 6.53109C21.8257 6.53109 21.905 6.51612 21.8257 6.44335C21.6662 6.29711 21.7194 6.2092 21.6083 6.10201C21.4972 5.99483 21.3957 5.82898 21.362 5.68773C21.328 5.54631 21.2536 5.28791 21.1058 5.15629C21.0237 5.08317 20.9996 4.88326 21.0189 4.6541C21.0381 4.42494 21.0431 4.17152 20.8353 4.05453C20.6276 3.93754 20.6324 3.83999 20.7001 3.73763C20.7676 3.63526 20.8545 3.53513 20.9658 3.52791C20.9908 3.52636 21.0486 3.52154 21.0721 3.50434C21.0616 3.49625 21.0446 3.48335 21.0141 3.48403Z" fill="#EA8B42"/>
<path fill-rule="evenodd" clip-rule="evenodd" d="M19.6629 4.01066C19.6578 4.10976 19.6602 4.19698 19.6806 4.26408C19.6324 4.44937 19.671 4.56636 19.7289 4.62486C19.7871 4.68335 19.8111 4.70778 19.8208 4.77608C19.8304 4.84421 19.8594 4.90752 19.9077 4.94658C19.9561 4.98563 19.9851 5.04412 19.9899 5.07836C19.9947 5.11243 20.1441 5.25935 20.2072 5.29772C20.2314 5.31217 20.2362 5.34159 20.2653 5.38047C20.2391 5.53445 20.2667 5.68843 20.3044 5.84206C19.9629 6.128 19.6259 5.99311 19.7677 5.70064C19.4841 5.92808 18.9947 5.92172 19.1043 5.70064C18.6597 5.85668 18.5245 5.72662 18.5824 5.58365C18.2089 5.73316 18.0155 5.59019 18.0671 5.4861C17.7579 5.57058 17.5581 5.51862 17.5259 5.46666C17.4939 5.4147 17.571 5.29772 17.642 5.23922C17.5002 5.29118 17.3649 5.29118 17.236 5.27174C17.1073 5.25212 17.1395 5.21307 17.1652 5.15458C17.1911 5.09608 17.2249 5.00352 17.3279 4.91251C17.0816 4.9612 16.7723 4.99544 16.5549 4.92215C16.514 4.90838 16.4439 4.8929 16.4872 4.8492C16.5308 4.80533 16.6612 4.69797 16.8207 4.62967C16.4583 4.68335 15.7722 4.7224 15.579 4.50305C15.7674 4.54193 16.0089 4.464 16.1636 4.40068C15.5548 4.33238 14.7239 3.91311 14.7141 3.50365C14.8881 3.78632 15.1878 3.88387 15.4873 3.97161C15.0813 3.73264 14.9123 3.44498 14.8979 3.25488C15.1297 3.47922 15.4823 3.73264 15.8303 3.79131C15.5838 3.65969 15.2649 3.27449 15.178 3.00627C15.3568 3.16713 15.8157 3.42554 16.1298 3.50847C15.9124 3.3378 15.5598 2.93316 15.579 2.70898C15.6611 2.79191 15.8641 2.94778 16.2795 3.19157C16.695 3.43535 16.9204 3.41746 17.2635 3.49058C17.2007 3.4061 17.1443 3.29393 17.1395 3.26468C17.241 3.27931 17.3375 3.31836 17.6274 3.49866C17.9173 3.67913 18.5507 3.73436 18.9126 3.89367C19.1781 4.01066 19.5567 3.93754 19.6629 4.01066Z" fill="#EA8B42"/>
<path fill-rule="evenodd" clip-rule="evenodd" d="M21.8495 6.51441C21.8654 6.50167 21.8654 6.47965 21.8257 6.44335C21.6662 6.29711 21.7194 6.2092 21.6083 6.10202C21.4972 5.99484 21.3957 5.82899 21.362 5.68774C21.328 5.54632 21.2536 5.28791 21.1058 5.1563C21.0237 5.08318 20.9996 4.88327 21.0189 4.6541C21.0354 4.45797 21.0414 4.24413 20.9125 4.1132C21.154 4.0449 21.3765 4.0301 21.4537 4.10804C21.8546 4.00567 22.2026 3.97471 22.544 3.95217C22.9369 3.92602 23.6776 3.75707 24.206 3.39957C24.1737 3.52963 23.9934 3.72456 23.8322 3.8221C24.3669 3.69204 25.0112 3.45152 25.5587 3.04206C25.5522 3.32817 25.3204 3.54253 25.185 3.6597C25.5587 3.45152 26.1061 3.19157 26.2929 2.86658C26.375 3.19965 25.8164 3.63527 25.5134 3.87578C25.8227 3.72628 26.2221 3.58813 26.3768 3.36705C26.3735 3.63681 26.0224 3.97161 25.6874 4.16653C26.0289 4.03664 26.409 3.90004 26.6279 3.69858C26.6536 3.97006 25.6069 4.59406 25.0883 4.76456C25.5393 4.6541 26.1254 4.5046 26.3831 4.34856C26.3702 4.40378 26.2652 4.4812 26.1887 4.53763C25.8736 4.77058 25.3904 4.89565 25.0948 4.95311C25.1336 5.1157 25.082 5.20671 24.9016 5.21961C24.7213 5.23268 24.2848 5.16284 24.0659 5.05221C24.0337 5.07165 23.9949 5.07836 23.9514 5.08318C24.164 5.24404 24.2365 5.36103 24.1929 5.42933C24.1496 5.49763 23.9973 5.48524 23.8814 5.46099C23.9732 5.71939 23.6663 5.70236 23.4104 5.55595C23.5118 5.68774 23.5264 5.79974 23.3862 5.82899C23.2461 5.85823 23.1349 5.8486 22.9996 5.76068C22.99 5.85823 22.8966 5.92327 22.7726 5.89075C23.1978 6.14916 23.1736 6.24344 23.1011 6.34081C23.0288 6.43836 22.775 6.41892 22.6398 6.33118C22.5818 6.53109 22.3508 6.53178 22.1783 6.37264C22.1768 6.4523 22.0122 6.6104 21.8495 6.51441Z" fill="#EA8B42"/>
<path fill-rule="evenodd" clip-rule="evenodd" d="M19.8772 7.49465C19.8843 7.43306 19.8901 7.36149 19.9415 7.3159C19.9931 7.27031 20.0253 7.23142 20.0704 7.27684C20.1155 7.32244 20.0865 7.36476 20.0253 7.3842C19.9641 7.40364 19.9223 7.45887 19.9125 7.49465C19.9029 7.53044 19.8707 7.54988 19.8772 7.49465Z" fill="black"/>
<path fill-rule="evenodd" clip-rule="evenodd" d="M20.2281 7.79369C20.1962 7.69149 20.2122 7.55971 20.2475 7.52066C20.283 7.4816 20.3281 7.45562 20.3699 7.49468C20.4117 7.53373 20.4278 7.58896 20.3505 7.62147C20.2821 7.6502 20.2765 7.72212 20.2734 7.77425C20.2701 7.8262 20.2475 7.85545 20.2281 7.79369Z" fill="black"/>
<path fill-rule="evenodd" clip-rule="evenodd" d="M20.6792 7.53043C20.6543 7.57224 20.6855 7.7417 20.7693 7.78385C20.8287 7.81379 20.8563 7.80673 20.8208 7.75134C20.7855 7.69611 20.7983 7.64415 20.8177 7.61491C20.8369 7.58566 20.8338 7.5337 20.7918 7.50772C20.75 7.48157 20.6984 7.49792 20.6792 7.53043Z" fill="black"/>
<path fill-rule="evenodd" clip-rule="evenodd" d="M21.0431 7.37768C20.99 7.33743 20.9401 7.38577 20.9207 7.41983C20.882 7.48814 20.9111 7.58568 20.9723 7.64091C21.0335 7.69614 21.0238 7.62147 21.0044 7.58895C20.9852 7.55644 20.9819 7.4914 21.0238 7.48487C21.0656 7.4785 21.0947 7.41657 21.0431 7.37768Z" fill="black"/>
<path fill-rule="evenodd" clip-rule="evenodd" d="M21.3458 7.4882C21.2941 7.47289 21.2428 7.52726 21.2492 7.59229C21.254 7.64081 21.2589 7.70274 21.3071 7.73526C21.3395 7.75693 21.362 7.77104 21.3458 7.71255C21.3297 7.65405 21.3556 7.60519 21.3844 7.58902C21.4134 7.57285 21.4005 7.50455 21.3458 7.4882Z" fill="black"/>
<path fill-rule="evenodd" clip-rule="evenodd" d="M21.7742 7.21186C21.7367 7.23836 21.7388 7.29978 21.7742 7.32249C21.8096 7.3452 21.8612 7.37771 21.8516 7.43294C21.8418 7.48816 21.8708 7.50778 21.8966 7.44601C21.9224 7.38425 21.9256 7.29324 21.8966 7.25092C21.8675 7.20859 21.8063 7.18915 21.7742 7.21186Z" fill="black"/>
<rect width="11.1905" height="4.88935" fill="black" fill-opacity="0" transform="translate(14.7034 2.70142)"/>
<path fill-rule="evenodd" clip-rule="evenodd" d="M20.8403 3.39685C20.8627 3.44641 20.9269 3.47571 21.0138 3.47326C21.0415 3.47265 21.0583 3.4801 21.0784 3.51306C21.0572 3.52856 21.0172 3.53552 20.9665 3.53869C20.8742 3.54468 20.7935 3.61548 20.709 3.74353C20.6329 3.85864 20.6595 3.94323 20.8406 4.04516C21.0205 4.14648 21.0574 4.32287 21.0296 4.65503C21.0092 4.89636 21.0386 5.08203 21.113 5.14819C21.236 5.25781 21.3152 5.44726 21.3724 5.68518C21.405 5.82153 21.5036 5.98608 21.6157 6.09424C21.6421 6.11963 21.6609 6.14526 21.676 6.17456C21.6846 6.1914 21.6909 6.20654 21.7012 6.23376C21.7365 6.32788 21.7604 6.36889 21.8329 6.43542C21.8731 6.47229 21.8809 6.50293 21.8561 6.52295C21.8397 6.53601 21.8102 6.54187 21.7773 6.54187L21.7595 6.54211C21.6815 6.54358 21.6313 6.53711 21.5735 6.5083C21.565 6.50403 21.5567 6.49939 21.5485 6.49426L21.5534 6.54858C21.5555 6.57263 21.5572 6.59411 21.5586 6.6145C21.562 6.66565 21.563 6.70654 21.5611 6.73657C21.5603 6.74792 21.5591 6.75781 21.5566 6.77344C21.5521 6.80224 21.5512 6.81006 21.5521 6.82263C21.5542 6.85339 21.5724 6.88098 21.6198 6.91736C21.744 7.01294 21.8278 7.11157 21.8412 7.19726C21.8562 7.29358 21.7958 7.33972 21.7066 7.31152C21.6519 7.29431 21.6238 7.25854 21.5914 7.18115L21.5647 7.11535C21.5489 7.07763 21.5345 7.06543 21.5219 7.06909C21.511 7.07226 21.4989 7.08606 21.4872 7.10669C21.4673 7.14221 21.4557 7.22998 21.4643 7.30493C21.4791 7.43237 21.4766 7.48584 21.4384 7.54138C21.3899 7.6123 21.2715 7.60595 21.2548 7.52795C21.2472 7.4917 21.2514 7.44397 21.265 7.38061C21.2688 7.36316 21.2731 7.34509 21.2787 7.32287L21.2936 7.26465C21.3011 7.23462 21.299 7.21777 21.2972 7.2174C21.2942 7.21679 21.2831 7.23095 21.2755 7.25573C21.2538 7.32666 21.1953 7.39514 21.1111 7.44238C21.0222 7.49206 20.9706 7.4414 20.9647 7.32629C20.9602 7.23449 21.0619 7.11828 21.2683 6.95178C21.3084 6.91943 21.3354 6.88647 21.3513 6.85205C21.3803 6.78967 21.3761 6.7417 21.3443 6.61926C21.3377 6.59411 21.3337 6.57763 21.3303 6.56213C21.2083 6.62463 20.9528 6.61938 20.8716 6.55407C20.8661 6.57971 20.8542 6.61108 20.8301 6.66845C20.815 6.70471 20.8085 6.7207 20.8019 6.73938C20.7875 6.78015 20.7906 6.80163 20.8049 6.80749C20.8205 6.81384 20.851 6.80603 20.888 6.78491C20.9678 6.73962 21.0479 6.79895 21.0538 6.89123C21.0585 6.96753 20.9694 7.00598 20.8998 6.98486C20.8637 6.97412 20.8472 6.9884 20.8259 7.04211C20.8089 7.08532 20.8198 7.15637 20.865 7.30298C20.9153 7.46655 20.858 7.61426 20.7267 7.58484C20.6463 7.56689 20.6253 7.50305 20.6366 7.3916C20.6379 7.37781 20.6396 7.3645 20.6424 7.34399C20.6486 7.29883 20.6498 7.28857 20.6506 7.27148C20.6515 7.25586 20.6515 7.24341 20.6508 7.23449C20.6468 7.24414 20.6419 7.25854 20.638 7.27466C20.6132 7.37488 20.5251 7.50927 20.4398 7.5592C20.3481 7.61279 20.2726 7.57116 20.2787 7.48584C20.2809 7.45447 20.3033 7.41443 20.3494 7.34961L20.3622 7.33178C20.4207 7.25097 20.4303 7.23681 20.4388 7.21448C20.46 7.1593 20.4569 7.15368 20.4181 7.1654C20.3745 7.17859 20.3143 7.21863 20.258 7.27026C20.1625 7.35791 20.0613 7.39258 20.0102 7.32226C19.9697 7.2666 19.9864 7.21167 20.0541 7.15942C20.1136 7.11352 20.2139 7.06762 20.3584 7.01806C20.5874 6.93982 20.6049 6.86438 20.5578 6.48303C20.4997 6.49768 20.4402 6.50293 20.385 6.48547C20.4088 6.33642 20.3902 6.21655 20.3194 5.94262C20.247 5.66247 20.228 5.53637 20.2568 5.38696C20.2493 5.37695 20.243 5.36706 20.2364 5.35571L20.2225 5.33069C20.2153 5.31836 20.2095 5.31164 20.2017 5.30688C20.133 5.26513 19.9845 5.11682 19.9792 5.07983C19.974 5.0426 19.9424 4.9884 19.901 4.95495C19.8524 4.91565 19.8206 4.85168 19.8102 4.77759C19.8019 4.71985 19.7897 4.70129 19.7213 4.63244C19.6499 4.5603 19.6263 4.43054 19.6703 4.26721C19.6406 4.16931 19.6433 4.07507 19.6711 3.78088L19.6746 3.74353C19.6714 3.74463 19.6681 3.74536 19.6635 3.74621L19.6482 3.74829L19.6378 3.73181C19.6442 3.7218 19.6498 3.71216 19.6553 3.70154L19.6645 3.68298C19.6626 3.68701 19.6817 3.64612 19.6883 3.63281C19.6993 3.61047 19.7113 3.58838 19.7263 3.56323C19.8398 3.37182 20.0912 3.182 20.3694 3.07763C20.6331 2.97851 20.739 2.97143 20.7918 3.1029C20.8151 3.1029 20.8268 3.10449 20.8954 3.11572C20.9346 3.12207 20.9597 3.12536 20.9859 3.12719L21.0024 3.12829C21.0642 3.13244 21.0901 3.13794 21.1214 3.15844C21.1351 3.16748 21.1485 3.1792 21.1621 3.19409C21.2191 3.25696 21.2422 3.35876 21.2177 3.44787L21.2002 3.453C21.0739 3.34033 20.9773 3.32763 20.8403 3.39685ZM21.0655 3.51294C21.0487 3.49988 21.0362 3.49438 21.0144 3.49487C20.9197 3.49756 20.8473 3.46448 20.8251 3.39209C20.9697 3.30713 21.074 3.3175 21.201 3.42529C21.1999 3.43091 21.1985 3.43652 21.197 3.44214L21.2144 3.43701C21.2099 3.43298 21.2054 3.42907 21.201 3.42529C21.2166 3.34753 21.1947 3.26196 21.1463 3.20862C21.1338 3.19494 21.1218 3.18445 21.1097 3.17651C21.0823 3.15869 21.0593 3.15368 21.001 3.14978L20.9844 3.14868C20.9575 3.14685 20.9318 3.14343 20.892 3.13696L20.8668 3.13293C20.8214 3.12549 20.809 3.12353 20.782 3.11816C20.7268 2.99634 20.6296 3.00293 20.3769 3.09778C20.1029 3.20056 19.8554 3.38745 19.7447 3.57422C19.73 3.59887 19.7183 3.6206 19.7075 3.64245C19.701 3.65552 19.682 3.69616 19.6838 3.69238L19.6743 3.71155C19.6722 3.71545 19.6702 3.71936 19.6681 3.72314C19.6661 3.72387 19.6638 3.72436 19.66 3.72497L19.6455 3.72705L19.6558 3.74353C19.6602 3.73669 19.6642 3.7301 19.6681 3.72314C19.6685 3.72314 19.6689 3.72265 19.6692 3.72265C19.6713 3.7218 19.6731 3.72058 19.6801 3.71631L19.6815 3.71545L19.6978 3.72558L19.6924 3.78296C19.665 4.07348 19.6623 4.16711 19.6909 4.26684C19.6487 4.4292 19.6709 4.55114 19.7365 4.61731C19.8079 4.68908 19.8223 4.71106 19.8314 4.77466C19.8412 4.84363 19.8704 4.90271 19.9145 4.93823C19.96 4.97497 19.9944 5.03406 20.0005 5.0769C20.0045 5.10534 20.1493 5.25 20.2127 5.28857C20.2242 5.29541 20.2321 5.30469 20.241 5.31982L20.255 5.34497L20.26 5.35364C20.2646 5.36133 20.2694 5.36963 20.2759 5.38232C20.2498 5.53601 20.2685 5.66015 20.3401 5.93738C20.4117 6.21411 20.4305 6.33594 20.3968 6.47656C20.4367 6.48095 20.4885 6.47705 20.5508 6.47217L20.5658 6.47107C20.6275 6.87048 20.6077 6.95556 20.3653 7.03857C20.2229 7.0874 20.1243 7.13244 20.0671 7.17663C20.0078 7.22241 19.9948 7.26477 20.0275 7.30969C20.0676 7.36487 20.1565 7.33435 20.2435 7.25439C20.302 7.2008 20.3646 7.15918 20.4119 7.1449C20.4712 7.12695 20.4855 7.15271 20.4588 7.22229C20.4492 7.24731 20.4401 7.26086 20.3795 7.34448L20.3669 7.36218C20.3234 7.42334 20.3019 7.46167 20.3 7.48742C20.2953 7.55481 20.3516 7.58594 20.429 7.54065C20.5089 7.49389 20.5937 7.3645 20.6172 7.26953C20.6253 7.23657 20.6355 7.21155 20.6458 7.20471C20.6584 7.19616 20.6677 7.20556 20.6707 7.2207C20.6728 7.23132 20.6732 7.24853 20.672 7.2727C20.6711 7.29065 20.6699 7.30102 20.6636 7.34692C20.6609 7.36731 20.6592 7.38025 20.6579 7.3938C20.6476 7.49573 20.6652 7.54907 20.7314 7.56396C20.841 7.5885 20.8908 7.45996 20.8445 7.30932C20.7978 7.15783 20.7864 7.08386 20.806 7.03418C20.8309 6.97143 20.8562 6.94946 20.906 6.96435C20.9633 6.98169 21.036 6.95044 21.0324 6.89258C21.0274 6.81482 20.9631 6.76709 20.8986 6.80371C20.8563 6.82776 20.8202 6.83703 20.7968 6.82751C20.7687 6.81604 20.764 6.78247 20.7817 6.7323C20.7885 6.71313 20.795 6.69677 20.8103 6.6604C20.8405 6.58825 20.8511 6.55835 20.8536 6.53015L20.8731 6.52502C20.9226 6.59765 21.216 6.60693 21.3322 6.53662L21.3483 6.5437C21.3523 6.56372 21.3565 6.5813 21.365 6.61389C21.3981 6.74121 21.4026 6.7926 21.3708 6.8612C21.3533 6.8988 21.3243 6.9342 21.2818 6.96863C21.0815 7.13 20.9821 7.24377 20.9861 7.32531C20.9913 7.42688 21.029 7.46374 21.1006 7.42358C21.1802 7.37903 21.235 7.31482 21.255 7.24951C21.2655 7.21521 21.283 7.19287 21.3011 7.19629C21.3212 7.20007 21.3247 7.22851 21.3144 7.2699L21.2995 7.32824C21.2939 7.35022 21.2897 7.36804 21.286 7.38525C21.2729 7.4458 21.2689 7.49109 21.2758 7.52344C21.2881 7.58093 21.3819 7.58606 21.4207 7.52929C21.4548 7.47961 21.4572 7.42956 21.4431 7.30823C21.4339 7.22839 21.4461 7.13611 21.4685 7.09619C21.4829 7.0708 21.498 7.05371 21.516 7.04846C21.5419 7.04101 21.5649 7.06054 21.5844 7.10705L21.6112 7.17285C21.6414 7.24499 21.666 7.27624 21.713 7.29114C21.7877 7.31469 21.8325 7.28052 21.8201 7.20068C21.8077 7.12219 21.7268 7.02685 21.6068 6.93457C21.5549 6.89465 21.5333 6.86194 21.5307 6.82422C21.5297 6.80945 21.5306 6.80078 21.5354 6.77014C21.5378 6.75512 21.539 6.74573 21.5397 6.73523C21.5416 6.7063 21.5406 6.66626 21.5372 6.61596C21.5359 6.59582 21.5342 6.57446 21.5321 6.55053L21.5251 6.47351L21.5422 6.46399C21.5552 6.47375 21.5689 6.48205 21.5831 6.48913C21.6369 6.51599 21.6843 6.52197 21.7591 6.52063L21.7773 6.52038C21.8056 6.52038 21.8312 6.51538 21.8427 6.50622C21.8544 6.4967 21.8503 6.48059 21.8185 6.45129C21.743 6.38208 21.7176 6.33838 21.6811 6.24145C21.6712 6.21496 21.6651 6.20031 21.6569 6.18445C21.6429 6.15735 21.6255 6.13354 21.6009 6.10986C21.4859 5.9989 21.3851 5.83081 21.3515 5.69031C21.2954 5.45642 21.2174 5.27014 21.0987 5.16443C21.0175 5.09216 20.9873 4.901 21.0082 4.65332C21.0354 4.3291 20.9999 4.15954 20.8301 4.06396C20.6387 3.95617 20.6078 3.85779 20.6911 3.73181C20.779 3.59851 20.8641 3.5238 20.9651 3.51721C20.9797 3.51635 20.9935 3.51501 21.006 3.51391C21.0331 3.51135 21.0544 3.5094 21.0655 3.51294Z" fill="black"/>
<path fill-rule="evenodd" clip-rule="evenodd" d="M19.4019 3.95984C19.5671 3.9657 19.6272 3.97302 19.669 4.00183L19.6736 4.01123C19.6679 4.12158 19.6726 4.20093 19.691 4.26685C19.6488 4.42908 19.671 4.55103 19.7365 4.61731C19.8079 4.68909 19.8223 4.71106 19.8314 4.77454C19.8412 4.84363 19.8704 4.90259 19.9145 4.93823C19.96 4.97498 19.9944 5.03406 20.0005 5.0769C20.0045 5.10535 20.1493 5.24988 20.2127 5.28845C20.2242 5.29541 20.2321 5.30469 20.241 5.31982L20.255 5.34497L20.2602 5.35388C20.2646 5.36145 20.2695 5.36975 20.2759 5.38232C20.2533 5.51489 20.2677 5.64734 20.3113 5.85034C20.1497 5.98572 19.975 6.0376 19.8516 5.99854C19.7398 5.96313 19.6958 5.86084 19.7422 5.73328C19.6106 5.82617 19.4359 5.88037 19.2885 5.87964C19.1367 5.87878 19.051 5.81799 19.0851 5.71863C18.7184 5.8418 18.5143 5.77197 18.5646 5.60205C18.2611 5.71533 18.0096 5.63672 18.0494 5.50195C17.7888 5.56885 17.562 5.54517 17.5168 5.47229C17.4886 5.42664 17.5324 5.33459 17.5989 5.26477C17.4838 5.29858 17.3664 5.30225 17.2344 5.28235C17.1723 5.27295 17.1414 5.2583 17.1332 5.2334C17.1269 5.21436 17.1288 5.20862 17.1525 5.15686L17.1554 5.15027C17.1554 5.15039 17.1709 5.1145 17.1762 5.10278C17.1856 5.08228 17.1948 5.06396 17.2052 5.04578C17.2289 5.00439 17.2574 4.96619 17.2935 4.93005C16.9921 4.98645 16.735 4.99426 16.5515 4.93237L16.524 4.92346C16.4984 4.91504 16.4827 4.90759 16.4726 4.89709C16.4576 4.88135 16.4598 4.86157 16.4796 4.84167C16.5382 4.78259 16.6418 4.70679 16.752 4.65027C16.229 4.71912 15.7285 4.68896 15.571 4.51013L15.5811 4.49255C15.7279 4.52283 15.9167 4.48535 16.1206 4.40625C15.4528 4.31714 14.7125 3.88208 14.7034 3.50391L14.7233 3.49805C14.8587 3.71814 15.0396 3.82288 15.4121 3.93787C15.0896 3.72937 14.9035 3.47021 14.8872 3.25574L14.9054 3.24719C15.1688 3.5022 15.4826 3.70129 15.7708 3.76843C15.5321 3.61328 15.2495 3.26172 15.1678 3.00964L15.1852 2.99829C15.3672 3.16211 15.7894 3.39343 16.0821 3.48364C15.8156 3.25977 15.552 2.89807 15.5683 2.70813L15.5866 2.70142C15.6884 2.8042 15.9221 2.96936 16.2849 3.18225C16.5096 3.31421 16.6809 3.37476 16.9065 3.41638C16.9384 3.42224 16.9692 3.42749 17.0178 3.43555C17.1377 3.4552 17.1819 3.46265 17.2387 3.47437C17.1862 3.39832 17.1343 3.29907 17.1289 3.26648L17.141 3.25403C17.2537 3.27026 17.3615 3.32068 17.6331 3.4895C17.7639 3.57104 17.9239 3.6189 18.312 3.70923L18.3299 3.71338C18.6432 3.78625 18.7824 3.82458 18.9169 3.88379C18.9871 3.91479 19.0691 3.93408 19.1669 3.94531C19.2331 3.953 19.2809 3.95557 19.4019 3.95984ZM17.33 4.9231L17.3222 4.93225C17.25 5 17.2297 5.0354 17.175 5.15894L17.1719 5.16589C17.1519 5.20972 17.1499 5.2157 17.1535 5.22668C17.1583 5.24121 17.1829 5.25281 17.2376 5.26111C17.3841 5.2832 17.5116 5.27563 17.6383 5.22913L17.6488 5.24756C17.5709 5.31177 17.5099 5.42041 17.535 5.46106C17.5747 5.52502 17.8034 5.547 18.0643 5.47583L18.0767 5.49097C18.0153 5.61487 18.2644 5.69946 18.5785 5.57373L18.5923 5.58777C18.5255 5.75281 18.7177 5.82507 19.1007 5.69055L19.1138 5.70544C19.0672 5.79956 19.1388 5.8573 19.2886 5.85815C19.4436 5.85901 19.6307 5.79675 19.761 5.69226L19.7773 5.70544C19.7126 5.83887 19.7487 5.94348 19.858 5.97803C19.9737 6.01465 20.1411 5.96484 20.294 5.84473C20.2462 5.6499 20.2316 5.51489 20.2568 5.38696C20.2493 5.37695 20.243 5.36707 20.2364 5.35571L20.2225 5.33081C20.2153 5.31836 20.2095 5.31165 20.2017 5.30701C20.133 5.26526 19.9844 5.11694 19.9792 5.07996C19.974 5.0426 19.9424 4.9884 19.901 4.95496C19.8524 4.91577 19.8206 4.85168 19.8102 4.77771C19.8019 4.71985 19.7897 4.70129 19.7213 4.63245C19.6499 4.5603 19.6263 4.43054 19.6703 4.26733C19.6516 4.20544 19.6466 4.12585 19.6519 4.01636C19.6536 4.01733 19.6552 4.01843 19.6569 4.01953L19.6522 4.01013C19.6521 4.01221 19.652 4.01428 19.6519 4.01636C19.6148 3.99377 19.5537 3.98682 19.4012 3.98132C19.2795 3.97705 19.2314 3.97449 19.1644 3.9668C19.0647 3.95532 18.9807 3.93542 18.9083 3.90356C18.7754 3.84509 18.6369 3.80688 18.325 3.73438L18.3071 3.73022C17.9163 3.63928 17.7555 3.59106 17.6217 3.50781C17.3661 3.34888 17.2579 3.29639 17.1544 3.27808C17.1522 3.27197 17.1507 3.26685 17.1501 3.26294L17.138 3.27539C17.1434 3.27612 17.1489 3.2771 17.1544 3.27808C17.1701 3.32214 17.2231 3.41833 17.272 3.48425L17.2612 3.5011C17.1896 3.48584 17.1521 3.47937 17.0144 3.45679C16.9656 3.44873 16.9347 3.44348 16.9026 3.43762C16.6747 3.39551 16.5011 3.33411 16.274 3.20093C15.9294 2.99866 15.7004 2.83899 15.5892 2.73401C15.5888 2.72571 15.589 2.71765 15.5897 2.70996L15.5714 2.71667C15.5769 2.72229 15.5829 2.72803 15.5892 2.73401C15.5968 2.93079 15.8731 3.29346 16.1364 3.5L16.1271 3.51892C15.8459 3.4447 15.4116 3.21436 15.2017 3.04077C15.1967 3.02795 15.1922 3.01538 15.1882 3.00305L15.1709 3.01428C15.1805 3.02295 15.1908 3.03174 15.2017 3.04077C15.3038 3.30432 15.6033 3.65796 15.8353 3.78186L15.8285 3.802C15.5268 3.7511 15.1926 3.54907 14.9118 3.2832C14.9104 3.27344 14.9093 3.26367 14.9086 3.25415L14.8905 3.2627C14.8976 3.26953 14.9047 3.27637 14.9118 3.2832C14.9436 3.49939 15.1484 3.75977 15.4927 3.9624L15.4843 3.98193C15.0764 3.86243 14.8753 3.76147 14.7292 3.54675C14.7267 3.53223 14.7252 3.51782 14.7249 3.50342L14.705 3.5094C14.7129 3.52222 14.721 3.53467 14.7292 3.54675C14.7924 3.90857 15.5217 4.31787 16.1648 4.39001L16.1676 4.41064C15.9605 4.49548 15.7668 4.54053 15.6108 4.51941C15.6021 4.51184 15.5942 4.50415 15.587 4.49597L15.5768 4.51367C15.588 4.51599 15.5993 4.51782 15.6108 4.51941C15.7932 4.67676 16.3039 4.69543 16.8191 4.61914L16.8249 4.63965C16.6947 4.69543 16.5629 4.78821 16.4948 4.85681C16.4826 4.86914 16.4818 4.87573 16.4881 4.8822C16.4948 4.88928 16.5085 4.89575 16.5308 4.90308L16.5583 4.91199C16.7448 4.97485 17.0121 4.96399 17.3258 4.90198L17.335 4.92065L17.33 4.9231Z" fill="black"/>
<path fill-rule="evenodd" clip-rule="evenodd" d="M23.829 3.81836L23.8358 3.83875C23.8463 3.83496 23.5431 3.9447 23.4366 3.98193C23.405 3.99304 23.3746 4.00354 23.345 4.01367C23.1311 4.08655 22.9702 4.13391 22.8678 4.15112L22.8628 4.13025L23.829 3.81836ZM21.0222 4.57043C21.2093 4.66956 21.4203 4.66711 21.4963 4.53711C21.6572 4.62463 21.9117 4.58167 21.9937 4.45911C22.2245 4.54272 22.4403 4.49243 22.4787 4.28064L22.4647 4.26855L22.0116 4.42395C22.018 4.40588 22.021 4.38647 22.02 4.36597L21.5108 4.50635C21.516 4.49231 21.5199 4.47717 21.5224 4.46082L21.5097 4.44861L21.0168 4.54602L21.0138 4.56592L21.0174 4.56836L21.0222 4.57043ZM21.0511 4.56458L21.0222 4.57043L21.024 4.55005C21.033 4.55518 21.0421 4.56006 21.0511 4.56458ZM21.0511 4.56458C21.2477 4.6637 21.4614 4.64197 21.4983 4.47327L21.5139 4.47009L21.5012 4.45752C21.5004 4.46289 21.4995 4.46814 21.4983 4.47327L21.0511 4.56458ZM21.5061 4.51782L21.5108 4.50635L21.4893 4.51221L21.487 4.53186L21.4963 4.53711L21.4994 4.53149L21.5204 4.52515C21.672 4.59766 21.8995 4.5564 21.9813 4.45447L21.9937 4.45911C21.9955 4.45642 21.9973 4.45374 21.9989 4.45093L22.0175 4.44458C22.224 4.51367 22.4105 4.46985 22.4537 4.29492L22.4716 4.28882L22.4576 4.27673C22.4565 4.28296 22.4552 4.28894 22.4537 4.29492L22.0175 4.44458C22.0132 4.44312 22.009 4.44165 22.0047 4.44019C22.0073 4.43494 22.0096 4.42944 22.0116 4.42395L21.999 4.42822C22.0071 4.41211 22.0118 4.3949 22.0124 4.37671L21.5204 4.52515L21.5061 4.51782ZM21.9944 4.4364C21.9978 4.43774 22.0013 4.43896 22.0047 4.44019C22.0029 4.44385 22.0009 4.44739 21.9989 4.45093L21.9886 4.45447L21.9887 4.44482C21.9907 4.44202 21.9926 4.43921 21.9944 4.4364ZM21.9944 4.4364C21.9926 4.43567 21.9907 4.43506 21.9889 4.43433L21.9887 4.44482C21.9863 4.44812 21.9839 4.45129 21.9813 4.45447L21.9816 4.4342L21.999 4.42822C21.9976 4.43103 21.9961 4.43372 21.9944 4.4364ZM21.5061 4.51782C21.5041 4.52258 21.5018 4.5271 21.4994 4.53149L21.4955 4.53271L21.4979 4.51318L21.5061 4.51782Z" fill="black"/>
<path fill-rule="evenodd" clip-rule="evenodd" d="M19.6906 3.73502C19.7229 3.71781 19.739 3.71305 19.7753 3.70609C19.7843 3.70438 19.7898 3.70316 19.7957 3.70145C19.8186 3.69473 19.8384 3.68192 19.8647 3.65506C20.0345 3.48123 20.3073 3.28763 20.468 3.21817L20.4693 3.22122C20.4752 3.21842 20.4793 3.21976 20.4864 3.22708C20.4902 3.23087 20.5053 3.24954 20.5061 3.25052C20.538 3.28763 20.5729 3.29972 20.6297 3.27847C20.6654 3.26505 20.6833 3.23905 20.6904 3.20157C20.6924 3.19095 20.6931 3.18411 20.6945 3.16434C20.6964 3.1398 20.6985 3.13358 20.7026 3.13321L20.7035 3.13248C20.7329 3.12625 20.7617 3.12369 20.7941 3.12442L20.7946 3.10294C20.7612 3.10208 20.7312 3.10477 20.7007 3.11112C20.6972 3.11148 20.6943 3.11209 20.6917 3.11307C20.665 3.11905 20.6372 3.12808 20.6013 3.14176C20.5852 3.14786 20.5326 3.16886 20.501 3.18155L20.4931 3.18472L20.4764 3.19144C20.3154 3.25528 20.0271 3.45816 19.8494 3.64005C19.8255 3.66434 19.8088 3.6752 19.7897 3.6807C19.7846 3.68228 19.7797 3.68338 19.7712 3.68497C19.7331 3.69217 19.7151 3.69766 19.6806 3.71597L19.6906 3.73502ZM20.6761 3.13785C20.6786 3.12406 20.6831 3.11649 20.6917 3.11307L20.699 3.11148L20.7007 3.11112L20.7026 3.13321L20.6874 3.13565L20.6788 3.13724L20.6761 3.13785ZM20.4965 3.20658L20.5356 3.19107L20.5473 3.18643C20.6424 3.14871 20.6612 3.14127 20.6761 3.13785C20.6748 3.14456 20.6739 3.15274 20.6732 3.16263C20.6718 3.18143 20.6711 3.18778 20.6694 3.1973C20.6636 3.22769 20.6502 3.2471 20.6224 3.2576C20.5746 3.27555 20.5485 3.26651 20.5221 3.23575C20.5219 3.23551 20.506 3.21597 20.5015 3.21121C20.4998 3.20951 20.4981 3.20792 20.4965 3.20658ZM20.4965 3.20658C20.4853 3.1973 20.4738 3.19486 20.4605 3.20096L20.468 3.21817L20.4843 3.21146L20.4965 3.20658ZM24.3227 4.24454L24.3127 4.2482L24.3053 4.22806L24.3225 4.22171C24.3231 4.22904 24.3232 4.23673 24.3227 4.24454ZM24.241 4.43546C24.2736 4.39566 24.3037 4.33878 24.3162 4.28702C24.3198 4.27213 24.322 4.25797 24.3227 4.24454C24.7903 4.07132 25.0512 3.95987 25.3648 3.77847C25.5269 3.68472 25.6776 3.58341 25.8165 3.47305L25.8032 3.45621C25.6651 3.56595 25.5154 3.66666 25.3541 3.75992C25.0434 3.93961 24.7845 4.05045 24.3225 4.22171C24.3192 4.17813 24.2982 4.14408 24.2578 4.1243C24.6668 3.991 25.0493 3.81168 25.1958 3.66751L25.1808 3.65213C25.0339 3.79666 24.6408 3.97916 24.2247 4.11234C24.1023 4.15152 23.978 4.18643 23.8572 4.21488C23.8292 4.20133 23.7958 4.18973 23.7558 4.18057C23.4998 4.12222 23.1146 4.18399 22.879 4.3201C22.8473 4.31204 22.8158 4.30472 22.785 4.29813C22.8564 4.23429 22.894 4.15225 22.8648 4.07523L22.8448 4.08292C22.9039 4.23905 22.6419 4.42777 22.4172 4.38516L22.4133 4.4064C22.5373 4.42984 22.6721 4.387 22.7639 4.31571C22.8773 4.33914 23.0013 4.37369 23.1124 4.41263L23.1127 4.41409L23.114 4.41385L23.1154 4.41361C23.2458 4.45951 23.3579 4.51151 23.413 4.55838C23.4768 4.61258 23.5104 4.66068 23.5084 4.69742C23.5062 4.73783 23.4596 4.76883 23.3602 4.78653C23.2363 4.80863 23.1568 4.81412 23.0464 4.80203L22.9824 4.78983L22.9817 4.79361C22.9407 4.78751 22.895 4.77945 22.8416 4.76944C22.6897 4.66202 22.4565 4.55631 22.2157 4.4733L22.2088 4.49368C22.4459 4.57547 22.6763 4.67984 22.826 4.78482L22.8253 4.78824L22.8329 4.78971C22.8757 4.82022 22.9116 4.85074 22.9387 4.88077C23.0046 4.95365 22.9962 5.00199 22.924 5.02982C22.8528 5.05741 22.7263 5.06046 22.5811 5.03848C22.3082 4.9971 21.8551 4.76456 21.6251 4.55838L21.6108 4.57437C21.7498 4.69901 21.9678 4.83328 22.1805 4.92984C22.2329 4.98282 22.2817 5.06009 22.3035 5.1304C22.3239 5.19632 22.2975 5.22843 22.2373 5.22367C22.1564 5.21744 22.0966 5.2034 22.0187 5.16617L22.0156 5.17276C21.9782 5.12992 21.928 5.08902 21.8646 5.05435C21.6915 4.95951 21.466 4.76016 21.3611 4.61392L21.3437 4.62638C21.4505 4.7753 21.6784 4.97684 21.8543 5.07327C22.0533 5.18228 22.1143 5.34952 22.0536 5.43802C22 5.51615 21.8211 5.5264 21.6428 5.4202C21.4296 5.293 21.1833 4.88895 21.1503 4.60428L21.129 4.60672C21.1628 4.89786 21.4128 5.30802 21.6318 5.43863C21.6674 5.45987 21.7033 5.47659 21.7383 5.48929C21.7545 5.53421 21.7611 5.59 21.757 5.67752C21.7519 5.78714 21.6715 5.86112 21.5735 5.82401C21.4767 5.78751 21.4022 5.70609 21.3522 5.60501L21.333 5.61453C21.3851 5.72013 21.4633 5.80533 21.566 5.84415C21.5929 5.85428 21.6187 5.85721 21.6424 5.85416C21.7004 5.97733 21.7322 6.0679 21.7281 6.10074C21.722 6.15042 21.7092 6.16556 21.6639 6.15494L21.659 6.17594C21.7198 6.1901 21.742 6.16397 21.7494 6.10343C21.7541 6.06522 21.7226 5.97501 21.664 5.84964C21.676 5.8461 21.6873 5.84085 21.6979 5.83414C21.7794 5.94229 21.8391 6.01932 21.9128 6.10831C21.9348 6.13492 21.9563 6.16043 21.9771 6.18448C22.0544 6.27359 22.1202 6.34085 22.1717 6.38114L22.1849 6.36417C22.1347 6.32498 22.0698 6.25858 21.9933 6.17032C21.9726 6.14639 21.9512 6.12113 21.9293 6.09451C21.856 6.00589 21.7964 5.92911 21.7151 5.82144C21.7519 5.78983 21.7756 5.73856 21.7784 5.67862C21.7809 5.62576 21.7795 5.58365 21.7745 5.54825C21.9869 5.79434 22.486 6.25638 22.6346 6.34073L22.6451 6.32193C22.4931 6.23575 21.9605 5.74051 21.7664 5.50553L21.765 5.5015L21.7636 5.49784C21.8881 5.53617 21.9997 5.52188 22.0548 5.46939C22.1792 5.63248 22.5673 5.86148 22.7674 5.89993L22.7714 5.87882C22.5748 5.8411 22.187 5.6116 22.0693 5.45291L22.0713 5.45011C22.1076 5.39713 22.1062 5.32132 22.0656 5.24466C22.2071 5.36331 22.4449 5.53824 22.6651 5.69168L22.6773 5.67398C22.442 5.51004 22.186 5.32108 22.0508 5.20377C22.1128 5.22891 22.1671 5.2399 22.2356 5.24515C22.2674 5.24759 22.2926 5.24076 22.3092 5.22586C22.4589 5.38199 22.8437 5.69632 22.9966 5.77213L23.0061 5.75284C22.8551 5.67801 22.4692 5.36258 22.3226 5.20889C22.3338 5.18826 22.335 5.15933 22.324 5.12393C22.3055 5.06449 22.269 5.00076 22.2269 4.94937C22.3546 5.0043 22.4779 5.04459 22.5779 5.05972C22.6079 5.06424 22.6373 5.06778 22.6656 5.07022L22.6641 5.07193C22.8523 5.23917 23.2011 5.46793 23.4058 5.56583L23.415 5.54642C23.2189 5.45267 22.888 5.23685 22.6975 5.07266C22.7544 5.07608 22.8063 5.07486 22.8504 5.06912C22.9086 5.11649 23.0169 5.18277 23.1722 5.26895L23.2349 5.30338C23.2854 5.33097 23.4036 5.3942 23.4831 5.43668L23.5599 5.47782L23.5701 5.45889L23.504 5.42349C23.4249 5.38126 23.2979 5.31339 23.2451 5.28458L23.1826 5.25015C23.0413 5.17166 22.9392 5.10977 22.8793 5.06449C22.8988 5.0607 22.9164 5.05582 22.9317 5.04996C22.9476 5.04386 22.961 5.03653 22.9717 5.02835C23.3683 5.27909 23.6208 5.41153 23.8791 5.47159L23.8839 5.45059C23.6298 5.39151 23.3797 5.26065 22.9878 5.01309C23.0071 4.98978 23.0102 4.9606 22.9958 4.92716C23.0409 4.94522 23.0939 4.96744 23.1613 4.99625L23.3821 5.09134L23.4253 5.1099C23.6726 5.21549 23.8279 5.27579 23.9344 5.30326L23.9397 5.28238C23.8346 5.2554 23.6799 5.19534 23.4337 5.09L23.3906 5.07157L23.1697 4.97647C23.0897 4.94229 23.0298 4.91739 22.9796 4.89762C22.9727 4.88748 22.9643 4.87699 22.9546 4.86624C22.9343 4.84378 22.9094 4.82108 22.8806 4.79849C22.9441 4.80997 22.9966 4.81827 23.0435 4.8234C23.4528 4.90323 23.8478 5.00833 23.9444 5.09134L23.9584 5.07511C23.8684 4.99771 23.5444 4.90579 23.1812 4.82938C23.2369 4.82755 23.2934 4.82022 23.3639 4.80765C23.4228 4.79715 23.4659 4.78153 23.4934 4.7609L23.4936 4.76248C23.5087 4.7609 23.5231 4.75907 23.5377 4.75711L23.5414 4.75662C23.7267 4.83682 24.0245 4.85892 24.1682 4.78983C24.2134 4.88016 24.1433 5.01602 24.0627 5.04202L24.0692 5.06253C24.1136 5.04825 24.1546 5.00614 24.1794 4.95499C24.3902 5.0043 24.864 5.01383 25.0938 4.96329L25.0894 4.94156C24.8642 4.99112 24.3982 4.98209 24.1883 4.93424C24.1975 4.91019 24.203 4.88468 24.2038 4.85953C24.5187 4.88809 24.8979 4.86441 25.0913 4.77176L25.0823 4.75162C24.8928 4.84232 24.5151 4.86576 24.2031 4.83719C24.2013 4.81717 24.1962 4.79776 24.187 4.7797L24.194 4.7753C24.2184 4.75919 24.2383 4.74124 24.2541 4.7222C24.6418 4.66641 24.9277 4.57633 25.1886 4.44547C25.243 4.41825 25.3547 4.35526 25.4482 4.30252L25.4579 4.29715L25.4628 4.29434C25.5245 4.25955 25.5761 4.2305 25.5943 4.22122C25.6284 4.20389 25.6602 4.18924 25.6915 4.17655L25.6835 4.15665C25.6516 4.16959 25.6192 4.18448 25.5847 4.20194C25.5658 4.21158 25.5125 4.24161 25.4492 4.27738C25.3535 4.33133 25.2351 4.3981 25.179 4.4263C24.9247 4.55374 24.6465 4.64237 24.2714 4.69791C24.2888 4.66947 24.2976 4.63931 24.298 4.60965C24.9499 4.44571 25.5144 4.20133 25.894 3.88895L25.8804 3.87235C25.5045 4.1818 24.9441 4.42459 24.2968 4.5878C24.2908 4.54056 24.2632 4.49576 24.2154 4.46256C24.5596 4.38944 24.7859 4.28836 25.2223 4.04471L25.2508 4.02872C25.3745 3.95963 25.4413 3.92325 25.5183 3.8837L25.5086 3.86453C25.4312 3.90421 25.3643 3.94071 25.2404 4.00992L25.2119 4.02591C24.7904 4.26126 24.5663 4.36283 24.241 4.43546ZM24.1981 4.47684L24.1923 4.47318L24.2035 4.45487L24.2045 4.45548L24.2143 4.46182L24.2101 4.44217L24.241 4.43546C24.2325 4.44583 24.2239 4.45487 24.2154 4.46256L24.2094 4.46768L24.1981 4.47684ZM23.5847 4.75076C23.83 4.71231 24.0129 4.62479 24.1981 4.47684C24.305 4.54691 24.3056 4.67581 24.1823 4.75736C24.0661 4.83402 23.7777 4.82181 23.5847 4.75076ZM23.5847 4.75076C23.5727 4.74637 23.561 4.74173 23.5499 4.73685L23.5414 4.75662L23.5447 4.75626L23.5467 4.75601C23.5595 4.75443 23.5724 4.75272 23.5847 4.75076ZM24.2968 4.5878L24.2807 4.59183L24.2859 4.6127L24.298 4.60965C24.2981 4.60233 24.2977 4.595 24.2968 4.5878ZM24.2714 4.69791L24.243 4.70206L24.246 4.7233L24.2541 4.7222C24.2606 4.71427 24.2664 4.70609 24.2714 4.69791ZM24.2031 4.83719C24.2038 4.84451 24.204 4.85208 24.2038 4.85953L24.192 4.85843L24.1939 4.83634L24.2031 4.83719ZM24.1883 4.93424L24.1762 4.93143L24.1713 4.95304L24.1794 4.95499C24.1826 4.94827 24.1856 4.94132 24.1883 4.93424ZM24.187 4.7797C24.1811 4.78324 24.1748 4.78665 24.1682 4.78983L24.1645 4.78311L24.183 4.77225L24.187 4.7797ZM23.5159 4.73831L23.4914 4.741L23.4934 4.7609C23.5027 4.75394 23.5101 4.74637 23.5159 4.73831ZM23.4674 4.57962C23.5097 4.62308 23.5317 4.663 23.5298 4.69864C23.529 4.71317 23.5243 4.72635 23.5159 4.73831C23.7963 4.70584 23.9935 4.61527 24.196 4.45096C24.2353 4.41886 24.28 4.34586 24.2954 4.28201C24.3135 4.20682 24.2926 4.15433 24.2252 4.1348L24.2578 4.1243C24.2479 4.11942 24.2369 4.11539 24.2247 4.11234L24.2195 4.13321L24.2252 4.1348C24.1122 4.17081 23.9977 4.20316 23.8859 4.23013C23.8773 4.22476 23.8673 4.21976 23.8572 4.21488L23.8621 4.23575L23.8859 4.23013C23.9254 4.25492 23.9488 4.28519 23.9565 4.31986C23.9679 4.37125 23.9425 4.42801 23.896 4.47196C23.8164 4.54715 23.645 4.59134 23.4674 4.57962ZM23.159 4.40653C23.276 4.44986 23.3749 4.49771 23.4269 4.54202L23.4404 4.55582L23.4383 4.57718C23.448 4.57816 23.4577 4.57901 23.4674 4.57962C23.4599 4.57193 23.4517 4.564 23.4429 4.55606C23.6241 4.57376 23.8029 4.53043 23.8813 4.45633C23.9229 4.41702 23.9451 4.36734 23.9355 4.3245C23.9237 4.27103 23.8647 4.22757 23.751 4.20157C23.5073 4.14603 23.1415 4.20206 22.9091 4.32791L22.879 4.3201L22.8735 4.32327L22.8844 4.34183C22.8924 4.33707 22.9007 4.33243 22.9091 4.32791C22.9792 4.34647 23.0497 4.36795 23.1158 4.39102L23.1091 4.39212L23.1124 4.41263L23.1154 4.41361C23.129 4.41129 23.1436 4.40885 23.159 4.40653ZM23.159 4.40653C23.3317 4.37979 23.5999 4.35379 23.7389 4.35379V4.33158C23.5875 4.33158 23.2853 4.36209 23.1158 4.39102C23.1304 4.39615 23.1448 4.40128 23.159 4.40653ZM23.1812 4.82938C23.137 4.83084 23.0934 4.82889 23.0435 4.8234L22.9785 4.81095L22.9817 4.79361C23.0046 4.79703 23.026 4.79984 23.0464 4.80203C23.0917 4.81082 23.1367 4.81998 23.1812 4.82938ZM22.9796 4.89762L22.9717 4.91763L22.9958 4.92716C22.9918 4.91763 22.9864 4.90775 22.9796 4.89762ZM22.9878 5.01309C22.9833 5.01847 22.978 5.02359 22.9717 5.02835L22.965 5.02408L22.9764 5.00589L22.9878 5.01309ZM22.8793 5.06449L22.8616 5.05057L22.848 5.06717L22.8504 5.06912C22.8604 5.06778 22.8701 5.06632 22.8793 5.06449ZM22.6975 5.07266C22.687 5.07205 22.6764 5.0712 22.6656 5.07022L22.6783 5.05582L22.6975 5.07266ZM22.3226 5.20889L22.3167 5.20267L22.3011 5.21744L22.3092 5.22586C22.3146 5.22098 22.3191 5.21536 22.3226 5.20889ZM22.0356 5.19742L22.0508 5.20377C22.0402 5.19461 22.0304 5.18595 22.0213 5.17764L22.0205 5.1785L22.0156 5.17276L22.0095 5.18558L22.0127 5.18717L22.0069 5.19351C22.0238 5.20902 22.0435 5.22611 22.0656 5.24466C22.0573 5.22891 22.0473 5.21305 22.0356 5.19742ZM22.0356 5.19742C22.0281 5.19425 22.0205 5.19083 22.0127 5.18717L22.0205 5.1785C22.0258 5.18472 22.0309 5.19107 22.0356 5.19742ZM22.0693 5.45291C22.065 5.45877 22.0602 5.46427 22.0548 5.46939L22.0456 5.4567L22.0632 5.44449L22.0693 5.45291ZM21.7664 5.50553C21.7699 5.51859 21.7723 5.53299 21.7745 5.54825C21.7658 5.53824 21.7576 5.52847 21.7499 5.5192L21.7664 5.50553ZM21.7151 5.82144L21.7087 5.8129L21.6917 5.82584L21.6979 5.83414C21.7039 5.83035 21.7097 5.82608 21.7151 5.82144ZM21.664 5.84964L21.6567 5.83426L21.6374 5.84354L21.6424 5.85416C21.6498 5.85318 21.657 5.85172 21.664 5.84964ZM21.7636 5.49784C21.7552 5.49527 21.7468 5.49234 21.7383 5.48929L21.7372 5.48624L21.7572 5.47867C21.7595 5.4849 21.7617 5.49124 21.7636 5.49784ZM22.2269 4.94937L22.2073 4.94119C22.1983 4.93753 22.1893 4.93387 22.1805 4.92984L22.1957 4.91471C22.2063 4.92545 22.2167 4.93704 22.2269 4.94937ZM22.8806 4.79849C22.8683 4.78885 22.8553 4.77909 22.8416 4.76944L22.8293 4.76712L22.826 4.78482L22.8329 4.78971L22.8806 4.79849ZM22.7639 4.31571C22.7712 4.30997 22.7782 4.30411 22.785 4.29813L22.7587 4.29263L22.7544 4.31375L22.7639 4.31571ZM21.4558 4.09781C21.366 4.12332 21.3156 4.1492 21.2211 4.20999L21.2324 4.22891C21.3253 4.1691 21.3741 4.14408 21.4615 4.1193L21.4558 4.09781ZM21.8736 4.54166C22.1203 4.68167 22.4519 4.83902 22.6821 4.92264L22.6894 4.9025C22.4604 4.81925 22.1298 4.66239 21.8841 4.52298L21.8736 4.54166ZM22.7705 4.55387C22.5925 4.51712 22.4388 4.49307 22.2838 4.47965L22.2857 4.45816C22.4416 4.47171 22.596 4.49588 22.7748 4.53275C22.8465 4.54764 22.9206 4.564 23.0154 4.58597L23.2629 4.64371L23.2581 4.66471L23.0106 4.60697C22.9159 4.58499 22.842 4.56864 22.7705 4.55387ZM21.2357 4.62833C21.2793 4.75968 21.5876 5.14676 21.7331 5.23856L21.7445 5.22037C21.6032 5.13126 21.298 4.7482 21.2561 4.62149L21.2357 4.62833ZM21.5065 5.56009C21.4585 5.44254 21.1603 4.99735 21.0007 4.78751L21.0177 4.77445C21.1785 4.98587 21.4773 5.43204 21.5264 5.55191L21.5065 5.56009ZM21.4313 4.59805C21.5308 4.71121 21.8568 4.96012 22.0053 5.02017L22.0133 5.00015C21.8682 4.94156 21.5448 4.69461 21.4474 4.58377L21.4313 4.59805ZM20.8257 3.39176C20.7657 3.42288 20.722 3.46854 20.6859 3.53201L20.7043 3.54337C20.7385 3.48331 20.7793 3.44071 20.8353 3.41165L20.8257 3.39176ZM19.8295 4.09439C19.8236 4.01334 19.832 3.90799 19.8539 3.83231L19.8745 3.83829C19.8533 3.91141 19.8452 4.01419 19.8509 4.09281L19.8295 4.09439ZM19.8442 4.22769C19.8266 4.30277 19.8396 4.47733 19.8636 4.57388L19.8844 4.56876C19.8611 4.47513 19.8484 4.30374 19.8651 4.23258L19.8442 4.22769ZM19.92 4.80521C19.9101 4.78934 19.9025 4.77445 19.8977 4.76053L19.9178 4.75296C19.9221 4.76517 19.9289 4.7786 19.938 4.79312C19.9493 4.81131 19.9641 4.8306 19.9818 4.85123C19.9965 4.86832 20.0084 4.88114 20.0312 4.90494L20.0161 4.92069C19.993 4.89652 19.9808 4.88346 19.9658 4.866C19.9474 4.84464 19.9321 4.82437 19.92 4.80521ZM20.0034 4.35599C19.9935 4.48075 20.062 4.71756 20.1316 4.79776C20.1469 4.93057 20.2389 5.12064 20.3688 5.25162L20.384 5.23648C20.2575 5.1088 20.1675 4.92313 20.1503 4.78934C20.0822 4.70792 20.0153 4.47696 20.0247 4.3577L20.0034 4.35599ZM19.9745 4.21695C19.9634 4.13809 19.9608 4.05911 19.9697 4.00882L19.9908 4.01261C19.9823 4.06009 19.9849 4.13724 19.9957 4.2139L19.9745 4.21695ZM20.1587 3.5192C20.116 3.62699 20.0922 3.85501 20.1049 3.944C20.1073 3.96097 20.107 3.96536 20.0995 4.0369C20.0858 4.16751 20.0912 4.26651 20.1343 4.39444L20.1546 4.38748C20.1126 4.26297 20.1074 4.1669 20.1208 4.03922C20.1286 3.96439 20.1289 3.96073 20.1261 3.94095C20.1139 3.8555 20.1373 3.63126 20.1786 3.52713L20.1587 3.5192ZM20.3083 4.34537C20.2625 4.1918 20.2609 3.82303 20.3081 3.62796L20.3289 3.63309C20.2826 3.82462 20.2842 4.18949 20.3288 4.33914L20.3083 4.34537ZM20.2499 4.40323C20.2241 4.51773 20.2268 4.65042 20.26 4.75015L20.2803 4.74332C20.2485 4.64749 20.2458 4.51883 20.2708 4.40799L20.2499 4.40323ZM20.639 4.22745C20.5105 4.08402 20.4328 3.87015 20.438 3.70316L20.4595 3.70389C20.4543 3.86527 20.5302 4.07376 20.6549 4.21317L20.639 4.22745ZM20.4043 4.23905C20.3895 4.42435 20.4001 4.59451 20.4338 4.6918C20.4425 4.71683 20.4486 4.74735 20.4572 4.80326L20.4656 4.8577C20.469 4.87906 20.472 4.89713 20.4754 4.91446C20.4915 4.99881 20.5128 5.06095 20.5465 5.10892L20.564 5.09647C20.5324 5.05155 20.5121 4.99198 20.4964 4.91043C20.4931 4.89334 20.4901 4.87552 20.4868 4.85428L20.4784 4.79996C20.4696 4.74283 20.4633 4.71146 20.4541 4.68472C20.4215 4.59085 20.4111 4.42337 20.4257 4.24076L20.4043 4.23905ZM20.5769 4.54117L20.5689 4.51065L20.5896 4.50516L20.5977 4.5358C20.6088 4.57889 20.6154 4.61136 20.6184 4.64383C20.6228 4.69058 20.6186 4.73111 20.6036 4.76566L20.584 4.75711C20.5973 4.72623 20.6012 4.68936 20.5971 4.64578C20.5942 4.61478 20.5878 4.58328 20.5769 4.54117ZM20.6946 4.36966C20.7303 4.48685 20.7525 4.63016 20.7473 4.69242L20.7687 4.69412C20.7741 4.62882 20.7515 4.48294 20.7151 4.36344L20.6946 4.36966ZM20.8454 5.31754C20.8013 5.2399 20.7613 5.116 20.7522 5.0159L20.7735 5.01395C20.7823 5.11087 20.8214 5.23184 20.864 5.30692L20.8454 5.31754ZM20.5932 5.31082C20.6337 5.43277 20.7032 5.55863 20.766 5.60831L20.7792 5.59146C20.7205 5.54495 20.6528 5.42227 20.6136 5.30399L20.5932 5.31082ZM21.1876 5.65213C21.1447 5.52225 21.1165 5.45914 21.0488 5.36246L21.0663 5.35013C21.1355 5.44876 21.1644 5.51358 21.2079 5.64542L21.1876 5.65213Z" fill="black"/>
<path fill-rule="evenodd" clip-rule="evenodd" d="M20.2642 5.39111C20.2776 5.39258 20.2859 5.39307 20.3089 5.39429C20.3623 5.39697 20.381 5.40234 20.4051 5.42786C20.4209 5.44458 20.4366 5.46997 20.4536 5.50696C20.5129 5.63586 20.6749 5.83289 20.7697 5.89441C20.8951 6.11523 20.9509 6.40698 20.9119 6.56348C20.9008 6.49451 20.8618 6.44141 20.8016 6.39795C20.7783 6.3811 20.7633 6.37256 20.7228 6.35095C20.6691 6.39795 20.5908 6.4519 20.5513 6.46033L20.5558 6.48145C20.6004 6.47192 20.6822 6.41541 20.7257 6.36768C20.7451 6.38477 20.758 6.3938 20.7722 6.40369L20.7735 6.40454L20.7891 6.41541C20.8451 6.45581 20.8807 6.50427 20.8908 6.56689L20.9119 6.56348L20.9104 6.56885L20.9311 6.57446C20.9727 6.42004 20.9224 6.1366 20.8039 5.91235C20.9499 5.97961 21.0433 6.05542 21.0616 6.16235L21.0819 6.16492L21.0827 6.15869L21.0924 6.14136C21.1411 6.03162 21.1596 5.95618 21.141 5.8783L21.1429 5.88049L21.1576 5.89819C21.2126 5.96436 21.2529 6.01294 21.2826 6.04956L21.2806 6.0498C21.2835 6.07031 21.2862 6.10144 21.2894 6.14905L21.2997 6.31055C21.3074 6.42358 21.3151 6.49878 21.3256 6.54785L21.3466 6.54333C21.3364 6.49561 21.3287 6.42102 21.3211 6.30908L21.3108 6.14758C21.3088 6.1189 21.3071 6.09595 21.3053 6.07776C21.351 6.13513 21.3629 6.15515 21.3691 6.17688C21.3709 6.18311 21.3722 6.18958 21.3737 6.19727L21.3757 6.20654C21.3935 6.29211 21.4622 6.4093 21.5312 6.48462L21.547 6.47009C21.4804 6.39734 21.4136 6.28345 21.3966 6.20215L21.3944 6.19128L21.3942 6.18994C21.3925 6.18188 21.3912 6.17493 21.3892 6.16821C21.3785 6.13062 21.3512 6.09778 21.1776 5.88879L21.1593 5.86682C21.1447 5.84912 21.1315 5.83301 21.119 5.81738L21.1009 5.82861C21.1436 5.92163 21.1316 5.9989 21.0751 6.12732C21.0433 6.0249 20.9457 5.95239 20.8012 5.88745C20.7177 5.84998 20.5355 5.63354 20.4731 5.49792C20.4552 5.45898 20.4383 5.43176 20.4206 5.41309C20.3918 5.38245 20.3684 5.37573 20.31 5.3728C20.2874 5.37158 20.2793 5.37109 20.2665 5.36975L20.2642 5.39111ZM21.3053 6.07776C21.3042 6.06543 21.303 6.0553 21.3018 6.04675L21.2826 6.04956C21.291 6.05981 21.2985 6.06921 21.3053 6.07776ZM20.8039 5.91235L20.7924 5.9071C20.7854 5.90393 20.7778 5.89966 20.7697 5.89441L20.7883 5.88379C20.7936 5.89319 20.7988 5.90271 20.8039 5.91235ZM20.4849 6.04565L20.5063 6.0448C20.5032 5.96362 20.4729 5.82556 20.4348 5.71033L20.4145 5.71716C20.452 5.83057 20.4818 5.9668 20.4849 6.04565ZM20.7393 6.27649C20.7359 6.21289 20.696 6.04614 20.6562 5.93518L20.6764 5.92786C20.7168 6.04065 20.7572 6.20935 20.7607 6.27539L20.7393 6.27649ZM21.1136 6.23779C21.1447 6.31299 21.1644 6.43164 21.1581 6.50244L21.1794 6.50427C21.186 6.43005 21.1658 6.30786 21.1334 6.22949L21.1136 6.23779Z" fill="black"/>
</g>
</svg>
